%TF.GenerationSoftware,KiCad,Pcbnew,(5.1.6-0-10_14)*%
%TF.CreationDate,2021-04-04T14:44:52-05:00*%
%TF.ProjectId,preamp_controller1,70726561-6d70-45f6-936f-6e74726f6c6c,Rev. 01*%
%TF.SameCoordinates,Original*%
%TF.FileFunction,Paste,Bot*%
%TF.FilePolarity,Positive*%
%FSLAX46Y46*%
G04 Gerber Fmt 4.6, Leading zero omitted, Abs format (unit mm)*
G04 Created by KiCad (PCBNEW (5.1.6-0-10_14)) date 2021-04-04 14:44:52*
%MOMM*%
%LPD*%
G01*
G04 APERTURE LIST*
G04 APERTURE END LIST*
%TO.C,C26*%
G36*
G01*
X129372000Y-625000D02*
X129372000Y625000D01*
G75*
G02*
X129622000Y875000I250000J0D01*
G01*
X130547000Y875000D01*
G75*
G02*
X130797000Y625000I0J-250000D01*
G01*
X130797000Y-625000D01*
G75*
G02*
X130547000Y-875000I-250000J0D01*
G01*
X129622000Y-875000D01*
G75*
G02*
X129372000Y-625000I0J250000D01*
G01*
G37*
G36*
G01*
X132347000Y-625000D02*
X132347000Y625000D01*
G75*
G02*
X132597000Y875000I250000J0D01*
G01*
X133522000Y875000D01*
G75*
G02*
X133772000Y625000I0J-250000D01*
G01*
X133772000Y-625000D01*
G75*
G02*
X133522000Y-875000I-250000J0D01*
G01*
X132597000Y-875000D01*
G75*
G02*
X132347000Y-625000I0J250000D01*
G01*
G37*
%TD*%
%TO.C,C27*%
G36*
G01*
X106055000Y-9411000D02*
X107305000Y-9411000D01*
G75*
G02*
X107555000Y-9661000I0J-250000D01*
G01*
X107555000Y-10586000D01*
G75*
G02*
X107305000Y-10836000I-250000J0D01*
G01*
X106055000Y-10836000D01*
G75*
G02*
X105805000Y-10586000I0J250000D01*
G01*
X105805000Y-9661000D01*
G75*
G02*
X106055000Y-9411000I250000J0D01*
G01*
G37*
G36*
G01*
X106055000Y-6436000D02*
X107305000Y-6436000D01*
G75*
G02*
X107555000Y-6686000I0J-250000D01*
G01*
X107555000Y-7611000D01*
G75*
G02*
X107305000Y-7861000I-250000J0D01*
G01*
X106055000Y-7861000D01*
G75*
G02*
X105805000Y-7611000I0J250000D01*
G01*
X105805000Y-6686000D01*
G75*
G02*
X106055000Y-6436000I250000J0D01*
G01*
G37*
%TD*%
%TO.C,C35*%
G36*
G01*
X129553000Y-8499000D02*
X129553000Y-7249000D01*
G75*
G02*
X129803000Y-6999000I250000J0D01*
G01*
X130728000Y-6999000D01*
G75*
G02*
X130978000Y-7249000I0J-250000D01*
G01*
X130978000Y-8499000D01*
G75*
G02*
X130728000Y-8749000I-250000J0D01*
G01*
X129803000Y-8749000D01*
G75*
G02*
X129553000Y-8499000I0J250000D01*
G01*
G37*
G36*
G01*
X126578000Y-8499000D02*
X126578000Y-7249000D01*
G75*
G02*
X126828000Y-6999000I250000J0D01*
G01*
X127753000Y-6999000D01*
G75*
G02*
X128003000Y-7249000I0J-250000D01*
G01*
X128003000Y-8499000D01*
G75*
G02*
X127753000Y-8749000I-250000J0D01*
G01*
X126828000Y-8749000D01*
G75*
G02*
X126578000Y-8499000I0J250000D01*
G01*
G37*
%TD*%
%TO.C,C36*%
G36*
G01*
X100975000Y-6436000D02*
X102225000Y-6436000D01*
G75*
G02*
X102475000Y-6686000I0J-250000D01*
G01*
X102475000Y-7611000D01*
G75*
G02*
X102225000Y-7861000I-250000J0D01*
G01*
X100975000Y-7861000D01*
G75*
G02*
X100725000Y-7611000I0J250000D01*
G01*
X100725000Y-6686000D01*
G75*
G02*
X100975000Y-6436000I250000J0D01*
G01*
G37*
G36*
G01*
X100975000Y-9411000D02*
X102225000Y-9411000D01*
G75*
G02*
X102475000Y-9661000I0J-250000D01*
G01*
X102475000Y-10586000D01*
G75*
G02*
X102225000Y-10836000I-250000J0D01*
G01*
X100975000Y-10836000D01*
G75*
G02*
X100725000Y-10586000I0J250000D01*
G01*
X100725000Y-9661000D01*
G75*
G02*
X100975000Y-9411000I250000J0D01*
G01*
G37*
%TD*%
M02*
