M48
; DRILL file {KiCad (5.1.6-0-10_14)} date Sunday, April 04, 2021 at 02:44:00 PM
; FORMAT={-:-/ absolute / inch / decimal}
; #@! TF.CreationDate,2021-04-04T14:44:00-05:00
; #@! TF.GenerationSoftware,Kicad,Pcbnew,(5.1.6-0-10_14)
; #@! TF.FileFunction,Plated,1,4,PTH
FMAT,2
INCH
T1C0.0157
T2C0.0315
T3C0.0394
T4C0.0433
T5C0.0472
T6C0.0492
T7C0.0512
T8C0.0531
T9C0.0551
T10C0.0709
%
G90
G05
T1
X-6.86Y2.03
X-6.85Y-0.17
X-6.81Y2.4
X-6.81Y-0.26
X-6.76Y-0.36
X-6.48Y0.95
X-6.48Y-0.36
X-6.41Y0.07
X-6.41Y-0.46
X-6.37Y-0.39
X-6.36Y-0.32
X-6.35Y0.04
X-6.3Y1.85
X-6.29Y2.4
X-6.29Y-0.16
X-6.22Y-0.26
X-6.2Y1.97
X-6.09Y0.5
X-6.09Y-1.06
X-6.05Y1.745
X-5.95Y0.34
X-5.89Y2.15
X-5.8886Y2.3486
X-5.78Y0.8
X-5.78Y-0.09
X-5.74Y1.75
X-5.66Y2.39
X-5.66Y1.01
X-5.64Y-0.82
X-5.55Y2.16
X-5.55Y0.94
X-5.46Y-1.78
X-5.32Y2.24
X-5.32Y2.01
X-5.32Y1.16
X-5.32Y0.57
X-5.32Y-0.92
X-5.32Y-1.44
X-5.28Y-1.86
X-5.23Y-1.44
X-5.18Y-1.86
X-5.075Y-1.375
X-5.035Y2.235
X-4.97Y-1.79
X-4.78Y-0.38
X-4.78Y-1.01
X-4.72Y-0.15
X-4.71Y2.38
X-4.7Y0.78
X-4.66Y-0.69
X-4.6Y-1.71
X-4.53Y0.15
X-4.29Y2.11
X-4.29Y1.82
X-4.19Y-2.15
X-4.19Y-2.22
X-4.19Y-2.29
X-4.19Y-2.37
X-4.14Y2.11
X-4.12Y1.82
X-3.92Y0.15
X-3.91Y-0.15
X-3.9Y0.78
X-3.89Y-0.6
X-3.34Y0.14
X-3.34Y0.07
X-3.34Y-0.01
X-3.29Y0.565
X-2.98Y0.56
X-2.98Y0.34
X-2.98Y0.1
X-2.51Y0.57
X-2.5Y0.34
X-2.5Y0.18
X-2.235Y0.545
X-0.96Y-2.42
X0.26Y1.82
X0.45Y-0.27
X1.04Y-0.36
X1.19Y-0.27
X1.19Y-0.36
X1.29Y-0.05
X1.49Y0.32
X1.49Y0.025
X1.63Y-0.13
X1.67Y-0.09
X1.73Y1.87
X1.75Y0.32
X1.75Y0.02
X2.06Y0.02
X2.07Y0.32
X2.31Y0.53
X2.39Y0.03
X2.4Y0.32
X2.49Y-0.8
X2.49Y-1.0
X2.53Y-0.17
X2.64Y0.53
X2.64Y-0.17
X2.67Y0.91
X2.67Y-0.91
X2.68Y0.47
X2.75Y0.23
X2.75Y0.16
X2.75Y-0.17
X2.76Y0.91
X2.76Y-0.91
X2.7912Y1.92
X2.81Y0.78
X2.81Y0.48
X2.81Y-0.79
X2.85Y0.91
X2.85Y0.12
X2.85Y-0.91
X2.89Y0.82
X2.89Y-0.39
X2.89Y-0.79
X2.92Y0.23
X2.94Y0.91
X2.94Y-0.91
X3.0Y-0.17
X3.03Y0.91
X3.03Y0.23
X3.03Y-0.91
X3.12Y-0.97
X3.12Y-1.92
X3.13Y0.23
X3.18Y-1.02
X3.18Y-1.95
X3.19Y2.35
X3.19Y1.96
X3.19Y-0.39
X3.24Y0.67
X3.25Y1.02
X3.25Y-0.83
X3.29Y0.48
X3.3Y-0.49
X3.39Y0.48
X3.4Y-0.49
X3.48Y0.02
X3.48Y-0.06
X3.58Y-0.02
X3.81Y1.82
X3.85Y1.87
X3.9Y-0.97
X3.95Y1.92
X4.0Y-0.46
X4.1Y-0.96
X4.16Y0.31
X4.2Y-0.46
X4.2Y-0.66
X4.3Y-0.07
X4.32Y2.02
X4.32Y0.76
X4.42Y2.02
X4.42Y0.76
X4.42Y-0.81
X4.42Y-2.3
X4.46Y-0.48
X4.51Y-0.81
X4.5197Y2.4697
X4.52Y0.37
X4.52Y-0.72
X4.52Y-2.3
X4.57Y-0.66
X4.6Y-2.46
X4.62Y0.31
X4.6757Y-0.9557
X4.72Y-0.6
X4.77Y-1.02
X4.82Y-0.53
X4.89Y-0.26
X5.02Y0.37
X5.02Y-0.04
X5.13Y1.96
X5.2Y2.66
X5.2Y2.5
X5.2Y-0.31
X5.35Y-0.48
X5.45Y-0.72
X5.64Y0.0
X5.64Y-0.53
X5.67Y-1.52
X5.67Y-1.74
T2
X2.9216Y-0.55
X3.1184Y-0.55
X3.5Y2.35
X3.5Y2.05
X3.7Y2.35
X3.7Y2.05
X3.9Y2.35
X3.9Y2.05
X4.1Y2.35
X4.1Y2.05
X4.2Y2.35
X4.2Y2.05
X-3.725Y-1.825
X-3.725Y-1.925
X-3.725Y-2.025
X-3.725Y-2.125
X-3.725Y-2.225
X-3.425Y-1.825
X-3.425Y-1.925
X-3.425Y-2.025
X-3.425Y-2.125
X-3.425Y-2.225
X1.0Y2.35
X1.0Y2.05
X1.2Y2.35
X1.2Y2.05
X1.4Y2.35
X1.4Y2.05
X1.6Y2.35
X1.6Y2.05
X1.7Y2.35
X1.7Y2.05
X1.65Y0.7
X1.65Y0.5622
X-1.2Y2.35
X-0.8Y2.35
X-3.675Y0.34
X-3.675Y0.2022
X5.8Y0.3
X5.8Y0.0
X6.4Y0.3
X6.4Y0.0
X6.6Y0.3
X6.6Y0.0
X6.8Y0.3
X6.8Y0.0
X-3.685Y-0.1222
X-3.685Y-0.26
X2.25Y-0.5622
X2.25Y-0.7
X-4.97Y0.34
X-4.97Y0.2022
X2.25Y2.35
X2.25Y2.05
X2.45Y2.35
X2.45Y2.05
X2.65Y2.35
X2.65Y2.05
X2.85Y2.35
X2.85Y2.05
X2.95Y2.35
X2.95Y2.05
X-0.25Y-2.05
X-0.25Y-2.35
X-0.05Y-2.05
X-0.05Y-2.35
X0.15Y-2.05
X0.15Y-2.35
X0.35Y-2.05
X0.35Y-2.35
X0.45Y-2.05
X0.45Y-2.35
X3.425Y0.8
X3.425Y0.6622
X1.0Y-2.05
X1.0Y-2.35
X1.2Y-2.05
X1.2Y-2.35
X1.4Y-2.05
X1.4Y-2.35
X1.6Y-2.05
X1.6Y-2.35
X1.7Y-2.05
X1.7Y-2.35
X4.75Y2.35
X4.75Y2.05
X4.95Y2.35
X4.95Y2.05
X5.15Y2.35
X5.15Y2.05
X5.35Y2.35
X5.35Y2.05
X5.45Y2.35
X5.45Y2.05
X3.5Y-2.05
X3.5Y-2.35
X3.7Y-2.05
X3.7Y-2.35
X3.9Y-2.05
X3.9Y-2.35
X4.1Y-2.05
X4.1Y-2.35
X4.2Y-2.05
X4.2Y-2.35
X4.75Y-2.05
X4.75Y-2.35
X4.95Y-2.05
X4.95Y-2.35
X5.15Y-2.05
X5.15Y-2.35
X5.35Y-2.05
X5.35Y-2.35
X5.45Y-2.05
X5.45Y-2.35
X-5.32Y-1.21
X-5.1822Y-1.21
X4.52Y0.15
X4.52Y-0.15
X4.62Y0.15
X4.62Y-0.15
X4.72Y0.15
X4.72Y-0.15
X4.82Y0.15
X4.82Y-0.15
X4.92Y0.15
X4.92Y-0.15
X5.02Y0.15
X5.02Y-0.15
X5.12Y0.15
X5.12Y-0.15
X5.22Y0.15
X5.22Y-0.15
X-3.75Y2.25
X-3.75Y2.15
X-3.75Y2.05
X-3.75Y1.95
X-3.75Y1.85
X-3.45Y2.25
X-3.45Y2.15
X-3.45Y2.05
X-3.45Y1.95
X-3.45Y1.85
X4.07Y0.5
X4.47Y0.5
X3.6Y0.15
X3.6Y-0.15
X3.7Y0.15
X3.7Y-0.15
X3.8Y0.15
X3.8Y-0.15
X3.9Y0.15
X3.9Y-0.15
X4.0Y0.15
X4.0Y-0.15
X4.1Y0.15
X4.1Y-0.15
X4.2Y0.15
X4.2Y-0.15
X4.3Y0.15
X4.3Y-0.15
X2.9516Y0.55
X3.1484Y0.55
X1.65Y-0.6122
X1.65Y-0.75
X2.25Y-2.05
X2.25Y-2.35
X2.45Y-2.05
X2.45Y-2.35
X2.65Y-2.05
X2.65Y-2.35
X2.85Y-2.05
X2.85Y-2.35
X2.95Y-2.05
X2.95Y-2.35
X-1.15Y-2.2
X-0.75Y-2.2
X5.58Y-0.69
X5.58Y-1.09
X2.5766Y0.55
X2.7734Y0.55
X-1.15Y-2.05
X-0.75Y-2.05
X2.5766Y-0.55
X2.7734Y-0.55
X5.8Y-0.3
X5.8Y-0.6
X6.4Y-0.3
X6.4Y-0.6
X6.6Y-0.3
X6.6Y-0.6
X6.8Y-0.3
X6.8Y-0.6
X-1.2Y2.2
X-0.8Y2.2
X-0.25Y2.35
X-0.25Y2.05
X-0.05Y2.35
X-0.05Y2.05
X0.15Y2.35
X0.15Y2.05
X0.35Y2.35
X0.35Y2.05
X0.45Y2.35
X0.45Y2.05
T3
X6.1161Y-1.2
X-4.97Y0.8
X-4.97Y0.6031
X1.95Y-0.83
X6.1231Y-1.3931
X1.625Y1.4
X-6.7Y2.4
X-6.7Y2.3
X-6.7Y2.2
X3.75Y0.4
X-3.36Y-0.26
X1.625Y-1.525
X-6.4Y1.85
X-6.4Y1.75
X-6.4Y1.65
X-5.34Y-2.17
X5.9331Y-1.2
X-4.96Y-0.62
X-4.96Y-0.8169
X-6.05Y2.4
X-6.05Y2.3
X-6.05Y2.2
X-6.05Y2.1
X-6.05Y2.0
X-6.05Y1.9
X5.94Y-1.3931
X-3.35Y0.265
X3.9Y0.5
X3.9Y0.4
X-2.325Y1.45
X-6.7Y1.15
X-6.7Y1.05
X-6.7Y0.95
X-6.7Y0.85
X-6.7Y0.75
X-6.7Y0.65
X-6.7Y0.55
X-6.7Y0.45
X-4.98Y-0.09
X-4.98Y-0.2869
X-2.325Y-1.45
X-6.4Y2.4
X-6.4Y2.3
X-6.4Y2.2
X3.6Y0.4
X1.625Y1.0
X-6.7Y1.85
X-6.7Y1.75
X-6.7Y1.65
X-6.67Y-0.06
X-6.67Y-0.16
X-6.67Y-0.26
X-6.67Y-0.36
X-6.67Y-0.46
X-6.67Y-0.56
X-6.67Y-0.66
X-6.67Y-0.76
X-6.67Y-0.86
X-6.67Y-0.96
X-6.67Y-1.06
X-6.67Y-1.16
X-6.57Y-0.06
X-6.57Y-0.16
X-6.57Y-0.26
X-6.57Y-0.36
X-6.57Y-0.46
X-6.57Y-0.56
X-6.57Y-0.66
X-6.57Y-0.76
X-6.57Y-0.86
X-6.57Y-0.96
X-6.57Y-1.06
X-6.57Y-1.16
T4
X-4.385Y-0.71
X-4.285Y-0.71
X-4.185Y-0.71
X-4.4Y0.265
X-4.3Y0.265
X-4.2Y0.265
X-4.4Y0.68
X-4.3Y0.68
X-4.2Y0.68
X-4.41Y-0.26
X-4.31Y-0.26
X-4.21Y-0.26
T5
X-1.8575Y1.45
X-1.7Y1.6272
X-1.7Y1.2925
X-1.5425Y1.45
X-4.3575Y-1.45
X-4.2Y-1.2728
X-4.2Y-1.6075
X-4.0425Y-1.45
X1.0Y1.6272
X-3.1075Y-1.45
X-2.95Y-1.2728
X-2.95Y-1.6075
X-2.7925Y-1.45
X2.25Y1.6272
X3.5Y-1.2728
X2.25Y-1.2728
X-4.3575Y1.45
X-4.2Y1.6272
X-4.2Y1.2925
X-4.0425Y1.45
X-1.8575Y-1.45
X-1.7Y-1.2728
X-1.7Y-1.6075
X-1.5425Y-1.45
X4.75Y1.6272
X3.5Y1.6272
X4.75Y-1.2728
X-3.1075Y1.45
X-2.95Y1.6272
X-2.95Y1.2925
X-2.7925Y1.45
X-0.25Y1.6272
X-0.25Y-1.2728
X1.0Y-1.2728
T6
X-5.95Y-1.375
X-5.95Y-1.525
X-5.95Y-1.675
X-5.95Y-1.825
X-5.95Y-2.075
X-5.95Y-2.225
X-5.95Y-2.375
X-5.95Y-2.525
T7
X-1.7Y-2.6
X-1.35Y-2.6
X1.9Y2.6
X2.25Y2.6
X3.15Y2.6
X3.5Y2.6
X-3.6Y-0.925
X-3.6Y-1.0313
X-3.6Y-1.1376
X-6.6Y-2.1941
X-6.6Y-2.45
X-6.3441Y-2.1941
X-6.3441Y-2.45
X-6.65Y-1.75
X-6.3941Y-1.75
X-3.6Y1.5063
X-3.6Y1.4
X-3.6Y1.2937
X4.4Y2.6
X4.75Y2.6
X2.87Y-1.4137
X2.87Y-1.52
X2.87Y-1.6263
X6.3941Y-2.1
X6.3941Y-2.3559
X6.65Y-2.1
X6.65Y-2.3559
X4.4Y-2.6
X4.75Y-2.6
X-4.2Y2.6
X-3.85Y2.6
X0.65Y-2.6
X1.0Y-2.6
X1.9Y-2.6
X2.25Y-2.6
X2.875Y1.4313
X2.875Y1.325
X2.875Y1.2187
X-4.2Y-2.6
X-3.85Y-2.6
X6.4441Y-1.55
X6.7Y-1.55
X6.4441Y-1.0
X6.7Y-1.0
X3.15Y-2.6
X3.5Y-2.6
X-0.6Y2.6
X-0.25Y2.6
X-0.6Y-2.6
X-0.25Y-2.6
X0.65Y2.6
X1.0Y2.6
X-2.95Y2.6
X-2.6Y2.6
X-1.7Y2.6
X-1.35Y2.6
X-2.95Y-2.6
X-2.6Y-2.6
T8
X6.0Y-2.0031
X6.0Y-2.3969
T9
X0.725Y0.7
X1.325Y0.7
X0.725Y-0.675
X1.325Y-0.675
T10
X-0.4075Y1.3909
X-0.25Y1.2531
X-0.0925Y1.3909
X-0.4075Y-1.5091
X-0.25Y-1.6469
X-0.0925Y-1.5091
X0.8425Y-1.5091
X1.0Y-1.6469
X1.1575Y-1.5091
X0.8425Y1.3909
X1.0Y1.2531
X1.1575Y1.3909
X2.0925Y1.3909
X2.25Y1.2531
X2.4075Y1.3909
X3.3425Y-1.5091
X3.5Y-1.6469
X3.6575Y-1.5091
X2.0925Y-1.5091
X2.25Y-1.6469
X2.4075Y-1.5091
X4.5925Y1.3909
X4.75Y1.2531
X4.9075Y1.3909
X3.3425Y1.3909
X3.5Y1.2531
X3.6575Y1.3909
X4.5925Y-1.5091
X4.75Y-1.6469
X4.9075Y-1.5091
T0
M30
