%TF.GenerationSoftware,KiCad,Pcbnew,(5.1.6-0-10_14)*%
%TF.CreationDate,2021-04-04T14:44:52-05:00*%
%TF.ProjectId,preamp_controller1,70726561-6d70-45f6-936f-6e74726f6c6c,Rev. 01*%
%TF.SameCoordinates,Original*%
%TF.FileFunction,Copper,L1,Top*%
%TF.FilePolarity,Positive*%
%FSLAX46Y46*%
G04 Gerber Fmt 4.6, Leading zero omitted, Abs format (unit mm)*
G04 Created by KiCad (PCBNEW (5.1.6-0-10_14)) date 2021-04-04 14:44:52*
%MOMM*%
%LPD*%
G01*
G04 APERTURE LIST*
%TA.AperFunction,NonConductor*%
%ADD10C,0.300000*%
%TD*%
%TA.AperFunction,ComponentPad*%
%ADD11C,2.200000*%
%TD*%
%TA.AperFunction,ComponentPad*%
%ADD12R,1.700000X1.700000*%
%TD*%
%TA.AperFunction,ComponentPad*%
%ADD13O,1.700000X1.700000*%
%TD*%
%TA.AperFunction,ComponentPad*%
%ADD14C,1.950000*%
%TD*%
%TA.AperFunction,ComponentPad*%
%ADD15C,2.800000*%
%TD*%
%TA.AperFunction,ComponentPad*%
%ADD16R,2.000000X2.000000*%
%TD*%
%TA.AperFunction,ComponentPad*%
%ADD17C,2.000000*%
%TD*%
%TA.AperFunction,ComponentPad*%
%ADD18R,1.600000X1.600000*%
%TD*%
%TA.AperFunction,ComponentPad*%
%ADD19C,1.600000*%
%TD*%
%TA.AperFunction,ComponentPad*%
%ADD20C,1.500000*%
%TD*%
%TA.AperFunction,ComponentPad*%
%ADD21R,2.200000X2.200000*%
%TD*%
%TA.AperFunction,ComponentPad*%
%ADD22R,1.600000X2.400000*%
%TD*%
%TA.AperFunction,ComponentPad*%
%ADD23O,1.600000X2.400000*%
%TD*%
%TA.AperFunction,ComponentPad*%
%ADD24O,2.400000X1.600000*%
%TD*%
%TA.AperFunction,ComponentPad*%
%ADD25R,2.400000X1.600000*%
%TD*%
%TA.AperFunction,SMDPad,CuDef*%
%ADD26R,0.800000X0.900000*%
%TD*%
%TA.AperFunction,SMDPad,CuDef*%
%ADD27R,0.900000X0.800000*%
%TD*%
%TA.AperFunction,ComponentPad*%
%ADD28O,2.800000X2.800000*%
%TD*%
%TA.AperFunction,ComponentPad*%
%ADD29O,1.600000X1.600000*%
%TD*%
%TA.AperFunction,ComponentPad*%
%ADD30C,2.400000*%
%TD*%
%TA.AperFunction,ComponentPad*%
%ADD31R,1.905000X2.000000*%
%TD*%
%TA.AperFunction,ComponentPad*%
%ADD32O,1.905000X2.000000*%
%TD*%
%TA.AperFunction,SMDPad,CuDef*%
%ADD33R,3.200000X1.750000*%
%TD*%
%TA.AperFunction,SMDPad,CuDef*%
%ADD34R,0.950000X1.750000*%
%TD*%
%TA.AperFunction,SMDPad,CuDef*%
%ADD35R,0.450000X1.525000*%
%TD*%
%TA.AperFunction,ViaPad*%
%ADD36C,0.800000*%
%TD*%
%TA.AperFunction,Conductor*%
%ADD37C,0.500000*%
%TD*%
%TA.AperFunction,Conductor*%
%ADD38C,1.000000*%
%TD*%
%TA.AperFunction,Conductor*%
%ADD39C,2.000000*%
%TD*%
%TA.AperFunction,Conductor*%
%ADD40C,0.250000*%
%TD*%
%TA.AperFunction,Conductor*%
%ADD41C,0.254000*%
%TD*%
G04 APERTURE END LIST*
D10*
X143813428Y65376428D02*
X143813428Y66876428D01*
X144384857Y66876428D01*
X144527714Y66805000D01*
X144599142Y66733571D01*
X144670571Y66590714D01*
X144670571Y66376428D01*
X144599142Y66233571D01*
X144527714Y66162142D01*
X144384857Y66090714D01*
X143813428Y66090714D01*
X145313428Y65376428D02*
X145313428Y66376428D01*
X145313428Y66090714D02*
X145384857Y66233571D01*
X145456285Y66305000D01*
X145599142Y66376428D01*
X145742000Y66376428D01*
X146813428Y65447857D02*
X146670571Y65376428D01*
X146384857Y65376428D01*
X146242000Y65447857D01*
X146170571Y65590714D01*
X146170571Y66162142D01*
X146242000Y66305000D01*
X146384857Y66376428D01*
X146670571Y66376428D01*
X146813428Y66305000D01*
X146884857Y66162142D01*
X146884857Y66019285D01*
X146170571Y65876428D01*
X148170571Y65376428D02*
X148170571Y66162142D01*
X148099142Y66305000D01*
X147956285Y66376428D01*
X147670571Y66376428D01*
X147527714Y66305000D01*
X148170571Y65447857D02*
X148027714Y65376428D01*
X147670571Y65376428D01*
X147527714Y65447857D01*
X147456285Y65590714D01*
X147456285Y65733571D01*
X147527714Y65876428D01*
X147670571Y65947857D01*
X148027714Y65947857D01*
X148170571Y66019285D01*
X148884857Y65376428D02*
X148884857Y66376428D01*
X148884857Y66233571D02*
X148956285Y66305000D01*
X149099142Y66376428D01*
X149313428Y66376428D01*
X149456285Y66305000D01*
X149527714Y66162142D01*
X149527714Y65376428D01*
X149527714Y66162142D02*
X149599142Y66305000D01*
X149742000Y66376428D01*
X149956285Y66376428D01*
X150099142Y66305000D01*
X150170571Y66162142D01*
X150170571Y65376428D01*
X150884857Y66376428D02*
X150884857Y64876428D01*
X150884857Y66305000D02*
X151027714Y66376428D01*
X151313428Y66376428D01*
X151456285Y66305000D01*
X151527714Y66233571D01*
X151599142Y66090714D01*
X151599142Y65662142D01*
X151527714Y65519285D01*
X151456285Y65447857D01*
X151313428Y65376428D01*
X151027714Y65376428D01*
X150884857Y65447857D01*
X153027714Y65376428D02*
X152170571Y65376428D01*
X152599142Y65376428D02*
X152599142Y66876428D01*
X152456285Y66662142D01*
X152313428Y66519285D01*
X152170571Y66447857D01*
X156813428Y65519285D02*
X156742000Y65447857D01*
X156527714Y65376428D01*
X156384857Y65376428D01*
X156170571Y65447857D01*
X156027714Y65590714D01*
X155956285Y65733571D01*
X155884857Y66019285D01*
X155884857Y66233571D01*
X155956285Y66519285D01*
X156027714Y66662142D01*
X156170571Y66805000D01*
X156384857Y66876428D01*
X156527714Y66876428D01*
X156742000Y66805000D01*
X156813428Y66733571D01*
X157670571Y65376428D02*
X157527714Y65447857D01*
X157456285Y65519285D01*
X157384857Y65662142D01*
X157384857Y66090714D01*
X157456285Y66233571D01*
X157527714Y66305000D01*
X157670571Y66376428D01*
X157884857Y66376428D01*
X158027714Y66305000D01*
X158099142Y66233571D01*
X158170571Y66090714D01*
X158170571Y65662142D01*
X158099142Y65519285D01*
X158027714Y65447857D01*
X157884857Y65376428D01*
X157670571Y65376428D01*
X158813428Y66376428D02*
X158813428Y64876428D01*
X158813428Y66305000D02*
X158956285Y66376428D01*
X159242000Y66376428D01*
X159384857Y66305000D01*
X159456285Y66233571D01*
X159527714Y66090714D01*
X159527714Y65662142D01*
X159456285Y65519285D01*
X159384857Y65447857D01*
X159242000Y65376428D01*
X158956285Y65376428D01*
X158813428Y65447857D01*
X160027714Y66376428D02*
X160384857Y65376428D01*
X160742000Y66376428D02*
X160384857Y65376428D01*
X160242000Y65019285D01*
X160170571Y64947857D01*
X160027714Y64876428D01*
X161313428Y65376428D02*
X161313428Y66376428D01*
X161313428Y66090714D02*
X161384857Y66233571D01*
X161456285Y66305000D01*
X161599142Y66376428D01*
X161742000Y66376428D01*
X162242000Y65376428D02*
X162242000Y66376428D01*
X162242000Y66876428D02*
X162170571Y66805000D01*
X162242000Y66733571D01*
X162313428Y66805000D01*
X162242000Y66876428D01*
X162242000Y66733571D01*
X163599142Y66376428D02*
X163599142Y65162142D01*
X163527714Y65019285D01*
X163456285Y64947857D01*
X163313428Y64876428D01*
X163099142Y64876428D01*
X162956285Y64947857D01*
X163599142Y65447857D02*
X163456285Y65376428D01*
X163170571Y65376428D01*
X163027714Y65447857D01*
X162956285Y65519285D01*
X162884857Y65662142D01*
X162884857Y66090714D01*
X162956285Y66233571D01*
X163027714Y66305000D01*
X163170571Y66376428D01*
X163456285Y66376428D01*
X163599142Y66305000D01*
X164313428Y65376428D02*
X164313428Y66876428D01*
X164956285Y65376428D02*
X164956285Y66162142D01*
X164884857Y66305000D01*
X164742000Y66376428D01*
X164527714Y66376428D01*
X164384857Y66305000D01*
X164313428Y66233571D01*
X165456285Y66376428D02*
X166027714Y66376428D01*
X165670571Y66876428D02*
X165670571Y65590714D01*
X165742000Y65447857D01*
X165884857Y65376428D01*
X166027714Y65376428D01*
X167599142Y66733571D02*
X167670571Y66805000D01*
X167813428Y66876428D01*
X168170571Y66876428D01*
X168313428Y66805000D01*
X168384857Y66733571D01*
X168456285Y66590714D01*
X168456285Y66447857D01*
X168384857Y66233571D01*
X167527714Y65376428D01*
X168456285Y65376428D01*
X169384857Y66876428D02*
X169527714Y66876428D01*
X169670571Y66805000D01*
X169742000Y66733571D01*
X169813428Y66590714D01*
X169884857Y66305000D01*
X169884857Y65947857D01*
X169813428Y65662142D01*
X169742000Y65519285D01*
X169670571Y65447857D01*
X169527714Y65376428D01*
X169384857Y65376428D01*
X169242000Y65447857D01*
X169170571Y65519285D01*
X169099142Y65662142D01*
X169027714Y65947857D01*
X169027714Y66305000D01*
X169099142Y66590714D01*
X169170571Y66733571D01*
X169242000Y66805000D01*
X169384857Y66876428D01*
X170456285Y66733571D02*
X170527714Y66805000D01*
X170670571Y66876428D01*
X171027714Y66876428D01*
X171170571Y66805000D01*
X171242000Y66733571D01*
X171313428Y66590714D01*
X171313428Y66447857D01*
X171242000Y66233571D01*
X170384857Y65376428D01*
X171313428Y65376428D01*
X172742000Y65376428D02*
X171884857Y65376428D01*
X172313428Y65376428D02*
X172313428Y66876428D01*
X172170571Y66662142D01*
X172027714Y66519285D01*
X171884857Y66447857D01*
X152777714Y64326428D02*
X153134857Y62826428D01*
X153420571Y63897857D01*
X153706285Y62826428D01*
X154063428Y64326428D01*
X154634857Y62969285D02*
X154706285Y62897857D01*
X154634857Y62826428D01*
X154563428Y62897857D01*
X154634857Y62969285D01*
X154634857Y62826428D01*
X156420571Y62897857D02*
X156634857Y62826428D01*
X156992000Y62826428D01*
X157134857Y62897857D01*
X157206285Y62969285D01*
X157277714Y63112142D01*
X157277714Y63255000D01*
X157206285Y63397857D01*
X157134857Y63469285D01*
X156992000Y63540714D01*
X156706285Y63612142D01*
X156563428Y63683571D01*
X156492000Y63755000D01*
X156420571Y63897857D01*
X156420571Y64040714D01*
X156492000Y64183571D01*
X156563428Y64255000D01*
X156706285Y64326428D01*
X157063428Y64326428D01*
X157277714Y64255000D01*
X158563428Y62826428D02*
X158563428Y63612142D01*
X158492000Y63755000D01*
X158349142Y63826428D01*
X158063428Y63826428D01*
X157920571Y63755000D01*
X158563428Y62897857D02*
X158420571Y62826428D01*
X158063428Y62826428D01*
X157920571Y62897857D01*
X157849142Y63040714D01*
X157849142Y63183571D01*
X157920571Y63326428D01*
X158063428Y63397857D01*
X158420571Y63397857D01*
X158563428Y63469285D01*
X159277714Y63826428D02*
X159277714Y62826428D01*
X159277714Y63683571D02*
X159349142Y63755000D01*
X159492000Y63826428D01*
X159706285Y63826428D01*
X159849142Y63755000D01*
X159920571Y63612142D01*
X159920571Y62826428D01*
X160634857Y62826428D02*
X160634857Y64326428D01*
X160777714Y63397857D02*
X161206285Y62826428D01*
X161206285Y63826428D02*
X160634857Y63255000D01*
X162420571Y62897857D02*
X162277714Y62826428D01*
X161992000Y62826428D01*
X161849142Y62897857D01*
X161777714Y63040714D01*
X161777714Y63612142D01*
X161849142Y63755000D01*
X161992000Y63826428D01*
X162277714Y63826428D01*
X162420571Y63755000D01*
X162492000Y63612142D01*
X162492000Y63469285D01*
X161777714Y63326428D01*
X162992000Y63826428D02*
X163349142Y62826428D01*
X163706285Y63826428D02*
X163349142Y62826428D01*
X163206285Y62469285D01*
X163134857Y62397857D01*
X162992000Y62326428D01*
X150849142Y60276428D02*
X150849142Y61776428D01*
X151420571Y61776428D01*
X151563428Y61705000D01*
X151634857Y61633571D01*
X151706285Y61490714D01*
X151706285Y61276428D01*
X151634857Y61133571D01*
X151563428Y61062142D01*
X151420571Y60990714D01*
X150849142Y60990714D01*
X152563428Y60276428D02*
X152420571Y60347857D01*
X152349142Y60490714D01*
X152349142Y61776428D01*
X153777714Y60276428D02*
X153777714Y61062142D01*
X153706285Y61205000D01*
X153563428Y61276428D01*
X153277714Y61276428D01*
X153134857Y61205000D01*
X153777714Y60347857D02*
X153634857Y60276428D01*
X153277714Y60276428D01*
X153134857Y60347857D01*
X153063428Y60490714D01*
X153063428Y60633571D01*
X153134857Y60776428D01*
X153277714Y60847857D01*
X153634857Y60847857D01*
X153777714Y60919285D01*
X154492000Y61276428D02*
X154492000Y60276428D01*
X154492000Y61133571D02*
X154563428Y61205000D01*
X154706285Y61276428D01*
X154920571Y61276428D01*
X155063428Y61205000D01*
X155134857Y61062142D01*
X155134857Y60276428D01*
X156063428Y60276428D02*
X155920571Y60347857D01*
X155849142Y60419285D01*
X155777714Y60562142D01*
X155777714Y60990714D01*
X155849142Y61133571D01*
X155920571Y61205000D01*
X156063428Y61276428D01*
X156277714Y61276428D01*
X156420571Y61205000D01*
X156492000Y61133571D01*
X156563428Y60990714D01*
X156563428Y60562142D01*
X156492000Y60419285D01*
X156420571Y60347857D01*
X156277714Y60276428D01*
X156063428Y60276428D01*
X158134857Y61776428D02*
X158992000Y61776428D01*
X158563428Y60276428D02*
X158563428Y61776428D01*
X159349142Y61776428D02*
X160349142Y60276428D01*
X160349142Y61776428D02*
X159349142Y60276428D01*
X162063428Y61776428D02*
X162063428Y60562142D01*
X162134857Y60419285D01*
X162206285Y60347857D01*
X162349142Y60276428D01*
X162634857Y60276428D01*
X162777714Y60347857D01*
X162849142Y60419285D01*
X162920571Y60562142D01*
X162920571Y61776428D01*
X163563428Y60347857D02*
X163777714Y60276428D01*
X164134857Y60276428D01*
X164277714Y60347857D01*
X164349142Y60419285D01*
X164420571Y60562142D01*
X164420571Y60705000D01*
X164349142Y60847857D01*
X164277714Y60919285D01*
X164134857Y60990714D01*
X163849142Y61062142D01*
X163706285Y61133571D01*
X163634857Y61205000D01*
X163563428Y61347857D01*
X163563428Y61490714D01*
X163634857Y61633571D01*
X163706285Y61705000D01*
X163849142Y61776428D01*
X164206285Y61776428D01*
X164420571Y61705000D01*
X164992000Y60705000D02*
X165706285Y60705000D01*
X164849142Y60276428D02*
X165349142Y61776428D01*
X165849142Y60276428D01*
X155134857Y57726428D02*
X154634857Y58440714D01*
X154277714Y57726428D02*
X154277714Y59226428D01*
X154849142Y59226428D01*
X154992000Y59155000D01*
X155063428Y59083571D01*
X155134857Y58940714D01*
X155134857Y58726428D01*
X155063428Y58583571D01*
X154992000Y58512142D01*
X154849142Y58440714D01*
X154277714Y58440714D01*
X156349142Y57797857D02*
X156206285Y57726428D01*
X155920571Y57726428D01*
X155777714Y57797857D01*
X155706285Y57940714D01*
X155706285Y58512142D01*
X155777714Y58655000D01*
X155920571Y58726428D01*
X156206285Y58726428D01*
X156349142Y58655000D01*
X156420571Y58512142D01*
X156420571Y58369285D01*
X155706285Y58226428D01*
X156920571Y58726428D02*
X157277714Y57726428D01*
X157634857Y58726428D01*
X158206285Y57869285D02*
X158277714Y57797857D01*
X158206285Y57726428D01*
X158134857Y57797857D01*
X158206285Y57869285D01*
X158206285Y57726428D01*
X160349142Y59226428D02*
X160492000Y59226428D01*
X160634857Y59155000D01*
X160706285Y59083571D01*
X160777714Y58940714D01*
X160849142Y58655000D01*
X160849142Y58297857D01*
X160777714Y58012142D01*
X160706285Y57869285D01*
X160634857Y57797857D01*
X160492000Y57726428D01*
X160349142Y57726428D01*
X160206285Y57797857D01*
X160134857Y57869285D01*
X160063428Y58012142D01*
X159992000Y58297857D01*
X159992000Y58655000D01*
X160063428Y58940714D01*
X160134857Y59083571D01*
X160206285Y59155000D01*
X160349142Y59226428D01*
X162277714Y57726428D02*
X161420571Y57726428D01*
X161849142Y57726428D02*
X161849142Y59226428D01*
X161706285Y59012142D01*
X161563428Y58869285D01*
X161420571Y58797857D01*
D11*
%TO.P,J19,G*%
%TO.N,GNDPWR*%
X-106680000Y-32330000D03*
%TO.P,J19,3*%
%TO.N,left_out_inv*%
X-106680000Y-40830000D03*
%TO.P,J19,2*%
%TO.N,left_out_noninv*%
X-110680000Y-36830000D03*
%TO.P,J19,1*%
%TO.N,GNDA*%
X-102680000Y-36830000D03*
%TD*%
D12*
%TO.P,TP15,1*%
%TO.N,GNDA*%
X155350000Y-30480000D03*
%TD*%
%TO.P,TP14,1*%
%TO.N,GNDA*%
X155526000Y-35384000D03*
%TD*%
%TO.P,TP13,1*%
%TO.N,GNDA*%
X150700000Y-30480000D03*
%TD*%
%TO.P,TP12,1*%
%TO.N,GNDA*%
X150876000Y-35384000D03*
%TD*%
%TO.P,TP4,1*%
%TO.N,GND*%
X-135636000Y-55118000D03*
%TD*%
%TO.P,J10,1*%
%TO.N,+12V*%
X-166878000Y-29464000D03*
D13*
%TO.P,J10,2*%
X-169418000Y-29464000D03*
%TO.P,J10,3*%
%TO.N,+5V*%
X-166878000Y-26924000D03*
%TO.P,J10,4*%
X-169418000Y-26924000D03*
%TO.P,J10,5*%
%TO.N,+3V3*%
X-166878000Y-24384000D03*
%TO.P,J10,6*%
X-169418000Y-24384000D03*
%TO.P,J10,7*%
%TO.N,GND*%
X-166878000Y-21844000D03*
%TO.P,J10,8*%
X-169418000Y-21844000D03*
%TO.P,J10,9*%
%TO.N,vol_spi_latch*%
X-166878000Y-19304000D03*
%TO.P,J10,10*%
%TO.N,vol_spi_data*%
X-169418000Y-19304000D03*
%TO.P,J10,11*%
%TO.N,vol_spi_clock*%
X-166878000Y-16764000D03*
%TO.P,J10,12*%
%TO.N,GND*%
X-169418000Y-16764000D03*
%TO.P,J10,13*%
%TO.N,relay_spi_strobe*%
X-166878000Y-14224000D03*
%TO.P,J10,14*%
%TO.N,relay_spi_data*%
X-169418000Y-14224000D03*
%TO.P,J10,15*%
%TO.N,relay_spi_clock*%
X-166878000Y-11684000D03*
%TO.P,J10,16*%
%TO.N,GND*%
X-169418000Y-11684000D03*
%TO.P,J10,17*%
%TO.N,i2c1_scl*%
X-166878000Y-9144000D03*
%TO.P,J10,18*%
%TO.N,i2c1_sda*%
X-169418000Y-9144000D03*
%TO.P,J10,19*%
%TO.N,/controls/mute_switch*%
X-166878000Y-6604000D03*
%TO.P,J10,20*%
%TO.N,/controls/operate_switch*%
X-169418000Y-6604000D03*
%TO.P,J10,21*%
%TO.N,/controls/sel_enc_1*%
X-166878000Y-4064000D03*
%TO.P,J10,22*%
%TO.N,/controls/sel_enc_2*%
X-169418000Y-4064000D03*
%TO.P,J10,23*%
%TO.N,/controls/vol_enc_1*%
X-166878000Y-1524000D03*
%TO.P,J10,24*%
%TO.N,/controls/vol_enc_2*%
X-169418000Y-1524000D03*
%TD*%
D14*
%TO.P,J1,1*%
%TO.N,Net-(J1-Pad1)*%
X-167640000Y-62230000D03*
%TO.P,J1,2*%
%TO.N,Net-(J1-Pad2)*%
X-167640000Y-55730000D03*
%TO.P,J1,3*%
%TO.N,GND*%
X-161140000Y-62230000D03*
%TO.P,J1,4*%
%TO.N,Net-(J1-Pad4)*%
X-161140000Y-55730000D03*
%TD*%
D11*
%TO.P,J29,1*%
%TO.N,right_out_noninv*%
X-106680000Y66040000D03*
%TO.P,J29,2*%
%TO.N,GNDA*%
X-97790000Y66040000D03*
%TD*%
%TO.P,J44,G*%
%TO.N,GNDPWR*%
X-6350000Y41330000D03*
D15*
%TO.P,J44,3*%
%TO.N,Net-(J44-Pad3)*%
X-6350000Y31830000D03*
%TO.P,J44,2*%
%TO.N,Net-(J44-Pad2)*%
X-2350000Y35330000D03*
%TO.P,J44,1*%
%TO.N,GNDA*%
X-10350000Y35330000D03*
%TD*%
D11*
%TO.P,J17,G*%
%TO.N,GNDPWR*%
X-43180000Y-32330000D03*
%TO.P,J17,3*%
%TO.N,Net-(J17-Pad3)*%
X-43180000Y-40830000D03*
%TO.P,J17,2*%
%TO.N,Net-(J17-Pad2)*%
X-47180000Y-36830000D03*
%TO.P,J17,1*%
%TO.N,GNDA*%
X-39180000Y-36830000D03*
%TD*%
%TO.P,J18,G*%
%TO.N,GNDPWR*%
X-74930000Y-32330000D03*
%TO.P,J18,3*%
%TO.N,left_out_inv*%
X-74930000Y-40830000D03*
%TO.P,J18,2*%
%TO.N,left_out_noninv*%
X-78930000Y-36830000D03*
%TO.P,J18,1*%
%TO.N,GNDA*%
X-70930000Y-36830000D03*
%TD*%
%TO.P,J23,G*%
%TO.N,GNDPWR*%
X-43180000Y41330000D03*
%TO.P,J23,3*%
%TO.N,Net-(J23-Pad3)*%
X-43180000Y32830000D03*
%TO.P,J23,2*%
%TO.N,Net-(J23-Pad2)*%
X-47180000Y36830000D03*
%TO.P,J23,1*%
%TO.N,GNDA*%
X-39180000Y36830000D03*
%TD*%
%TO.P,J24,G*%
%TO.N,GNDPWR*%
X-74930000Y41330000D03*
%TO.P,J24,3*%
%TO.N,right_out_inv*%
X-74930000Y32830000D03*
%TO.P,J24,2*%
%TO.N,right_out_noninv*%
X-78930000Y36830000D03*
%TO.P,J24,1*%
%TO.N,GNDA*%
X-70930000Y36830000D03*
%TD*%
%TO.P,J25,G*%
%TO.N,GNDPWR*%
X-106680000Y41330000D03*
%TO.P,J25,3*%
%TO.N,right_out_inv*%
X-106680000Y32830000D03*
%TO.P,J25,2*%
%TO.N,right_out_noninv*%
X-110680000Y36830000D03*
%TO.P,J25,1*%
%TO.N,GNDA*%
X-102680000Y36830000D03*
%TD*%
%TO.P,J35,G*%
%TO.N,GNDPWR*%
X120650000Y-32330000D03*
D15*
%TO.P,J35,3*%
%TO.N,Net-(J35-Pad3)*%
X120650000Y-41830000D03*
%TO.P,J35,2*%
%TO.N,Net-(J34-Pad1)*%
X124650000Y-38330000D03*
%TO.P,J35,1*%
%TO.N,GNDA*%
X116650000Y-38330000D03*
%TD*%
D11*
%TO.P,J36,G*%
%TO.N,GNDPWR*%
X88900000Y-32330000D03*
D15*
%TO.P,J36,3*%
%TO.N,Net-(J36-Pad3)*%
X88900000Y-41830000D03*
%TO.P,J36,2*%
%TO.N,Net-(J31-Pad1)*%
X92900000Y-38330000D03*
%TO.P,J36,1*%
%TO.N,GNDA*%
X84900000Y-38330000D03*
%TD*%
D11*
%TO.P,J37,G*%
%TO.N,GNDPWR*%
X57150000Y-32330000D03*
D15*
%TO.P,J37,3*%
%TO.N,Net-(J37-Pad3)*%
X57150000Y-41830000D03*
%TO.P,J37,2*%
%TO.N,Net-(J32-Pad1)*%
X61150000Y-38330000D03*
%TO.P,J37,1*%
%TO.N,GNDA*%
X53150000Y-38330000D03*
%TD*%
D11*
%TO.P,J38,G*%
%TO.N,GNDPWR*%
X25400000Y-32330000D03*
D15*
%TO.P,J38,3*%
%TO.N,Net-(J38-Pad3)*%
X25400000Y-41830000D03*
%TO.P,J38,2*%
%TO.N,Net-(J33-Pad1)*%
X29400000Y-38330000D03*
%TO.P,J38,1*%
%TO.N,GNDA*%
X21400000Y-38330000D03*
%TD*%
D11*
%TO.P,J39,G*%
%TO.N,GNDPWR*%
X-6350000Y-32330000D03*
D15*
%TO.P,J39,3*%
%TO.N,Net-(J39-Pad3)*%
X-6350000Y-41830000D03*
%TO.P,J39,2*%
%TO.N,Net-(J30-Pad1)*%
X-2350000Y-38330000D03*
%TO.P,J39,1*%
%TO.N,GNDA*%
X-10350000Y-38330000D03*
%TD*%
D11*
%TO.P,J40,G*%
%TO.N,GNDPWR*%
X120650000Y41330000D03*
D15*
%TO.P,J40,3*%
%TO.N,Net-(J40-Pad3)*%
X120650000Y31830000D03*
%TO.P,J40,2*%
%TO.N,Net-(J40-Pad2)*%
X124650000Y35330000D03*
%TO.P,J40,1*%
%TO.N,GNDA*%
X116650000Y35330000D03*
%TD*%
D11*
%TO.P,J41,G*%
%TO.N,GNDPWR*%
X88900000Y41330000D03*
D15*
%TO.P,J41,3*%
%TO.N,Net-(J41-Pad3)*%
X88900000Y31830000D03*
%TO.P,J41,2*%
%TO.N,Net-(J41-Pad2)*%
X92900000Y35330000D03*
%TO.P,J41,1*%
%TO.N,GNDA*%
X84900000Y35330000D03*
%TD*%
D11*
%TO.P,J42,G*%
%TO.N,GNDPWR*%
X57150000Y41330000D03*
D15*
%TO.P,J42,3*%
%TO.N,Net-(J42-Pad3)*%
X57150000Y31830000D03*
%TO.P,J42,2*%
%TO.N,Net-(J42-Pad2)*%
X61150000Y35330000D03*
%TO.P,J42,1*%
%TO.N,GNDA*%
X53150000Y35330000D03*
%TD*%
D11*
%TO.P,J43,G*%
%TO.N,GNDPWR*%
X25400000Y41330000D03*
D15*
%TO.P,J43,3*%
%TO.N,Net-(J43-Pad3)*%
X25400000Y31830000D03*
%TO.P,J43,2*%
%TO.N,Net-(J43-Pad2)*%
X29400000Y35330000D03*
%TO.P,J43,1*%
%TO.N,GNDA*%
X21400000Y35330000D03*
%TD*%
%TO.P,C34,2*%
%TO.N,GND*%
%TA.AperFunction,SMDPad,CuDef*%
G36*
G01*
X-102225000Y4686000D02*
X-100975000Y4686000D01*
G75*
G02*
X-100725000Y4436000I0J-250000D01*
G01*
X-100725000Y3511000D01*
G75*
G02*
X-100975000Y3261000I-250000J0D01*
G01*
X-102225000Y3261000D01*
G75*
G02*
X-102475000Y3511000I0J250000D01*
G01*
X-102475000Y4436000D01*
G75*
G02*
X-102225000Y4686000I250000J0D01*
G01*
G37*
%TD.AperFunction*%
%TO.P,C34,1*%
%TO.N,+5V*%
%TA.AperFunction,SMDPad,CuDef*%
G36*
G01*
X-102225000Y7661000D02*
X-100975000Y7661000D01*
G75*
G02*
X-100725000Y7411000I0J-250000D01*
G01*
X-100725000Y6486000D01*
G75*
G02*
X-100975000Y6236000I-250000J0D01*
G01*
X-102225000Y6236000D01*
G75*
G02*
X-102475000Y6486000I0J250000D01*
G01*
X-102475000Y7411000D01*
G75*
G02*
X-102225000Y7661000I250000J0D01*
G01*
G37*
%TD.AperFunction*%
%TD*%
%TO.P,C33,2*%
%TO.N,GND*%
%TA.AperFunction,SMDPad,CuDef*%
G36*
G01*
X-100594000Y-4559000D02*
X-101844000Y-4559000D01*
G75*
G02*
X-102094000Y-4309000I0J250000D01*
G01*
X-102094000Y-3384000D01*
G75*
G02*
X-101844000Y-3134000I250000J0D01*
G01*
X-100594000Y-3134000D01*
G75*
G02*
X-100344000Y-3384000I0J-250000D01*
G01*
X-100344000Y-4309000D01*
G75*
G02*
X-100594000Y-4559000I-250000J0D01*
G01*
G37*
%TD.AperFunction*%
%TO.P,C33,1*%
%TO.N,+12V*%
%TA.AperFunction,SMDPad,CuDef*%
G36*
G01*
X-100594000Y-7534000D02*
X-101844000Y-7534000D01*
G75*
G02*
X-102094000Y-7284000I0J250000D01*
G01*
X-102094000Y-6359000D01*
G75*
G02*
X-101844000Y-6109000I250000J0D01*
G01*
X-100594000Y-6109000D01*
G75*
G02*
X-100344000Y-6359000I0J-250000D01*
G01*
X-100344000Y-7284000D01*
G75*
G02*
X-100594000Y-7534000I-250000J0D01*
G01*
G37*
%TD.AperFunction*%
%TD*%
%TO.P,C32,2*%
%TO.N,GND*%
%TA.AperFunction,SMDPad,CuDef*%
G36*
G01*
X-100467000Y19063000D02*
X-101717000Y19063000D01*
G75*
G02*
X-101967000Y19313000I0J250000D01*
G01*
X-101967000Y20238000D01*
G75*
G02*
X-101717000Y20488000I250000J0D01*
G01*
X-100467000Y20488000D01*
G75*
G02*
X-100217000Y20238000I0J-250000D01*
G01*
X-100217000Y19313000D01*
G75*
G02*
X-100467000Y19063000I-250000J0D01*
G01*
G37*
%TD.AperFunction*%
%TO.P,C32,1*%
%TO.N,Net-(C32-Pad1)*%
%TA.AperFunction,SMDPad,CuDef*%
G36*
G01*
X-100467000Y16088000D02*
X-101717000Y16088000D01*
G75*
G02*
X-101967000Y16338000I0J250000D01*
G01*
X-101967000Y17263000D01*
G75*
G02*
X-101717000Y17513000I250000J0D01*
G01*
X-100467000Y17513000D01*
G75*
G02*
X-100217000Y17263000I0J-250000D01*
G01*
X-100217000Y16338000D01*
G75*
G02*
X-100467000Y16088000I-250000J0D01*
G01*
G37*
%TD.AperFunction*%
%TD*%
%TO.P,C31,2*%
%TO.N,GND*%
%TA.AperFunction,SMDPad,CuDef*%
G36*
G01*
X-117465000Y4686000D02*
X-116215000Y4686000D01*
G75*
G02*
X-115965000Y4436000I0J-250000D01*
G01*
X-115965000Y3511000D01*
G75*
G02*
X-116215000Y3261000I-250000J0D01*
G01*
X-117465000Y3261000D01*
G75*
G02*
X-117715000Y3511000I0J250000D01*
G01*
X-117715000Y4436000D01*
G75*
G02*
X-117465000Y4686000I250000J0D01*
G01*
G37*
%TD.AperFunction*%
%TO.P,C31,1*%
%TO.N,/power/5v_rectified*%
%TA.AperFunction,SMDPad,CuDef*%
G36*
G01*
X-117465000Y7661000D02*
X-116215000Y7661000D01*
G75*
G02*
X-115965000Y7411000I0J-250000D01*
G01*
X-115965000Y6486000D01*
G75*
G02*
X-116215000Y6236000I-250000J0D01*
G01*
X-117465000Y6236000D01*
G75*
G02*
X-117715000Y6486000I0J250000D01*
G01*
X-117715000Y7411000D01*
G75*
G02*
X-117465000Y7661000I250000J0D01*
G01*
G37*
%TD.AperFunction*%
%TD*%
%TO.P,C30,2*%
%TO.N,Net-(C30-Pad2)*%
%TA.AperFunction,SMDPad,CuDef*%
G36*
G01*
X-101717000Y-17539000D02*
X-100467000Y-17539000D01*
G75*
G02*
X-100217000Y-17789000I0J-250000D01*
G01*
X-100217000Y-18714000D01*
G75*
G02*
X-100467000Y-18964000I-250000J0D01*
G01*
X-101717000Y-18964000D01*
G75*
G02*
X-101967000Y-18714000I0J250000D01*
G01*
X-101967000Y-17789000D01*
G75*
G02*
X-101717000Y-17539000I250000J0D01*
G01*
G37*
%TD.AperFunction*%
%TO.P,C30,1*%
%TO.N,GND*%
%TA.AperFunction,SMDPad,CuDef*%
G36*
G01*
X-101717000Y-14564000D02*
X-100467000Y-14564000D01*
G75*
G02*
X-100217000Y-14814000I0J-250000D01*
G01*
X-100217000Y-15739000D01*
G75*
G02*
X-100467000Y-15989000I-250000J0D01*
G01*
X-101717000Y-15989000D01*
G75*
G02*
X-101967000Y-15739000I0J250000D01*
G01*
X-101967000Y-14814000D01*
G75*
G02*
X-101717000Y-14564000I250000J0D01*
G01*
G37*
%TD.AperFunction*%
%TD*%
%TO.P,C29,2*%
%TO.N,GND*%
%TA.AperFunction,SMDPad,CuDef*%
G36*
G01*
X-116723000Y19063000D02*
X-117973000Y19063000D01*
G75*
G02*
X-118223000Y19313000I0J250000D01*
G01*
X-118223000Y20238000D01*
G75*
G02*
X-117973000Y20488000I250000J0D01*
G01*
X-116723000Y20488000D01*
G75*
G02*
X-116473000Y20238000I0J-250000D01*
G01*
X-116473000Y19313000D01*
G75*
G02*
X-116723000Y19063000I-250000J0D01*
G01*
G37*
%TD.AperFunction*%
%TO.P,C29,1*%
%TO.N,Net-(C1-Pad1)*%
%TA.AperFunction,SMDPad,CuDef*%
G36*
G01*
X-116723000Y16088000D02*
X-117973000Y16088000D01*
G75*
G02*
X-118223000Y16338000I0J250000D01*
G01*
X-118223000Y17263000D01*
G75*
G02*
X-117973000Y17513000I250000J0D01*
G01*
X-116723000Y17513000D01*
G75*
G02*
X-116473000Y17263000I0J-250000D01*
G01*
X-116473000Y16338000D01*
G75*
G02*
X-116723000Y16088000I-250000J0D01*
G01*
G37*
%TD.AperFunction*%
%TD*%
%TO.P,C28,2*%
%TO.N,GND*%
%TA.AperFunction,SMDPad,CuDef*%
G36*
G01*
X-117104000Y-4559000D02*
X-118354000Y-4559000D01*
G75*
G02*
X-118604000Y-4309000I0J250000D01*
G01*
X-118604000Y-3384000D01*
G75*
G02*
X-118354000Y-3134000I250000J0D01*
G01*
X-117104000Y-3134000D01*
G75*
G02*
X-116854000Y-3384000I0J-250000D01*
G01*
X-116854000Y-4309000D01*
G75*
G02*
X-117104000Y-4559000I-250000J0D01*
G01*
G37*
%TD.AperFunction*%
%TO.P,C28,1*%
%TO.N,Net-(C1-Pad1)*%
%TA.AperFunction,SMDPad,CuDef*%
G36*
G01*
X-117104000Y-7534000D02*
X-118354000Y-7534000D01*
G75*
G02*
X-118604000Y-7284000I0J250000D01*
G01*
X-118604000Y-6359000D01*
G75*
G02*
X-118354000Y-6109000I250000J0D01*
G01*
X-117104000Y-6109000D01*
G75*
G02*
X-116854000Y-6359000I0J-250000D01*
G01*
X-116854000Y-7284000D01*
G75*
G02*
X-117104000Y-7534000I-250000J0D01*
G01*
G37*
%TD.AperFunction*%
%TD*%
%TO.P,C19,2*%
%TO.N,Net-(C19-Pad2)*%
%TA.AperFunction,SMDPad,CuDef*%
G36*
G01*
X-117211000Y-19825000D02*
X-115961000Y-19825000D01*
G75*
G02*
X-115711000Y-20075000I0J-250000D01*
G01*
X-115711000Y-21000000D01*
G75*
G02*
X-115961000Y-21250000I-250000J0D01*
G01*
X-117211000Y-21250000D01*
G75*
G02*
X-117461000Y-21000000I0J250000D01*
G01*
X-117461000Y-20075000D01*
G75*
G02*
X-117211000Y-19825000I250000J0D01*
G01*
G37*
%TD.AperFunction*%
%TO.P,C19,1*%
%TO.N,GND*%
%TA.AperFunction,SMDPad,CuDef*%
G36*
G01*
X-117211000Y-16850000D02*
X-115961000Y-16850000D01*
G75*
G02*
X-115711000Y-17100000I0J-250000D01*
G01*
X-115711000Y-18025000D01*
G75*
G02*
X-115961000Y-18275000I-250000J0D01*
G01*
X-117211000Y-18275000D01*
G75*
G02*
X-117461000Y-18025000I0J250000D01*
G01*
X-117461000Y-17100000D01*
G75*
G02*
X-117211000Y-16850000I250000J0D01*
G01*
G37*
%TD.AperFunction*%
%TD*%
D16*
%TO.P,C1,1*%
%TO.N,Net-(C1-Pad1)*%
X-126492000Y-2286000D03*
D17*
%TO.P,C1,2*%
%TO.N,GND*%
X-126492000Y-7286000D03*
%TD*%
%TO.P,C2,2*%
%TO.N,GND*%
X-126238000Y15320000D03*
D16*
%TO.P,C2,1*%
%TO.N,Net-(C1-Pad1)*%
X-126238000Y20320000D03*
%TD*%
%TO.P,C3,1*%
%TO.N,GND*%
X-125984000Y-15748000D03*
D17*
%TO.P,C3,2*%
%TO.N,Net-(C19-Pad2)*%
X-125984000Y-20748000D03*
%TD*%
D18*
%TO.P,C4,1*%
%TO.N,/power/5v_rectified*%
X-126238000Y8636000D03*
D19*
%TO.P,C4,2*%
%TO.N,GND*%
X-126238000Y5136000D03*
%TD*%
D18*
%TO.P,C5,1*%
%TO.N,GND*%
X41910000Y-19050000D03*
D19*
%TO.P,C5,2*%
%TO.N,-15V*%
X41910000Y-15550000D03*
%TD*%
%TO.P,C6,2*%
%TO.N,GND*%
X-93599000Y-3104000D03*
D18*
%TO.P,C6,1*%
%TO.N,+12V*%
X-93599000Y-6604000D03*
%TD*%
%TO.P,C7,1*%
%TO.N,+15V*%
X41910000Y17780000D03*
D19*
%TO.P,C7,2*%
%TO.N,GND*%
X41910000Y14280000D03*
%TD*%
%TO.P,C8,2*%
%TO.N,GND*%
X-93345000Y5136000D03*
D18*
%TO.P,C8,1*%
%TO.N,+5V*%
X-93345000Y8636000D03*
%TD*%
%TO.P,C9,2*%
%TO.N,GND*%
%TA.AperFunction,SMDPad,CuDef*%
G36*
G01*
X-126863000Y-42685000D02*
X-125613000Y-42685000D01*
G75*
G02*
X-125363000Y-42935000I0J-250000D01*
G01*
X-125363000Y-43860000D01*
G75*
G02*
X-125613000Y-44110000I-250000J0D01*
G01*
X-126863000Y-44110000D01*
G75*
G02*
X-127113000Y-43860000I0J250000D01*
G01*
X-127113000Y-42935000D01*
G75*
G02*
X-126863000Y-42685000I250000J0D01*
G01*
G37*
%TD.AperFunction*%
%TO.P,C9,1*%
%TO.N,/power/5v_rectified*%
%TA.AperFunction,SMDPad,CuDef*%
G36*
G01*
X-126863000Y-39710000D02*
X-125613000Y-39710000D01*
G75*
G02*
X-125363000Y-39960000I0J-250000D01*
G01*
X-125363000Y-40885000D01*
G75*
G02*
X-125613000Y-41135000I-250000J0D01*
G01*
X-126863000Y-41135000D01*
G75*
G02*
X-127113000Y-40885000I0J250000D01*
G01*
X-127113000Y-39960000D01*
G75*
G02*
X-126863000Y-39710000I250000J0D01*
G01*
G37*
%TD.AperFunction*%
%TD*%
%TO.P,C10,1*%
%TO.N,+3V3*%
%TA.AperFunction,SMDPad,CuDef*%
G36*
G01*
X-139309000Y-39710000D02*
X-138059000Y-39710000D01*
G75*
G02*
X-137809000Y-39960000I0J-250000D01*
G01*
X-137809000Y-40885000D01*
G75*
G02*
X-138059000Y-41135000I-250000J0D01*
G01*
X-139309000Y-41135000D01*
G75*
G02*
X-139559000Y-40885000I0J250000D01*
G01*
X-139559000Y-39960000D01*
G75*
G02*
X-139309000Y-39710000I250000J0D01*
G01*
G37*
%TD.AperFunction*%
%TO.P,C10,2*%
%TO.N,GND*%
%TA.AperFunction,SMDPad,CuDef*%
G36*
G01*
X-139309000Y-42685000D02*
X-138059000Y-42685000D01*
G75*
G02*
X-137809000Y-42935000I0J-250000D01*
G01*
X-137809000Y-43860000D01*
G75*
G02*
X-138059000Y-44110000I-250000J0D01*
G01*
X-139309000Y-44110000D01*
G75*
G02*
X-139559000Y-43860000I0J250000D01*
G01*
X-139559000Y-42935000D01*
G75*
G02*
X-139309000Y-42685000I250000J0D01*
G01*
G37*
%TD.AperFunction*%
%TD*%
D19*
%TO.P,C11,2*%
%TO.N,GND*%
X-131628000Y-30734000D03*
D18*
%TO.P,C11,1*%
%TO.N,+3V3*%
X-135128000Y-30734000D03*
%TD*%
D20*
%TO.P,C12,1*%
%TO.N,+15V*%
X74208000Y-13970000D03*
%TO.P,C12,2*%
%TO.N,GNDA*%
X79208000Y-13970000D03*
%TD*%
%TO.P,C13,1*%
%TO.N,GNDA*%
X65445000Y-13970000D03*
%TO.P,C13,2*%
%TO.N,-15V*%
X70445000Y-13970000D03*
%TD*%
%TO.P,C14,2*%
%TO.N,GNDA*%
X65445000Y13970000D03*
%TO.P,C14,1*%
%TO.N,+15V*%
X70445000Y13970000D03*
%TD*%
%TO.P,C15,2*%
%TO.N,-15V*%
X74970000Y13970000D03*
%TO.P,C15,1*%
%TO.N,GNDA*%
X79970000Y13970000D03*
%TD*%
%TO.P,C16,2*%
%TO.N,Net-(C16-Pad2)*%
%TA.AperFunction,SMDPad,CuDef*%
G36*
G01*
X65649000Y-23101000D02*
X64399000Y-23101000D01*
G75*
G02*
X64149000Y-22851000I0J250000D01*
G01*
X64149000Y-21926000D01*
G75*
G02*
X64399000Y-21676000I250000J0D01*
G01*
X65649000Y-21676000D01*
G75*
G02*
X65899000Y-21926000I0J-250000D01*
G01*
X65899000Y-22851000D01*
G75*
G02*
X65649000Y-23101000I-250000J0D01*
G01*
G37*
%TD.AperFunction*%
%TO.P,C16,1*%
%TO.N,-15V*%
%TA.AperFunction,SMDPad,CuDef*%
G36*
G01*
X65649000Y-26076000D02*
X64399000Y-26076000D01*
G75*
G02*
X64149000Y-25826000I0J250000D01*
G01*
X64149000Y-24901000D01*
G75*
G02*
X64399000Y-24651000I250000J0D01*
G01*
X65649000Y-24651000D01*
G75*
G02*
X65899000Y-24901000I0J-250000D01*
G01*
X65899000Y-25826000D01*
G75*
G02*
X65649000Y-26076000I-250000J0D01*
G01*
G37*
%TD.AperFunction*%
%TD*%
%TO.P,C17,1*%
%TO.N,-15V*%
%TA.AperFunction,SMDPad,CuDef*%
G36*
G01*
X79639000Y26547500D02*
X80889000Y26547500D01*
G75*
G02*
X81139000Y26297500I0J-250000D01*
G01*
X81139000Y25372500D01*
G75*
G02*
X80889000Y25122500I-250000J0D01*
G01*
X79639000Y25122500D01*
G75*
G02*
X79389000Y25372500I0J250000D01*
G01*
X79389000Y26297500D01*
G75*
G02*
X79639000Y26547500I250000J0D01*
G01*
G37*
%TD.AperFunction*%
%TO.P,C17,2*%
%TO.N,Net-(C17-Pad2)*%
%TA.AperFunction,SMDPad,CuDef*%
G36*
G01*
X79639000Y23572500D02*
X80889000Y23572500D01*
G75*
G02*
X81139000Y23322500I0J-250000D01*
G01*
X81139000Y22397500D01*
G75*
G02*
X80889000Y22147500I-250000J0D01*
G01*
X79639000Y22147500D01*
G75*
G02*
X79389000Y22397500I0J250000D01*
G01*
X79389000Y23322500D01*
G75*
G02*
X79639000Y23572500I250000J0D01*
G01*
G37*
%TD.AperFunction*%
%TD*%
%TO.P,C18,1*%
%TO.N,GND*%
%TA.AperFunction,SMDPad,CuDef*%
G36*
G01*
X144877999Y-20301001D02*
X146127999Y-20301001D01*
G75*
G02*
X146377999Y-20551001I0J-250000D01*
G01*
X146377999Y-21476001D01*
G75*
G02*
X146127999Y-21726001I-250000J0D01*
G01*
X144877999Y-21726001D01*
G75*
G02*
X144627999Y-21476001I0J250000D01*
G01*
X144627999Y-20551001D01*
G75*
G02*
X144877999Y-20301001I250000J0D01*
G01*
G37*
%TD.AperFunction*%
%TO.P,C18,2*%
%TO.N,GNDA*%
%TA.AperFunction,SMDPad,CuDef*%
G36*
G01*
X144877999Y-23276001D02*
X146127999Y-23276001D01*
G75*
G02*
X146377999Y-23526001I0J-250000D01*
G01*
X146377999Y-24451001D01*
G75*
G02*
X146127999Y-24701001I-250000J0D01*
G01*
X144877999Y-24701001D01*
G75*
G02*
X144627999Y-24451001I0J250000D01*
G01*
X144627999Y-23526001D01*
G75*
G02*
X144877999Y-23276001I250000J0D01*
G01*
G37*
%TD.AperFunction*%
%TD*%
D19*
%TO.P,C20,2*%
%TO.N,-15V*%
X57150000Y-14280000D03*
D18*
%TO.P,C20,1*%
%TO.N,Net-(C16-Pad2)*%
X57150000Y-17780000D03*
%TD*%
%TO.P,C23,1*%
%TO.N,Net-(C17-Pad2)*%
X86995000Y20320000D03*
D19*
%TO.P,C23,2*%
%TO.N,-15V*%
X86995000Y16820000D03*
%TD*%
D14*
%TO.P,J2,2*%
%TO.N,Net-(J2-Pad2)*%
X-162410000Y-44450000D03*
%TO.P,J2,1*%
%TO.N,Net-(J2-Pad1)*%
X-168910000Y-44450000D03*
%TD*%
%TO.P,J3,4*%
%TO.N,Net-(J3-Pad4)*%
X162410000Y-59840000D03*
%TO.P,J3,3*%
%TO.N,GNDPWR*%
X162410000Y-53340000D03*
%TO.P,J3,2*%
%TO.N,LINE*%
X168910000Y-59840000D03*
%TO.P,J3,1*%
%TO.N,NEUT*%
X168910000Y-53340000D03*
%TD*%
%TO.P,J4,1*%
%TO.N,Filament_line*%
X170180000Y-39370000D03*
%TO.P,J4,2*%
%TO.N,NEUT*%
X163680000Y-39370000D03*
%TD*%
%TO.P,J5,2*%
%TO.N,NEUT*%
X163680000Y-25400000D03*
%TO.P,J5,1*%
%TO.N,Bplus_line*%
X170180000Y-25400000D03*
%TD*%
D13*
%TO.P,J6,3*%
%TO.N,Net-(J6-Pad3)*%
X-170180000Y55880000D03*
%TO.P,J6,2*%
%TO.N,GND*%
X-170180000Y58420000D03*
D12*
%TO.P,J6,1*%
%TO.N,/controls/operate_switch*%
X-170180000Y60960000D03*
%TD*%
%TO.P,J7,1*%
%TO.N,/controls/mute_switch*%
X-170180000Y46990000D03*
D13*
%TO.P,J7,2*%
%TO.N,GND*%
X-170180000Y44450000D03*
%TO.P,J7,3*%
%TO.N,Net-(J7-Pad3)*%
X-170180000Y41910000D03*
%TD*%
%TO.P,J8,3*%
%TO.N,/controls/sel_enc_2*%
X-162560000Y55880000D03*
%TO.P,J8,2*%
%TO.N,GND*%
X-162560000Y58420000D03*
D12*
%TO.P,J8,1*%
%TO.N,/controls/sel_enc_1*%
X-162560000Y60960000D03*
%TD*%
%TO.P,J9,1*%
%TO.N,/controls/vol_enc_1*%
X-162560000Y46990000D03*
D13*
%TO.P,J9,2*%
%TO.N,GND*%
X-162560000Y44450000D03*
%TO.P,J9,3*%
%TO.N,/controls/vol_enc_2*%
X-162560000Y41910000D03*
%TD*%
D11*
%TO.P,J11,3*%
%TO.N,GNDA*%
X72898000Y-41308000D03*
%TO.P,J11,2*%
%TO.N,left_amp_in_inv*%
X72898000Y-38608000D03*
D21*
%TO.P,J11,1*%
%TO.N,left_amp_in_noninv*%
X72898000Y-35908000D03*
%TD*%
D11*
%TO.P,J12,3*%
%TO.N,GNDA*%
X73025000Y36355000D03*
%TO.P,J12,2*%
%TO.N,right_amp_in_inv*%
X73025000Y33655000D03*
D21*
%TO.P,J12,1*%
%TO.N,right_amp_in_noninv*%
X73025000Y30955000D03*
%TD*%
%TO.P,J13,1*%
%TO.N,left_amp_out_noninv*%
X-91440000Y-23495000D03*
D11*
%TO.P,J13,2*%
%TO.N,left_amp_out_inv*%
X-91440000Y-26195000D03*
%TO.P,J13,3*%
%TO.N,GNDA*%
X-91440000Y-28895000D03*
%TD*%
D21*
%TO.P,J14,1*%
%TO.N,right_amp_out_noninv*%
X-91440000Y38260000D03*
D11*
%TO.P,J14,2*%
%TO.N,right_amp_out_inv*%
X-91440000Y35560000D03*
%TO.P,J14,3*%
%TO.N,GNDA*%
X-91440000Y32860000D03*
%TD*%
D12*
%TO.P,J15,1*%
%TO.N,spare_12v_3*%
X99060000Y10160000D03*
D13*
%TO.P,J15,2*%
%TO.N,Net-(J15-Pad2)*%
X99060000Y12700000D03*
%TD*%
D12*
%TO.P,J16,1*%
%TO.N,+3V3*%
X-170180000Y29210000D03*
D13*
%TO.P,J16,2*%
%TO.N,GND*%
X-170180000Y26670000D03*
%TO.P,J16,3*%
%TO.N,i2c1_scl*%
X-170180000Y24130000D03*
%TO.P,J16,4*%
%TO.N,i2c1_sda*%
X-170180000Y21590000D03*
%TO.P,J16,5*%
%TO.N,Net-(J16-Pad5)*%
X-170180000Y19050000D03*
%TO.P,J16,6*%
%TO.N,Net-(J16-Pad6)*%
X-170180000Y16510000D03*
%TO.P,J16,7*%
%TO.N,Net-(J16-Pad7)*%
X-170180000Y13970000D03*
%TO.P,J16,8*%
%TO.N,Net-(J16-Pad8)*%
X-170180000Y11430000D03*
%TD*%
D11*
%TO.P,J20,1*%
%TO.N,Net-(J17-Pad2)*%
X-43180000Y-66040000D03*
%TO.P,J20,2*%
%TO.N,GNDA*%
X-34290000Y-66040000D03*
%TD*%
%TO.P,J21,1*%
%TO.N,left_out_noninv*%
X-74930000Y-66040000D03*
%TO.P,J21,2*%
%TO.N,GNDA*%
X-66040000Y-66040000D03*
%TD*%
%TO.P,J22,2*%
%TO.N,GNDA*%
X-97790000Y-66040000D03*
%TO.P,J22,1*%
%TO.N,left_out_noninv*%
X-106680000Y-66040000D03*
%TD*%
D12*
%TO.P,J26,1*%
%TO.N,Net-(J26-Pad1)*%
X-153670000Y60960000D03*
D13*
%TO.P,J26,2*%
%TO.N,Net-(J26-Pad2)*%
X-153670000Y58420000D03*
%TO.P,J26,3*%
%TO.N,Net-(J26-Pad3)*%
X-153670000Y55880000D03*
%TO.P,J26,4*%
%TO.N,Net-(J26-Pad4)*%
X-153670000Y53340000D03*
%TO.P,J26,5*%
%TO.N,GND*%
X-153670000Y50800000D03*
%TO.P,J26,6*%
%TO.N,+5V*%
X-153670000Y48260000D03*
%TD*%
D11*
%TO.P,J27,2*%
%TO.N,GNDA*%
X-34290000Y66040000D03*
%TO.P,J27,1*%
%TO.N,Net-(J23-Pad2)*%
X-43180000Y66040000D03*
%TD*%
%TO.P,J28,2*%
%TO.N,GNDA*%
X-66040000Y66040000D03*
%TO.P,J28,1*%
%TO.N,right_out_noninv*%
X-74930000Y66040000D03*
%TD*%
%TO.P,J30,2*%
%TO.N,GNDA*%
X-15240000Y-66040000D03*
%TO.P,J30,1*%
%TO.N,Net-(J30-Pad1)*%
X-6350000Y-66040000D03*
%TD*%
%TO.P,J31,1*%
%TO.N,Net-(J31-Pad1)*%
X88900000Y-66040000D03*
%TO.P,J31,2*%
%TO.N,GNDA*%
X80010000Y-66040000D03*
%TD*%
%TO.P,J32,2*%
%TO.N,GNDA*%
X48260000Y-66040000D03*
%TO.P,J32,1*%
%TO.N,Net-(J32-Pad1)*%
X57150000Y-66040000D03*
%TD*%
%TO.P,J33,1*%
%TO.N,Net-(J33-Pad1)*%
X25400000Y-66040000D03*
%TO.P,J33,2*%
%TO.N,GNDA*%
X16510000Y-66040000D03*
%TD*%
%TO.P,J34,2*%
%TO.N,GNDA*%
X111760000Y-66040000D03*
%TO.P,J34,1*%
%TO.N,Net-(J34-Pad1)*%
X120650000Y-66040000D03*
%TD*%
%TO.P,J45,1*%
%TO.N,Net-(J40-Pad2)*%
X120650000Y66040000D03*
%TO.P,J45,2*%
%TO.N,GNDA*%
X111760000Y66040000D03*
%TD*%
%TO.P,J46,2*%
%TO.N,GNDA*%
X80010000Y66040000D03*
%TO.P,J46,1*%
%TO.N,Net-(J41-Pad2)*%
X88900000Y66040000D03*
%TD*%
%TO.P,J47,1*%
%TO.N,Net-(J42-Pad2)*%
X57150000Y66040000D03*
%TO.P,J47,2*%
%TO.N,GNDA*%
X48260000Y66040000D03*
%TD*%
%TO.P,J48,2*%
%TO.N,GNDA*%
X16510000Y66040000D03*
%TO.P,J48,1*%
%TO.N,Net-(J43-Pad2)*%
X25400000Y66040000D03*
%TD*%
%TO.P,J49,1*%
%TO.N,Net-(J44-Pad2)*%
X-6350000Y66040000D03*
%TO.P,J49,2*%
%TO.N,GNDA*%
X-15240000Y66040000D03*
%TD*%
D22*
%TO.P,K1,A1*%
%TO.N,/relays/filament_relay*%
X147320000Y0D03*
D23*
%TO.P,K1,21*%
%TO.N,Net-(K1-Pad21)*%
X167640000Y7620000D03*
%TO.P,K1,11*%
%TO.N,Filament_line*%
X167640000Y0D03*
%TO.P,K1,14*%
%TO.N,LINE*%
X172720000Y0D03*
%TO.P,K1,22*%
%TO.N,Net-(K1-Pad22)*%
X162560000Y7620000D03*
%TO.P,K1,24*%
%TO.N,Net-(K1-Pad24)*%
X172720000Y7620000D03*
%TO.P,K1,A2*%
%TO.N,GND*%
X147320000Y7620000D03*
%TO.P,K1,12*%
%TO.N,Net-(K1-Pad12)*%
X162560000Y0D03*
%TD*%
D24*
%TO.P,K2,5*%
%TO.N,Net-(K2-Pad5)*%
X-94615000Y-56515000D03*
%TO.P,K2,9*%
%TO.N,GNDA*%
X-86995000Y-48895000D03*
%TO.P,K2,4*%
%TO.N,left_amp_out_noninv*%
X-94615000Y-53975000D03*
%TO.P,K2,8*%
%TO.N,left_out_inv*%
X-86995000Y-51435000D03*
%TO.P,K2,3*%
%TO.N,left_out_noninv*%
X-94615000Y-51435000D03*
%TO.P,K2,7*%
%TO.N,left_amp_out_inv*%
X-86995000Y-53975000D03*
%TO.P,K2,2*%
%TO.N,GNDA*%
X-94615000Y-48895000D03*
%TO.P,K2,10*%
%TO.N,GND*%
X-86995000Y-46355000D03*
D25*
%TO.P,K2,1*%
%TO.N,/relays/mute_relay*%
X-94615000Y-46355000D03*
D24*
%TO.P,K2,6*%
%TO.N,Net-(K2-Pad6)*%
X-86995000Y-56515000D03*
%TD*%
D23*
%TO.P,K3,12*%
%TO.N,Net-(K3-Pad12)*%
X162560000Y-15240000D03*
%TO.P,K3,A2*%
%TO.N,GND*%
X147320000Y-7620000D03*
%TO.P,K3,24*%
%TO.N,Net-(K3-Pad24)*%
X172720000Y-7620000D03*
%TO.P,K3,22*%
%TO.N,Net-(K3-Pad22)*%
X162560000Y-7620000D03*
%TO.P,K3,14*%
%TO.N,LINE*%
X172720000Y-15240000D03*
%TO.P,K3,11*%
%TO.N,Bplus_line*%
X167640000Y-15240000D03*
%TO.P,K3,21*%
%TO.N,Net-(K3-Pad21)*%
X167640000Y-7620000D03*
D22*
%TO.P,K3,A1*%
%TO.N,/relays/bplus_relay*%
X147320000Y-15240000D03*
%TD*%
D24*
%TO.P,K4,6*%
%TO.N,Net-(K4-Pad6)*%
X-87630000Y46990000D03*
D25*
%TO.P,K4,1*%
%TO.N,/relays/mute_relay*%
X-95250000Y57150000D03*
D24*
%TO.P,K4,10*%
%TO.N,GND*%
X-87630000Y57150000D03*
%TO.P,K4,2*%
%TO.N,GNDA*%
X-95250000Y54610000D03*
%TO.P,K4,7*%
%TO.N,right_amp_out_inv*%
X-87630000Y49530000D03*
%TO.P,K4,3*%
%TO.N,right_out_noninv*%
X-95250000Y52070000D03*
%TO.P,K4,8*%
%TO.N,right_out_inv*%
X-87630000Y52070000D03*
%TO.P,K4,4*%
%TO.N,right_amp_out_noninv*%
X-95250000Y49530000D03*
%TO.P,K4,9*%
%TO.N,GNDA*%
X-87630000Y54610000D03*
%TO.P,K4,5*%
%TO.N,Net-(K4-Pad5)*%
X-95250000Y46990000D03*
%TD*%
D23*
%TO.P,K5,9*%
%TO.N,Net-(J35-Pad3)*%
X120650000Y-59690000D03*
%TO.P,K5,2*%
%TO.N,/relays/sel1_reset*%
X135890000Y-52070000D03*
%TO.P,K5,11*%
%TO.N,Net-(K5-Pad11)*%
X125730000Y-59690000D03*
%TO.P,K5,4*%
%TO.N,left_sel_noninv*%
X130810000Y-52070000D03*
%TO.P,K5,13*%
%TO.N,left_sel_inv*%
X130810000Y-59690000D03*
%TO.P,K5,6*%
%TO.N,Net-(K5-Pad6)*%
X125730000Y-52070000D03*
%TO.P,K5,15*%
%TO.N,GND*%
X135890000Y-59690000D03*
%TO.P,K5,8*%
%TO.N,Net-(J34-Pad1)*%
X120650000Y-52070000D03*
%TO.P,K5,16*%
%TO.N,GND*%
X138430000Y-59690000D03*
D22*
%TO.P,K5,1*%
%TO.N,/relays/sel1_set*%
X138430000Y-52070000D03*
%TD*%
%TO.P,K6,1*%
%TO.N,/relays/sel2_set*%
X106680000Y-52070000D03*
D23*
%TO.P,K6,16*%
%TO.N,GND*%
X106680000Y-59690000D03*
%TO.P,K6,8*%
%TO.N,Net-(J31-Pad1)*%
X88900000Y-52070000D03*
%TO.P,K6,15*%
%TO.N,GND*%
X104140000Y-59690000D03*
%TO.P,K6,6*%
%TO.N,Net-(K6-Pad6)*%
X93980000Y-52070000D03*
%TO.P,K6,13*%
%TO.N,left_sel_inv*%
X99060000Y-59690000D03*
%TO.P,K6,4*%
%TO.N,left_sel_noninv*%
X99060000Y-52070000D03*
%TO.P,K6,11*%
%TO.N,Net-(K6-Pad11)*%
X93980000Y-59690000D03*
%TO.P,K6,2*%
%TO.N,/relays/sel2_reset*%
X104140000Y-52070000D03*
%TO.P,K6,9*%
%TO.N,Net-(J36-Pad3)*%
X88900000Y-59690000D03*
%TD*%
%TO.P,K7,9*%
%TO.N,Net-(J37-Pad3)*%
X57150000Y-59690000D03*
%TO.P,K7,2*%
%TO.N,/relays/sel3_reset*%
X72390000Y-52070000D03*
%TO.P,K7,11*%
%TO.N,Net-(K7-Pad11)*%
X62230000Y-59690000D03*
%TO.P,K7,4*%
%TO.N,left_sel_noninv*%
X67310000Y-52070000D03*
%TO.P,K7,13*%
%TO.N,left_sel_inv*%
X67310000Y-59690000D03*
%TO.P,K7,6*%
%TO.N,Net-(K7-Pad6)*%
X62230000Y-52070000D03*
%TO.P,K7,15*%
%TO.N,GND*%
X72390000Y-59690000D03*
%TO.P,K7,8*%
%TO.N,Net-(J32-Pad1)*%
X57150000Y-52070000D03*
%TO.P,K7,16*%
%TO.N,GND*%
X74930000Y-59690000D03*
D22*
%TO.P,K7,1*%
%TO.N,/relays/sel3_set*%
X74930000Y-52070000D03*
%TD*%
%TO.P,K8,1*%
%TO.N,/relays/sel4_set*%
X43180000Y-52070000D03*
D23*
%TO.P,K8,16*%
%TO.N,GND*%
X43180000Y-59690000D03*
%TO.P,K8,8*%
%TO.N,Net-(J33-Pad1)*%
X25400000Y-52070000D03*
%TO.P,K8,15*%
%TO.N,GND*%
X40640000Y-59690000D03*
%TO.P,K8,6*%
%TO.N,Net-(K8-Pad6)*%
X30480000Y-52070000D03*
%TO.P,K8,13*%
%TO.N,left_sel_inv*%
X35560000Y-59690000D03*
%TO.P,K8,4*%
%TO.N,left_sel_noninv*%
X35560000Y-52070000D03*
%TO.P,K8,11*%
%TO.N,Net-(K8-Pad11)*%
X30480000Y-59690000D03*
%TO.P,K8,2*%
%TO.N,/relays/sel4_reset*%
X40640000Y-52070000D03*
%TO.P,K8,9*%
%TO.N,Net-(J38-Pad3)*%
X25400000Y-59690000D03*
%TD*%
%TO.P,K9,9*%
%TO.N,Net-(J39-Pad3)*%
X-6350000Y-59690000D03*
%TO.P,K9,2*%
%TO.N,/relays/sel5_reset*%
X8890000Y-52070000D03*
%TO.P,K9,11*%
%TO.N,Net-(K9-Pad11)*%
X-1270000Y-59690000D03*
%TO.P,K9,4*%
%TO.N,left_sel_noninv*%
X3810000Y-52070000D03*
%TO.P,K9,13*%
%TO.N,left_sel_inv*%
X3810000Y-59690000D03*
%TO.P,K9,6*%
%TO.N,Net-(K9-Pad6)*%
X-1270000Y-52070000D03*
%TO.P,K9,15*%
%TO.N,GND*%
X8890000Y-59690000D03*
%TO.P,K9,8*%
%TO.N,Net-(J30-Pad1)*%
X-6350000Y-52070000D03*
%TO.P,K9,16*%
%TO.N,GND*%
X11430000Y-59690000D03*
D22*
%TO.P,K9,1*%
%TO.N,/relays/sel5_set*%
X11430000Y-52070000D03*
%TD*%
%TO.P,K10,1*%
%TO.N,/relays/sel1_set*%
X138430000Y59690000D03*
D23*
%TO.P,K10,16*%
%TO.N,GND*%
X138430000Y52070000D03*
%TO.P,K10,8*%
%TO.N,Net-(J40-Pad2)*%
X120650000Y59690000D03*
%TO.P,K10,15*%
%TO.N,GND*%
X135890000Y52070000D03*
%TO.P,K10,6*%
%TO.N,Net-(K10-Pad6)*%
X125730000Y59690000D03*
%TO.P,K10,13*%
%TO.N,right_sel_inv*%
X130810000Y52070000D03*
%TO.P,K10,4*%
%TO.N,right_sel_noninv*%
X130810000Y59690000D03*
%TO.P,K10,11*%
%TO.N,Net-(K10-Pad11)*%
X125730000Y52070000D03*
%TO.P,K10,2*%
%TO.N,/relays/sel1_reset*%
X135890000Y59690000D03*
%TO.P,K10,9*%
%TO.N,Net-(J40-Pad3)*%
X120650000Y52070000D03*
%TD*%
%TO.P,K11,9*%
%TO.N,Net-(J41-Pad3)*%
X88900000Y52070000D03*
%TO.P,K11,2*%
%TO.N,/relays/sel2_reset*%
X104140000Y59690000D03*
%TO.P,K11,11*%
%TO.N,Net-(K11-Pad11)*%
X93980000Y52070000D03*
%TO.P,K11,4*%
%TO.N,right_sel_noninv*%
X99060000Y59690000D03*
%TO.P,K11,13*%
%TO.N,right_sel_inv*%
X99060000Y52070000D03*
%TO.P,K11,6*%
%TO.N,Net-(K11-Pad6)*%
X93980000Y59690000D03*
%TO.P,K11,15*%
%TO.N,GND*%
X104140000Y52070000D03*
%TO.P,K11,8*%
%TO.N,Net-(J41-Pad2)*%
X88900000Y59690000D03*
%TO.P,K11,16*%
%TO.N,GND*%
X106680000Y52070000D03*
D22*
%TO.P,K11,1*%
%TO.N,/relays/sel2_set*%
X106680000Y59690000D03*
%TD*%
%TO.P,K12,1*%
%TO.N,/relays/sel3_set*%
X74930000Y59690000D03*
D23*
%TO.P,K12,16*%
%TO.N,GND*%
X74930000Y52070000D03*
%TO.P,K12,8*%
%TO.N,Net-(J42-Pad2)*%
X57150000Y59690000D03*
%TO.P,K12,15*%
%TO.N,GND*%
X72390000Y52070000D03*
%TO.P,K12,6*%
%TO.N,Net-(K12-Pad6)*%
X62230000Y59690000D03*
%TO.P,K12,13*%
%TO.N,right_sel_inv*%
X67310000Y52070000D03*
%TO.P,K12,4*%
%TO.N,right_sel_noninv*%
X67310000Y59690000D03*
%TO.P,K12,11*%
%TO.N,Net-(K12-Pad11)*%
X62230000Y52070000D03*
%TO.P,K12,2*%
%TO.N,/relays/sel3_reset*%
X72390000Y59690000D03*
%TO.P,K12,9*%
%TO.N,Net-(J42-Pad3)*%
X57150000Y52070000D03*
%TD*%
%TO.P,K13,9*%
%TO.N,Net-(J43-Pad3)*%
X25400000Y52070000D03*
%TO.P,K13,2*%
%TO.N,/relays/sel4_reset*%
X40640000Y59690000D03*
%TO.P,K13,11*%
%TO.N,Net-(K13-Pad11)*%
X30480000Y52070000D03*
%TO.P,K13,4*%
%TO.N,right_sel_noninv*%
X35560000Y59690000D03*
%TO.P,K13,13*%
%TO.N,right_sel_inv*%
X35560000Y52070000D03*
%TO.P,K13,6*%
%TO.N,Net-(K13-Pad6)*%
X30480000Y59690000D03*
%TO.P,K13,15*%
%TO.N,GND*%
X40640000Y52070000D03*
%TO.P,K13,8*%
%TO.N,Net-(J43-Pad2)*%
X25400000Y59690000D03*
%TO.P,K13,16*%
%TO.N,GND*%
X43180000Y52070000D03*
D22*
%TO.P,K13,1*%
%TO.N,/relays/sel4_set*%
X43180000Y59690000D03*
%TD*%
%TO.P,K14,1*%
%TO.N,/relays/sel5_set*%
X11430000Y59690000D03*
D23*
%TO.P,K14,16*%
%TO.N,GND*%
X11430000Y52070000D03*
%TO.P,K14,8*%
%TO.N,Net-(J44-Pad2)*%
X-6350000Y59690000D03*
%TO.P,K14,15*%
%TO.N,GND*%
X8890000Y52070000D03*
%TO.P,K14,6*%
%TO.N,Net-(K14-Pad6)*%
X-1270000Y59690000D03*
%TO.P,K14,13*%
%TO.N,right_sel_inv*%
X3810000Y52070000D03*
%TO.P,K14,4*%
%TO.N,right_sel_noninv*%
X3810000Y59690000D03*
%TO.P,K14,11*%
%TO.N,Net-(K14-Pad11)*%
X-1270000Y52070000D03*
%TO.P,K14,2*%
%TO.N,/relays/sel5_reset*%
X8890000Y59690000D03*
%TO.P,K14,9*%
%TO.N,Net-(J44-Pad3)*%
X-6350000Y52070000D03*
%TD*%
D26*
%TO.P,Q1,1*%
%TO.N,+3V3*%
X63185000Y3445000D03*
%TO.P,Q1,2*%
%TO.N,vol_spi_latch*%
X65085000Y3445000D03*
%TO.P,Q1,3*%
%TO.N,/volume/vol_latch_5v*%
X64135000Y5445000D03*
%TD*%
%TO.P,Q2,1*%
%TO.N,+3V3*%
X54930000Y3445000D03*
%TO.P,Q2,2*%
%TO.N,vol_spi_clock*%
X56830000Y3445000D03*
%TO.P,Q2,3*%
%TO.N,/volume/vol_clock_5v*%
X55880000Y5445000D03*
%TD*%
%TO.P,Q3,3*%
%TO.N,/volume/vol_data_5v*%
X47625000Y5445000D03*
%TO.P,Q3,2*%
%TO.N,vol_spi_data*%
X48575000Y3445000D03*
%TO.P,Q3,1*%
%TO.N,+3V3*%
X46675000Y3445000D03*
%TD*%
D27*
%TO.P,Q4,1*%
%TO.N,+3V3*%
X-142510000Y57470000D03*
%TO.P,Q4,2*%
%TO.N,i2c1_scl*%
X-142510000Y59370000D03*
%TO.P,Q4,3*%
%TO.N,Net-(J26-Pad3)*%
X-144510000Y58420000D03*
%TD*%
%TO.P,Q5,3*%
%TO.N,Net-(J26-Pad4)*%
X-144510000Y52705000D03*
%TO.P,Q5,2*%
%TO.N,i2c1_sda*%
X-142510000Y53655000D03*
%TO.P,Q5,1*%
%TO.N,+3V3*%
X-142510000Y51755000D03*
%TD*%
%TO.P,Q6,3*%
%TO.N,Net-(Q6-Pad3)*%
X-68215000Y1397000D03*
%TO.P,Q6,2*%
%TO.N,relay_spi_clock*%
X-70215000Y447000D03*
%TO.P,Q6,1*%
%TO.N,+3V3*%
X-70215000Y2347000D03*
%TD*%
%TO.P,Q7,3*%
%TO.N,Net-(Q7-Pad3)*%
X-68215000Y13208000D03*
%TO.P,Q7,2*%
%TO.N,relay_spi_data*%
X-70215000Y12258000D03*
%TO.P,Q7,1*%
%TO.N,+3V3*%
X-70215000Y14158000D03*
%TD*%
%TO.P,Q8,1*%
%TO.N,+3V3*%
X-70215000Y8316000D03*
%TO.P,Q8,2*%
%TO.N,relay_spi_strobe*%
X-70215000Y6416000D03*
%TO.P,Q8,3*%
%TO.N,Net-(Q8-Pad3)*%
X-68215000Y7366000D03*
%TD*%
D15*
%TO.P,R1,1*%
%TO.N,-15V*%
X33655000Y-17145000D03*
D28*
%TO.P,R1,2*%
%TO.N,Net-(C30-Pad2)*%
X18415000Y-17145000D03*
%TD*%
%TO.P,R2,2*%
%TO.N,Net-(C32-Pad1)*%
X18415000Y17780000D03*
D15*
%TO.P,R2,1*%
%TO.N,+15V*%
X33655000Y17780000D03*
%TD*%
%TO.P,R3,2*%
%TO.N,vol_spi_latch*%
%TA.AperFunction,SMDPad,CuDef*%
G36*
G01*
X64910000Y10000D02*
X64910000Y1260000D01*
G75*
G02*
X65160000Y1510000I250000J0D01*
G01*
X66085000Y1510000D01*
G75*
G02*
X66335000Y1260000I0J-250000D01*
G01*
X66335000Y10000D01*
G75*
G02*
X66085000Y-240000I-250000J0D01*
G01*
X65160000Y-240000D01*
G75*
G02*
X64910000Y10000I0J250000D01*
G01*
G37*
%TD.AperFunction*%
%TO.P,R3,1*%
%TO.N,+3V3*%
%TA.AperFunction,SMDPad,CuDef*%
G36*
G01*
X61935000Y10000D02*
X61935000Y1260000D01*
G75*
G02*
X62185000Y1510000I250000J0D01*
G01*
X63110000Y1510000D01*
G75*
G02*
X63360000Y1260000I0J-250000D01*
G01*
X63360000Y10000D01*
G75*
G02*
X63110000Y-240000I-250000J0D01*
G01*
X62185000Y-240000D01*
G75*
G02*
X61935000Y10000I0J250000D01*
G01*
G37*
%TD.AperFunction*%
%TD*%
%TO.P,R4,2*%
%TO.N,vol_spi_clock*%
%TA.AperFunction,SMDPad,CuDef*%
G36*
G01*
X56655000Y10000D02*
X56655000Y1260000D01*
G75*
G02*
X56905000Y1510000I250000J0D01*
G01*
X57830000Y1510000D01*
G75*
G02*
X58080000Y1260000I0J-250000D01*
G01*
X58080000Y10000D01*
G75*
G02*
X57830000Y-240000I-250000J0D01*
G01*
X56905000Y-240000D01*
G75*
G02*
X56655000Y10000I0J250000D01*
G01*
G37*
%TD.AperFunction*%
%TO.P,R4,1*%
%TO.N,+3V3*%
%TA.AperFunction,SMDPad,CuDef*%
G36*
G01*
X53680000Y10000D02*
X53680000Y1260000D01*
G75*
G02*
X53930000Y1510000I250000J0D01*
G01*
X54855000Y1510000D01*
G75*
G02*
X55105000Y1260000I0J-250000D01*
G01*
X55105000Y10000D01*
G75*
G02*
X54855000Y-240000I-250000J0D01*
G01*
X53930000Y-240000D01*
G75*
G02*
X53680000Y10000I0J250000D01*
G01*
G37*
%TD.AperFunction*%
%TD*%
%TO.P,R5,1*%
%TO.N,+3V3*%
%TA.AperFunction,SMDPad,CuDef*%
G36*
G01*
X45620001Y84999D02*
X45620001Y1334999D01*
G75*
G02*
X45870001Y1584999I250000J0D01*
G01*
X46795001Y1584999D01*
G75*
G02*
X47045001Y1334999I0J-250000D01*
G01*
X47045001Y84999D01*
G75*
G02*
X46795001Y-165001I-250000J0D01*
G01*
X45870001Y-165001D01*
G75*
G02*
X45620001Y84999I0J250000D01*
G01*
G37*
%TD.AperFunction*%
%TO.P,R5,2*%
%TO.N,vol_spi_data*%
%TA.AperFunction,SMDPad,CuDef*%
G36*
G01*
X48595001Y84999D02*
X48595001Y1334999D01*
G75*
G02*
X48845001Y1584999I250000J0D01*
G01*
X49770001Y1584999D01*
G75*
G02*
X50020001Y1334999I0J-250000D01*
G01*
X50020001Y84999D01*
G75*
G02*
X49770001Y-165001I-250000J0D01*
G01*
X48845001Y-165001D01*
G75*
G02*
X48595001Y84999I0J250000D01*
G01*
G37*
%TD.AperFunction*%
%TD*%
%TO.P,R6,1*%
%TO.N,+5V*%
%TA.AperFunction,SMDPad,CuDef*%
G36*
G01*
X61935000Y7630000D02*
X61935000Y8880000D01*
G75*
G02*
X62185000Y9130000I250000J0D01*
G01*
X63110000Y9130000D01*
G75*
G02*
X63360000Y8880000I0J-250000D01*
G01*
X63360000Y7630000D01*
G75*
G02*
X63110000Y7380000I-250000J0D01*
G01*
X62185000Y7380000D01*
G75*
G02*
X61935000Y7630000I0J250000D01*
G01*
G37*
%TD.AperFunction*%
%TO.P,R6,2*%
%TO.N,/volume/vol_latch_5v*%
%TA.AperFunction,SMDPad,CuDef*%
G36*
G01*
X64910000Y7630000D02*
X64910000Y8880000D01*
G75*
G02*
X65160000Y9130000I250000J0D01*
G01*
X66085000Y9130000D01*
G75*
G02*
X66335000Y8880000I0J-250000D01*
G01*
X66335000Y7630000D01*
G75*
G02*
X66085000Y7380000I-250000J0D01*
G01*
X65160000Y7380000D01*
G75*
G02*
X64910000Y7630000I0J250000D01*
G01*
G37*
%TD.AperFunction*%
%TD*%
%TO.P,R7,1*%
%TO.N,+5V*%
%TA.AperFunction,SMDPad,CuDef*%
G36*
G01*
X53462500Y7630000D02*
X53462500Y8880000D01*
G75*
G02*
X53712500Y9130000I250000J0D01*
G01*
X54637500Y9130000D01*
G75*
G02*
X54887500Y8880000I0J-250000D01*
G01*
X54887500Y7630000D01*
G75*
G02*
X54637500Y7380000I-250000J0D01*
G01*
X53712500Y7380000D01*
G75*
G02*
X53462500Y7630000I0J250000D01*
G01*
G37*
%TD.AperFunction*%
%TO.P,R7,2*%
%TO.N,/volume/vol_clock_5v*%
%TA.AperFunction,SMDPad,CuDef*%
G36*
G01*
X56437500Y7630000D02*
X56437500Y8880000D01*
G75*
G02*
X56687500Y9130000I250000J0D01*
G01*
X57612500Y9130000D01*
G75*
G02*
X57862500Y8880000I0J-250000D01*
G01*
X57862500Y7630000D01*
G75*
G02*
X57612500Y7380000I-250000J0D01*
G01*
X56687500Y7380000D01*
G75*
G02*
X56437500Y7630000I0J250000D01*
G01*
G37*
%TD.AperFunction*%
%TD*%
%TO.P,R8,1*%
%TO.N,+5V*%
%TA.AperFunction,SMDPad,CuDef*%
G36*
G01*
X45425000Y7630000D02*
X45425000Y8880000D01*
G75*
G02*
X45675000Y9130000I250000J0D01*
G01*
X46600000Y9130000D01*
G75*
G02*
X46850000Y8880000I0J-250000D01*
G01*
X46850000Y7630000D01*
G75*
G02*
X46600000Y7380000I-250000J0D01*
G01*
X45675000Y7380000D01*
G75*
G02*
X45425000Y7630000I0J250000D01*
G01*
G37*
%TD.AperFunction*%
%TO.P,R8,2*%
%TO.N,/volume/vol_data_5v*%
%TA.AperFunction,SMDPad,CuDef*%
G36*
G01*
X48400000Y7630000D02*
X48400000Y8880000D01*
G75*
G02*
X48650000Y9130000I250000J0D01*
G01*
X49575000Y9130000D01*
G75*
G02*
X49825000Y8880000I0J-250000D01*
G01*
X49825000Y7630000D01*
G75*
G02*
X49575000Y7380000I-250000J0D01*
G01*
X48650000Y7380000D01*
G75*
G02*
X48400000Y7630000I0J250000D01*
G01*
G37*
%TD.AperFunction*%
%TD*%
%TO.P,R9,2*%
%TO.N,Net-(R9-Pad2)*%
%TA.AperFunction,SMDPad,CuDef*%
G36*
G01*
X75575000Y-8395000D02*
X76825000Y-8395000D01*
G75*
G02*
X77075000Y-8645000I0J-250000D01*
G01*
X77075000Y-9570000D01*
G75*
G02*
X76825000Y-9820000I-250000J0D01*
G01*
X75575000Y-9820000D01*
G75*
G02*
X75325000Y-9570000I0J250000D01*
G01*
X75325000Y-8645000D01*
G75*
G02*
X75575000Y-8395000I250000J0D01*
G01*
G37*
%TD.AperFunction*%
%TO.P,R9,1*%
%TO.N,GND*%
%TA.AperFunction,SMDPad,CuDef*%
G36*
G01*
X75575000Y-5420000D02*
X76825000Y-5420000D01*
G75*
G02*
X77075000Y-5670000I0J-250000D01*
G01*
X77075000Y-6595000D01*
G75*
G02*
X76825000Y-6845000I-250000J0D01*
G01*
X75575000Y-6845000D01*
G75*
G02*
X75325000Y-6595000I0J250000D01*
G01*
X75325000Y-5670000D01*
G75*
G02*
X75575000Y-5420000I250000J0D01*
G01*
G37*
%TD.AperFunction*%
%TD*%
%TO.P,R10,2*%
%TO.N,Net-(R10-Pad2)*%
%TA.AperFunction,SMDPad,CuDef*%
G36*
G01*
X81270000Y-18910000D02*
X80020000Y-18910000D01*
G75*
G02*
X79770000Y-18660000I0J250000D01*
G01*
X79770000Y-17735000D01*
G75*
G02*
X80020000Y-17485000I250000J0D01*
G01*
X81270000Y-17485000D01*
G75*
G02*
X81520000Y-17735000I0J-250000D01*
G01*
X81520000Y-18660000D01*
G75*
G02*
X81270000Y-18910000I-250000J0D01*
G01*
G37*
%TD.AperFunction*%
%TO.P,R10,1*%
%TO.N,+5V*%
%TA.AperFunction,SMDPad,CuDef*%
G36*
G01*
X81270000Y-21885000D02*
X80020000Y-21885000D01*
G75*
G02*
X79770000Y-21635000I0J250000D01*
G01*
X79770000Y-20710000D01*
G75*
G02*
X80020000Y-20460000I250000J0D01*
G01*
X81270000Y-20460000D01*
G75*
G02*
X81520000Y-20710000I0J-250000D01*
G01*
X81520000Y-21635000D01*
G75*
G02*
X81270000Y-21885000I-250000J0D01*
G01*
G37*
%TD.AperFunction*%
%TD*%
%TO.P,R11,2*%
%TO.N,Net-(R11-Pad2)*%
%TA.AperFunction,SMDPad,CuDef*%
G36*
G01*
X70475000Y9665000D02*
X69225000Y9665000D01*
G75*
G02*
X68975000Y9915000I0J250000D01*
G01*
X68975000Y10840000D01*
G75*
G02*
X69225000Y11090000I250000J0D01*
G01*
X70475000Y11090000D01*
G75*
G02*
X70725000Y10840000I0J-250000D01*
G01*
X70725000Y9915000D01*
G75*
G02*
X70475000Y9665000I-250000J0D01*
G01*
G37*
%TD.AperFunction*%
%TO.P,R11,1*%
%TO.N,GND*%
%TA.AperFunction,SMDPad,CuDef*%
G36*
G01*
X70475000Y6690000D02*
X69225000Y6690000D01*
G75*
G02*
X68975000Y6940000I0J250000D01*
G01*
X68975000Y7865000D01*
G75*
G02*
X69225000Y8115000I250000J0D01*
G01*
X70475000Y8115000D01*
G75*
G02*
X70725000Y7865000I0J-250000D01*
G01*
X70725000Y6940000D01*
G75*
G02*
X70475000Y6690000I-250000J0D01*
G01*
G37*
%TD.AperFunction*%
%TD*%
%TO.P,R12,1*%
%TO.N,+5V*%
%TA.AperFunction,SMDPad,CuDef*%
G36*
G01*
X60030000Y17155000D02*
X60030000Y18405000D01*
G75*
G02*
X60280000Y18655000I250000J0D01*
G01*
X61205000Y18655000D01*
G75*
G02*
X61455000Y18405000I0J-250000D01*
G01*
X61455000Y17155000D01*
G75*
G02*
X61205000Y16905000I-250000J0D01*
G01*
X60280000Y16905000D01*
G75*
G02*
X60030000Y17155000I0J250000D01*
G01*
G37*
%TD.AperFunction*%
%TO.P,R12,2*%
%TO.N,Net-(R12-Pad2)*%
%TA.AperFunction,SMDPad,CuDef*%
G36*
G01*
X63005000Y17155000D02*
X63005000Y18405000D01*
G75*
G02*
X63255000Y18655000I250000J0D01*
G01*
X64180000Y18655000D01*
G75*
G02*
X64430000Y18405000I0J-250000D01*
G01*
X64430000Y17155000D01*
G75*
G02*
X64180000Y16905000I-250000J0D01*
G01*
X63255000Y16905000D01*
G75*
G02*
X63005000Y17155000I0J250000D01*
G01*
G37*
%TD.AperFunction*%
%TD*%
D29*
%TO.P,R13,2*%
%TO.N,GND*%
X113538000Y12700000D03*
D19*
%TO.P,R13,1*%
%TO.N,Net-(J15-Pad2)*%
X103378000Y12700000D03*
%TD*%
%TO.P,R14,1*%
%TO.N,+3V3*%
%TA.AperFunction,SMDPad,CuDef*%
G36*
G01*
X-137805000Y56220000D02*
X-139055000Y56220000D01*
G75*
G02*
X-139305000Y56470000I0J250000D01*
G01*
X-139305000Y57395000D01*
G75*
G02*
X-139055000Y57645000I250000J0D01*
G01*
X-137805000Y57645000D01*
G75*
G02*
X-137555000Y57395000I0J-250000D01*
G01*
X-137555000Y56470000D01*
G75*
G02*
X-137805000Y56220000I-250000J0D01*
G01*
G37*
%TD.AperFunction*%
%TO.P,R14,2*%
%TO.N,i2c1_scl*%
%TA.AperFunction,SMDPad,CuDef*%
G36*
G01*
X-137805000Y59195000D02*
X-139055000Y59195000D01*
G75*
G02*
X-139305000Y59445000I0J250000D01*
G01*
X-139305000Y60370000D01*
G75*
G02*
X-139055000Y60620000I250000J0D01*
G01*
X-137805000Y60620000D01*
G75*
G02*
X-137555000Y60370000I0J-250000D01*
G01*
X-137555000Y59445000D01*
G75*
G02*
X-137805000Y59195000I-250000J0D01*
G01*
G37*
%TD.AperFunction*%
%TD*%
%TO.P,R15,2*%
%TO.N,i2c1_sda*%
%TA.AperFunction,SMDPad,CuDef*%
G36*
G01*
X-137805000Y53480000D02*
X-139055000Y53480000D01*
G75*
G02*
X-139305000Y53730000I0J250000D01*
G01*
X-139305000Y54655000D01*
G75*
G02*
X-139055000Y54905000I250000J0D01*
G01*
X-137805000Y54905000D01*
G75*
G02*
X-137555000Y54655000I0J-250000D01*
G01*
X-137555000Y53730000D01*
G75*
G02*
X-137805000Y53480000I-250000J0D01*
G01*
G37*
%TD.AperFunction*%
%TO.P,R15,1*%
%TO.N,+3V3*%
%TA.AperFunction,SMDPad,CuDef*%
G36*
G01*
X-137805000Y50505000D02*
X-139055000Y50505000D01*
G75*
G02*
X-139305000Y50755000I0J250000D01*
G01*
X-139305000Y51680000D01*
G75*
G02*
X-139055000Y51930000I250000J0D01*
G01*
X-137805000Y51930000D01*
G75*
G02*
X-137555000Y51680000I0J-250000D01*
G01*
X-137555000Y50755000D01*
G75*
G02*
X-137805000Y50505000I-250000J0D01*
G01*
G37*
%TD.AperFunction*%
%TD*%
%TO.P,R16,1*%
%TO.N,Net-(J17-Pad3)*%
X-29210000Y-55880000D03*
D29*
%TO.P,R16,2*%
%TO.N,left_sel_inv*%
X-19050000Y-55880000D03*
%TD*%
%TO.P,R17,2*%
%TO.N,Net-(J26-Pad3)*%
%TA.AperFunction,SMDPad,CuDef*%
G36*
G01*
X-147945000Y57391000D02*
X-146695000Y57391000D01*
G75*
G02*
X-146445000Y57141000I0J-250000D01*
G01*
X-146445000Y56216000D01*
G75*
G02*
X-146695000Y55966000I-250000J0D01*
G01*
X-147945000Y55966000D01*
G75*
G02*
X-148195000Y56216000I0J250000D01*
G01*
X-148195000Y57141000D01*
G75*
G02*
X-147945000Y57391000I250000J0D01*
G01*
G37*
%TD.AperFunction*%
%TO.P,R17,1*%
%TO.N,+5V*%
%TA.AperFunction,SMDPad,CuDef*%
G36*
G01*
X-147945000Y60366000D02*
X-146695000Y60366000D01*
G75*
G02*
X-146445000Y60116000I0J-250000D01*
G01*
X-146445000Y59191000D01*
G75*
G02*
X-146695000Y58941000I-250000J0D01*
G01*
X-147945000Y58941000D01*
G75*
G02*
X-148195000Y59191000I0J250000D01*
G01*
X-148195000Y60116000D01*
G75*
G02*
X-147945000Y60366000I250000J0D01*
G01*
G37*
%TD.AperFunction*%
%TD*%
%TO.P,R18,1*%
%TO.N,+5V*%
%TA.AperFunction,SMDPad,CuDef*%
G36*
G01*
X-147945000Y54778000D02*
X-146695000Y54778000D01*
G75*
G02*
X-146445000Y54528000I0J-250000D01*
G01*
X-146445000Y53603000D01*
G75*
G02*
X-146695000Y53353000I-250000J0D01*
G01*
X-147945000Y53353000D01*
G75*
G02*
X-148195000Y53603000I0J250000D01*
G01*
X-148195000Y54528000D01*
G75*
G02*
X-147945000Y54778000I250000J0D01*
G01*
G37*
%TD.AperFunction*%
%TO.P,R18,2*%
%TO.N,Net-(J26-Pad4)*%
%TA.AperFunction,SMDPad,CuDef*%
G36*
G01*
X-147945000Y51803000D02*
X-146695000Y51803000D01*
G75*
G02*
X-146445000Y51553000I0J-250000D01*
G01*
X-146445000Y50628000D01*
G75*
G02*
X-146695000Y50378000I-250000J0D01*
G01*
X-147945000Y50378000D01*
G75*
G02*
X-148195000Y50628000I0J250000D01*
G01*
X-148195000Y51553000D01*
G75*
G02*
X-147945000Y51803000I250000J0D01*
G01*
G37*
%TD.AperFunction*%
%TD*%
%TO.P,R19,2*%
%TO.N,left_sel_noninv*%
X-19050000Y-52070000D03*
D19*
%TO.P,R19,1*%
%TO.N,Net-(J17-Pad2)*%
X-29210000Y-52070000D03*
%TD*%
%TO.P,R20,1*%
%TO.N,Net-(J23-Pad3)*%
X-30480000Y55880000D03*
D29*
%TO.P,R20,2*%
%TO.N,right_sel_inv*%
X-20320000Y55880000D03*
%TD*%
%TO.P,R21,2*%
%TO.N,right_sel_noninv*%
X-20320000Y59690000D03*
D19*
%TO.P,R21,1*%
%TO.N,Net-(J23-Pad2)*%
X-30480000Y59690000D03*
%TD*%
%TO.P,R22,2*%
%TO.N,relay_spi_clock*%
%TA.AperFunction,SMDPad,CuDef*%
G36*
G01*
X-73777000Y241000D02*
X-72527000Y241000D01*
G75*
G02*
X-72277000Y-9000I0J-250000D01*
G01*
X-72277000Y-934000D01*
G75*
G02*
X-72527000Y-1184000I-250000J0D01*
G01*
X-73777000Y-1184000D01*
G75*
G02*
X-74027000Y-934000I0J250000D01*
G01*
X-74027000Y-9000D01*
G75*
G02*
X-73777000Y241000I250000J0D01*
G01*
G37*
%TD.AperFunction*%
%TO.P,R22,1*%
%TO.N,+3V3*%
%TA.AperFunction,SMDPad,CuDef*%
G36*
G01*
X-73777000Y3216000D02*
X-72527000Y3216000D01*
G75*
G02*
X-72277000Y2966000I0J-250000D01*
G01*
X-72277000Y2041000D01*
G75*
G02*
X-72527000Y1791000I-250000J0D01*
G01*
X-73777000Y1791000D01*
G75*
G02*
X-74027000Y2041000I0J250000D01*
G01*
X-74027000Y2966000D01*
G75*
G02*
X-73777000Y3216000I250000J0D01*
G01*
G37*
%TD.AperFunction*%
%TD*%
%TO.P,R23,1*%
%TO.N,+3V3*%
%TA.AperFunction,SMDPad,CuDef*%
G36*
G01*
X-73777000Y15154000D02*
X-72527000Y15154000D01*
G75*
G02*
X-72277000Y14904000I0J-250000D01*
G01*
X-72277000Y13979000D01*
G75*
G02*
X-72527000Y13729000I-250000J0D01*
G01*
X-73777000Y13729000D01*
G75*
G02*
X-74027000Y13979000I0J250000D01*
G01*
X-74027000Y14904000D01*
G75*
G02*
X-73777000Y15154000I250000J0D01*
G01*
G37*
%TD.AperFunction*%
%TO.P,R23,2*%
%TO.N,relay_spi_data*%
%TA.AperFunction,SMDPad,CuDef*%
G36*
G01*
X-73777000Y12179000D02*
X-72527000Y12179000D01*
G75*
G02*
X-72277000Y11929000I0J-250000D01*
G01*
X-72277000Y11004000D01*
G75*
G02*
X-72527000Y10754000I-250000J0D01*
G01*
X-73777000Y10754000D01*
G75*
G02*
X-74027000Y11004000I0J250000D01*
G01*
X-74027000Y11929000D01*
G75*
G02*
X-73777000Y12179000I250000J0D01*
G01*
G37*
%TD.AperFunction*%
%TD*%
%TO.P,R24,2*%
%TO.N,relay_spi_strobe*%
%TA.AperFunction,SMDPad,CuDef*%
G36*
G01*
X-73777000Y6337000D02*
X-72527000Y6337000D01*
G75*
G02*
X-72277000Y6087000I0J-250000D01*
G01*
X-72277000Y5162000D01*
G75*
G02*
X-72527000Y4912000I-250000J0D01*
G01*
X-73777000Y4912000D01*
G75*
G02*
X-74027000Y5162000I0J250000D01*
G01*
X-74027000Y6087000D01*
G75*
G02*
X-73777000Y6337000I250000J0D01*
G01*
G37*
%TD.AperFunction*%
%TO.P,R24,1*%
%TO.N,+3V3*%
%TA.AperFunction,SMDPad,CuDef*%
G36*
G01*
X-73777000Y9312000D02*
X-72527000Y9312000D01*
G75*
G02*
X-72277000Y9062000I0J-250000D01*
G01*
X-72277000Y8137000D01*
G75*
G02*
X-72527000Y7887000I-250000J0D01*
G01*
X-73777000Y7887000D01*
G75*
G02*
X-74027000Y8137000I0J250000D01*
G01*
X-74027000Y9062000D01*
G75*
G02*
X-73777000Y9312000I250000J0D01*
G01*
G37*
%TD.AperFunction*%
%TD*%
%TO.P,R25,1*%
%TO.N,+5V*%
%TA.AperFunction,SMDPad,CuDef*%
G36*
G01*
X-65903000Y3216000D02*
X-64653000Y3216000D01*
G75*
G02*
X-64403000Y2966000I0J-250000D01*
G01*
X-64403000Y2041000D01*
G75*
G02*
X-64653000Y1791000I-250000J0D01*
G01*
X-65903000Y1791000D01*
G75*
G02*
X-66153000Y2041000I0J250000D01*
G01*
X-66153000Y2966000D01*
G75*
G02*
X-65903000Y3216000I250000J0D01*
G01*
G37*
%TD.AperFunction*%
%TO.P,R25,2*%
%TO.N,Net-(Q6-Pad3)*%
%TA.AperFunction,SMDPad,CuDef*%
G36*
G01*
X-65903000Y241000D02*
X-64653000Y241000D01*
G75*
G02*
X-64403000Y-9000I0J-250000D01*
G01*
X-64403000Y-934000D01*
G75*
G02*
X-64653000Y-1184000I-250000J0D01*
G01*
X-65903000Y-1184000D01*
G75*
G02*
X-66153000Y-934000I0J250000D01*
G01*
X-66153000Y-9000D01*
G75*
G02*
X-65903000Y241000I250000J0D01*
G01*
G37*
%TD.AperFunction*%
%TD*%
%TO.P,R26,2*%
%TO.N,Net-(Q7-Pad3)*%
%TA.AperFunction,SMDPad,CuDef*%
G36*
G01*
X-66411000Y12396500D02*
X-65161000Y12396500D01*
G75*
G02*
X-64911000Y12146500I0J-250000D01*
G01*
X-64911000Y11221500D01*
G75*
G02*
X-65161000Y10971500I-250000J0D01*
G01*
X-66411000Y10971500D01*
G75*
G02*
X-66661000Y11221500I0J250000D01*
G01*
X-66661000Y12146500D01*
G75*
G02*
X-66411000Y12396500I250000J0D01*
G01*
G37*
%TD.AperFunction*%
%TO.P,R26,1*%
%TO.N,+5V*%
%TA.AperFunction,SMDPad,CuDef*%
G36*
G01*
X-66411000Y15371500D02*
X-65161000Y15371500D01*
G75*
G02*
X-64911000Y15121500I0J-250000D01*
G01*
X-64911000Y14196500D01*
G75*
G02*
X-65161000Y13946500I-250000J0D01*
G01*
X-66411000Y13946500D01*
G75*
G02*
X-66661000Y14196500I0J250000D01*
G01*
X-66661000Y15121500D01*
G75*
G02*
X-66411000Y15371500I250000J0D01*
G01*
G37*
%TD.AperFunction*%
%TD*%
%TO.P,R27,2*%
%TO.N,Net-(Q8-Pad3)*%
%TA.AperFunction,SMDPad,CuDef*%
G36*
G01*
X-66157000Y6554500D02*
X-64907000Y6554500D01*
G75*
G02*
X-64657000Y6304500I0J-250000D01*
G01*
X-64657000Y5379500D01*
G75*
G02*
X-64907000Y5129500I-250000J0D01*
G01*
X-66157000Y5129500D01*
G75*
G02*
X-66407000Y5379500I0J250000D01*
G01*
X-66407000Y6304500D01*
G75*
G02*
X-66157000Y6554500I250000J0D01*
G01*
G37*
%TD.AperFunction*%
%TO.P,R27,1*%
%TO.N,+5V*%
%TA.AperFunction,SMDPad,CuDef*%
G36*
G01*
X-66157000Y9529500D02*
X-64907000Y9529500D01*
G75*
G02*
X-64657000Y9279500I0J-250000D01*
G01*
X-64657000Y8354500D01*
G75*
G02*
X-64907000Y8104500I-250000J0D01*
G01*
X-66157000Y8104500D01*
G75*
G02*
X-66407000Y8354500I0J250000D01*
G01*
X-66407000Y9279500D01*
G75*
G02*
X-66157000Y9529500I250000J0D01*
G01*
G37*
%TD.AperFunction*%
%TD*%
%TO.P,R28,1*%
%TO.N,Net-(R28-Pad1)*%
%TA.AperFunction,SMDPad,CuDef*%
G36*
G01*
X64399000Y-16596000D02*
X65649000Y-16596000D01*
G75*
G02*
X65899000Y-16846000I0J-250000D01*
G01*
X65899000Y-17771000D01*
G75*
G02*
X65649000Y-18021000I-250000J0D01*
G01*
X64399000Y-18021000D01*
G75*
G02*
X64149000Y-17771000I0J250000D01*
G01*
X64149000Y-16846000D01*
G75*
G02*
X64399000Y-16596000I250000J0D01*
G01*
G37*
%TD.AperFunction*%
%TO.P,R28,2*%
%TO.N,GNDA*%
%TA.AperFunction,SMDPad,CuDef*%
G36*
G01*
X64399000Y-19571000D02*
X65649000Y-19571000D01*
G75*
G02*
X65899000Y-19821000I0J-250000D01*
G01*
X65899000Y-20746000D01*
G75*
G02*
X65649000Y-20996000I-250000J0D01*
G01*
X64399000Y-20996000D01*
G75*
G02*
X64149000Y-20746000I0J250000D01*
G01*
X64149000Y-19821000D01*
G75*
G02*
X64399000Y-19571000I250000J0D01*
G01*
G37*
%TD.AperFunction*%
%TD*%
%TO.P,R29,1*%
%TO.N,Net-(R29-Pad1)*%
%TA.AperFunction,SMDPad,CuDef*%
G36*
G01*
X79639000Y20742000D02*
X80889000Y20742000D01*
G75*
G02*
X81139000Y20492000I0J-250000D01*
G01*
X81139000Y19567000D01*
G75*
G02*
X80889000Y19317000I-250000J0D01*
G01*
X79639000Y19317000D01*
G75*
G02*
X79389000Y19567000I0J250000D01*
G01*
X79389000Y20492000D01*
G75*
G02*
X79639000Y20742000I250000J0D01*
G01*
G37*
%TD.AperFunction*%
%TO.P,R29,2*%
%TO.N,GNDA*%
%TA.AperFunction,SMDPad,CuDef*%
G36*
G01*
X79639000Y17767000D02*
X80889000Y17767000D01*
G75*
G02*
X81139000Y17517000I0J-250000D01*
G01*
X81139000Y16592000D01*
G75*
G02*
X80889000Y16342000I-250000J0D01*
G01*
X79639000Y16342000D01*
G75*
G02*
X79389000Y16592000I0J250000D01*
G01*
X79389000Y17517000D01*
G75*
G02*
X79639000Y17767000I250000J0D01*
G01*
G37*
%TD.AperFunction*%
%TD*%
%TO.P,R30,1*%
%TO.N,+5V*%
%TA.AperFunction,SMDPad,CuDef*%
G36*
G01*
X80000000Y6690000D02*
X78750000Y6690000D01*
G75*
G02*
X78500000Y6940000I0J250000D01*
G01*
X78500000Y7865000D01*
G75*
G02*
X78750000Y8115000I250000J0D01*
G01*
X80000000Y8115000D01*
G75*
G02*
X80250000Y7865000I0J-250000D01*
G01*
X80250000Y6940000D01*
G75*
G02*
X80000000Y6690000I-250000J0D01*
G01*
G37*
%TD.AperFunction*%
%TO.P,R30,2*%
%TO.N,Net-(R30-Pad2)*%
%TA.AperFunction,SMDPad,CuDef*%
G36*
G01*
X80000000Y9665000D02*
X78750000Y9665000D01*
G75*
G02*
X78500000Y9915000I0J250000D01*
G01*
X78500000Y10840000D01*
G75*
G02*
X78750000Y11090000I250000J0D01*
G01*
X80000000Y11090000D01*
G75*
G02*
X80250000Y10840000I0J-250000D01*
G01*
X80250000Y9915000D01*
G75*
G02*
X80000000Y9665000I-250000J0D01*
G01*
G37*
%TD.AperFunction*%
%TD*%
%TO.P,R31,2*%
%TO.N,Net-(R31-Pad2)*%
%TA.AperFunction,SMDPad,CuDef*%
G36*
G01*
X77460000Y9665000D02*
X76210000Y9665000D01*
G75*
G02*
X75960000Y9915000I0J250000D01*
G01*
X75960000Y10840000D01*
G75*
G02*
X76210000Y11090000I250000J0D01*
G01*
X77460000Y11090000D01*
G75*
G02*
X77710000Y10840000I0J-250000D01*
G01*
X77710000Y9915000D01*
G75*
G02*
X77460000Y9665000I-250000J0D01*
G01*
G37*
%TD.AperFunction*%
%TO.P,R31,1*%
%TO.N,GND*%
%TA.AperFunction,SMDPad,CuDef*%
G36*
G01*
X77460000Y6690000D02*
X76210000Y6690000D01*
G75*
G02*
X75960000Y6940000I0J250000D01*
G01*
X75960000Y7865000D01*
G75*
G02*
X76210000Y8115000I250000J0D01*
G01*
X77460000Y8115000D01*
G75*
G02*
X77710000Y7865000I0J-250000D01*
G01*
X77710000Y6940000D01*
G75*
G02*
X77460000Y6690000I-250000J0D01*
G01*
G37*
%TD.AperFunction*%
%TD*%
%TO.P,R32,1*%
%TO.N,GND*%
%TA.AperFunction,SMDPad,CuDef*%
G36*
G01*
X74793000Y6690000D02*
X73543000Y6690000D01*
G75*
G02*
X73293000Y6940000I0J250000D01*
G01*
X73293000Y7865000D01*
G75*
G02*
X73543000Y8115000I250000J0D01*
G01*
X74793000Y8115000D01*
G75*
G02*
X75043000Y7865000I0J-250000D01*
G01*
X75043000Y6940000D01*
G75*
G02*
X74793000Y6690000I-250000J0D01*
G01*
G37*
%TD.AperFunction*%
%TO.P,R32,2*%
%TO.N,Net-(R32-Pad2)*%
%TA.AperFunction,SMDPad,CuDef*%
G36*
G01*
X74793000Y9665000D02*
X73543000Y9665000D01*
G75*
G02*
X73293000Y9915000I0J250000D01*
G01*
X73293000Y10840000D01*
G75*
G02*
X73543000Y11090000I250000J0D01*
G01*
X74793000Y11090000D01*
G75*
G02*
X75043000Y10840000I0J-250000D01*
G01*
X75043000Y9915000D01*
G75*
G02*
X74793000Y9665000I-250000J0D01*
G01*
G37*
%TD.AperFunction*%
%TD*%
%TO.P,R33,2*%
%TO.N,Net-(R33-Pad2)*%
%TA.AperFunction,SMDPad,CuDef*%
G36*
G01*
X63510000Y-8395000D02*
X64760000Y-8395000D01*
G75*
G02*
X65010000Y-8645000I0J-250000D01*
G01*
X65010000Y-9570000D01*
G75*
G02*
X64760000Y-9820000I-250000J0D01*
G01*
X63510000Y-9820000D01*
G75*
G02*
X63260000Y-9570000I0J250000D01*
G01*
X63260000Y-8645000D01*
G75*
G02*
X63510000Y-8395000I250000J0D01*
G01*
G37*
%TD.AperFunction*%
%TO.P,R33,1*%
%TO.N,GND*%
%TA.AperFunction,SMDPad,CuDef*%
G36*
G01*
X63510000Y-5420000D02*
X64760000Y-5420000D01*
G75*
G02*
X65010000Y-5670000I0J-250000D01*
G01*
X65010000Y-6595000D01*
G75*
G02*
X64760000Y-6845000I-250000J0D01*
G01*
X63510000Y-6845000D01*
G75*
G02*
X63260000Y-6595000I0J250000D01*
G01*
X63260000Y-5670000D01*
G75*
G02*
X63510000Y-5420000I250000J0D01*
G01*
G37*
%TD.AperFunction*%
%TD*%
%TO.P,R34,1*%
%TO.N,GND*%
%TA.AperFunction,SMDPad,CuDef*%
G36*
G01*
X66267500Y-5420000D02*
X67517500Y-5420000D01*
G75*
G02*
X67767500Y-5670000I0J-250000D01*
G01*
X67767500Y-6595000D01*
G75*
G02*
X67517500Y-6845000I-250000J0D01*
G01*
X66267500Y-6845000D01*
G75*
G02*
X66017500Y-6595000I0J250000D01*
G01*
X66017500Y-5670000D01*
G75*
G02*
X66267500Y-5420000I250000J0D01*
G01*
G37*
%TD.AperFunction*%
%TO.P,R34,2*%
%TO.N,Net-(R34-Pad2)*%
%TA.AperFunction,SMDPad,CuDef*%
G36*
G01*
X66267500Y-8395000D02*
X67517500Y-8395000D01*
G75*
G02*
X67767500Y-8645000I0J-250000D01*
G01*
X67767500Y-9570000D01*
G75*
G02*
X67517500Y-9820000I-250000J0D01*
G01*
X66267500Y-9820000D01*
G75*
G02*
X66017500Y-9570000I0J250000D01*
G01*
X66017500Y-8645000D01*
G75*
G02*
X66267500Y-8395000I250000J0D01*
G01*
G37*
%TD.AperFunction*%
%TD*%
%TO.P,R35,2*%
%TO.N,Net-(R35-Pad2)*%
%TA.AperFunction,SMDPad,CuDef*%
G36*
G01*
X69225000Y-8395000D02*
X70475000Y-8395000D01*
G75*
G02*
X70725000Y-8645000I0J-250000D01*
G01*
X70725000Y-9570000D01*
G75*
G02*
X70475000Y-9820000I-250000J0D01*
G01*
X69225000Y-9820000D01*
G75*
G02*
X68975000Y-9570000I0J250000D01*
G01*
X68975000Y-8645000D01*
G75*
G02*
X69225000Y-8395000I250000J0D01*
G01*
G37*
%TD.AperFunction*%
%TO.P,R35,1*%
%TO.N,GND*%
%TA.AperFunction,SMDPad,CuDef*%
G36*
G01*
X69225000Y-5420000D02*
X70475000Y-5420000D01*
G75*
G02*
X70725000Y-5670000I0J-250000D01*
G01*
X70725000Y-6595000D01*
G75*
G02*
X70475000Y-6845000I-250000J0D01*
G01*
X69225000Y-6845000D01*
G75*
G02*
X68975000Y-6595000I0J250000D01*
G01*
X68975000Y-5670000D01*
G75*
G02*
X69225000Y-5420000I250000J0D01*
G01*
G37*
%TD.AperFunction*%
%TD*%
D30*
%TO.P,R36,1*%
%TO.N,GNDPWR*%
X152400000Y-60880000D03*
%TO.P,R36,2*%
%TO.N,GNDA*%
X152400000Y-50880000D03*
%TD*%
D19*
%TO.P,R37,1*%
%TO.N,GND*%
X141732000Y-17526000D03*
D29*
%TO.P,R37,2*%
%TO.N,GNDA*%
X141732000Y-27686000D03*
%TD*%
D12*
%TO.P,TP1,1*%
%TO.N,+12V*%
X-85344000Y-6604000D03*
%TD*%
%TO.P,TP2,1*%
%TO.N,+5V*%
X-85090000Y6731000D03*
%TD*%
%TO.P,TP3,1*%
%TO.N,+15V*%
X41275000Y25400000D03*
%TD*%
%TO.P,TP5,1*%
%TO.N,-15V*%
X49530000Y-21082000D03*
%TD*%
%TO.P,TP6,1*%
%TO.N,GNDA*%
X41275000Y-38735000D03*
%TD*%
%TO.P,TP7,1*%
%TO.N,GNDA*%
X-59055000Y36830000D03*
%TD*%
%TO.P,TP8,1*%
%TO.N,GNDA*%
X41275000Y35560000D03*
%TD*%
%TO.P,TP9,1*%
%TO.N,GNDA*%
X-59055000Y-36830000D03*
%TD*%
%TO.P,TP10,1*%
%TO.N,spare_12v_2*%
X95250000Y10160000D03*
%TD*%
%TO.P,TP11,1*%
%TO.N,spare_12v_1*%
X91440000Y10160000D03*
%TD*%
D21*
%TO.P,U1,1*%
%TO.N,Net-(C1-Pad1)*%
X-151130000Y-52705000D03*
D11*
%TO.P,U1,2*%
%TO.N,Net-(J1-Pad2)*%
X-151130000Y-56515000D03*
%TO.P,U1,3*%
%TO.N,Net-(J1-Pad1)*%
X-151130000Y-60325000D03*
%TO.P,U1,4*%
%TO.N,Net-(C19-Pad2)*%
X-151130000Y-64135000D03*
%TD*%
%TO.P,U2,4*%
%TO.N,GND*%
X-151130000Y-46355000D03*
%TO.P,U2,3*%
%TO.N,Net-(J2-Pad1)*%
X-151130000Y-42545000D03*
%TO.P,U2,2*%
%TO.N,Net-(J2-Pad2)*%
X-151130000Y-38735000D03*
D21*
%TO.P,U2,1*%
%TO.N,/power/5v_rectified*%
X-151130000Y-34925000D03*
%TD*%
D31*
%TO.P,U3,1*%
%TO.N,GND*%
X-111379000Y-18034000D03*
D32*
%TO.P,U3,2*%
%TO.N,Net-(C19-Pad2)*%
X-108839000Y-18034000D03*
%TO.P,U3,3*%
%TO.N,Net-(C30-Pad2)*%
X-106299000Y-18034000D03*
%TD*%
%TO.P,U4,3*%
%TO.N,+12V*%
X-106934000Y-6604000D03*
%TO.P,U4,2*%
%TO.N,GND*%
X-109474000Y-6604000D03*
D31*
%TO.P,U4,1*%
%TO.N,Net-(C1-Pad1)*%
X-112014000Y-6604000D03*
%TD*%
D32*
%TO.P,U5,3*%
%TO.N,Net-(C32-Pad1)*%
X-106680000Y17272000D03*
%TO.P,U5,2*%
%TO.N,GND*%
X-109220000Y17272000D03*
D31*
%TO.P,U5,1*%
%TO.N,Net-(C1-Pad1)*%
X-111760000Y17272000D03*
%TD*%
%TO.P,U6,1*%
%TO.N,/power/5v_rectified*%
X-111760000Y6731000D03*
D32*
%TO.P,U6,2*%
%TO.N,GND*%
X-109220000Y6731000D03*
%TO.P,U6,3*%
%TO.N,+5V*%
X-106680000Y6731000D03*
%TD*%
D33*
%TO.P,U7,4*%
%TO.N,GND*%
X-132842000Y-44679000D03*
D34*
%TO.P,U7,3*%
%TO.N,+3V3*%
X-135142000Y-38379000D03*
%TO.P,U7,2*%
%TO.N,GND*%
X-132842000Y-38379000D03*
%TO.P,U7,1*%
%TO.N,/power/5v_rectified*%
X-130542000Y-38379000D03*
%TD*%
D35*
%TO.P,U8,1*%
%TO.N,GNDA*%
X67515000Y-25152000D03*
%TO.P,U8,2*%
X68165000Y-25152000D03*
%TO.P,U8,3*%
%TO.N,left_amp_in_noninv*%
X68815000Y-25152000D03*
%TO.P,U8,4*%
%TO.N,GNDA*%
X69465000Y-25152000D03*
%TO.P,U8,5*%
%TO.N,Net-(U8-Pad5)*%
X70115000Y-25152000D03*
%TO.P,U8,6*%
%TO.N,GNDA*%
X70765000Y-25152000D03*
%TO.P,U8,7*%
%TO.N,Net-(U8-Pad7)*%
X71415000Y-25152000D03*
%TO.P,U8,8*%
%TO.N,GNDA*%
X72065000Y-25152000D03*
%TO.P,U8,9*%
X72715000Y-25152000D03*
%TO.P,U8,10*%
%TO.N,Net-(U8-Pad10)*%
X73365000Y-25152000D03*
%TO.P,U8,11*%
%TO.N,GNDA*%
X74015000Y-25152000D03*
%TO.P,U8,12*%
%TO.N,Net-(U8-Pad12)*%
X74665000Y-25152000D03*
%TO.P,U8,13*%
%TO.N,GNDA*%
X75315000Y-25152000D03*
%TO.P,U8,14*%
%TO.N,left_amp_in_inv*%
X75965000Y-25152000D03*
%TO.P,U8,15*%
%TO.N,GNDA*%
X76615000Y-25152000D03*
%TO.P,U8,16*%
X77265000Y-25152000D03*
%TO.P,U8,17*%
%TO.N,Net-(R10-Pad2)*%
X77265000Y-18028000D03*
%TO.P,U8,18*%
%TO.N,/volume/vol_data_5v*%
X76615000Y-18028000D03*
%TO.P,U8,19*%
%TO.N,/volume/vol_clock_5v*%
X75965000Y-18028000D03*
%TO.P,U8,20*%
%TO.N,/volume/vol_latch_5v*%
X75315000Y-18028000D03*
%TO.P,U8,21*%
%TO.N,Net-(R9-Pad2)*%
X74665000Y-18028000D03*
%TO.P,U8,22*%
%TO.N,+15V*%
X74015000Y-18028000D03*
%TO.P,U8,23*%
%TO.N,left_sel_inv*%
X73365000Y-18028000D03*
%TO.P,U8,24*%
%TO.N,+15V*%
X72715000Y-18028000D03*
%TO.P,U8,25*%
%TO.N,-15V*%
X72065000Y-18028000D03*
%TO.P,U8,26*%
%TO.N,left_sel_noninv*%
X71415000Y-18028000D03*
%TO.P,U8,27*%
%TO.N,-15V*%
X70765000Y-18028000D03*
%TO.P,U8,28*%
%TO.N,Net-(C16-Pad2)*%
X70115000Y-18028000D03*
%TO.P,U8,29*%
%TO.N,Net-(R35-Pad2)*%
X69465000Y-18028000D03*
%TO.P,U8,30*%
%TO.N,Net-(R34-Pad2)*%
X68815000Y-18028000D03*
%TO.P,U8,31*%
%TO.N,Net-(R33-Pad2)*%
X68165000Y-18028000D03*
%TO.P,U8,32*%
%TO.N,Net-(R28-Pad1)*%
X67515000Y-18028000D03*
%TD*%
%TO.P,U9,32*%
%TO.N,Net-(R29-Pad1)*%
X77265000Y18028000D03*
%TO.P,U9,31*%
%TO.N,Net-(R30-Pad2)*%
X76615000Y18028000D03*
%TO.P,U9,30*%
%TO.N,Net-(R31-Pad2)*%
X75965000Y18028000D03*
%TO.P,U9,29*%
%TO.N,Net-(R32-Pad2)*%
X75315000Y18028000D03*
%TO.P,U9,28*%
%TO.N,Net-(C17-Pad2)*%
X74665000Y18028000D03*
%TO.P,U9,27*%
%TO.N,-15V*%
X74015000Y18028000D03*
%TO.P,U9,26*%
%TO.N,right_sel_noninv*%
X73365000Y18028000D03*
%TO.P,U9,25*%
%TO.N,-15V*%
X72715000Y18028000D03*
%TO.P,U9,24*%
%TO.N,+15V*%
X72065000Y18028000D03*
%TO.P,U9,23*%
%TO.N,right_sel_inv*%
X71415000Y18028000D03*
%TO.P,U9,22*%
%TO.N,+15V*%
X70765000Y18028000D03*
%TO.P,U9,21*%
%TO.N,Net-(R11-Pad2)*%
X70115000Y18028000D03*
%TO.P,U9,20*%
%TO.N,/volume/vol_latch_5v*%
X69465000Y18028000D03*
%TO.P,U9,19*%
%TO.N,/volume/vol_clock_5v*%
X68815000Y18028000D03*
%TO.P,U9,18*%
%TO.N,/volume/vol_data_5v*%
X68165000Y18028000D03*
%TO.P,U9,17*%
%TO.N,Net-(R12-Pad2)*%
X67515000Y18028000D03*
%TO.P,U9,16*%
%TO.N,GNDA*%
X67515000Y25152000D03*
%TO.P,U9,15*%
X68165000Y25152000D03*
%TO.P,U9,14*%
%TO.N,right_amp_in_inv*%
X68815000Y25152000D03*
%TO.P,U9,13*%
%TO.N,GNDA*%
X69465000Y25152000D03*
%TO.P,U9,12*%
%TO.N,Net-(U9-Pad12)*%
X70115000Y25152000D03*
%TO.P,U9,11*%
%TO.N,GNDA*%
X70765000Y25152000D03*
%TO.P,U9,10*%
%TO.N,Net-(U9-Pad10)*%
X71415000Y25152000D03*
%TO.P,U9,9*%
%TO.N,GNDA*%
X72065000Y25152000D03*
%TO.P,U9,8*%
X72715000Y25152000D03*
%TO.P,U9,7*%
%TO.N,Net-(U9-Pad7)*%
X73365000Y25152000D03*
%TO.P,U9,6*%
%TO.N,GNDA*%
X74015000Y25152000D03*
%TO.P,U9,5*%
%TO.N,Net-(U9-Pad5)*%
X74665000Y25152000D03*
%TO.P,U9,4*%
%TO.N,GNDA*%
X75315000Y25152000D03*
%TO.P,U9,3*%
%TO.N,right_amp_in_noninv*%
X75965000Y25152000D03*
%TO.P,U9,2*%
%TO.N,GNDA*%
X76615000Y25152000D03*
%TO.P,U9,1*%
X77265000Y25152000D03*
%TD*%
D22*
%TO.P,U10,1*%
%TO.N,GND*%
X109220000Y3810000D03*
D23*
%TO.P,U10,9*%
%TO.N,/relays/sel5_set*%
X91440000Y-3810000D03*
%TO.P,U10,2*%
%TO.N,Net-(Q6-Pad3)*%
X106680000Y3810000D03*
%TO.P,U10,10*%
%TO.N,/relays/sel4_reset*%
X93980000Y-3810000D03*
%TO.P,U10,3*%
%TO.N,Net-(Q7-Pad3)*%
X104140000Y3810000D03*
%TO.P,U10,11*%
%TO.N,/relays/sel4_set*%
X96520000Y-3810000D03*
%TO.P,U10,4*%
%TO.N,Net-(Q8-Pad3)*%
X101600000Y3810000D03*
%TO.P,U10,12*%
%TO.N,/relays/sel3_reset*%
X99060000Y-3810000D03*
%TO.P,U10,5*%
%TO.N,spare_12v_3*%
X99060000Y3810000D03*
%TO.P,U10,13*%
%TO.N,+12V*%
X101600000Y-3810000D03*
%TO.P,U10,6*%
%TO.N,spare_12v_2*%
X96520000Y3810000D03*
%TO.P,U10,14*%
%TO.N,Net-(U10-Pad14)*%
X104140000Y-3810000D03*
%TO.P,U10,7*%
%TO.N,spare_12v_1*%
X93980000Y3810000D03*
%TO.P,U10,15*%
%TO.N,+5V*%
X106680000Y-3810000D03*
%TO.P,U10,8*%
%TO.N,/relays/sel5_reset*%
X91440000Y3810000D03*
%TO.P,U10,16*%
%TO.N,Net-(U10-Pad16)*%
X109220000Y-3810000D03*
%TD*%
%TO.P,U11,16*%
%TO.N,Net-(U11-Pad16)*%
X132588000Y-3810000D03*
%TO.P,U11,8*%
%TO.N,/relays/sel1_reset*%
X114808000Y3810000D03*
%TO.P,U11,15*%
%TO.N,+5V*%
X130048000Y-3810000D03*
%TO.P,U11,7*%
%TO.N,/relays/sel2_set*%
X117348000Y3810000D03*
%TO.P,U11,14*%
%TO.N,Net-(U11-Pad14)*%
X127508000Y-3810000D03*
%TO.P,U11,6*%
%TO.N,/relays/sel2_reset*%
X119888000Y3810000D03*
%TO.P,U11,13*%
%TO.N,+12V*%
X124968000Y-3810000D03*
%TO.P,U11,5*%
%TO.N,/relays/sel3_set*%
X122428000Y3810000D03*
%TO.P,U11,12*%
%TO.N,/relays/filament_relay*%
X122428000Y-3810000D03*
%TO.P,U11,4*%
%TO.N,Net-(Q8-Pad3)*%
X124968000Y3810000D03*
%TO.P,U11,11*%
%TO.N,/relays/bplus_relay*%
X119888000Y-3810000D03*
%TO.P,U11,3*%
%TO.N,Net-(U10-Pad16)*%
X127508000Y3810000D03*
%TO.P,U11,10*%
%TO.N,/relays/mute_relay*%
X117348000Y-3810000D03*
%TO.P,U11,2*%
%TO.N,Net-(Q6-Pad3)*%
X130048000Y3810000D03*
%TO.P,U11,9*%
%TO.N,/relays/sel1_set*%
X114808000Y-3810000D03*
D22*
%TO.P,U11,1*%
%TO.N,GND*%
X132588000Y3810000D03*
%TD*%
%TO.P,C21,1*%
%TO.N,+3V3*%
%TA.AperFunction,SMDPad,CuDef*%
G36*
G01*
X43130500Y1260000D02*
X43130500Y10000D01*
G75*
G02*
X42880500Y-240000I-250000J0D01*
G01*
X41955500Y-240000D01*
G75*
G02*
X41705500Y10000I0J250000D01*
G01*
X41705500Y1260000D01*
G75*
G02*
X41955500Y1510000I250000J0D01*
G01*
X42880500Y1510000D01*
G75*
G02*
X43130500Y1260000I0J-250000D01*
G01*
G37*
%TD.AperFunction*%
%TO.P,C21,2*%
%TO.N,GND*%
%TA.AperFunction,SMDPad,CuDef*%
G36*
G01*
X40155500Y1260000D02*
X40155500Y10000D01*
G75*
G02*
X39905500Y-240000I-250000J0D01*
G01*
X38980500Y-240000D01*
G75*
G02*
X38730500Y10000I0J250000D01*
G01*
X38730500Y1260000D01*
G75*
G02*
X38980500Y1510000I250000J0D01*
G01*
X39905500Y1510000D01*
G75*
G02*
X40155500Y1260000I0J-250000D01*
G01*
G37*
%TD.AperFunction*%
%TD*%
%TO.P,C22,2*%
%TO.N,GND*%
%TA.AperFunction,SMDPad,CuDef*%
G36*
G01*
X40246000Y8753000D02*
X40246000Y7503000D01*
G75*
G02*
X39996000Y7253000I-250000J0D01*
G01*
X39071000Y7253000D01*
G75*
G02*
X38821000Y7503000I0J250000D01*
G01*
X38821000Y8753000D01*
G75*
G02*
X39071000Y9003000I250000J0D01*
G01*
X39996000Y9003000D01*
G75*
G02*
X40246000Y8753000I0J-250000D01*
G01*
G37*
%TD.AperFunction*%
%TO.P,C22,1*%
%TO.N,+5V*%
%TA.AperFunction,SMDPad,CuDef*%
G36*
G01*
X43221000Y8753000D02*
X43221000Y7503000D01*
G75*
G02*
X42971000Y7253000I-250000J0D01*
G01*
X42046000Y7253000D01*
G75*
G02*
X41796000Y7503000I0J250000D01*
G01*
X41796000Y8753000D01*
G75*
G02*
X42046000Y9003000I250000J0D01*
G01*
X42971000Y9003000D01*
G75*
G02*
X43221000Y8753000I0J-250000D01*
G01*
G37*
%TD.AperFunction*%
%TD*%
%TO.P,C24,2*%
%TO.N,GND*%
%TA.AperFunction,SMDPad,CuDef*%
G36*
G01*
X-130416000Y56271000D02*
X-130416000Y57521000D01*
G75*
G02*
X-130166000Y57771000I250000J0D01*
G01*
X-129241000Y57771000D01*
G75*
G02*
X-128991000Y57521000I0J-250000D01*
G01*
X-128991000Y56271000D01*
G75*
G02*
X-129241000Y56021000I-250000J0D01*
G01*
X-130166000Y56021000D01*
G75*
G02*
X-130416000Y56271000I0J250000D01*
G01*
G37*
%TD.AperFunction*%
%TO.P,C24,1*%
%TO.N,+3V3*%
%TA.AperFunction,SMDPad,CuDef*%
G36*
G01*
X-133391000Y56271000D02*
X-133391000Y57521000D01*
G75*
G02*
X-133141000Y57771000I250000J0D01*
G01*
X-132216000Y57771000D01*
G75*
G02*
X-131966000Y57521000I0J-250000D01*
G01*
X-131966000Y56271000D01*
G75*
G02*
X-132216000Y56021000I-250000J0D01*
G01*
X-133141000Y56021000D01*
G75*
G02*
X-133391000Y56271000I0J250000D01*
G01*
G37*
%TD.AperFunction*%
%TD*%
%TO.P,C25,1*%
%TO.N,+5V*%
%TA.AperFunction,SMDPad,CuDef*%
G36*
G01*
X-151552000Y43825000D02*
X-151552000Y45075000D01*
G75*
G02*
X-151302000Y45325000I250000J0D01*
G01*
X-150377000Y45325000D01*
G75*
G02*
X-150127000Y45075000I0J-250000D01*
G01*
X-150127000Y43825000D01*
G75*
G02*
X-150377000Y43575000I-250000J0D01*
G01*
X-151302000Y43575000D01*
G75*
G02*
X-151552000Y43825000I0J250000D01*
G01*
G37*
%TD.AperFunction*%
%TO.P,C25,2*%
%TO.N,GND*%
%TA.AperFunction,SMDPad,CuDef*%
G36*
G01*
X-148577000Y43825000D02*
X-148577000Y45075000D01*
G75*
G02*
X-148327000Y45325000I250000J0D01*
G01*
X-147402000Y45325000D01*
G75*
G02*
X-147152000Y45075000I0J-250000D01*
G01*
X-147152000Y43825000D01*
G75*
G02*
X-147402000Y43575000I-250000J0D01*
G01*
X-148327000Y43575000D01*
G75*
G02*
X-148577000Y43825000I0J250000D01*
G01*
G37*
%TD.AperFunction*%
%TD*%
%TO.P,C37,1*%
%TO.N,+3V3*%
%TA.AperFunction,SMDPad,CuDef*%
G36*
G01*
X-77810000Y14214000D02*
X-77810000Y12964000D01*
G75*
G02*
X-78060000Y12714000I-250000J0D01*
G01*
X-78985000Y12714000D01*
G75*
G02*
X-79235000Y12964000I0J250000D01*
G01*
X-79235000Y14214000D01*
G75*
G02*
X-78985000Y14464000I250000J0D01*
G01*
X-78060000Y14464000D01*
G75*
G02*
X-77810000Y14214000I0J-250000D01*
G01*
G37*
%TD.AperFunction*%
%TO.P,C37,2*%
%TO.N,GND*%
%TA.AperFunction,SMDPad,CuDef*%
G36*
G01*
X-80785000Y14214000D02*
X-80785000Y12964000D01*
G75*
G02*
X-81035000Y12714000I-250000J0D01*
G01*
X-81960000Y12714000D01*
G75*
G02*
X-82210000Y12964000I0J250000D01*
G01*
X-82210000Y14214000D01*
G75*
G02*
X-81960000Y14464000I250000J0D01*
G01*
X-81035000Y14464000D01*
G75*
G02*
X-80785000Y14214000I0J-250000D01*
G01*
G37*
%TD.AperFunction*%
%TD*%
%TO.P,C38,2*%
%TO.N,GND*%
%TA.AperFunction,SMDPad,CuDef*%
G36*
G01*
X-59243999Y13227999D02*
X-59243999Y14477999D01*
G75*
G02*
X-58993999Y14727999I250000J0D01*
G01*
X-58068999Y14727999D01*
G75*
G02*
X-57818999Y14477999I0J-250000D01*
G01*
X-57818999Y13227999D01*
G75*
G02*
X-58068999Y12977999I-250000J0D01*
G01*
X-58993999Y12977999D01*
G75*
G02*
X-59243999Y13227999I0J250000D01*
G01*
G37*
%TD.AperFunction*%
%TO.P,C38,1*%
%TO.N,+5V*%
%TA.AperFunction,SMDPad,CuDef*%
G36*
G01*
X-62218999Y13227999D02*
X-62218999Y14477999D01*
G75*
G02*
X-61968999Y14727999I250000J0D01*
G01*
X-61043999Y14727999D01*
G75*
G02*
X-60793999Y14477999I0J-250000D01*
G01*
X-60793999Y13227999D01*
G75*
G02*
X-61043999Y12977999I-250000J0D01*
G01*
X-61968999Y12977999D01*
G75*
G02*
X-62218999Y13227999I0J250000D01*
G01*
G37*
%TD.AperFunction*%
%TD*%
D36*
%TO.N,GND*%
X-127889000Y56769000D03*
X-145796000Y44450000D03*
%TO.N,+12V*%
X-121412000Y-9652000D03*
%TO.N,Net-(C1-Pad1)*%
X-146812000Y-2286000D03*
X-146812000Y20320000D03*
%TO.N,GND*%
X-132842000Y-36576000D03*
X-138684000Y-45212000D03*
X-126238000Y-45466000D03*
X-115062000Y3810000D03*
X69850000Y5842000D03*
X74168000Y5842000D03*
X76962000Y5842000D03*
X76200000Y-4318000D03*
X69850000Y-4318000D03*
X67056000Y-4318000D03*
X64262000Y-4318000D03*
X112268000Y-58420000D03*
X114808000Y-58420000D03*
X114554000Y-20574000D03*
X112268000Y-20574000D03*
X109728000Y19304000D03*
X112268000Y19304000D03*
X109728000Y51308000D03*
X112268000Y51308000D03*
X-99568000Y3810000D03*
X-134112000Y-47244000D03*
X-131572000Y-47244000D03*
X-98806000Y-15240000D03*
X-118364000Y-17526000D03*
X-119380000Y19812000D03*
X-119888000Y-3810000D03*
X-99060000Y19812000D03*
X-99314000Y-3810000D03*
X-116840000Y-43434000D03*
X-119634000Y60452000D03*
X132080000Y-7874000D03*
X106680000Y-11684000D03*
X101600000Y-11684000D03*
%TO.N,/power/5v_rectified*%
X-128905000Y-34925000D03*
X-151130000Y8636000D03*
%TO.N,-15V*%
X63246000Y-25400000D03*
X82550000Y25908000D03*
X83566000Y12192000D03*
X86106000Y12192000D03*
X83820000Y-12446000D03*
X86360000Y-12446000D03*
%TO.N,+12V*%
X124206000Y-6604000D03*
X-121412000Y-25654000D03*
%TO.N,+15V*%
X73406000Y-9906000D03*
X71374000Y12192000D03*
X81026000Y-9906000D03*
%TO.N,+5V*%
X-63754000Y14478000D03*
X-63500000Y8636000D03*
X-63500000Y4572000D03*
X58674000Y13462000D03*
X60960000Y8128000D03*
X52578000Y8128000D03*
X44450000Y8128000D03*
X-154686000Y-26924000D03*
X-154686000Y12700000D03*
X-149569500Y59653500D03*
X-149606000Y54610000D03*
X79502000Y5842000D03*
X82550000Y-21082000D03*
X-153670000Y44323000D03*
%TO.N,GND*%
X-83566000Y14351000D03*
X-56769000Y13843000D03*
X37846000Y8128000D03*
X37846000Y635000D03*
%TO.N,+3V3*%
X-135128000Y-36576000D03*
X-75692000Y14224000D03*
X-75692000Y8636000D03*
X-75692000Y2540000D03*
X-135128000Y29464000D03*
X-135128000Y56896000D03*
X-135128000Y51054000D03*
X-135128000Y14478000D03*
X60706000Y762000D03*
X52324000Y508000D03*
X44450000Y508000D03*
X-135128000Y-23368000D03*
%TO.N,GNDA*%
X63246000Y-20320000D03*
X76962000Y-23114000D03*
X74676000Y-23114000D03*
X72390000Y-23114000D03*
X70104000Y-23114000D03*
X67818000Y-23114000D03*
X76962000Y23114000D03*
X74676000Y23114000D03*
X72390000Y23114000D03*
X70104000Y23114000D03*
X67818000Y23114000D03*
X82296000Y17018000D03*
X-108966000Y53594000D03*
X-105156000Y53594000D03*
X-108966000Y46228000D03*
X-104648000Y46228000D03*
X132080000Y67564000D03*
X132080000Y63500000D03*
X144018000Y-38608000D03*
X144018000Y-44196000D03*
X-106426000Y-54610000D03*
X-106426000Y-56388000D03*
X-106426000Y-58166000D03*
X-106426000Y-60198000D03*
%TO.N,left_sel_noninv*%
X71374000Y-20066000D03*
%TO.N,left_sel_inv*%
X73406000Y-20066000D03*
%TO.N,right_sel_noninv*%
X73406000Y20828000D03*
%TO.N,right_sel_inv*%
X71374000Y19812000D03*
%TO.N,/controls/operate_switch*%
X-172974000Y-6604000D03*
X-172974000Y60960000D03*
%TO.N,/controls/mute_switch*%
X-157480000Y50038000D03*
X-157988000Y-6604000D03*
%TO.N,/controls/sel_enc_2*%
X-173990000Y-4318000D03*
X-174244000Y51562000D03*
%TO.N,/controls/sel_enc_1*%
X-159766000Y60960000D03*
X-159766000Y-4064000D03*
%TO.N,/controls/vol_enc_1*%
X-160020000Y46990000D03*
X-161290000Y1016000D03*
%TO.N,/controls/vol_enc_2*%
X-162814000Y1778000D03*
%TO.N,relay_spi_strobe*%
X-84836000Y1778000D03*
X-161798000Y-9906000D03*
%TO.N,relay_spi_data*%
X-84836000Y3556000D03*
X-161544000Y-8128000D03*
%TO.N,relay_spi_clock*%
X-162814000Y-11684000D03*
X-84836000Y-254000D03*
%TO.N,i2c1_scl*%
X-164592000Y-9144000D03*
X-143764000Y60706000D03*
X-143764000Y25654000D03*
X-164592000Y24130000D03*
%TO.N,i2c1_sda*%
X-171704000Y-9144000D03*
X-140970000Y54864000D03*
X-140970000Y23876000D03*
%TO.N,/relays/filament_relay*%
X143256000Y0D03*
X143256000Y-13462000D03*
X122428000Y-13462000D03*
%TO.N,/relays/mute_relay*%
X116840000Y-62484000D03*
X-24384000Y-61468000D03*
%TO.N,/relays/bplus_relay*%
X119888000Y-15240000D03*
%TO.N,/relays/sel1_reset*%
X114808000Y9398000D03*
X127508000Y9398000D03*
X113284000Y-12192000D03*
X135890000Y-12192000D03*
%TO.N,/relays/sel1_set*%
X138430000Y-18288000D03*
X114808000Y-18288000D03*
%TO.N,/relays/sel2_set*%
X117348000Y7874000D03*
X105664000Y7874000D03*
X116078000Y-16764000D03*
X106680000Y-16764000D03*
%TO.N,/relays/sel2_reset*%
X114799999Y62729999D03*
X118762990Y-24274990D03*
X104140000Y-24384000D03*
%TO.N,/relays/sel3_reset*%
X79248000Y-48768000D03*
X79248000Y-24638000D03*
X99060000Y-24638000D03*
X100330000Y48768000D03*
X70896001Y48768000D03*
%TO.N,/relays/sel3_set*%
X130302000Y49784000D03*
X81026000Y59690000D03*
X81026000Y49784000D03*
X80772000Y-49530000D03*
X80772000Y-25908000D03*
X121158000Y-25908000D03*
%TO.N,/relays/sel4_set*%
X97790000Y47498000D03*
X43942000Y47498000D03*
%TO.N,/relays/sel4_reset*%
X26416000Y-9144000D03*
X30226000Y-9144000D03*
%TO.N,/relays/sel5_reset*%
X96774000Y46228000D03*
X6604000Y46228000D03*
%TO.N,/relays/sel5_set*%
X11430000Y-6858000D03*
X30226000Y-6858000D03*
%TO.N,/volume/vol_clock_5v*%
X69850000Y4064000D03*
X68072000Y11938000D03*
%TO.N,/volume/vol_data_5v*%
X72390000Y3048000D03*
X67056000Y13462000D03*
%TO.N,Net-(Q6-Pad3)*%
X88392000Y-1524000D03*
X41402000Y-3302000D03*
%TO.N,Net-(Q7-Pad3)*%
X90932000Y-508000D03*
X42418000Y-2286000D03*
%TO.N,Net-(Q8-Pad3)*%
X88392000Y508000D03*
X32766000Y-1270000D03*
%TO.N,Net-(U10-Pad16)*%
X127508000Y-1016000D03*
X109220000Y-1778000D03*
%TO.N,Net-(C19-Pad2)*%
X-143256000Y-20828000D03*
%TD*%
D37*
%TO.N,Net-(C1-Pad1)*%
X-151130000Y-52705000D02*
X-150241000Y-52705000D01*
X-126492000Y-2286000D02*
X-126492000Y-2032000D01*
D38*
X-126238000Y20320000D02*
X-124968000Y20320000D01*
X-121448500Y16800500D02*
X-117348000Y16800500D01*
X-124968000Y20320000D02*
X-121448500Y16800500D01*
D37*
X-112231500Y16800500D02*
X-111760000Y17272000D01*
D38*
X-117348000Y16800500D02*
X-112231500Y16800500D01*
X-121956500Y-6821500D02*
X-117729000Y-6821500D01*
X-126492000Y-2286000D02*
X-121956500Y-6821500D01*
D37*
X-112231500Y-6821500D02*
X-112014000Y-6604000D01*
D38*
X-117729000Y-6821500D02*
X-112231500Y-6821500D01*
D39*
X-126492000Y-2286000D02*
X-146812000Y-2286000D01*
X-126238000Y20320000D02*
X-146812000Y20320000D01*
D37*
%TO.N,GND*%
X64262000Y-6005500D02*
X64135000Y-6132500D01*
X64262000Y-4318000D02*
X64262000Y-6005500D01*
X67056000Y-5969000D02*
X66892500Y-6132500D01*
X67056000Y-4318000D02*
X67056000Y-5969000D01*
X69850000Y-4318000D02*
X69850000Y-6132500D01*
X76200000Y-4318000D02*
X76200000Y-6132500D01*
X69850000Y5842000D02*
X69850000Y7402500D01*
X74168000Y7275500D02*
X74041000Y7402500D01*
X74168000Y5842000D02*
X74168000Y7275500D01*
X76962000Y7275500D02*
X76835000Y7402500D01*
X76962000Y5842000D02*
X76962000Y7275500D01*
X-101436500Y3810000D02*
X-101600000Y3973500D01*
X-99568000Y3810000D02*
X-101436500Y3810000D01*
X-116676500Y3810000D02*
X-116840000Y3973500D01*
X-115062000Y3810000D02*
X-116676500Y3810000D01*
X-134112000Y-45949000D02*
X-132842000Y-44679000D01*
X-134112000Y-47244000D02*
X-134112000Y-45949000D01*
X-131572000Y-45949000D02*
X-132842000Y-44679000D01*
X-131572000Y-47244000D02*
X-131572000Y-45949000D01*
D40*
X-126238000Y-45466000D02*
X-126238000Y-43397500D01*
X-138684000Y-45212000D02*
X-138684000Y-43397500D01*
X-132842000Y-36576000D02*
X-132842000Y-38379000D01*
D37*
X-116622500Y-17526000D02*
X-116586000Y-17562500D01*
X-118364000Y-17526000D02*
X-116622500Y-17526000D01*
X-101055500Y-15240000D02*
X-101092000Y-15276500D01*
X-98806000Y-15240000D02*
X-101055500Y-15240000D01*
X-101055500Y19812000D02*
X-101092000Y19775500D01*
X-99060000Y19812000D02*
X-101055500Y19812000D01*
X-117384500Y19812000D02*
X-117348000Y19775500D01*
X-119380000Y19812000D02*
X-117384500Y19812000D01*
X-117765500Y-3810000D02*
X-117729000Y-3846500D01*
X-119888000Y-3810000D02*
X-117765500Y-3810000D01*
X-101182500Y-3810000D02*
X-101219000Y-3846500D01*
X-99314000Y-3810000D02*
X-101182500Y-3810000D01*
X141732000Y-17526000D02*
X143510000Y-17526000D01*
X145502999Y-19518999D02*
X145502999Y-21013501D01*
X143510000Y-17526000D02*
X145502999Y-19518999D01*
X-145796000Y44450000D02*
X-147864500Y44450000D01*
X-129576500Y56769000D02*
X-129703500Y56896000D01*
X-127889000Y56769000D02*
X-129576500Y56769000D01*
D38*
%TO.N,/power/5v_rectified*%
X-151130000Y-34925000D02*
X-128905000Y-34925000D01*
D37*
X-128905000Y-36742000D02*
X-130542000Y-38379000D01*
D38*
X-128905000Y-34925000D02*
X-128905000Y-36742000D01*
D37*
X-128498500Y-40422500D02*
X-130542000Y-38379000D01*
X-126238000Y-40422500D02*
X-128498500Y-40422500D01*
D38*
X-126238000Y8636000D02*
X-124460000Y8636000D01*
X-122772500Y6948500D02*
X-116840000Y6948500D01*
X-124460000Y8636000D02*
X-122772500Y6948500D01*
D37*
X-111977500Y6948500D02*
X-111760000Y6731000D01*
D38*
X-116840000Y6948500D02*
X-111977500Y6948500D01*
D39*
X-151130000Y8636000D02*
X-126238000Y8636000D01*
D38*
%TO.N,-15V*%
X74970000Y13970000D02*
X74930000Y13970000D01*
D40*
X74015000Y14925000D02*
X74970000Y13970000D01*
X73463498Y16357000D02*
X74015000Y16357000D01*
X72715000Y17105498D02*
X73463498Y16357000D01*
X72715000Y18028000D02*
X72715000Y17105498D01*
X74015000Y16357000D02*
X74015000Y14925000D01*
X74015000Y18028000D02*
X74015000Y16357000D01*
X70765000Y-14290000D02*
X70445000Y-13970000D01*
X71458500Y-16409000D02*
X70765000Y-16409000D01*
X72065000Y-18028000D02*
X72065000Y-17015500D01*
X72065000Y-17015500D02*
X71458500Y-16409000D01*
X70765000Y-16409000D02*
X70765000Y-14290000D01*
X70765000Y-18028000D02*
X70765000Y-16409000D01*
D37*
X80337000Y25908000D02*
X80264000Y25835000D01*
X82550000Y25908000D02*
X80337000Y25908000D01*
X64987500Y-25400000D02*
X65024000Y-25363500D01*
X63246000Y-25400000D02*
X64987500Y-25400000D01*
%TO.N,+12V*%
X-101182500Y-6858000D02*
X-101219000Y-6821500D01*
D38*
X-169418000Y-29464000D02*
X-166878000Y-29464000D01*
D37*
X-101436500Y-6604000D02*
X-101219000Y-6821500D01*
D38*
X-106934000Y-6604000D02*
X-101436500Y-6604000D01*
D37*
X-93816500Y-6821500D02*
X-93599000Y-6604000D01*
D38*
X-166878000Y-29464000D02*
X-144018000Y-29464000D01*
X-144018000Y-29464000D02*
X-141478000Y-29464000D01*
X-141478000Y-29464000D02*
X-137668000Y-25654000D01*
X-137668000Y-25654000D02*
X-121412000Y-25654000D01*
X-121412000Y-25654000D02*
X-121412000Y-25654000D01*
X-121412000Y-9652000D02*
X-107950000Y-9652000D01*
X-106934000Y-8636000D02*
X-106934000Y-6604000D01*
X-107950000Y-9652000D02*
X-106934000Y-8636000D01*
D40*
%TO.N,+15V*%
X70765000Y18028000D02*
X70765000Y17015500D01*
X72065000Y17015500D02*
X72065000Y18028000D01*
X71745000Y16695500D02*
X72065000Y17015500D01*
X71745000Y15270000D02*
X70445000Y13970000D01*
X71745000Y16695500D02*
X71745000Y15270000D01*
X71085000Y16695500D02*
X71745000Y16695500D01*
X70765000Y17015500D02*
X71085000Y16695500D01*
X72715000Y-17015500D02*
X73321500Y-16409000D01*
X72715000Y-18028000D02*
X72715000Y-17015500D01*
X73321500Y-16409000D02*
X74015000Y-16409000D01*
X74015000Y-18028000D02*
X74015000Y-16409000D01*
X74015000Y-14163000D02*
X74208000Y-13970000D01*
X74015000Y-16409000D02*
X74015000Y-14163000D01*
D38*
X71374000Y12192000D02*
X71882000Y11684000D01*
X71882000Y11684000D02*
X71882000Y5588000D01*
X71882000Y5588000D02*
X81026000Y-3556000D01*
X81026000Y-3556000D02*
X81026000Y-9906000D01*
D40*
X74208000Y-13970000D02*
X74168000Y-13970000D01*
D38*
X73406000Y-13208000D02*
X73406000Y-9906000D01*
X74168000Y-13970000D02*
X73406000Y-13208000D01*
D40*
X81026000Y-9906000D02*
X81026000Y-9906000D01*
D38*
%TO.N,+5V*%
X-169418000Y-26924000D02*
X-166878000Y-26924000D01*
D37*
X-65605000Y14478000D02*
X-65786000Y14659000D01*
X-63754000Y14478000D02*
X-65605000Y14478000D01*
X-65351000Y8636000D02*
X-65532000Y8817000D01*
X-63500000Y8636000D02*
X-65351000Y8636000D01*
X-65241500Y2540000D02*
X-65278000Y2503500D01*
X58674000Y15711500D02*
X60742500Y17780000D01*
X58674000Y13462000D02*
X58674000Y15711500D01*
X46010500Y8128000D02*
X46137500Y8255000D01*
X44450000Y8128000D02*
X46010500Y8128000D01*
X54048000Y8128000D02*
X54175000Y8255000D01*
X52578000Y8128000D02*
X54048000Y8128000D01*
X62520500Y8128000D02*
X62647500Y8255000D01*
X60960000Y8128000D02*
X62520500Y8128000D01*
D40*
X-147320000Y59653500D02*
X-149569500Y59653500D01*
X-147864500Y54610000D02*
X-147320000Y54065500D01*
X-149606000Y54610000D02*
X-149606000Y54610000D01*
D37*
X-101817500Y6731000D02*
X-101600000Y6948500D01*
D38*
X-106680000Y6731000D02*
X-101817500Y6731000D01*
X-95123000Y6858000D02*
X-93345000Y8636000D01*
X-101509500Y6858000D02*
X-95123000Y6858000D01*
D37*
X-101600000Y6948500D02*
X-101509500Y6858000D01*
D38*
X-166878000Y-26924000D02*
X-154686000Y-26924000D01*
D37*
X-154686000Y-26924000D02*
X-154686000Y-26924000D01*
D38*
X-106680000Y6731000D02*
X-106680000Y8890000D01*
X-110490000Y12700000D02*
X-154686000Y12700000D01*
X-106680000Y8890000D02*
X-110490000Y12700000D01*
D40*
X-149569500Y59653500D02*
X-149569500Y59653500D01*
X-149606000Y54610000D02*
X-147864500Y54610000D01*
D38*
X-65278000Y2794000D02*
X-63500000Y4572000D01*
X-65278000Y2503500D02*
X-65278000Y2794000D01*
X79502000Y7275500D02*
X79375000Y7402500D01*
X79502000Y5842000D02*
X79502000Y7275500D01*
X80735500Y-21082000D02*
X80645000Y-21172500D01*
X82550000Y-21082000D02*
X80735500Y-21082000D01*
D37*
X-150966500Y44323000D02*
X-150839500Y44450000D01*
X-153670000Y44323000D02*
X-150966500Y44323000D01*
X-63128999Y13852999D02*
X-63754000Y14478000D01*
X-61506499Y13852999D02*
X-63128999Y13852999D01*
%TO.N,GND*%
X-83566000Y14351000D02*
X-82804000Y13589000D01*
X-82804000Y13589000D02*
X-81497500Y13589000D01*
X-56778999Y13852999D02*
X-56769000Y13843000D01*
X-58531499Y13852999D02*
X-56778999Y13852999D01*
X37846000Y8128000D02*
X39533500Y8128000D01*
X37846000Y635000D02*
X39443000Y635000D01*
%TO.N,+5V*%
X44450000Y8128000D02*
X42508500Y8128000D01*
D40*
%TO.N,+3V3*%
X46675000Y1052498D02*
X46332501Y709999D01*
X46675000Y3445000D02*
X46675000Y1052498D01*
X54930000Y1172500D02*
X54392500Y635000D01*
X54930000Y3445000D02*
X54930000Y1172500D01*
X63185000Y1172500D02*
X62647500Y635000D01*
X63185000Y3445000D02*
X63185000Y1172500D01*
X-70498500Y14441500D02*
X-70215000Y14158000D01*
X-73152000Y14441500D02*
X-70498500Y14441500D01*
X-70498500Y8599500D02*
X-70215000Y8316000D01*
X-73152000Y8599500D02*
X-70498500Y8599500D01*
X-70371500Y2503500D02*
X-70215000Y2347000D01*
X-73152000Y2503500D02*
X-70371500Y2503500D01*
D37*
X-73188500Y2540000D02*
X-73152000Y2503500D01*
X-75692000Y2540000D02*
X-73188500Y2540000D01*
X-73188500Y8636000D02*
X-73152000Y8599500D01*
X-75692000Y8636000D02*
X-73188500Y8636000D01*
X-73369500Y14224000D02*
X-73152000Y14441500D01*
X-75692000Y14224000D02*
X-73369500Y14224000D01*
D40*
X-138967500Y57470000D02*
X-138430000Y56932500D01*
X-142510000Y57470000D02*
X-138967500Y57470000D01*
X-138967500Y51755000D02*
X-138430000Y51217500D01*
X-142510000Y51755000D02*
X-138967500Y51755000D01*
X-135128000Y-38365000D02*
X-135142000Y-38379000D01*
D37*
X-136640500Y-38379000D02*
X-138684000Y-40422500D01*
X-135142000Y-38379000D02*
X-136640500Y-38379000D01*
X-135142000Y-36590000D02*
X-135128000Y-36576000D01*
X-135142000Y-38379000D02*
X-135142000Y-36590000D01*
X-169926000Y29464000D02*
X-170180000Y29210000D01*
D39*
X-135128000Y29464000D02*
X-169926000Y29464000D01*
D37*
X-138393500Y56896000D02*
X-138430000Y56932500D01*
X-135128000Y56896000D02*
X-138393500Y56896000D01*
X-138266500Y51054000D02*
X-138430000Y51217500D01*
X-135128000Y51054000D02*
X-138266500Y51054000D01*
D38*
X46130502Y508000D02*
X46332501Y709999D01*
X44450000Y508000D02*
X46130502Y508000D01*
X54265500Y508000D02*
X54392500Y635000D01*
X52324000Y508000D02*
X54265500Y508000D01*
X62520500Y762000D02*
X62647500Y635000D01*
X60706000Y762000D02*
X62520500Y762000D01*
X-169418000Y-24384000D02*
X-166878000Y-24384000D01*
X-166878000Y-24384000D02*
X-141986000Y-24384000D01*
X-140970000Y-23368000D02*
X-135128000Y-23368000D01*
X-141986000Y-24384000D02*
X-140970000Y-23368000D01*
D37*
X-135128000Y56896000D02*
X-132678500Y56896000D01*
X-76327000Y13589000D02*
X-75692000Y14224000D01*
X-78522500Y13589000D02*
X-76327000Y13589000D01*
X42545000Y508000D02*
X42418000Y635000D01*
X44450000Y508000D02*
X42545000Y508000D01*
D40*
%TO.N,GNDA*%
X76962000Y23114000D02*
X76962000Y23368000D01*
X77265000Y23671000D02*
X77265000Y25152000D01*
X76962000Y23368000D02*
X77265000Y23671000D01*
X75315000Y23753000D02*
X75315000Y25152000D01*
X74676000Y23114000D02*
X75315000Y23753000D01*
X74676000Y23114000D02*
X74168000Y23622000D01*
X74015000Y24229498D02*
X74015000Y25152000D01*
X74168000Y24076498D02*
X74015000Y24229498D01*
X74168000Y23622000D02*
X74168000Y24076498D01*
X72715000Y23439000D02*
X72715000Y25152000D01*
X72390000Y23114000D02*
X72715000Y23439000D01*
X70765000Y23775000D02*
X70765000Y25152000D01*
X70104000Y23114000D02*
X70765000Y23775000D01*
X69465000Y23753000D02*
X69465000Y25152000D01*
X70104000Y23114000D02*
X69465000Y23753000D01*
X68165000Y23461000D02*
X68165000Y25152000D01*
X67818000Y23114000D02*
X68165000Y23461000D01*
D37*
X80300500Y17018000D02*
X80264000Y17054500D01*
X82296000Y17018000D02*
X80300500Y17018000D01*
D40*
X76962000Y-23114000D02*
X76962000Y-23622000D01*
X76615000Y-23969000D02*
X76615000Y-25152000D01*
X76962000Y-23622000D02*
X76615000Y-23969000D01*
X77265000Y-23925000D02*
X77265000Y-25152000D01*
X76962000Y-23622000D02*
X77265000Y-23925000D01*
X75315000Y-23753000D02*
X75315000Y-25152000D01*
X74676000Y-23114000D02*
X75315000Y-23753000D01*
X74015000Y-23775000D02*
X74015000Y-25152000D01*
X74676000Y-23114000D02*
X74015000Y-23775000D01*
X72715000Y-23947000D02*
X72715000Y-25152000D01*
X72390000Y-23622000D02*
X72715000Y-23947000D01*
X72065000Y-25152000D02*
X72065000Y-23947000D01*
X72390000Y-23622000D02*
X72390000Y-23114000D01*
X72065000Y-23947000D02*
X72390000Y-23622000D01*
X69465000Y-23753000D02*
X70104000Y-23114000D01*
X69465000Y-25152000D02*
X69465000Y-23753000D01*
X70765000Y-23775000D02*
X70104000Y-23114000D01*
X70765000Y-25152000D02*
X70765000Y-23775000D01*
X67515000Y-23417000D02*
X67818000Y-23114000D01*
X67515000Y-25152000D02*
X67515000Y-23417000D01*
X68165000Y-23461000D02*
X67818000Y-23114000D01*
X68165000Y-25152000D02*
X68165000Y-23461000D01*
X67515000Y23417000D02*
X67515000Y25152000D01*
X67818000Y23114000D02*
X67515000Y23417000D01*
X76615000Y23461000D02*
X76615000Y25152000D01*
X76962000Y23114000D02*
X76615000Y23461000D01*
X72065000Y23439000D02*
X72065000Y25152000D01*
X72390000Y23114000D02*
X72065000Y23439000D01*
D37*
X141732000Y-27686000D02*
X143510000Y-27686000D01*
X145502999Y-25693001D02*
X145502999Y-23988501D01*
X143510000Y-27686000D02*
X145502999Y-25693001D01*
X64987500Y-20320000D02*
X65024000Y-20283500D01*
X63246000Y-20320000D02*
X64987500Y-20320000D01*
D40*
%TO.N,Net-(C16-Pad2)*%
X70115000Y-18950502D02*
X70115000Y-18028000D01*
X68745502Y-20320000D02*
X70115000Y-18950502D01*
X68072000Y-20320000D02*
X68745502Y-20320000D01*
D37*
X58964500Y-22388500D02*
X65024000Y-22388500D01*
X57150000Y-20574000D02*
X58964500Y-22388500D01*
X57150000Y-17780000D02*
X57150000Y-20574000D01*
D40*
X66003500Y-22388500D02*
X68072000Y-20320000D01*
X65024000Y-22388500D02*
X66003500Y-22388500D01*
D37*
%TO.N,Net-(C17-Pad2)*%
X80264000Y22860000D02*
X79756000Y22860000D01*
X79756000Y22860000D02*
X77724000Y20828000D01*
X77724000Y20828000D02*
X75946000Y20828000D01*
X75946000Y20828000D02*
X74676000Y19558000D01*
D40*
X74665000Y19547000D02*
X74676000Y19558000D01*
X74665000Y18028000D02*
X74665000Y19547000D01*
D37*
X84455000Y22860000D02*
X86995000Y20320000D01*
X80264000Y22860000D02*
X84455000Y22860000D01*
D38*
%TO.N,left_sel_noninv*%
X3810000Y-52070000D02*
X3810000Y-52705000D01*
D37*
X32859990Y-54770010D02*
X35560000Y-52070000D01*
X5875010Y-54770010D02*
X32859990Y-54770010D01*
X3810000Y-52705000D02*
X5875010Y-54770010D01*
X64609990Y-54770010D02*
X67310000Y-52070000D01*
X38260010Y-54770010D02*
X64609990Y-54770010D01*
X35560000Y-52070000D02*
X38260010Y-54770010D01*
D40*
X71374000Y-18069000D02*
X71415000Y-18028000D01*
X71374000Y-20066000D02*
X71374000Y-18069000D01*
D37*
X1270000Y-54610000D02*
X3810000Y-52070000D01*
X1109990Y-54770010D02*
X1270000Y-54610000D01*
X-16349990Y-54770010D02*
X1109990Y-54770010D01*
X-19050000Y-52070000D02*
X-16349990Y-54770010D01*
X70010010Y-54770010D02*
X69850000Y-54610000D01*
X96359990Y-54770010D02*
X70010010Y-54770010D01*
X69850000Y-54610000D02*
X67310000Y-52070000D01*
X99060000Y-52070000D02*
X96359990Y-54770010D01*
X101760010Y-54770010D02*
X101600000Y-54610000D01*
X101600000Y-54610000D02*
X99060000Y-52070000D01*
X128109990Y-54770010D02*
X101760010Y-54770010D01*
X130810000Y-52070000D02*
X128109990Y-54770010D01*
%TO.N,left_sel_inv*%
X32640020Y-56770020D02*
X35560000Y-59690000D01*
X5459980Y-56770020D02*
X32640020Y-56770020D01*
X64390020Y-56770020D02*
X67310000Y-59690000D01*
X38479980Y-56770020D02*
X64390020Y-56770020D01*
X35560000Y-59690000D02*
X38479980Y-56770020D01*
X96359990Y-56989990D02*
X99060000Y-59690000D01*
X70010010Y-56989990D02*
X96359990Y-56989990D01*
X67310000Y-59690000D02*
X70010010Y-56989990D01*
X-18159980Y-56770020D02*
X-19050000Y-55880000D01*
X2160020Y-56770020D02*
X-18159980Y-56770020D01*
D40*
X73365000Y-20025000D02*
X73406000Y-20066000D01*
X73365000Y-18028000D02*
X73365000Y-20025000D01*
D37*
X3810000Y-58420000D02*
X2160020Y-56770020D01*
X3810000Y-58420000D02*
X5459980Y-56770020D01*
X3810000Y-59690000D02*
X3810000Y-58420000D01*
X101760010Y-56989990D02*
X101600000Y-57150000D01*
X101600000Y-57150000D02*
X99060000Y-59690000D01*
X128109990Y-56989990D02*
X101760010Y-56989990D01*
X130810000Y-59690000D02*
X128109990Y-56989990D01*
%TO.N,right_sel_noninv*%
X33020000Y57150000D02*
X35560000Y59690000D01*
X6350000Y57150000D02*
X33020000Y57150000D01*
X3810000Y59690000D02*
X6350000Y57150000D01*
X35560000Y59690000D02*
X38100000Y57150000D01*
X38100000Y57150000D02*
X64770000Y57150000D01*
X64770000Y57150000D02*
X67310000Y59690000D01*
X67310000Y59690000D02*
X69850000Y57150000D01*
X69850000Y57150000D02*
X96520000Y57150000D01*
X96520000Y57150000D02*
X99060000Y59690000D01*
X99060000Y59690000D02*
X101600000Y57150000D01*
X101600000Y57150000D02*
X128270000Y57150000D01*
X128270000Y57150000D02*
X130810000Y59690000D01*
X-17780000Y57150000D02*
X-20320000Y59690000D01*
X1270000Y57150000D02*
X-17780000Y57150000D01*
X3810000Y59690000D02*
X1270000Y57150000D01*
D40*
X73365000Y20787000D02*
X73406000Y20828000D01*
X73365000Y18028000D02*
X73365000Y20787000D01*
D37*
%TO.N,right_sel_inv*%
X3810000Y52070000D02*
X6350000Y54610000D01*
X6350000Y54610000D02*
X33020000Y54610000D01*
X33020000Y54610000D02*
X35560000Y52070000D01*
X35560000Y52070000D02*
X38100000Y54610000D01*
X38100000Y54610000D02*
X64770000Y54610000D01*
X64770000Y54610000D02*
X67310000Y52070000D01*
X67310000Y52070000D02*
X69850000Y54610000D01*
X96520000Y54610000D02*
X99060000Y52070000D01*
X69850000Y54610000D02*
X96520000Y54610000D01*
X99060000Y52070000D02*
X101600000Y54610000D01*
D40*
X128270000Y54610000D02*
X130810000Y52070000D01*
D37*
X101600000Y54610000D02*
X128270000Y54610000D01*
X-19050000Y54610000D02*
X-20320000Y55880000D01*
X1270000Y54610000D02*
X-19050000Y54610000D01*
X3810000Y52070000D02*
X1270000Y54610000D01*
D40*
X71415000Y19771000D02*
X71374000Y19812000D01*
X71415000Y18028000D02*
X71415000Y19771000D01*
D38*
%TO.N,Net-(J1-Pad1)*%
X-167640000Y-62230000D02*
X-165100000Y-59690000D01*
D37*
X-151765000Y-59690000D02*
X-151130000Y-60325000D01*
D38*
X-165100000Y-59690000D02*
X-151765000Y-59690000D01*
D37*
%TO.N,Net-(J1-Pad2)*%
X-151770001Y-57155001D02*
X-151130000Y-56515000D01*
D38*
X-167640000Y-55730000D02*
X-165585000Y-57785000D01*
X-152400000Y-57785000D02*
X-151130000Y-56515000D01*
X-165585000Y-57785000D02*
X-152400000Y-57785000D01*
D39*
%TO.N,Net-(J2-Pad2)*%
X-162410000Y-44450000D02*
X-158750000Y-40790000D01*
D37*
X-158750000Y-40790000D02*
X-158750000Y-40640000D01*
D39*
X-156845000Y-38735000D02*
X-151130000Y-38735000D01*
X-158750000Y-40640000D02*
X-156845000Y-38735000D01*
%TO.N,Net-(J2-Pad1)*%
X-165735000Y-49530000D02*
X-158115000Y-49530000D01*
X-158115000Y-49530000D02*
X-151130000Y-42545000D01*
X-168910000Y-46355000D02*
X-165735000Y-49530000D01*
X-168910000Y-44450000D02*
X-168910000Y-46355000D01*
D38*
%TO.N,LINE*%
X172720000Y0D02*
X175260000Y-2540000D01*
X175260000Y-12700000D02*
X172720000Y-15240000D01*
X175260000Y-2540000D02*
X175260000Y-12700000D01*
X172720000Y-56030000D02*
X168910000Y-59840000D01*
X172720000Y-15240000D02*
X172720000Y-56030000D01*
%TO.N,NEUT*%
X163680000Y-25400000D02*
X163680000Y-39370000D01*
X168910000Y-44600000D02*
X163680000Y-39370000D01*
X168910000Y-53340000D02*
X168910000Y-44600000D01*
%TO.N,Filament_line*%
X165339990Y-18019990D02*
X165339990Y-2300010D01*
X165339990Y-2300010D02*
X167640000Y0D01*
X167640000Y-20320000D02*
X165339990Y-18019990D01*
X167640000Y-36830000D02*
X167640000Y-20320000D01*
X170180000Y-39370000D02*
X167640000Y-36830000D01*
%TO.N,Bplus_line*%
X170180000Y-17780000D02*
X167640000Y-15240000D01*
X170180000Y-25400000D02*
X170180000Y-17780000D01*
D37*
%TO.N,/controls/operate_switch*%
X-169418000Y-6604000D02*
X-172974000Y-6604000D01*
X-172974000Y60960000D02*
X-170180000Y60960000D01*
%TO.N,/controls/mute_switch*%
X-166878000Y-6604000D02*
X-157988000Y-6604000D01*
X-167132000Y50038000D02*
X-170180000Y46990000D01*
X-157480000Y50038000D02*
X-167132000Y50038000D01*
%TO.N,/controls/sel_enc_2*%
X-169672000Y-4318000D02*
X-169418000Y-4064000D01*
X-173990000Y-4318000D02*
X-169672000Y-4318000D01*
X-166878000Y51562000D02*
X-162560000Y55880000D01*
X-174244000Y51562000D02*
X-166878000Y51562000D01*
%TO.N,/controls/sel_enc_1*%
X-166878000Y-4064000D02*
X-159766000Y-4064000D01*
X-162560000Y60960000D02*
X-159766000Y60960000D01*
%TO.N,/controls/vol_enc_1*%
X-163830000Y-1524000D02*
X-161290000Y1016000D01*
X-166878000Y-1524000D02*
X-163830000Y-1524000D01*
X-160020000Y46990000D02*
X-162560000Y46990000D01*
%TO.N,/controls/vol_enc_2*%
X-166116000Y1778000D02*
X-162814000Y1778000D01*
X-169418000Y-1524000D02*
X-166116000Y1778000D01*
D40*
%TO.N,vol_spi_latch*%
X65085000Y1172500D02*
X65622500Y635000D01*
X65085000Y3445000D02*
X65085000Y1172500D01*
D37*
X-165100000Y-19304000D02*
X-166878000Y-19304000D01*
X-158688010Y-12892010D02*
X-165100000Y-19304000D01*
X34605990Y-12892010D02*
X-158688010Y-12892010D01*
X38100000Y-9398000D02*
X34605990Y-12892010D01*
X54864000Y-9398000D02*
X38100000Y-9398000D01*
X60960000Y-2286000D02*
X60198000Y-3048000D01*
X60198000Y-3048000D02*
X60198000Y-4064000D01*
X65622500Y-1179500D02*
X64516000Y-2286000D01*
X64516000Y-2286000D02*
X60960000Y-2286000D01*
X60198000Y-4064000D02*
X54864000Y-9398000D01*
X65622500Y635000D02*
X65622500Y-1179500D01*
D40*
%TO.N,vol_spi_data*%
X48575000Y1442500D02*
X49307501Y709999D01*
X48575000Y3445000D02*
X48575000Y1442500D01*
D37*
X34316038Y-11176000D02*
X37618038Y-7874000D01*
X-157480000Y-11176000D02*
X34316038Y-11176000D01*
X37618038Y-7874000D02*
X44450000Y-7874000D01*
X49307501Y-3016499D02*
X49307501Y709999D01*
X44450000Y-7874000D02*
X49307501Y-3016499D01*
D40*
X-169418000Y-19304000D02*
X-168148000Y-18034000D01*
X-168148000Y-16294998D02*
X-167347002Y-15494000D01*
X-168148000Y-18034000D02*
X-168148000Y-16294998D01*
X-167347002Y-15494000D02*
X-163322000Y-15494000D01*
X-163322000Y-15494000D02*
X-159512000Y-11684000D01*
X-159512000Y-11684000D02*
X-159004000Y-11176000D01*
D37*
X-157480000Y-11176000D02*
X-159004000Y-11176000D01*
D40*
%TO.N,vol_spi_clock*%
X56830000Y1172500D02*
X57367500Y635000D01*
X56830000Y3445000D02*
X56830000Y1172500D01*
D37*
X57367500Y-5624500D02*
X57367500Y635000D01*
X54356000Y-8636000D02*
X57367500Y-5624500D01*
X37846000Y-8636000D02*
X54356000Y-8636000D01*
X-159004000Y-12192000D02*
X34290000Y-12192000D01*
X34290000Y-12192000D02*
X37846000Y-8636000D01*
X-163576000Y-16764000D02*
X-159004000Y-12192000D01*
X-166878000Y-16764000D02*
X-163576000Y-16764000D01*
D40*
%TO.N,relay_spi_strobe*%
X-71006500Y5624500D02*
X-70215000Y6416000D01*
X-73152000Y5624500D02*
X-71006500Y5624500D01*
X-74124502Y5624500D02*
X-73152000Y5624500D01*
D37*
X-73152000Y5624500D02*
X-78703500Y5624500D01*
X-82550000Y1778000D02*
X-84836000Y1778000D01*
X-78703500Y5624500D02*
X-82550000Y1778000D01*
D40*
X-161798000Y-12954000D02*
X-161798000Y-9906000D01*
X-163068000Y-14224000D02*
X-161798000Y-12954000D01*
X-166878000Y-14224000D02*
X-163068000Y-14224000D01*
%TO.N,relay_spi_data*%
X-71006500Y11466500D02*
X-70215000Y12258000D01*
X-73152000Y11466500D02*
X-71006500Y11466500D01*
D37*
X-73152000Y11466500D02*
X-75655500Y11466500D01*
X-83566000Y3556000D02*
X-84836000Y3556000D01*
X-75655500Y11466500D02*
X-83566000Y3556000D01*
D40*
X-168053001Y-12859001D02*
X-168053001Y-11081001D01*
X-169418000Y-14224000D02*
X-168053001Y-12859001D01*
X-168053001Y-11081001D02*
X-167386000Y-10414000D01*
X-163830000Y-10414000D02*
X-161544000Y-8128000D01*
X-167386000Y-10414000D02*
X-163830000Y-10414000D01*
%TO.N,relay_spi_clock*%
X-71133500Y-471500D02*
X-70215000Y447000D01*
X-73152000Y-471500D02*
X-71133500Y-471500D01*
D37*
X-84618500Y-471500D02*
X-84836000Y-254000D01*
X-73152000Y-471500D02*
X-84618500Y-471500D01*
D40*
X-166878000Y-11684000D02*
X-162814000Y-11684000D01*
%TO.N,i2c1_scl*%
X-138967500Y59370000D02*
X-138430000Y59907500D01*
X-142510000Y59370000D02*
X-138967500Y59370000D01*
D37*
X-143764000Y60624000D02*
X-142510000Y59370000D01*
X-143764000Y60706000D02*
X-143764000Y60624000D01*
X-143764000Y25654000D02*
X-161544000Y25654000D01*
X-163068000Y24130000D02*
X-164338000Y24130000D01*
X-161544000Y25654000D02*
X-163068000Y24130000D01*
X-166878000Y-9144000D02*
X-164592000Y-9144000D01*
X-164338000Y24130000D02*
X-170180000Y24130000D01*
D40*
%TO.N,i2c1_sda*%
X-138967500Y53655000D02*
X-138430000Y54192500D01*
X-142510000Y53655000D02*
X-138967500Y53655000D01*
D37*
X-142179000Y53655000D02*
X-140970000Y54864000D01*
X-142510000Y53655000D02*
X-142179000Y53655000D01*
X-140970000Y23876000D02*
X-160528000Y23876000D01*
X-162814000Y21590000D02*
X-170180000Y21590000D01*
X-160528000Y23876000D02*
X-162814000Y21590000D01*
X-171704000Y-9144000D02*
X-169418000Y-9144000D01*
%TO.N,left_amp_in_inv*%
X75965000Y-32493000D02*
X75965000Y-36811000D01*
X74168000Y-38608000D02*
X72898000Y-38608000D01*
X75965000Y-36811000D02*
X74168000Y-38608000D01*
D40*
X75965000Y-25152000D02*
X75965000Y-26905000D01*
D37*
X75965000Y-32493000D02*
X75965000Y-26905000D01*
D40*
%TO.N,left_amp_in_noninv*%
X68815000Y-25152000D02*
X68815000Y-26651000D01*
D37*
X68815000Y-31825000D02*
X72898000Y-35908000D01*
X68815000Y-26651000D02*
X68815000Y-31825000D01*
%TO.N,right_amp_in_inv*%
X70993000Y33655000D02*
X73025000Y33655000D01*
X68815000Y31477000D02*
X70993000Y33655000D01*
D40*
X68815000Y25152000D02*
X68815000Y26651000D01*
D37*
X68815000Y31477000D02*
X68815000Y26651000D01*
%TO.N,right_amp_in_noninv*%
X75965000Y28015000D02*
X73025000Y30955000D01*
D40*
X75965000Y25152000D02*
X75965000Y26651000D01*
D37*
X75965000Y28015000D02*
X75965000Y26651000D01*
%TO.N,Net-(J15-Pad2)*%
X99060000Y12700000D02*
X103378000Y12700000D01*
D40*
%TO.N,Net-(J17-Pad3)*%
X-43180000Y-41910000D02*
X-43180000Y-40830000D01*
X-42355000Y-40830000D02*
X-43180000Y-40830000D01*
D37*
X-31115000Y-52070000D02*
X-42355000Y-40830000D01*
X-31115000Y-53975000D02*
X-31115000Y-52070000D01*
X-29210000Y-55880000D02*
X-31115000Y-53975000D01*
%TO.N,Net-(J17-Pad2)*%
X-29210000Y-52070000D02*
X-44450000Y-36830000D01*
X-44450000Y-36830000D02*
X-47180000Y-36830000D01*
X-26874002Y-56515000D02*
X-33859002Y-63500000D01*
X-40640000Y-63500000D02*
X-43180000Y-66040000D01*
X-33859002Y-63500000D02*
X-40640000Y-63500000D01*
X-26874002Y-54405998D02*
X-29210000Y-52070000D01*
X-26874002Y-56515000D02*
X-26874002Y-54405998D01*
%TO.N,left_out_inv*%
X-106680000Y-40830000D02*
X-74930000Y-40830000D01*
X-86995000Y-51435000D02*
X-89027000Y-51435000D01*
X-89027000Y-51435000D02*
X-90678000Y-49784000D01*
X-90678000Y-49784000D02*
X-90678000Y-44196000D01*
X-90678000Y-44196000D02*
X-91186000Y-43688000D01*
X-103822000Y-43688000D02*
X-106680000Y-40830000D01*
X-91186000Y-43688000D02*
X-103822000Y-43688000D01*
D38*
%TO.N,left_out_noninv*%
X-94615000Y-51435000D02*
X-94854990Y-51674990D01*
X-94615000Y-51435000D02*
X-94375010Y-51674990D01*
D37*
X-110680000Y-36830000D02*
X-106680000Y-36830000D01*
X-106680000Y-36830000D02*
X-104394000Y-39116000D01*
X-81216000Y-39116000D02*
X-78930000Y-36830000D01*
X-104394000Y-39116000D02*
X-81216000Y-39116000D01*
X-106680000Y-66040000D02*
X-104394000Y-63754000D01*
X-77216000Y-63754000D02*
X-74930000Y-66040000D01*
X-94615000Y-51435000D02*
X-93599000Y-51435000D01*
X-93599000Y-51435000D02*
X-91694000Y-49530000D01*
X-91694000Y-49530000D02*
X-91694000Y-44958000D01*
X-91694000Y-44958000D02*
X-91948000Y-44704000D01*
X-110680000Y-40958000D02*
X-110680000Y-36830000D01*
X-106934000Y-44704000D02*
X-110680000Y-40958000D01*
X-100838000Y-63754000D02*
X-77216000Y-63754000D01*
X-104394000Y-63754000D02*
X-100838000Y-63754000D01*
X-91948000Y-44704000D02*
X-100838000Y-44704000D01*
X-100838000Y-44704000D02*
X-100838000Y-63754000D01*
X-100838000Y-44704000D02*
X-106934000Y-44704000D01*
%TO.N,Net-(J23-Pad2)*%
X-44450000Y36830000D02*
X-47180000Y36830000D01*
X-32385000Y48895000D02*
X-44450000Y36830000D01*
X-32385000Y57785000D02*
X-32385000Y48895000D01*
X-30480000Y59690000D02*
X-32385000Y57785000D01*
X-43180000Y66040000D02*
X-36830000Y59690000D01*
X-36830000Y59690000D02*
X-30480000Y59690000D01*
%TO.N,Net-(J23-Pad3)*%
X-30480000Y55880000D02*
X-30480000Y48260000D01*
X-43180000Y35560000D02*
X-43180000Y32830000D01*
X-30480000Y48260000D02*
X-43180000Y35560000D01*
D38*
%TO.N,right_out_inv*%
X-87630000Y52070000D02*
X-87390010Y51830010D01*
D37*
X-106680000Y37084000D02*
X-106680000Y32830000D01*
X-98552000Y39370000D02*
X-104394000Y39370000D01*
X-104394000Y39370000D02*
X-106680000Y37084000D01*
X-91694000Y46228000D02*
X-98552000Y39370000D01*
X-91694000Y50038000D02*
X-91694000Y46228000D01*
X-89662000Y52070000D02*
X-91694000Y50038000D01*
X-87630000Y52070000D02*
X-89662000Y52070000D01*
X-77280000Y30480000D02*
X-74930000Y32830000D01*
X-104330000Y30480000D02*
X-77280000Y30480000D01*
X-106680000Y32830000D02*
X-104330000Y30480000D01*
%TO.N,right_out_noninv*%
X-104902000Y40386000D02*
X-108458000Y36830000D01*
X-99314000Y40386000D02*
X-104902000Y40386000D01*
X-108458000Y36830000D02*
X-110680000Y36830000D01*
X-92710000Y50038000D02*
X-92710000Y46990000D01*
X-94742000Y52070000D02*
X-92710000Y50038000D01*
X-92710000Y46990000D02*
X-99314000Y40386000D01*
X-95250000Y52070000D02*
X-94742000Y52070000D01*
X-73152000Y34036000D02*
X-75946000Y36830000D01*
X-75946000Y36830000D02*
X-78930000Y36830000D01*
X-73152000Y30734000D02*
X-73152000Y34036000D01*
X-106172000Y29210000D02*
X-74676000Y29210000D01*
X-74676000Y29210000D02*
X-73152000Y30734000D01*
X-110680000Y33718000D02*
X-106172000Y29210000D01*
X-110680000Y36830000D02*
X-110680000Y33718000D01*
X-110680000Y36830000D02*
X-110680000Y61786000D01*
X-106680000Y65786000D02*
X-106680000Y66040000D01*
X-110680000Y61786000D02*
X-106680000Y65786000D01*
X-78930000Y62040000D02*
X-74930000Y66040000D01*
X-78930000Y36830000D02*
X-78930000Y62040000D01*
D40*
%TO.N,Net-(J26-Pad3)*%
X-148118500Y55880000D02*
X-147320000Y56678500D01*
X-153670000Y55880000D02*
X-148118500Y55880000D01*
X-144510000Y58420000D02*
X-144510000Y57928000D01*
X-145759500Y56678500D02*
X-147320000Y56678500D01*
X-144510000Y57928000D02*
X-145759500Y56678500D01*
%TO.N,Net-(J26-Pad4)*%
X-144510000Y52705000D02*
X-144510000Y52086000D01*
X-145505500Y51090500D02*
X-147320000Y51090500D01*
X-144510000Y52086000D02*
X-145505500Y51090500D01*
X-147320000Y51090500D02*
X-147864500Y51090500D01*
X-150114000Y53340000D02*
X-153670000Y53340000D01*
X-147864500Y51090500D02*
X-150114000Y53340000D01*
D37*
%TO.N,/relays/filament_relay*%
X147320000Y0D02*
X143256000Y0D01*
X143256000Y-13462000D02*
X122428000Y-13462000D01*
%TO.N,/relays/mute_relay*%
X-11938000Y-62992000D02*
X-13462000Y-61468000D01*
X116332000Y-62992000D02*
X-11938000Y-62992000D01*
X116840000Y-62484000D02*
X116332000Y-62992000D01*
X-13462000Y-61468000D02*
X-24130000Y-61468000D01*
X-24130000Y-61468000D02*
X-24384000Y-61468000D01*
%TO.N,/relays/bplus_relay*%
X119888000Y-15240000D02*
X147320000Y-15240000D01*
%TO.N,/relays/sel1_reset*%
X114808000Y9398000D02*
X127508000Y9398000D01*
X127508000Y9398000D02*
X127508000Y9398000D01*
X113284000Y-12192000D02*
X135890000Y-12192000D01*
%TO.N,/relays/sel1_set*%
X138430000Y-18288000D02*
X114808000Y-18288000D01*
X114808000Y-18288000D02*
X114808000Y-18288000D01*
%TO.N,/relays/sel2_set*%
X117348000Y7874000D02*
X105664000Y7874000D01*
X106680000Y-16764000D02*
X116078000Y-16764000D01*
%TO.N,/relays/sel2_reset*%
X104140000Y61390000D02*
X104140000Y59690000D01*
X105479999Y62729999D02*
X104140000Y61390000D01*
X114799999Y62729999D02*
X105479999Y62729999D01*
D40*
X118653980Y-24384000D02*
X118762990Y-24274990D01*
D37*
X104140000Y-24384000D02*
X118653980Y-24384000D01*
D40*
%TO.N,/relays/sel3_reset*%
X72390000Y-52070000D02*
X72390000Y-50800000D01*
D37*
X72390000Y-50800000D02*
X74422000Y-48768000D01*
X74422000Y-48768000D02*
X79248000Y-48768000D01*
D40*
X79248000Y-48768000D02*
X79248000Y-48768000D01*
D37*
X79248000Y-24638000D02*
X99060000Y-24638000D01*
X100330000Y48768000D02*
X70866000Y48768000D01*
%TO.N,/relays/sel3_set*%
X74930000Y59690000D02*
X81026000Y59690000D01*
X81026000Y59690000D02*
X81026000Y59690000D01*
X74930000Y-52070000D02*
X78232000Y-52070000D01*
X78232000Y-52070000D02*
X80772000Y-49530000D01*
D40*
X80772000Y-49530000D02*
X80772000Y-49530000D01*
D37*
X80772000Y-25908000D02*
X121158000Y-25908000D01*
X130302000Y49784000D02*
X82550000Y49784000D01*
X82550000Y49784000D02*
X81026000Y49784000D01*
%TO.N,/relays/sel4_set*%
X97790000Y47498000D02*
X45720000Y47498000D01*
X45720000Y47498000D02*
X43942000Y47498000D01*
%TO.N,/relays/sel4_reset*%
X26416000Y-9144000D02*
X30226000Y-9144000D01*
%TO.N,/relays/sel5_reset*%
X96774000Y46228000D02*
X7620000Y46228000D01*
X7620000Y46228000D02*
X6604000Y46228000D01*
%TO.N,/relays/sel5_set*%
X11430000Y-6858000D02*
X30226000Y-6858000D01*
X30226000Y-6858000D02*
X30226000Y-6858000D01*
D40*
%TO.N,/volume/vol_latch_5v*%
X69465000Y16988320D02*
X68834000Y16357320D01*
X69465000Y18028000D02*
X69465000Y16988320D01*
X68834000Y11466500D02*
X65622500Y8255000D01*
X68834000Y16357320D02*
X68834000Y11466500D01*
X65622500Y6932500D02*
X64135000Y5445000D01*
X65622500Y8255000D02*
X65622500Y6932500D01*
X65622500Y7332502D02*
X65622500Y8255000D01*
X76708000Y-13697412D02*
X75315000Y-15090412D01*
X77978000Y-10414000D02*
X76708000Y-11684000D01*
X77978000Y-4954410D02*
X77978000Y-10414000D01*
X73023590Y0D02*
X77978000Y-4954410D01*
X69124999Y3715999D02*
X72840998Y0D01*
X72840998Y0D02*
X73023590Y0D01*
X75315000Y-15090412D02*
X75315000Y-18028000D01*
X76708000Y-11684000D02*
X76708000Y-13697412D01*
X69124999Y3773001D02*
X69124999Y3715999D01*
X67453000Y5445000D02*
X69124999Y3773001D01*
X64135000Y5445000D02*
X67453000Y5445000D01*
%TO.N,/volume/vol_clock_5v*%
X68815000Y16974730D02*
X68072000Y16231730D01*
X68815000Y18028000D02*
X68815000Y16974730D01*
X68072000Y16231730D02*
X68072000Y11938000D01*
X68072000Y11938000D02*
X68072000Y11938000D01*
X66389010Y10255010D02*
X60801010Y10255010D01*
X58801000Y8255000D02*
X57150000Y8255000D01*
X60801010Y10255010D02*
X58801000Y8255000D01*
X57150000Y6715000D02*
X55880000Y5445000D01*
X57150000Y8255000D02*
X57150000Y6715000D01*
X73209991Y450009D02*
X73209991Y704009D01*
X78428010Y-4768010D02*
X73209991Y450009D01*
X78428010Y-10600400D02*
X78428010Y-4768010D01*
X75965000Y-18028000D02*
X75965000Y-16802002D01*
X77216000Y-13825822D02*
X77216000Y-11812410D01*
X76454000Y-14587822D02*
X77216000Y-13825822D01*
X75965000Y-16802002D02*
X76454000Y-16313002D01*
X77216000Y-11812410D02*
X78428010Y-10600400D01*
X76454000Y-16313002D02*
X76454000Y-14587822D01*
X68072000Y11938000D02*
X66389010Y10255010D01*
X73209991Y704009D02*
X69850000Y4064000D01*
%TO.N,/volume/vol_data_5v*%
X68165000Y16961140D02*
X67056000Y15852140D01*
X68165000Y18028000D02*
X68165000Y16961140D01*
X67056000Y15852140D02*
X67056000Y13462000D01*
X67056000Y11938000D02*
X66040000Y10922000D01*
X66040000Y10922000D02*
X53340000Y10922000D01*
X50673000Y8255000D02*
X49112500Y8255000D01*
X53340000Y10922000D02*
X50673000Y8255000D01*
X49112500Y6932500D02*
X47625000Y5445000D01*
X49112500Y8255000D02*
X49112500Y6932500D01*
X67056000Y13462000D02*
X67056000Y11938000D01*
X76615000Y-16857000D02*
X76615000Y-18028000D01*
X77470000Y-16002000D02*
X76615000Y-16857000D01*
X77470000Y-14208232D02*
X77470000Y-16002000D01*
X77666010Y-14012222D02*
X77470000Y-14208232D01*
X78878020Y-10786800D02*
X77666010Y-11998810D01*
X73660001Y636409D02*
X78878019Y-4581609D01*
X73660001Y1777999D02*
X73660001Y636409D01*
X77666010Y-11998810D02*
X77666010Y-14012222D01*
X78878019Y-4581609D02*
X78878020Y-10786800D01*
X72390000Y3048000D02*
X73660001Y1777999D01*
%TO.N,Net-(Q6-Pad3)*%
X-67146500Y1397000D02*
X-65278000Y-471500D01*
X-68215000Y1397000D02*
X-67146500Y1397000D01*
X106680000Y2360000D02*
X106755010Y2284990D01*
X106680000Y3810000D02*
X106680000Y2360000D01*
X106680000Y3810000D02*
X106680000Y2032000D01*
D37*
X106680000Y2032000D02*
X103378000Y-1270000D01*
D40*
X103378000Y-1270000D02*
X103378000Y-1270000D01*
X-65060500Y-254000D02*
X-65278000Y-471500D01*
X-53340000Y3302000D02*
X-57113500Y-471500D01*
X26162000Y3302000D02*
X-53340000Y3302000D01*
X32766000Y-3302000D02*
X26162000Y3302000D01*
X-57113500Y-471500D02*
X-65278000Y-471500D01*
X41402000Y-3302000D02*
X32766000Y-3302000D01*
D37*
X103124000Y-1524000D02*
X103378000Y-1270000D01*
X88392000Y-1524000D02*
X103124000Y-1524000D01*
X130048000Y3810000D02*
X130048000Y3302000D01*
X130048000Y3302000D02*
X128270000Y1524000D01*
X106680000Y2110000D02*
X106680000Y3810000D01*
X107266000Y1524000D02*
X106680000Y2110000D01*
X128270000Y1524000D02*
X107266000Y1524000D01*
D40*
%TO.N,Net-(Q7-Pad3)*%
X-67310000Y13208000D02*
X-65786000Y11684000D01*
X-68215000Y13208000D02*
X-67310000Y13208000D01*
D37*
X104140000Y3810000D02*
X104140000Y1270000D01*
X104140000Y1270000D02*
X102362000Y-508000D01*
D40*
X102362000Y-508000D02*
X102362000Y-508000D01*
X27686000Y5334000D02*
X35306000Y-2286000D01*
X-52324000Y5334000D02*
X27686000Y5334000D01*
X35306000Y-2286000D02*
X42418000Y-2286000D01*
X-58674000Y11684000D02*
X-52324000Y5334000D01*
X-65786000Y11684000D02*
X-58674000Y11684000D01*
D37*
X90932000Y-508000D02*
X102362000Y-508000D01*
D40*
%TO.N,Net-(Q8-Pad3)*%
X-67056000Y7366000D02*
X-65532000Y5842000D01*
X-68215000Y7366000D02*
X-67056000Y7366000D01*
X101600000Y3810000D02*
X101600000Y4572000D01*
D37*
X101600000Y4572000D02*
X103124000Y6096000D01*
X122682000Y6096000D02*
X124968000Y3810000D01*
X103124000Y6096000D02*
X122682000Y6096000D01*
X101600000Y3810000D02*
X101600000Y1270000D01*
X101600000Y1270000D02*
X100838000Y508000D01*
D40*
X100838000Y508000D02*
X100838000Y508000D01*
X32766000Y-1270000D02*
X27178000Y4318000D01*
X27178000Y4318000D02*
X-52832000Y4318000D01*
X-54356000Y5842000D02*
X-65532000Y5842000D01*
X-52832000Y4318000D02*
X-54356000Y5842000D01*
D37*
X88392000Y508000D02*
X100838000Y508000D01*
D40*
%TO.N,Net-(R9-Pad2)*%
X76200000Y-13569002D02*
X76200000Y-9107500D01*
X74665000Y-15104002D02*
X76200000Y-13569002D01*
X74665000Y-18028000D02*
X74665000Y-15104002D01*
D37*
%TO.N,Net-(R10-Pad2)*%
X77459501Y-18197500D02*
X77290001Y-18028000D01*
X80645000Y-18197500D02*
X77459501Y-18197500D01*
D40*
%TO.N,Net-(R11-Pad2)*%
X69369999Y16256909D02*
X69369999Y10857501D01*
X70115000Y17001910D02*
X69369999Y16256909D01*
X69369999Y10857501D02*
X69850000Y10377500D01*
X70115000Y18028000D02*
X70115000Y17001910D01*
%TO.N,Net-(R12-Pad2)*%
X63965500Y18028000D02*
X63717500Y17780000D01*
X67515000Y18028000D02*
X63965500Y18028000D01*
%TO.N,Net-(R28-Pad1)*%
X67345500Y-18197500D02*
X67515000Y-18028000D01*
D37*
X66770499Y-17308500D02*
X67489999Y-18028000D01*
X65024000Y-17308500D02*
X66770499Y-17308500D01*
%TO.N,Net-(R29-Pad1)*%
X79291501Y20029500D02*
X77290001Y18028000D01*
X80264000Y20029500D02*
X79291501Y20029500D01*
D40*
%TO.N,Net-(R30-Pad2)*%
X79375000Y10377500D02*
X77470000Y12282500D01*
X76615000Y17105498D02*
X76615000Y18028000D01*
X77470000Y16250498D02*
X76615000Y17105498D01*
X77470000Y12282500D02*
X77470000Y16250498D01*
%TO.N,Net-(R31-Pad2)*%
X75965000Y17105498D02*
X75965000Y18028000D01*
X76904010Y16166488D02*
X75965000Y17105498D01*
X76904010Y10446510D02*
X76904010Y16166488D01*
X76835000Y10377500D02*
X76904010Y10446510D01*
%TO.N,Net-(R32-Pad2)*%
X76454000Y12663500D02*
X74168000Y10377500D01*
X75315000Y15617000D02*
X76454000Y14478000D01*
X76454000Y14478000D02*
X76454000Y12663500D01*
X75315000Y18028000D02*
X75315000Y15617000D01*
%TO.N,Net-(R33-Pad2)*%
X64135000Y-9107500D02*
X64135000Y-9779000D01*
X64135000Y-9779000D02*
X67564000Y-13208000D01*
X67564000Y-13208000D02*
X67564000Y-15748000D01*
X68165000Y-16349000D02*
X68165000Y-18028000D01*
X67564000Y-15748000D02*
X68165000Y-16349000D01*
%TO.N,Net-(R34-Pad2)*%
X68326000Y-11684000D02*
X68326000Y-15494000D01*
X66892500Y-10250500D02*
X68326000Y-11684000D01*
X68815000Y-15983000D02*
X68815000Y-18028000D01*
X68326000Y-15494000D02*
X68815000Y-15983000D01*
X66892500Y-9107500D02*
X66892500Y-10250500D01*
%TO.N,Net-(R35-Pad2)*%
X69850000Y-9107500D02*
X69850000Y-12192000D01*
X69850000Y-12192000D02*
X69088000Y-12954000D01*
X69088000Y-12954000D02*
X69088000Y-15240000D01*
X69465000Y-15617000D02*
X69465000Y-18028000D01*
X69088000Y-15240000D02*
X69465000Y-15617000D01*
%TO.N,Net-(U10-Pad16)*%
X126746000Y-1778000D02*
X127508000Y-1016000D01*
X109220000Y-1778000D02*
X126746000Y-1778000D01*
D37*
%TO.N,Net-(C19-Pad2)*%
X-109256500Y-18451500D02*
X-108839000Y-18034000D01*
X-143176000Y-20748000D02*
X-143256000Y-20828000D01*
D39*
X-125984000Y-20748000D02*
X-143176000Y-20748000D01*
D37*
X-116796500Y-20748000D02*
X-116586000Y-20537500D01*
D38*
X-125984000Y-20748000D02*
X-116796500Y-20748000D01*
X-108839000Y-18034000D02*
X-108839000Y-19685000D01*
X-109691500Y-20537500D02*
X-116586000Y-20537500D01*
X-108839000Y-19685000D02*
X-109691500Y-20537500D01*
D37*
%TO.N,Net-(C30-Pad2)*%
X-106099000Y-18234000D02*
X-106299000Y-18034000D01*
X17780000Y-17780000D02*
X18415000Y-17145000D01*
X-101309500Y-18034000D02*
X-101092000Y-18251500D01*
D38*
X-106299000Y-18034000D02*
X-101309500Y-18034000D01*
%TO.N,Net-(C32-Pad1)*%
X-106680000Y17272000D02*
X-104902000Y17272000D01*
X-104430500Y16800500D02*
X-101092000Y16800500D01*
X-104902000Y17272000D02*
X-104430500Y16800500D01*
%TD*%
D41*
%TO.N,-15V*%
G36*
X86292189Y13063624D02*
G01*
X86455850Y13013978D01*
X86606672Y12933362D01*
X86738870Y12824870D01*
X86847362Y12692672D01*
X86927978Y12541850D01*
X86977624Y12378189D01*
X86995000Y12201766D01*
X86995000Y-12455766D01*
X86977624Y-12632189D01*
X86927978Y-12795850D01*
X86847362Y-12946672D01*
X86738870Y-13078870D01*
X86606672Y-13187362D01*
X86455850Y-13267978D01*
X86292189Y-13317624D01*
X86115766Y-13335000D01*
X83810234Y-13335000D01*
X83633811Y-13317624D01*
X83470150Y-13267978D01*
X83319328Y-13187362D01*
X83187130Y-13078870D01*
X83078638Y-12946672D01*
X82998022Y-12795850D01*
X82948376Y-12632189D01*
X82931000Y-12455766D01*
X82931000Y12201766D01*
X82948376Y12378189D01*
X82998022Y12541850D01*
X83078638Y12692672D01*
X83187130Y12824870D01*
X83319328Y12933362D01*
X83470150Y13013978D01*
X83633811Y13063624D01*
X83810234Y13081000D01*
X86115766Y13081000D01*
X86292189Y13063624D01*
G37*
X86292189Y13063624D02*
X86455850Y13013978D01*
X86606672Y12933362D01*
X86738870Y12824870D01*
X86847362Y12692672D01*
X86927978Y12541850D01*
X86977624Y12378189D01*
X86995000Y12201766D01*
X86995000Y-12455766D01*
X86977624Y-12632189D01*
X86927978Y-12795850D01*
X86847362Y-12946672D01*
X86738870Y-13078870D01*
X86606672Y-13187362D01*
X86455850Y-13267978D01*
X86292189Y-13317624D01*
X86115766Y-13335000D01*
X83810234Y-13335000D01*
X83633811Y-13317624D01*
X83470150Y-13267978D01*
X83319328Y-13187362D01*
X83187130Y-13078870D01*
X83078638Y-12946672D01*
X82998022Y-12795850D01*
X82948376Y-12632189D01*
X82931000Y-12455766D01*
X82931000Y12201766D01*
X82948376Y12378189D01*
X82998022Y12541850D01*
X83078638Y12692672D01*
X83187130Y12824870D01*
X83319328Y12933362D01*
X83470150Y13013978D01*
X83633811Y13063624D01*
X83810234Y13081000D01*
X86115766Y13081000D01*
X86292189Y13063624D01*
%TD*%
M02*
