%TF.GenerationSoftware,KiCad,Pcbnew,(5.1.6-0-10_14)*%
%TF.CreationDate,2021-04-04T14:44:52-05:00*%
%TF.ProjectId,preamp_controller1,70726561-6d70-45f6-936f-6e74726f6c6c,Rev. 01*%
%TF.SameCoordinates,Original*%
%TF.FileFunction,Legend,Bot*%
%TF.FilePolarity,Positive*%
%FSLAX46Y46*%
G04 Gerber Fmt 4.6, Leading zero omitted, Abs format (unit mm)*
G04 Created by KiCad (PCBNEW (5.1.6-0-10_14)) date 2021-04-04 14:44:52*
%MOMM*%
%LPD*%
G01*
G04 APERTURE LIST*
%ADD10C,0.120000*%
%ADD11C,0.150000*%
G04 APERTURE END LIST*
D10*
%TO.C,C26*%
X130969936Y-910000D02*
X132174064Y-910000D01*
X130969936Y910000D02*
X132174064Y910000D01*
%TO.C,C27*%
X107590000Y-8033936D02*
X107590000Y-9238064D01*
X105770000Y-8033936D02*
X105770000Y-9238064D01*
%TO.C,C35*%
X128175936Y-6964000D02*
X129380064Y-6964000D01*
X128175936Y-8784000D02*
X129380064Y-8784000D01*
%TO.C,C36*%
X100690000Y-8033936D02*
X100690000Y-9238064D01*
X102510000Y-8033936D02*
X102510000Y-9238064D01*
%TO.C,C26*%
D11*
X132214857Y-2177142D02*
X132262476Y-2224761D01*
X132405333Y-2272380D01*
X132500571Y-2272380D01*
X132643428Y-2224761D01*
X132738666Y-2129523D01*
X132786285Y-2034285D01*
X132833904Y-1843809D01*
X132833904Y-1700952D01*
X132786285Y-1510476D01*
X132738666Y-1415238D01*
X132643428Y-1320000D01*
X132500571Y-1272380D01*
X132405333Y-1272380D01*
X132262476Y-1320000D01*
X132214857Y-1367619D01*
X131833904Y-1367619D02*
X131786285Y-1320000D01*
X131691047Y-1272380D01*
X131452952Y-1272380D01*
X131357714Y-1320000D01*
X131310095Y-1367619D01*
X131262476Y-1462857D01*
X131262476Y-1558095D01*
X131310095Y-1700952D01*
X131881523Y-2272380D01*
X131262476Y-2272380D01*
X130405333Y-1272380D02*
X130595809Y-1272380D01*
X130691047Y-1320000D01*
X130738666Y-1367619D01*
X130833904Y-1510476D01*
X130881523Y-1700952D01*
X130881523Y-2081904D01*
X130833904Y-2177142D01*
X130786285Y-2224761D01*
X130691047Y-2272380D01*
X130500571Y-2272380D01*
X130405333Y-2224761D01*
X130357714Y-2177142D01*
X130310095Y-2081904D01*
X130310095Y-1843809D01*
X130357714Y-1748571D01*
X130405333Y-1700952D01*
X130500571Y-1653333D01*
X130691047Y-1653333D01*
X130786285Y-1700952D01*
X130833904Y-1748571D01*
X130881523Y-1843809D01*
%TO.C,C27*%
X105217142Y-7993142D02*
X105264761Y-7945523D01*
X105312380Y-7802666D01*
X105312380Y-7707428D01*
X105264761Y-7564571D01*
X105169523Y-7469333D01*
X105074285Y-7421714D01*
X104883809Y-7374095D01*
X104740952Y-7374095D01*
X104550476Y-7421714D01*
X104455238Y-7469333D01*
X104360000Y-7564571D01*
X104312380Y-7707428D01*
X104312380Y-7802666D01*
X104360000Y-7945523D01*
X104407619Y-7993142D01*
X104407619Y-8374095D02*
X104360000Y-8421714D01*
X104312380Y-8516952D01*
X104312380Y-8755047D01*
X104360000Y-8850285D01*
X104407619Y-8897904D01*
X104502857Y-8945523D01*
X104598095Y-8945523D01*
X104740952Y-8897904D01*
X105312380Y-8326476D01*
X105312380Y-8945523D01*
X104312380Y-9278857D02*
X104312380Y-9945523D01*
X105312380Y-9516952D01*
%TO.C,C35*%
X129420857Y-10051142D02*
X129468476Y-10098761D01*
X129611333Y-10146380D01*
X129706571Y-10146380D01*
X129849428Y-10098761D01*
X129944666Y-10003523D01*
X129992285Y-9908285D01*
X130039904Y-9717809D01*
X130039904Y-9574952D01*
X129992285Y-9384476D01*
X129944666Y-9289238D01*
X129849428Y-9194000D01*
X129706571Y-9146380D01*
X129611333Y-9146380D01*
X129468476Y-9194000D01*
X129420857Y-9241619D01*
X129087523Y-9146380D02*
X128468476Y-9146380D01*
X128801809Y-9527333D01*
X128658952Y-9527333D01*
X128563714Y-9574952D01*
X128516095Y-9622571D01*
X128468476Y-9717809D01*
X128468476Y-9955904D01*
X128516095Y-10051142D01*
X128563714Y-10098761D01*
X128658952Y-10146380D01*
X128944666Y-10146380D01*
X129039904Y-10098761D01*
X129087523Y-10051142D01*
X127563714Y-9146380D02*
X128039904Y-9146380D01*
X128087523Y-9622571D01*
X128039904Y-9574952D01*
X127944666Y-9527333D01*
X127706571Y-9527333D01*
X127611333Y-9574952D01*
X127563714Y-9622571D01*
X127516095Y-9717809D01*
X127516095Y-9955904D01*
X127563714Y-10051142D01*
X127611333Y-10098761D01*
X127706571Y-10146380D01*
X127944666Y-10146380D01*
X128039904Y-10098761D01*
X128087523Y-10051142D01*
%TO.C,C36*%
X100137142Y-7993142D02*
X100184761Y-7945523D01*
X100232380Y-7802666D01*
X100232380Y-7707428D01*
X100184761Y-7564571D01*
X100089523Y-7469333D01*
X99994285Y-7421714D01*
X99803809Y-7374095D01*
X99660952Y-7374095D01*
X99470476Y-7421714D01*
X99375238Y-7469333D01*
X99280000Y-7564571D01*
X99232380Y-7707428D01*
X99232380Y-7802666D01*
X99280000Y-7945523D01*
X99327619Y-7993142D01*
X99232380Y-8326476D02*
X99232380Y-8945523D01*
X99613333Y-8612190D01*
X99613333Y-8755047D01*
X99660952Y-8850285D01*
X99708571Y-8897904D01*
X99803809Y-8945523D01*
X100041904Y-8945523D01*
X100137142Y-8897904D01*
X100184761Y-8850285D01*
X100232380Y-8755047D01*
X100232380Y-8469333D01*
X100184761Y-8374095D01*
X100137142Y-8326476D01*
X99232380Y-9802666D02*
X99232380Y-9612190D01*
X99280000Y-9516952D01*
X99327619Y-9469333D01*
X99470476Y-9374095D01*
X99660952Y-9326476D01*
X100041904Y-9326476D01*
X100137142Y-9374095D01*
X100184761Y-9421714D01*
X100232380Y-9516952D01*
X100232380Y-9707428D01*
X100184761Y-9802666D01*
X100137142Y-9850285D01*
X100041904Y-9897904D01*
X99803809Y-9897904D01*
X99708571Y-9850285D01*
X99660952Y-9802666D01*
X99613333Y-9707428D01*
X99613333Y-9516952D01*
X99660952Y-9421714D01*
X99708571Y-9374095D01*
X99803809Y-9326476D01*
%TD*%
M02*
