%TF.GenerationSoftware,KiCad,Pcbnew,(5.1.6-0-10_14)*%
%TF.CreationDate,2021-04-04T14:44:52-05:00*%
%TF.ProjectId,preamp_controller1,70726561-6d70-45f6-936f-6e74726f6c6c,Rev. 01*%
%TF.SameCoordinates,Original*%
%TF.FileFunction,Soldermask,Top*%
%TF.FilePolarity,Negative*%
%FSLAX46Y46*%
G04 Gerber Fmt 4.6, Leading zero omitted, Abs format (unit mm)*
G04 Created by KiCad (PCBNEW (5.1.6-0-10_14)) date 2021-04-04 14:44:52*
%MOMM*%
%LPD*%
G01*
G04 APERTURE LIST*
%ADD10C,2.300000*%
%ADD11R,1.800000X1.800000*%
%ADD12O,1.800000X1.800000*%
%ADD13C,2.050000*%
%ADD14C,1.650000*%
%ADD15C,2.900000*%
%ADD16R,2.100000X2.100000*%
%ADD17C,2.100000*%
%ADD18R,1.700000X1.700000*%
%ADD19C,1.700000*%
%ADD20C,1.600000*%
%ADD21R,2.300000X2.300000*%
%ADD22R,1.700000X2.500000*%
%ADD23O,1.700000X2.500000*%
%ADD24O,2.500000X1.700000*%
%ADD25R,2.500000X1.700000*%
%ADD26R,0.900000X1.000000*%
%ADD27R,1.000000X0.900000*%
%ADD28O,2.900000X2.900000*%
%ADD29O,1.700000X1.700000*%
%ADD30C,2.500000*%
%ADD31R,2.005000X2.100000*%
%ADD32O,2.005000X2.100000*%
%ADD33R,3.300000X1.850000*%
%ADD34R,1.050000X1.850000*%
%ADD35R,0.550000X1.625000*%
G04 APERTURE END LIST*
D10*
%TO.C,J19*%
X-106680000Y-32330000D03*
X-106680000Y-40830000D03*
X-110680000Y-36830000D03*
X-102680000Y-36830000D03*
%TD*%
D11*
%TO.C,TP15*%
X155350000Y-30480000D03*
%TD*%
%TO.C,TP14*%
X155526000Y-35384000D03*
%TD*%
%TO.C,TP13*%
X150700000Y-30480000D03*
%TD*%
%TO.C,TP12*%
X150876000Y-35384000D03*
%TD*%
%TO.C,TP4*%
X-135636000Y-55118000D03*
%TD*%
%TO.C,J10*%
X-166878000Y-29464000D03*
D12*
X-169418000Y-29464000D03*
X-166878000Y-26924000D03*
X-169418000Y-26924000D03*
X-166878000Y-24384000D03*
X-169418000Y-24384000D03*
X-166878000Y-21844000D03*
X-169418000Y-21844000D03*
X-166878000Y-19304000D03*
X-169418000Y-19304000D03*
X-166878000Y-16764000D03*
X-169418000Y-16764000D03*
X-166878000Y-14224000D03*
X-169418000Y-14224000D03*
X-166878000Y-11684000D03*
X-169418000Y-11684000D03*
X-166878000Y-9144000D03*
X-169418000Y-9144000D03*
X-166878000Y-6604000D03*
X-169418000Y-6604000D03*
X-166878000Y-4064000D03*
X-169418000Y-4064000D03*
X-166878000Y-1524000D03*
X-169418000Y-1524000D03*
%TD*%
D13*
%TO.C,J1*%
X-167640000Y-62230000D03*
X-167640000Y-55730000D03*
X-161140000Y-62230000D03*
X-161140000Y-55730000D03*
D14*
X-158790000Y-65150000D03*
%TD*%
D10*
%TO.C,J29*%
X-106680000Y66040000D03*
X-97790000Y66040000D03*
%TD*%
%TO.C,J44*%
X-6350000Y41330000D03*
D15*
X-6350000Y31830000D03*
X-2350000Y35330000D03*
X-10350000Y35330000D03*
%TD*%
D10*
%TO.C,J17*%
X-43180000Y-32330000D03*
X-43180000Y-40830000D03*
X-47180000Y-36830000D03*
X-39180000Y-36830000D03*
%TD*%
%TO.C,J18*%
X-74930000Y-32330000D03*
X-74930000Y-40830000D03*
X-78930000Y-36830000D03*
X-70930000Y-36830000D03*
%TD*%
%TO.C,J23*%
X-43180000Y41330000D03*
X-43180000Y32830000D03*
X-47180000Y36830000D03*
X-39180000Y36830000D03*
%TD*%
%TO.C,J24*%
X-74930000Y41330000D03*
X-74930000Y32830000D03*
X-78930000Y36830000D03*
X-70930000Y36830000D03*
%TD*%
%TO.C,J25*%
X-106680000Y41330000D03*
X-106680000Y32830000D03*
X-110680000Y36830000D03*
X-102680000Y36830000D03*
%TD*%
%TO.C,J35*%
X120650000Y-32330000D03*
D15*
X120650000Y-41830000D03*
X124650000Y-38330000D03*
X116650000Y-38330000D03*
%TD*%
D10*
%TO.C,J36*%
X88900000Y-32330000D03*
D15*
X88900000Y-41830000D03*
X92900000Y-38330000D03*
X84900000Y-38330000D03*
%TD*%
D10*
%TO.C,J37*%
X57150000Y-32330000D03*
D15*
X57150000Y-41830000D03*
X61150000Y-38330000D03*
X53150000Y-38330000D03*
%TD*%
D10*
%TO.C,J38*%
X25400000Y-32330000D03*
D15*
X25400000Y-41830000D03*
X29400000Y-38330000D03*
X21400000Y-38330000D03*
%TD*%
D10*
%TO.C,J39*%
X-6350000Y-32330000D03*
D15*
X-6350000Y-41830000D03*
X-2350000Y-38330000D03*
X-10350000Y-38330000D03*
%TD*%
D10*
%TO.C,J40*%
X120650000Y41330000D03*
D15*
X120650000Y31830000D03*
X124650000Y35330000D03*
X116650000Y35330000D03*
%TD*%
D10*
%TO.C,J41*%
X88900000Y41330000D03*
D15*
X88900000Y31830000D03*
X92900000Y35330000D03*
X84900000Y35330000D03*
%TD*%
D10*
%TO.C,J42*%
X57150000Y41330000D03*
D15*
X57150000Y31830000D03*
X61150000Y35330000D03*
X53150000Y35330000D03*
%TD*%
D10*
%TO.C,J43*%
X25400000Y41330000D03*
D15*
X25400000Y31830000D03*
X29400000Y35330000D03*
X21400000Y35330000D03*
%TD*%
%TO.C,C34*%
G36*
G01*
X-102257456Y4736000D02*
X-100942544Y4736000D01*
G75*
G02*
X-100675000Y4468456I0J-267544D01*
G01*
X-100675000Y3478544D01*
G75*
G02*
X-100942544Y3211000I-267544J0D01*
G01*
X-102257456Y3211000D01*
G75*
G02*
X-102525000Y3478544I0J267544D01*
G01*
X-102525000Y4468456D01*
G75*
G02*
X-102257456Y4736000I267544J0D01*
G01*
G37*
G36*
G01*
X-102257456Y7711000D02*
X-100942544Y7711000D01*
G75*
G02*
X-100675000Y7443456I0J-267544D01*
G01*
X-100675000Y6453544D01*
G75*
G02*
X-100942544Y6186000I-267544J0D01*
G01*
X-102257456Y6186000D01*
G75*
G02*
X-102525000Y6453544I0J267544D01*
G01*
X-102525000Y7443456D01*
G75*
G02*
X-102257456Y7711000I267544J0D01*
G01*
G37*
%TD*%
%TO.C,C33*%
G36*
G01*
X-100561544Y-4609000D02*
X-101876456Y-4609000D01*
G75*
G02*
X-102144000Y-4341456I0J267544D01*
G01*
X-102144000Y-3351544D01*
G75*
G02*
X-101876456Y-3084000I267544J0D01*
G01*
X-100561544Y-3084000D01*
G75*
G02*
X-100294000Y-3351544I0J-267544D01*
G01*
X-100294000Y-4341456D01*
G75*
G02*
X-100561544Y-4609000I-267544J0D01*
G01*
G37*
G36*
G01*
X-100561544Y-7584000D02*
X-101876456Y-7584000D01*
G75*
G02*
X-102144000Y-7316456I0J267544D01*
G01*
X-102144000Y-6326544D01*
G75*
G02*
X-101876456Y-6059000I267544J0D01*
G01*
X-100561544Y-6059000D01*
G75*
G02*
X-100294000Y-6326544I0J-267544D01*
G01*
X-100294000Y-7316456D01*
G75*
G02*
X-100561544Y-7584000I-267544J0D01*
G01*
G37*
%TD*%
%TO.C,C32*%
G36*
G01*
X-100434544Y19013000D02*
X-101749456Y19013000D01*
G75*
G02*
X-102017000Y19280544I0J267544D01*
G01*
X-102017000Y20270456D01*
G75*
G02*
X-101749456Y20538000I267544J0D01*
G01*
X-100434544Y20538000D01*
G75*
G02*
X-100167000Y20270456I0J-267544D01*
G01*
X-100167000Y19280544D01*
G75*
G02*
X-100434544Y19013000I-267544J0D01*
G01*
G37*
G36*
G01*
X-100434544Y16038000D02*
X-101749456Y16038000D01*
G75*
G02*
X-102017000Y16305544I0J267544D01*
G01*
X-102017000Y17295456D01*
G75*
G02*
X-101749456Y17563000I267544J0D01*
G01*
X-100434544Y17563000D01*
G75*
G02*
X-100167000Y17295456I0J-267544D01*
G01*
X-100167000Y16305544D01*
G75*
G02*
X-100434544Y16038000I-267544J0D01*
G01*
G37*
%TD*%
%TO.C,C31*%
G36*
G01*
X-117497456Y4736000D02*
X-116182544Y4736000D01*
G75*
G02*
X-115915000Y4468456I0J-267544D01*
G01*
X-115915000Y3478544D01*
G75*
G02*
X-116182544Y3211000I-267544J0D01*
G01*
X-117497456Y3211000D01*
G75*
G02*
X-117765000Y3478544I0J267544D01*
G01*
X-117765000Y4468456D01*
G75*
G02*
X-117497456Y4736000I267544J0D01*
G01*
G37*
G36*
G01*
X-117497456Y7711000D02*
X-116182544Y7711000D01*
G75*
G02*
X-115915000Y7443456I0J-267544D01*
G01*
X-115915000Y6453544D01*
G75*
G02*
X-116182544Y6186000I-267544J0D01*
G01*
X-117497456Y6186000D01*
G75*
G02*
X-117765000Y6453544I0J267544D01*
G01*
X-117765000Y7443456D01*
G75*
G02*
X-117497456Y7711000I267544J0D01*
G01*
G37*
%TD*%
%TO.C,C30*%
G36*
G01*
X-101749456Y-17489000D02*
X-100434544Y-17489000D01*
G75*
G02*
X-100167000Y-17756544I0J-267544D01*
G01*
X-100167000Y-18746456D01*
G75*
G02*
X-100434544Y-19014000I-267544J0D01*
G01*
X-101749456Y-19014000D01*
G75*
G02*
X-102017000Y-18746456I0J267544D01*
G01*
X-102017000Y-17756544D01*
G75*
G02*
X-101749456Y-17489000I267544J0D01*
G01*
G37*
G36*
G01*
X-101749456Y-14514000D02*
X-100434544Y-14514000D01*
G75*
G02*
X-100167000Y-14781544I0J-267544D01*
G01*
X-100167000Y-15771456D01*
G75*
G02*
X-100434544Y-16039000I-267544J0D01*
G01*
X-101749456Y-16039000D01*
G75*
G02*
X-102017000Y-15771456I0J267544D01*
G01*
X-102017000Y-14781544D01*
G75*
G02*
X-101749456Y-14514000I267544J0D01*
G01*
G37*
%TD*%
%TO.C,C29*%
G36*
G01*
X-116690544Y19013000D02*
X-118005456Y19013000D01*
G75*
G02*
X-118273000Y19280544I0J267544D01*
G01*
X-118273000Y20270456D01*
G75*
G02*
X-118005456Y20538000I267544J0D01*
G01*
X-116690544Y20538000D01*
G75*
G02*
X-116423000Y20270456I0J-267544D01*
G01*
X-116423000Y19280544D01*
G75*
G02*
X-116690544Y19013000I-267544J0D01*
G01*
G37*
G36*
G01*
X-116690544Y16038000D02*
X-118005456Y16038000D01*
G75*
G02*
X-118273000Y16305544I0J267544D01*
G01*
X-118273000Y17295456D01*
G75*
G02*
X-118005456Y17563000I267544J0D01*
G01*
X-116690544Y17563000D01*
G75*
G02*
X-116423000Y17295456I0J-267544D01*
G01*
X-116423000Y16305544D01*
G75*
G02*
X-116690544Y16038000I-267544J0D01*
G01*
G37*
%TD*%
%TO.C,C28*%
G36*
G01*
X-117071544Y-4609000D02*
X-118386456Y-4609000D01*
G75*
G02*
X-118654000Y-4341456I0J267544D01*
G01*
X-118654000Y-3351544D01*
G75*
G02*
X-118386456Y-3084000I267544J0D01*
G01*
X-117071544Y-3084000D01*
G75*
G02*
X-116804000Y-3351544I0J-267544D01*
G01*
X-116804000Y-4341456D01*
G75*
G02*
X-117071544Y-4609000I-267544J0D01*
G01*
G37*
G36*
G01*
X-117071544Y-7584000D02*
X-118386456Y-7584000D01*
G75*
G02*
X-118654000Y-7316456I0J267544D01*
G01*
X-118654000Y-6326544D01*
G75*
G02*
X-118386456Y-6059000I267544J0D01*
G01*
X-117071544Y-6059000D01*
G75*
G02*
X-116804000Y-6326544I0J-267544D01*
G01*
X-116804000Y-7316456D01*
G75*
G02*
X-117071544Y-7584000I-267544J0D01*
G01*
G37*
%TD*%
%TO.C,C19*%
G36*
G01*
X-117243456Y-19775000D02*
X-115928544Y-19775000D01*
G75*
G02*
X-115661000Y-20042544I0J-267544D01*
G01*
X-115661000Y-21032456D01*
G75*
G02*
X-115928544Y-21300000I-267544J0D01*
G01*
X-117243456Y-21300000D01*
G75*
G02*
X-117511000Y-21032456I0J267544D01*
G01*
X-117511000Y-20042544D01*
G75*
G02*
X-117243456Y-19775000I267544J0D01*
G01*
G37*
G36*
G01*
X-117243456Y-16800000D02*
X-115928544Y-16800000D01*
G75*
G02*
X-115661000Y-17067544I0J-267544D01*
G01*
X-115661000Y-18057456D01*
G75*
G02*
X-115928544Y-18325000I-267544J0D01*
G01*
X-117243456Y-18325000D01*
G75*
G02*
X-117511000Y-18057456I0J267544D01*
G01*
X-117511000Y-17067544D01*
G75*
G02*
X-117243456Y-16800000I267544J0D01*
G01*
G37*
%TD*%
D16*
%TO.C,C1*%
X-126492000Y-2286000D03*
D17*
X-126492000Y-7286000D03*
%TD*%
%TO.C,C2*%
X-126238000Y15320000D03*
D16*
X-126238000Y20320000D03*
%TD*%
%TO.C,C3*%
X-125984000Y-15748000D03*
D17*
X-125984000Y-20748000D03*
%TD*%
D18*
%TO.C,C4*%
X-126238000Y8636000D03*
D19*
X-126238000Y5136000D03*
%TD*%
D18*
%TO.C,C5*%
X41910000Y-19050000D03*
D19*
X41910000Y-15550000D03*
%TD*%
%TO.C,C6*%
X-93599000Y-3104000D03*
D18*
X-93599000Y-6604000D03*
%TD*%
%TO.C,C7*%
X41910000Y17780000D03*
D19*
X41910000Y14280000D03*
%TD*%
%TO.C,C8*%
X-93345000Y5136000D03*
D18*
X-93345000Y8636000D03*
%TD*%
%TO.C,C9*%
G36*
G01*
X-126895456Y-42635000D02*
X-125580544Y-42635000D01*
G75*
G02*
X-125313000Y-42902544I0J-267544D01*
G01*
X-125313000Y-43892456D01*
G75*
G02*
X-125580544Y-44160000I-267544J0D01*
G01*
X-126895456Y-44160000D01*
G75*
G02*
X-127163000Y-43892456I0J267544D01*
G01*
X-127163000Y-42902544D01*
G75*
G02*
X-126895456Y-42635000I267544J0D01*
G01*
G37*
G36*
G01*
X-126895456Y-39660000D02*
X-125580544Y-39660000D01*
G75*
G02*
X-125313000Y-39927544I0J-267544D01*
G01*
X-125313000Y-40917456D01*
G75*
G02*
X-125580544Y-41185000I-267544J0D01*
G01*
X-126895456Y-41185000D01*
G75*
G02*
X-127163000Y-40917456I0J267544D01*
G01*
X-127163000Y-39927544D01*
G75*
G02*
X-126895456Y-39660000I267544J0D01*
G01*
G37*
%TD*%
%TO.C,C10*%
G36*
G01*
X-139341456Y-39660000D02*
X-138026544Y-39660000D01*
G75*
G02*
X-137759000Y-39927544I0J-267544D01*
G01*
X-137759000Y-40917456D01*
G75*
G02*
X-138026544Y-41185000I-267544J0D01*
G01*
X-139341456Y-41185000D01*
G75*
G02*
X-139609000Y-40917456I0J267544D01*
G01*
X-139609000Y-39927544D01*
G75*
G02*
X-139341456Y-39660000I267544J0D01*
G01*
G37*
G36*
G01*
X-139341456Y-42635000D02*
X-138026544Y-42635000D01*
G75*
G02*
X-137759000Y-42902544I0J-267544D01*
G01*
X-137759000Y-43892456D01*
G75*
G02*
X-138026544Y-44160000I-267544J0D01*
G01*
X-139341456Y-44160000D01*
G75*
G02*
X-139609000Y-43892456I0J267544D01*
G01*
X-139609000Y-42902544D01*
G75*
G02*
X-139341456Y-42635000I267544J0D01*
G01*
G37*
%TD*%
D19*
%TO.C,C11*%
X-131628000Y-30734000D03*
D18*
X-135128000Y-30734000D03*
%TD*%
D20*
%TO.C,C12*%
X74208000Y-13970000D03*
X79208000Y-13970000D03*
%TD*%
%TO.C,C13*%
X65445000Y-13970000D03*
X70445000Y-13970000D03*
%TD*%
%TO.C,C14*%
X65445000Y13970000D03*
X70445000Y13970000D03*
%TD*%
%TO.C,C15*%
X74970000Y13970000D03*
X79970000Y13970000D03*
%TD*%
%TO.C,C16*%
G36*
G01*
X65681456Y-23151000D02*
X64366544Y-23151000D01*
G75*
G02*
X64099000Y-22883456I0J267544D01*
G01*
X64099000Y-21893544D01*
G75*
G02*
X64366544Y-21626000I267544J0D01*
G01*
X65681456Y-21626000D01*
G75*
G02*
X65949000Y-21893544I0J-267544D01*
G01*
X65949000Y-22883456D01*
G75*
G02*
X65681456Y-23151000I-267544J0D01*
G01*
G37*
G36*
G01*
X65681456Y-26126000D02*
X64366544Y-26126000D01*
G75*
G02*
X64099000Y-25858456I0J267544D01*
G01*
X64099000Y-24868544D01*
G75*
G02*
X64366544Y-24601000I267544J0D01*
G01*
X65681456Y-24601000D01*
G75*
G02*
X65949000Y-24868544I0J-267544D01*
G01*
X65949000Y-25858456D01*
G75*
G02*
X65681456Y-26126000I-267544J0D01*
G01*
G37*
%TD*%
%TO.C,C17*%
G36*
G01*
X79606544Y26597500D02*
X80921456Y26597500D01*
G75*
G02*
X81189000Y26329956I0J-267544D01*
G01*
X81189000Y25340044D01*
G75*
G02*
X80921456Y25072500I-267544J0D01*
G01*
X79606544Y25072500D01*
G75*
G02*
X79339000Y25340044I0J267544D01*
G01*
X79339000Y26329956D01*
G75*
G02*
X79606544Y26597500I267544J0D01*
G01*
G37*
G36*
G01*
X79606544Y23622500D02*
X80921456Y23622500D01*
G75*
G02*
X81189000Y23354956I0J-267544D01*
G01*
X81189000Y22365044D01*
G75*
G02*
X80921456Y22097500I-267544J0D01*
G01*
X79606544Y22097500D01*
G75*
G02*
X79339000Y22365044I0J267544D01*
G01*
X79339000Y23354956D01*
G75*
G02*
X79606544Y23622500I267544J0D01*
G01*
G37*
%TD*%
%TO.C,C18*%
G36*
G01*
X144845543Y-20251001D02*
X146160455Y-20251001D01*
G75*
G02*
X146427999Y-20518545I0J-267544D01*
G01*
X146427999Y-21508457D01*
G75*
G02*
X146160455Y-21776001I-267544J0D01*
G01*
X144845543Y-21776001D01*
G75*
G02*
X144577999Y-21508457I0J267544D01*
G01*
X144577999Y-20518545D01*
G75*
G02*
X144845543Y-20251001I267544J0D01*
G01*
G37*
G36*
G01*
X144845543Y-23226001D02*
X146160455Y-23226001D01*
G75*
G02*
X146427999Y-23493545I0J-267544D01*
G01*
X146427999Y-24483457D01*
G75*
G02*
X146160455Y-24751001I-267544J0D01*
G01*
X144845543Y-24751001D01*
G75*
G02*
X144577999Y-24483457I0J267544D01*
G01*
X144577999Y-23493545D01*
G75*
G02*
X144845543Y-23226001I267544J0D01*
G01*
G37*
%TD*%
D19*
%TO.C,C20*%
X57150000Y-14280000D03*
D18*
X57150000Y-17780000D03*
%TD*%
%TO.C,C23*%
X86995000Y20320000D03*
D19*
X86995000Y16820000D03*
%TD*%
D14*
%TO.C,J2*%
X-160060000Y-47370000D03*
D13*
X-162410000Y-44450000D03*
X-168910000Y-44450000D03*
%TD*%
D14*
%TO.C,J3*%
X160060000Y-50420000D03*
D13*
X162410000Y-59840000D03*
X162410000Y-53340000D03*
X168910000Y-59840000D03*
X168910000Y-53340000D03*
%TD*%
%TO.C,J4*%
X170180000Y-39370000D03*
X163680000Y-39370000D03*
D14*
X161330000Y-36450000D03*
%TD*%
%TO.C,J5*%
X161330000Y-22480000D03*
D13*
X163680000Y-25400000D03*
X170180000Y-25400000D03*
%TD*%
D12*
%TO.C,J6*%
X-170180000Y55880000D03*
X-170180000Y58420000D03*
D11*
X-170180000Y60960000D03*
%TD*%
%TO.C,J7*%
X-170180000Y46990000D03*
D12*
X-170180000Y44450000D03*
X-170180000Y41910000D03*
%TD*%
%TO.C,J8*%
X-162560000Y55880000D03*
X-162560000Y58420000D03*
D11*
X-162560000Y60960000D03*
%TD*%
%TO.C,J9*%
X-162560000Y46990000D03*
D12*
X-162560000Y44450000D03*
X-162560000Y41910000D03*
%TD*%
D10*
%TO.C,J11*%
X72898000Y-41308000D03*
X72898000Y-38608000D03*
D21*
X72898000Y-35908000D03*
%TD*%
D10*
%TO.C,J12*%
X73025000Y36355000D03*
X73025000Y33655000D03*
D21*
X73025000Y30955000D03*
%TD*%
%TO.C,J13*%
X-91440000Y-23495000D03*
D10*
X-91440000Y-26195000D03*
X-91440000Y-28895000D03*
%TD*%
D21*
%TO.C,J14*%
X-91440000Y38260000D03*
D10*
X-91440000Y35560000D03*
X-91440000Y32860000D03*
%TD*%
D11*
%TO.C,J15*%
X99060000Y10160000D03*
D12*
X99060000Y12700000D03*
%TD*%
D11*
%TO.C,J16*%
X-170180000Y29210000D03*
D12*
X-170180000Y26670000D03*
X-170180000Y24130000D03*
X-170180000Y21590000D03*
X-170180000Y19050000D03*
X-170180000Y16510000D03*
X-170180000Y13970000D03*
X-170180000Y11430000D03*
%TD*%
D10*
%TO.C,J20*%
X-43180000Y-66040000D03*
X-34290000Y-66040000D03*
%TD*%
%TO.C,J21*%
X-74930000Y-66040000D03*
X-66040000Y-66040000D03*
%TD*%
%TO.C,J22*%
X-97790000Y-66040000D03*
X-106680000Y-66040000D03*
%TD*%
D11*
%TO.C,J26*%
X-153670000Y60960000D03*
D12*
X-153670000Y58420000D03*
X-153670000Y55880000D03*
X-153670000Y53340000D03*
X-153670000Y50800000D03*
X-153670000Y48260000D03*
%TD*%
D10*
%TO.C,J27*%
X-34290000Y66040000D03*
X-43180000Y66040000D03*
%TD*%
%TO.C,J28*%
X-66040000Y66040000D03*
X-74930000Y66040000D03*
%TD*%
%TO.C,J30*%
X-15240000Y-66040000D03*
X-6350000Y-66040000D03*
%TD*%
%TO.C,J31*%
X88900000Y-66040000D03*
X80010000Y-66040000D03*
%TD*%
%TO.C,J32*%
X48260000Y-66040000D03*
X57150000Y-66040000D03*
%TD*%
%TO.C,J33*%
X25400000Y-66040000D03*
X16510000Y-66040000D03*
%TD*%
%TO.C,J34*%
X111760000Y-66040000D03*
X120650000Y-66040000D03*
%TD*%
%TO.C,J45*%
X120650000Y66040000D03*
X111760000Y66040000D03*
%TD*%
%TO.C,J46*%
X80010000Y66040000D03*
X88900000Y66040000D03*
%TD*%
%TO.C,J47*%
X57150000Y66040000D03*
X48260000Y66040000D03*
%TD*%
%TO.C,J48*%
X16510000Y66040000D03*
X25400000Y66040000D03*
%TD*%
%TO.C,J49*%
X-6350000Y66040000D03*
X-15240000Y66040000D03*
%TD*%
D22*
%TO.C,K1*%
X147320000Y0D03*
D23*
X167640000Y7620000D03*
X167640000Y0D03*
X172720000Y0D03*
X162560000Y7620000D03*
X172720000Y7620000D03*
X147320000Y7620000D03*
X162560000Y0D03*
%TD*%
D24*
%TO.C,K2*%
X-94615000Y-56515000D03*
X-86995000Y-48895000D03*
X-94615000Y-53975000D03*
X-86995000Y-51435000D03*
X-94615000Y-51435000D03*
X-86995000Y-53975000D03*
X-94615000Y-48895000D03*
X-86995000Y-46355000D03*
D25*
X-94615000Y-46355000D03*
D24*
X-86995000Y-56515000D03*
%TD*%
D23*
%TO.C,K3*%
X162560000Y-15240000D03*
X147320000Y-7620000D03*
X172720000Y-7620000D03*
X162560000Y-7620000D03*
X172720000Y-15240000D03*
X167640000Y-15240000D03*
X167640000Y-7620000D03*
D22*
X147320000Y-15240000D03*
%TD*%
D24*
%TO.C,K4*%
X-87630000Y46990000D03*
D25*
X-95250000Y57150000D03*
D24*
X-87630000Y57150000D03*
X-95250000Y54610000D03*
X-87630000Y49530000D03*
X-95250000Y52070000D03*
X-87630000Y52070000D03*
X-95250000Y49530000D03*
X-87630000Y54610000D03*
X-95250000Y46990000D03*
%TD*%
D23*
%TO.C,K5*%
X120650000Y-59690000D03*
X135890000Y-52070000D03*
X125730000Y-59690000D03*
X130810000Y-52070000D03*
X130810000Y-59690000D03*
X125730000Y-52070000D03*
X135890000Y-59690000D03*
X120650000Y-52070000D03*
X138430000Y-59690000D03*
D22*
X138430000Y-52070000D03*
%TD*%
%TO.C,K6*%
X106680000Y-52070000D03*
D23*
X106680000Y-59690000D03*
X88900000Y-52070000D03*
X104140000Y-59690000D03*
X93980000Y-52070000D03*
X99060000Y-59690000D03*
X99060000Y-52070000D03*
X93980000Y-59690000D03*
X104140000Y-52070000D03*
X88900000Y-59690000D03*
%TD*%
%TO.C,K7*%
X57150000Y-59690000D03*
X72390000Y-52070000D03*
X62230000Y-59690000D03*
X67310000Y-52070000D03*
X67310000Y-59690000D03*
X62230000Y-52070000D03*
X72390000Y-59690000D03*
X57150000Y-52070000D03*
X74930000Y-59690000D03*
D22*
X74930000Y-52070000D03*
%TD*%
%TO.C,K8*%
X43180000Y-52070000D03*
D23*
X43180000Y-59690000D03*
X25400000Y-52070000D03*
X40640000Y-59690000D03*
X30480000Y-52070000D03*
X35560000Y-59690000D03*
X35560000Y-52070000D03*
X30480000Y-59690000D03*
X40640000Y-52070000D03*
X25400000Y-59690000D03*
%TD*%
%TO.C,K9*%
X-6350000Y-59690000D03*
X8890000Y-52070000D03*
X-1270000Y-59690000D03*
X3810000Y-52070000D03*
X3810000Y-59690000D03*
X-1270000Y-52070000D03*
X8890000Y-59690000D03*
X-6350000Y-52070000D03*
X11430000Y-59690000D03*
D22*
X11430000Y-52070000D03*
%TD*%
%TO.C,K10*%
X138430000Y59690000D03*
D23*
X138430000Y52070000D03*
X120650000Y59690000D03*
X135890000Y52070000D03*
X125730000Y59690000D03*
X130810000Y52070000D03*
X130810000Y59690000D03*
X125730000Y52070000D03*
X135890000Y59690000D03*
X120650000Y52070000D03*
%TD*%
%TO.C,K11*%
X88900000Y52070000D03*
X104140000Y59690000D03*
X93980000Y52070000D03*
X99060000Y59690000D03*
X99060000Y52070000D03*
X93980000Y59690000D03*
X104140000Y52070000D03*
X88900000Y59690000D03*
X106680000Y52070000D03*
D22*
X106680000Y59690000D03*
%TD*%
%TO.C,K12*%
X74930000Y59690000D03*
D23*
X74930000Y52070000D03*
X57150000Y59690000D03*
X72390000Y52070000D03*
X62230000Y59690000D03*
X67310000Y52070000D03*
X67310000Y59690000D03*
X62230000Y52070000D03*
X72390000Y59690000D03*
X57150000Y52070000D03*
%TD*%
%TO.C,K13*%
X25400000Y52070000D03*
X40640000Y59690000D03*
X30480000Y52070000D03*
X35560000Y59690000D03*
X35560000Y52070000D03*
X30480000Y59690000D03*
X40640000Y52070000D03*
X25400000Y59690000D03*
X43180000Y52070000D03*
D22*
X43180000Y59690000D03*
%TD*%
%TO.C,K14*%
X11430000Y59690000D03*
D23*
X11430000Y52070000D03*
X-6350000Y59690000D03*
X8890000Y52070000D03*
X-1270000Y59690000D03*
X3810000Y52070000D03*
X3810000Y59690000D03*
X-1270000Y52070000D03*
X8890000Y59690000D03*
X-6350000Y52070000D03*
%TD*%
D26*
%TO.C,Q1*%
X63185000Y3445000D03*
X65085000Y3445000D03*
X64135000Y5445000D03*
%TD*%
%TO.C,Q2*%
X54930000Y3445000D03*
X56830000Y3445000D03*
X55880000Y5445000D03*
%TD*%
%TO.C,Q3*%
X47625000Y5445000D03*
X48575000Y3445000D03*
X46675000Y3445000D03*
%TD*%
D27*
%TO.C,Q4*%
X-142510000Y57470000D03*
X-142510000Y59370000D03*
X-144510000Y58420000D03*
%TD*%
%TO.C,Q5*%
X-144510000Y52705000D03*
X-142510000Y53655000D03*
X-142510000Y51755000D03*
%TD*%
%TO.C,Q6*%
X-68215000Y1397000D03*
X-70215000Y447000D03*
X-70215000Y2347000D03*
%TD*%
%TO.C,Q7*%
X-68215000Y13208000D03*
X-70215000Y12258000D03*
X-70215000Y14158000D03*
%TD*%
%TO.C,Q8*%
X-70215000Y8316000D03*
X-70215000Y6416000D03*
X-68215000Y7366000D03*
%TD*%
D15*
%TO.C,R1*%
X33655000Y-17145000D03*
D28*
X18415000Y-17145000D03*
%TD*%
%TO.C,R2*%
X18415000Y17780000D03*
D15*
X33655000Y17780000D03*
%TD*%
%TO.C,R3*%
G36*
G01*
X64860000Y-22456D02*
X64860000Y1292456D01*
G75*
G02*
X65127544Y1560000I267544J0D01*
G01*
X66117456Y1560000D01*
G75*
G02*
X66385000Y1292456I0J-267544D01*
G01*
X66385000Y-22456D01*
G75*
G02*
X66117456Y-290000I-267544J0D01*
G01*
X65127544Y-290000D01*
G75*
G02*
X64860000Y-22456I0J267544D01*
G01*
G37*
G36*
G01*
X61885000Y-22456D02*
X61885000Y1292456D01*
G75*
G02*
X62152544Y1560000I267544J0D01*
G01*
X63142456Y1560000D01*
G75*
G02*
X63410000Y1292456I0J-267544D01*
G01*
X63410000Y-22456D01*
G75*
G02*
X63142456Y-290000I-267544J0D01*
G01*
X62152544Y-290000D01*
G75*
G02*
X61885000Y-22456I0J267544D01*
G01*
G37*
%TD*%
%TO.C,R4*%
G36*
G01*
X56605000Y-22456D02*
X56605000Y1292456D01*
G75*
G02*
X56872544Y1560000I267544J0D01*
G01*
X57862456Y1560000D01*
G75*
G02*
X58130000Y1292456I0J-267544D01*
G01*
X58130000Y-22456D01*
G75*
G02*
X57862456Y-290000I-267544J0D01*
G01*
X56872544Y-290000D01*
G75*
G02*
X56605000Y-22456I0J267544D01*
G01*
G37*
G36*
G01*
X53630000Y-22456D02*
X53630000Y1292456D01*
G75*
G02*
X53897544Y1560000I267544J0D01*
G01*
X54887456Y1560000D01*
G75*
G02*
X55155000Y1292456I0J-267544D01*
G01*
X55155000Y-22456D01*
G75*
G02*
X54887456Y-290000I-267544J0D01*
G01*
X53897544Y-290000D01*
G75*
G02*
X53630000Y-22456I0J267544D01*
G01*
G37*
%TD*%
%TO.C,R5*%
G36*
G01*
X45570001Y52543D02*
X45570001Y1367455D01*
G75*
G02*
X45837545Y1634999I267544J0D01*
G01*
X46827457Y1634999D01*
G75*
G02*
X47095001Y1367455I0J-267544D01*
G01*
X47095001Y52543D01*
G75*
G02*
X46827457Y-215001I-267544J0D01*
G01*
X45837545Y-215001D01*
G75*
G02*
X45570001Y52543I0J267544D01*
G01*
G37*
G36*
G01*
X48545001Y52543D02*
X48545001Y1367455D01*
G75*
G02*
X48812545Y1634999I267544J0D01*
G01*
X49802457Y1634999D01*
G75*
G02*
X50070001Y1367455I0J-267544D01*
G01*
X50070001Y52543D01*
G75*
G02*
X49802457Y-215001I-267544J0D01*
G01*
X48812545Y-215001D01*
G75*
G02*
X48545001Y52543I0J267544D01*
G01*
G37*
%TD*%
%TO.C,R6*%
G36*
G01*
X61885000Y7597544D02*
X61885000Y8912456D01*
G75*
G02*
X62152544Y9180000I267544J0D01*
G01*
X63142456Y9180000D01*
G75*
G02*
X63410000Y8912456I0J-267544D01*
G01*
X63410000Y7597544D01*
G75*
G02*
X63142456Y7330000I-267544J0D01*
G01*
X62152544Y7330000D01*
G75*
G02*
X61885000Y7597544I0J267544D01*
G01*
G37*
G36*
G01*
X64860000Y7597544D02*
X64860000Y8912456D01*
G75*
G02*
X65127544Y9180000I267544J0D01*
G01*
X66117456Y9180000D01*
G75*
G02*
X66385000Y8912456I0J-267544D01*
G01*
X66385000Y7597544D01*
G75*
G02*
X66117456Y7330000I-267544J0D01*
G01*
X65127544Y7330000D01*
G75*
G02*
X64860000Y7597544I0J267544D01*
G01*
G37*
%TD*%
%TO.C,R7*%
G36*
G01*
X53412500Y7597544D02*
X53412500Y8912456D01*
G75*
G02*
X53680044Y9180000I267544J0D01*
G01*
X54669956Y9180000D01*
G75*
G02*
X54937500Y8912456I0J-267544D01*
G01*
X54937500Y7597544D01*
G75*
G02*
X54669956Y7330000I-267544J0D01*
G01*
X53680044Y7330000D01*
G75*
G02*
X53412500Y7597544I0J267544D01*
G01*
G37*
G36*
G01*
X56387500Y7597544D02*
X56387500Y8912456D01*
G75*
G02*
X56655044Y9180000I267544J0D01*
G01*
X57644956Y9180000D01*
G75*
G02*
X57912500Y8912456I0J-267544D01*
G01*
X57912500Y7597544D01*
G75*
G02*
X57644956Y7330000I-267544J0D01*
G01*
X56655044Y7330000D01*
G75*
G02*
X56387500Y7597544I0J267544D01*
G01*
G37*
%TD*%
%TO.C,R8*%
G36*
G01*
X45375000Y7597544D02*
X45375000Y8912456D01*
G75*
G02*
X45642544Y9180000I267544J0D01*
G01*
X46632456Y9180000D01*
G75*
G02*
X46900000Y8912456I0J-267544D01*
G01*
X46900000Y7597544D01*
G75*
G02*
X46632456Y7330000I-267544J0D01*
G01*
X45642544Y7330000D01*
G75*
G02*
X45375000Y7597544I0J267544D01*
G01*
G37*
G36*
G01*
X48350000Y7597544D02*
X48350000Y8912456D01*
G75*
G02*
X48617544Y9180000I267544J0D01*
G01*
X49607456Y9180000D01*
G75*
G02*
X49875000Y8912456I0J-267544D01*
G01*
X49875000Y7597544D01*
G75*
G02*
X49607456Y7330000I-267544J0D01*
G01*
X48617544Y7330000D01*
G75*
G02*
X48350000Y7597544I0J267544D01*
G01*
G37*
%TD*%
%TO.C,R9*%
G36*
G01*
X75542544Y-8345000D02*
X76857456Y-8345000D01*
G75*
G02*
X77125000Y-8612544I0J-267544D01*
G01*
X77125000Y-9602456D01*
G75*
G02*
X76857456Y-9870000I-267544J0D01*
G01*
X75542544Y-9870000D01*
G75*
G02*
X75275000Y-9602456I0J267544D01*
G01*
X75275000Y-8612544D01*
G75*
G02*
X75542544Y-8345000I267544J0D01*
G01*
G37*
G36*
G01*
X75542544Y-5370000D02*
X76857456Y-5370000D01*
G75*
G02*
X77125000Y-5637544I0J-267544D01*
G01*
X77125000Y-6627456D01*
G75*
G02*
X76857456Y-6895000I-267544J0D01*
G01*
X75542544Y-6895000D01*
G75*
G02*
X75275000Y-6627456I0J267544D01*
G01*
X75275000Y-5637544D01*
G75*
G02*
X75542544Y-5370000I267544J0D01*
G01*
G37*
%TD*%
%TO.C,R10*%
G36*
G01*
X81302456Y-18960000D02*
X79987544Y-18960000D01*
G75*
G02*
X79720000Y-18692456I0J267544D01*
G01*
X79720000Y-17702544D01*
G75*
G02*
X79987544Y-17435000I267544J0D01*
G01*
X81302456Y-17435000D01*
G75*
G02*
X81570000Y-17702544I0J-267544D01*
G01*
X81570000Y-18692456D01*
G75*
G02*
X81302456Y-18960000I-267544J0D01*
G01*
G37*
G36*
G01*
X81302456Y-21935000D02*
X79987544Y-21935000D01*
G75*
G02*
X79720000Y-21667456I0J267544D01*
G01*
X79720000Y-20677544D01*
G75*
G02*
X79987544Y-20410000I267544J0D01*
G01*
X81302456Y-20410000D01*
G75*
G02*
X81570000Y-20677544I0J-267544D01*
G01*
X81570000Y-21667456D01*
G75*
G02*
X81302456Y-21935000I-267544J0D01*
G01*
G37*
%TD*%
%TO.C,R11*%
G36*
G01*
X70507456Y9615000D02*
X69192544Y9615000D01*
G75*
G02*
X68925000Y9882544I0J267544D01*
G01*
X68925000Y10872456D01*
G75*
G02*
X69192544Y11140000I267544J0D01*
G01*
X70507456Y11140000D01*
G75*
G02*
X70775000Y10872456I0J-267544D01*
G01*
X70775000Y9882544D01*
G75*
G02*
X70507456Y9615000I-267544J0D01*
G01*
G37*
G36*
G01*
X70507456Y6640000D02*
X69192544Y6640000D01*
G75*
G02*
X68925000Y6907544I0J267544D01*
G01*
X68925000Y7897456D01*
G75*
G02*
X69192544Y8165000I267544J0D01*
G01*
X70507456Y8165000D01*
G75*
G02*
X70775000Y7897456I0J-267544D01*
G01*
X70775000Y6907544D01*
G75*
G02*
X70507456Y6640000I-267544J0D01*
G01*
G37*
%TD*%
%TO.C,R12*%
G36*
G01*
X59980000Y17122544D02*
X59980000Y18437456D01*
G75*
G02*
X60247544Y18705000I267544J0D01*
G01*
X61237456Y18705000D01*
G75*
G02*
X61505000Y18437456I0J-267544D01*
G01*
X61505000Y17122544D01*
G75*
G02*
X61237456Y16855000I-267544J0D01*
G01*
X60247544Y16855000D01*
G75*
G02*
X59980000Y17122544I0J267544D01*
G01*
G37*
G36*
G01*
X62955000Y17122544D02*
X62955000Y18437456D01*
G75*
G02*
X63222544Y18705000I267544J0D01*
G01*
X64212456Y18705000D01*
G75*
G02*
X64480000Y18437456I0J-267544D01*
G01*
X64480000Y17122544D01*
G75*
G02*
X64212456Y16855000I-267544J0D01*
G01*
X63222544Y16855000D01*
G75*
G02*
X62955000Y17122544I0J267544D01*
G01*
G37*
%TD*%
D29*
%TO.C,R13*%
X113538000Y12700000D03*
D19*
X103378000Y12700000D03*
%TD*%
%TO.C,R14*%
G36*
G01*
X-137772544Y56170000D02*
X-139087456Y56170000D01*
G75*
G02*
X-139355000Y56437544I0J267544D01*
G01*
X-139355000Y57427456D01*
G75*
G02*
X-139087456Y57695000I267544J0D01*
G01*
X-137772544Y57695000D01*
G75*
G02*
X-137505000Y57427456I0J-267544D01*
G01*
X-137505000Y56437544D01*
G75*
G02*
X-137772544Y56170000I-267544J0D01*
G01*
G37*
G36*
G01*
X-137772544Y59145000D02*
X-139087456Y59145000D01*
G75*
G02*
X-139355000Y59412544I0J267544D01*
G01*
X-139355000Y60402456D01*
G75*
G02*
X-139087456Y60670000I267544J0D01*
G01*
X-137772544Y60670000D01*
G75*
G02*
X-137505000Y60402456I0J-267544D01*
G01*
X-137505000Y59412544D01*
G75*
G02*
X-137772544Y59145000I-267544J0D01*
G01*
G37*
%TD*%
%TO.C,R15*%
G36*
G01*
X-137772544Y53430000D02*
X-139087456Y53430000D01*
G75*
G02*
X-139355000Y53697544I0J267544D01*
G01*
X-139355000Y54687456D01*
G75*
G02*
X-139087456Y54955000I267544J0D01*
G01*
X-137772544Y54955000D01*
G75*
G02*
X-137505000Y54687456I0J-267544D01*
G01*
X-137505000Y53697544D01*
G75*
G02*
X-137772544Y53430000I-267544J0D01*
G01*
G37*
G36*
G01*
X-137772544Y50455000D02*
X-139087456Y50455000D01*
G75*
G02*
X-139355000Y50722544I0J267544D01*
G01*
X-139355000Y51712456D01*
G75*
G02*
X-139087456Y51980000I267544J0D01*
G01*
X-137772544Y51980000D01*
G75*
G02*
X-137505000Y51712456I0J-267544D01*
G01*
X-137505000Y50722544D01*
G75*
G02*
X-137772544Y50455000I-267544J0D01*
G01*
G37*
%TD*%
%TO.C,R16*%
X-29210000Y-55880000D03*
D29*
X-19050000Y-55880000D03*
%TD*%
%TO.C,R17*%
G36*
G01*
X-147977456Y57441000D02*
X-146662544Y57441000D01*
G75*
G02*
X-146395000Y57173456I0J-267544D01*
G01*
X-146395000Y56183544D01*
G75*
G02*
X-146662544Y55916000I-267544J0D01*
G01*
X-147977456Y55916000D01*
G75*
G02*
X-148245000Y56183544I0J267544D01*
G01*
X-148245000Y57173456D01*
G75*
G02*
X-147977456Y57441000I267544J0D01*
G01*
G37*
G36*
G01*
X-147977456Y60416000D02*
X-146662544Y60416000D01*
G75*
G02*
X-146395000Y60148456I0J-267544D01*
G01*
X-146395000Y59158544D01*
G75*
G02*
X-146662544Y58891000I-267544J0D01*
G01*
X-147977456Y58891000D01*
G75*
G02*
X-148245000Y59158544I0J267544D01*
G01*
X-148245000Y60148456D01*
G75*
G02*
X-147977456Y60416000I267544J0D01*
G01*
G37*
%TD*%
%TO.C,R18*%
G36*
G01*
X-147977456Y54828000D02*
X-146662544Y54828000D01*
G75*
G02*
X-146395000Y54560456I0J-267544D01*
G01*
X-146395000Y53570544D01*
G75*
G02*
X-146662544Y53303000I-267544J0D01*
G01*
X-147977456Y53303000D01*
G75*
G02*
X-148245000Y53570544I0J267544D01*
G01*
X-148245000Y54560456D01*
G75*
G02*
X-147977456Y54828000I267544J0D01*
G01*
G37*
G36*
G01*
X-147977456Y51853000D02*
X-146662544Y51853000D01*
G75*
G02*
X-146395000Y51585456I0J-267544D01*
G01*
X-146395000Y50595544D01*
G75*
G02*
X-146662544Y50328000I-267544J0D01*
G01*
X-147977456Y50328000D01*
G75*
G02*
X-148245000Y50595544I0J267544D01*
G01*
X-148245000Y51585456D01*
G75*
G02*
X-147977456Y51853000I267544J0D01*
G01*
G37*
%TD*%
%TO.C,R19*%
X-19050000Y-52070000D03*
D19*
X-29210000Y-52070000D03*
%TD*%
%TO.C,R20*%
X-30480000Y55880000D03*
D29*
X-20320000Y55880000D03*
%TD*%
%TO.C,R21*%
X-20320000Y59690000D03*
D19*
X-30480000Y59690000D03*
%TD*%
%TO.C,R22*%
G36*
G01*
X-73809456Y291000D02*
X-72494544Y291000D01*
G75*
G02*
X-72227000Y23456I0J-267544D01*
G01*
X-72227000Y-966456D01*
G75*
G02*
X-72494544Y-1234000I-267544J0D01*
G01*
X-73809456Y-1234000D01*
G75*
G02*
X-74077000Y-966456I0J267544D01*
G01*
X-74077000Y23456D01*
G75*
G02*
X-73809456Y291000I267544J0D01*
G01*
G37*
G36*
G01*
X-73809456Y3266000D02*
X-72494544Y3266000D01*
G75*
G02*
X-72227000Y2998456I0J-267544D01*
G01*
X-72227000Y2008544D01*
G75*
G02*
X-72494544Y1741000I-267544J0D01*
G01*
X-73809456Y1741000D01*
G75*
G02*
X-74077000Y2008544I0J267544D01*
G01*
X-74077000Y2998456D01*
G75*
G02*
X-73809456Y3266000I267544J0D01*
G01*
G37*
%TD*%
%TO.C,R23*%
G36*
G01*
X-73809456Y15204000D02*
X-72494544Y15204000D01*
G75*
G02*
X-72227000Y14936456I0J-267544D01*
G01*
X-72227000Y13946544D01*
G75*
G02*
X-72494544Y13679000I-267544J0D01*
G01*
X-73809456Y13679000D01*
G75*
G02*
X-74077000Y13946544I0J267544D01*
G01*
X-74077000Y14936456D01*
G75*
G02*
X-73809456Y15204000I267544J0D01*
G01*
G37*
G36*
G01*
X-73809456Y12229000D02*
X-72494544Y12229000D01*
G75*
G02*
X-72227000Y11961456I0J-267544D01*
G01*
X-72227000Y10971544D01*
G75*
G02*
X-72494544Y10704000I-267544J0D01*
G01*
X-73809456Y10704000D01*
G75*
G02*
X-74077000Y10971544I0J267544D01*
G01*
X-74077000Y11961456D01*
G75*
G02*
X-73809456Y12229000I267544J0D01*
G01*
G37*
%TD*%
%TO.C,R24*%
G36*
G01*
X-73809456Y6387000D02*
X-72494544Y6387000D01*
G75*
G02*
X-72227000Y6119456I0J-267544D01*
G01*
X-72227000Y5129544D01*
G75*
G02*
X-72494544Y4862000I-267544J0D01*
G01*
X-73809456Y4862000D01*
G75*
G02*
X-74077000Y5129544I0J267544D01*
G01*
X-74077000Y6119456D01*
G75*
G02*
X-73809456Y6387000I267544J0D01*
G01*
G37*
G36*
G01*
X-73809456Y9362000D02*
X-72494544Y9362000D01*
G75*
G02*
X-72227000Y9094456I0J-267544D01*
G01*
X-72227000Y8104544D01*
G75*
G02*
X-72494544Y7837000I-267544J0D01*
G01*
X-73809456Y7837000D01*
G75*
G02*
X-74077000Y8104544I0J267544D01*
G01*
X-74077000Y9094456D01*
G75*
G02*
X-73809456Y9362000I267544J0D01*
G01*
G37*
%TD*%
%TO.C,R25*%
G36*
G01*
X-65935456Y3266000D02*
X-64620544Y3266000D01*
G75*
G02*
X-64353000Y2998456I0J-267544D01*
G01*
X-64353000Y2008544D01*
G75*
G02*
X-64620544Y1741000I-267544J0D01*
G01*
X-65935456Y1741000D01*
G75*
G02*
X-66203000Y2008544I0J267544D01*
G01*
X-66203000Y2998456D01*
G75*
G02*
X-65935456Y3266000I267544J0D01*
G01*
G37*
G36*
G01*
X-65935456Y291000D02*
X-64620544Y291000D01*
G75*
G02*
X-64353000Y23456I0J-267544D01*
G01*
X-64353000Y-966456D01*
G75*
G02*
X-64620544Y-1234000I-267544J0D01*
G01*
X-65935456Y-1234000D01*
G75*
G02*
X-66203000Y-966456I0J267544D01*
G01*
X-66203000Y23456D01*
G75*
G02*
X-65935456Y291000I267544J0D01*
G01*
G37*
%TD*%
%TO.C,R26*%
G36*
G01*
X-66443456Y12446500D02*
X-65128544Y12446500D01*
G75*
G02*
X-64861000Y12178956I0J-267544D01*
G01*
X-64861000Y11189044D01*
G75*
G02*
X-65128544Y10921500I-267544J0D01*
G01*
X-66443456Y10921500D01*
G75*
G02*
X-66711000Y11189044I0J267544D01*
G01*
X-66711000Y12178956D01*
G75*
G02*
X-66443456Y12446500I267544J0D01*
G01*
G37*
G36*
G01*
X-66443456Y15421500D02*
X-65128544Y15421500D01*
G75*
G02*
X-64861000Y15153956I0J-267544D01*
G01*
X-64861000Y14164044D01*
G75*
G02*
X-65128544Y13896500I-267544J0D01*
G01*
X-66443456Y13896500D01*
G75*
G02*
X-66711000Y14164044I0J267544D01*
G01*
X-66711000Y15153956D01*
G75*
G02*
X-66443456Y15421500I267544J0D01*
G01*
G37*
%TD*%
%TO.C,R27*%
G36*
G01*
X-66189456Y6604500D02*
X-64874544Y6604500D01*
G75*
G02*
X-64607000Y6336956I0J-267544D01*
G01*
X-64607000Y5347044D01*
G75*
G02*
X-64874544Y5079500I-267544J0D01*
G01*
X-66189456Y5079500D01*
G75*
G02*
X-66457000Y5347044I0J267544D01*
G01*
X-66457000Y6336956D01*
G75*
G02*
X-66189456Y6604500I267544J0D01*
G01*
G37*
G36*
G01*
X-66189456Y9579500D02*
X-64874544Y9579500D01*
G75*
G02*
X-64607000Y9311956I0J-267544D01*
G01*
X-64607000Y8322044D01*
G75*
G02*
X-64874544Y8054500I-267544J0D01*
G01*
X-66189456Y8054500D01*
G75*
G02*
X-66457000Y8322044I0J267544D01*
G01*
X-66457000Y9311956D01*
G75*
G02*
X-66189456Y9579500I267544J0D01*
G01*
G37*
%TD*%
%TO.C,R28*%
G36*
G01*
X64366544Y-16546000D02*
X65681456Y-16546000D01*
G75*
G02*
X65949000Y-16813544I0J-267544D01*
G01*
X65949000Y-17803456D01*
G75*
G02*
X65681456Y-18071000I-267544J0D01*
G01*
X64366544Y-18071000D01*
G75*
G02*
X64099000Y-17803456I0J267544D01*
G01*
X64099000Y-16813544D01*
G75*
G02*
X64366544Y-16546000I267544J0D01*
G01*
G37*
G36*
G01*
X64366544Y-19521000D02*
X65681456Y-19521000D01*
G75*
G02*
X65949000Y-19788544I0J-267544D01*
G01*
X65949000Y-20778456D01*
G75*
G02*
X65681456Y-21046000I-267544J0D01*
G01*
X64366544Y-21046000D01*
G75*
G02*
X64099000Y-20778456I0J267544D01*
G01*
X64099000Y-19788544D01*
G75*
G02*
X64366544Y-19521000I267544J0D01*
G01*
G37*
%TD*%
%TO.C,R29*%
G36*
G01*
X79606544Y20792000D02*
X80921456Y20792000D01*
G75*
G02*
X81189000Y20524456I0J-267544D01*
G01*
X81189000Y19534544D01*
G75*
G02*
X80921456Y19267000I-267544J0D01*
G01*
X79606544Y19267000D01*
G75*
G02*
X79339000Y19534544I0J267544D01*
G01*
X79339000Y20524456D01*
G75*
G02*
X79606544Y20792000I267544J0D01*
G01*
G37*
G36*
G01*
X79606544Y17817000D02*
X80921456Y17817000D01*
G75*
G02*
X81189000Y17549456I0J-267544D01*
G01*
X81189000Y16559544D01*
G75*
G02*
X80921456Y16292000I-267544J0D01*
G01*
X79606544Y16292000D01*
G75*
G02*
X79339000Y16559544I0J267544D01*
G01*
X79339000Y17549456D01*
G75*
G02*
X79606544Y17817000I267544J0D01*
G01*
G37*
%TD*%
%TO.C,R30*%
G36*
G01*
X80032456Y6640000D02*
X78717544Y6640000D01*
G75*
G02*
X78450000Y6907544I0J267544D01*
G01*
X78450000Y7897456D01*
G75*
G02*
X78717544Y8165000I267544J0D01*
G01*
X80032456Y8165000D01*
G75*
G02*
X80300000Y7897456I0J-267544D01*
G01*
X80300000Y6907544D01*
G75*
G02*
X80032456Y6640000I-267544J0D01*
G01*
G37*
G36*
G01*
X80032456Y9615000D02*
X78717544Y9615000D01*
G75*
G02*
X78450000Y9882544I0J267544D01*
G01*
X78450000Y10872456D01*
G75*
G02*
X78717544Y11140000I267544J0D01*
G01*
X80032456Y11140000D01*
G75*
G02*
X80300000Y10872456I0J-267544D01*
G01*
X80300000Y9882544D01*
G75*
G02*
X80032456Y9615000I-267544J0D01*
G01*
G37*
%TD*%
%TO.C,R31*%
G36*
G01*
X77492456Y9615000D02*
X76177544Y9615000D01*
G75*
G02*
X75910000Y9882544I0J267544D01*
G01*
X75910000Y10872456D01*
G75*
G02*
X76177544Y11140000I267544J0D01*
G01*
X77492456Y11140000D01*
G75*
G02*
X77760000Y10872456I0J-267544D01*
G01*
X77760000Y9882544D01*
G75*
G02*
X77492456Y9615000I-267544J0D01*
G01*
G37*
G36*
G01*
X77492456Y6640000D02*
X76177544Y6640000D01*
G75*
G02*
X75910000Y6907544I0J267544D01*
G01*
X75910000Y7897456D01*
G75*
G02*
X76177544Y8165000I267544J0D01*
G01*
X77492456Y8165000D01*
G75*
G02*
X77760000Y7897456I0J-267544D01*
G01*
X77760000Y6907544D01*
G75*
G02*
X77492456Y6640000I-267544J0D01*
G01*
G37*
%TD*%
%TO.C,R32*%
G36*
G01*
X74825456Y6640000D02*
X73510544Y6640000D01*
G75*
G02*
X73243000Y6907544I0J267544D01*
G01*
X73243000Y7897456D01*
G75*
G02*
X73510544Y8165000I267544J0D01*
G01*
X74825456Y8165000D01*
G75*
G02*
X75093000Y7897456I0J-267544D01*
G01*
X75093000Y6907544D01*
G75*
G02*
X74825456Y6640000I-267544J0D01*
G01*
G37*
G36*
G01*
X74825456Y9615000D02*
X73510544Y9615000D01*
G75*
G02*
X73243000Y9882544I0J267544D01*
G01*
X73243000Y10872456D01*
G75*
G02*
X73510544Y11140000I267544J0D01*
G01*
X74825456Y11140000D01*
G75*
G02*
X75093000Y10872456I0J-267544D01*
G01*
X75093000Y9882544D01*
G75*
G02*
X74825456Y9615000I-267544J0D01*
G01*
G37*
%TD*%
%TO.C,R33*%
G36*
G01*
X63477544Y-8345000D02*
X64792456Y-8345000D01*
G75*
G02*
X65060000Y-8612544I0J-267544D01*
G01*
X65060000Y-9602456D01*
G75*
G02*
X64792456Y-9870000I-267544J0D01*
G01*
X63477544Y-9870000D01*
G75*
G02*
X63210000Y-9602456I0J267544D01*
G01*
X63210000Y-8612544D01*
G75*
G02*
X63477544Y-8345000I267544J0D01*
G01*
G37*
G36*
G01*
X63477544Y-5370000D02*
X64792456Y-5370000D01*
G75*
G02*
X65060000Y-5637544I0J-267544D01*
G01*
X65060000Y-6627456D01*
G75*
G02*
X64792456Y-6895000I-267544J0D01*
G01*
X63477544Y-6895000D01*
G75*
G02*
X63210000Y-6627456I0J267544D01*
G01*
X63210000Y-5637544D01*
G75*
G02*
X63477544Y-5370000I267544J0D01*
G01*
G37*
%TD*%
%TO.C,R34*%
G36*
G01*
X66235044Y-5370000D02*
X67549956Y-5370000D01*
G75*
G02*
X67817500Y-5637544I0J-267544D01*
G01*
X67817500Y-6627456D01*
G75*
G02*
X67549956Y-6895000I-267544J0D01*
G01*
X66235044Y-6895000D01*
G75*
G02*
X65967500Y-6627456I0J267544D01*
G01*
X65967500Y-5637544D01*
G75*
G02*
X66235044Y-5370000I267544J0D01*
G01*
G37*
G36*
G01*
X66235044Y-8345000D02*
X67549956Y-8345000D01*
G75*
G02*
X67817500Y-8612544I0J-267544D01*
G01*
X67817500Y-9602456D01*
G75*
G02*
X67549956Y-9870000I-267544J0D01*
G01*
X66235044Y-9870000D01*
G75*
G02*
X65967500Y-9602456I0J267544D01*
G01*
X65967500Y-8612544D01*
G75*
G02*
X66235044Y-8345000I267544J0D01*
G01*
G37*
%TD*%
%TO.C,R35*%
G36*
G01*
X69192544Y-8345000D02*
X70507456Y-8345000D01*
G75*
G02*
X70775000Y-8612544I0J-267544D01*
G01*
X70775000Y-9602456D01*
G75*
G02*
X70507456Y-9870000I-267544J0D01*
G01*
X69192544Y-9870000D01*
G75*
G02*
X68925000Y-9602456I0J267544D01*
G01*
X68925000Y-8612544D01*
G75*
G02*
X69192544Y-8345000I267544J0D01*
G01*
G37*
G36*
G01*
X69192544Y-5370000D02*
X70507456Y-5370000D01*
G75*
G02*
X70775000Y-5637544I0J-267544D01*
G01*
X70775000Y-6627456D01*
G75*
G02*
X70507456Y-6895000I-267544J0D01*
G01*
X69192544Y-6895000D01*
G75*
G02*
X68925000Y-6627456I0J267544D01*
G01*
X68925000Y-5637544D01*
G75*
G02*
X69192544Y-5370000I267544J0D01*
G01*
G37*
%TD*%
D30*
%TO.C,R36*%
X152400000Y-60880000D03*
X152400000Y-50880000D03*
%TD*%
D19*
%TO.C,R37*%
X141732000Y-17526000D03*
D29*
X141732000Y-27686000D03*
%TD*%
D11*
%TO.C,TP1*%
X-85344000Y-6604000D03*
%TD*%
%TO.C,TP2*%
X-85090000Y6731000D03*
%TD*%
%TO.C,TP3*%
X41275000Y25400000D03*
%TD*%
%TO.C,TP5*%
X49530000Y-21082000D03*
%TD*%
%TO.C,TP6*%
X41275000Y-38735000D03*
%TD*%
%TO.C,TP7*%
X-59055000Y36830000D03*
%TD*%
%TO.C,TP8*%
X41275000Y35560000D03*
%TD*%
%TO.C,TP9*%
X-59055000Y-36830000D03*
%TD*%
%TO.C,TP10*%
X95250000Y10160000D03*
%TD*%
%TO.C,TP11*%
X91440000Y10160000D03*
%TD*%
D21*
%TO.C,U1*%
X-151130000Y-52705000D03*
D10*
X-151130000Y-56515000D03*
X-151130000Y-60325000D03*
X-151130000Y-64135000D03*
%TD*%
%TO.C,U2*%
X-151130000Y-46355000D03*
X-151130000Y-42545000D03*
X-151130000Y-38735000D03*
D21*
X-151130000Y-34925000D03*
%TD*%
D31*
%TO.C,U3*%
X-111379000Y-18034000D03*
D32*
X-108839000Y-18034000D03*
X-106299000Y-18034000D03*
%TD*%
%TO.C,U4*%
X-106934000Y-6604000D03*
X-109474000Y-6604000D03*
D31*
X-112014000Y-6604000D03*
%TD*%
D32*
%TO.C,U5*%
X-106680000Y17272000D03*
X-109220000Y17272000D03*
D31*
X-111760000Y17272000D03*
%TD*%
%TO.C,U6*%
X-111760000Y6731000D03*
D32*
X-109220000Y6731000D03*
X-106680000Y6731000D03*
%TD*%
D33*
%TO.C,U7*%
X-132842000Y-44679000D03*
D34*
X-135142000Y-38379000D03*
X-132842000Y-38379000D03*
X-130542000Y-38379000D03*
%TD*%
D35*
%TO.C,U8*%
X67515000Y-25152000D03*
X68165000Y-25152000D03*
X68815000Y-25152000D03*
X69465000Y-25152000D03*
X70115000Y-25152000D03*
X70765000Y-25152000D03*
X71415000Y-25152000D03*
X72065000Y-25152000D03*
X72715000Y-25152000D03*
X73365000Y-25152000D03*
X74015000Y-25152000D03*
X74665000Y-25152000D03*
X75315000Y-25152000D03*
X75965000Y-25152000D03*
X76615000Y-25152000D03*
X77265000Y-25152000D03*
X77265000Y-18028000D03*
X76615000Y-18028000D03*
X75965000Y-18028000D03*
X75315000Y-18028000D03*
X74665000Y-18028000D03*
X74015000Y-18028000D03*
X73365000Y-18028000D03*
X72715000Y-18028000D03*
X72065000Y-18028000D03*
X71415000Y-18028000D03*
X70765000Y-18028000D03*
X70115000Y-18028000D03*
X69465000Y-18028000D03*
X68815000Y-18028000D03*
X68165000Y-18028000D03*
X67515000Y-18028000D03*
%TD*%
%TO.C,U9*%
X77265000Y18028000D03*
X76615000Y18028000D03*
X75965000Y18028000D03*
X75315000Y18028000D03*
X74665000Y18028000D03*
X74015000Y18028000D03*
X73365000Y18028000D03*
X72715000Y18028000D03*
X72065000Y18028000D03*
X71415000Y18028000D03*
X70765000Y18028000D03*
X70115000Y18028000D03*
X69465000Y18028000D03*
X68815000Y18028000D03*
X68165000Y18028000D03*
X67515000Y18028000D03*
X67515000Y25152000D03*
X68165000Y25152000D03*
X68815000Y25152000D03*
X69465000Y25152000D03*
X70115000Y25152000D03*
X70765000Y25152000D03*
X71415000Y25152000D03*
X72065000Y25152000D03*
X72715000Y25152000D03*
X73365000Y25152000D03*
X74015000Y25152000D03*
X74665000Y25152000D03*
X75315000Y25152000D03*
X75965000Y25152000D03*
X76615000Y25152000D03*
X77265000Y25152000D03*
%TD*%
D22*
%TO.C,U10*%
X109220000Y3810000D03*
D23*
X91440000Y-3810000D03*
X106680000Y3810000D03*
X93980000Y-3810000D03*
X104140000Y3810000D03*
X96520000Y-3810000D03*
X101600000Y3810000D03*
X99060000Y-3810000D03*
X99060000Y3810000D03*
X101600000Y-3810000D03*
X96520000Y3810000D03*
X104140000Y-3810000D03*
X93980000Y3810000D03*
X106680000Y-3810000D03*
X91440000Y3810000D03*
X109220000Y-3810000D03*
%TD*%
%TO.C,U11*%
X132588000Y-3810000D03*
X114808000Y3810000D03*
X130048000Y-3810000D03*
X117348000Y3810000D03*
X127508000Y-3810000D03*
X119888000Y3810000D03*
X124968000Y-3810000D03*
X122428000Y3810000D03*
X122428000Y-3810000D03*
X124968000Y3810000D03*
X119888000Y-3810000D03*
X127508000Y3810000D03*
X117348000Y-3810000D03*
X130048000Y3810000D03*
X114808000Y-3810000D03*
D22*
X132588000Y3810000D03*
%TD*%
%TO.C,C21*%
G36*
G01*
X43180500Y1292456D02*
X43180500Y-22456D01*
G75*
G02*
X42912956Y-290000I-267544J0D01*
G01*
X41923044Y-290000D01*
G75*
G02*
X41655500Y-22456I0J267544D01*
G01*
X41655500Y1292456D01*
G75*
G02*
X41923044Y1560000I267544J0D01*
G01*
X42912956Y1560000D01*
G75*
G02*
X43180500Y1292456I0J-267544D01*
G01*
G37*
G36*
G01*
X40205500Y1292456D02*
X40205500Y-22456D01*
G75*
G02*
X39937956Y-290000I-267544J0D01*
G01*
X38948044Y-290000D01*
G75*
G02*
X38680500Y-22456I0J267544D01*
G01*
X38680500Y1292456D01*
G75*
G02*
X38948044Y1560000I267544J0D01*
G01*
X39937956Y1560000D01*
G75*
G02*
X40205500Y1292456I0J-267544D01*
G01*
G37*
%TD*%
%TO.C,C22*%
G36*
G01*
X40296000Y8785456D02*
X40296000Y7470544D01*
G75*
G02*
X40028456Y7203000I-267544J0D01*
G01*
X39038544Y7203000D01*
G75*
G02*
X38771000Y7470544I0J267544D01*
G01*
X38771000Y8785456D01*
G75*
G02*
X39038544Y9053000I267544J0D01*
G01*
X40028456Y9053000D01*
G75*
G02*
X40296000Y8785456I0J-267544D01*
G01*
G37*
G36*
G01*
X43271000Y8785456D02*
X43271000Y7470544D01*
G75*
G02*
X43003456Y7203000I-267544J0D01*
G01*
X42013544Y7203000D01*
G75*
G02*
X41746000Y7470544I0J267544D01*
G01*
X41746000Y8785456D01*
G75*
G02*
X42013544Y9053000I267544J0D01*
G01*
X43003456Y9053000D01*
G75*
G02*
X43271000Y8785456I0J-267544D01*
G01*
G37*
%TD*%
%TO.C,C24*%
G36*
G01*
X-130466000Y56238544D02*
X-130466000Y57553456D01*
G75*
G02*
X-130198456Y57821000I267544J0D01*
G01*
X-129208544Y57821000D01*
G75*
G02*
X-128941000Y57553456I0J-267544D01*
G01*
X-128941000Y56238544D01*
G75*
G02*
X-129208544Y55971000I-267544J0D01*
G01*
X-130198456Y55971000D01*
G75*
G02*
X-130466000Y56238544I0J267544D01*
G01*
G37*
G36*
G01*
X-133441000Y56238544D02*
X-133441000Y57553456D01*
G75*
G02*
X-133173456Y57821000I267544J0D01*
G01*
X-132183544Y57821000D01*
G75*
G02*
X-131916000Y57553456I0J-267544D01*
G01*
X-131916000Y56238544D01*
G75*
G02*
X-132183544Y55971000I-267544J0D01*
G01*
X-133173456Y55971000D01*
G75*
G02*
X-133441000Y56238544I0J267544D01*
G01*
G37*
%TD*%
%TO.C,C25*%
G36*
G01*
X-151602000Y43792544D02*
X-151602000Y45107456D01*
G75*
G02*
X-151334456Y45375000I267544J0D01*
G01*
X-150344544Y45375000D01*
G75*
G02*
X-150077000Y45107456I0J-267544D01*
G01*
X-150077000Y43792544D01*
G75*
G02*
X-150344544Y43525000I-267544J0D01*
G01*
X-151334456Y43525000D01*
G75*
G02*
X-151602000Y43792544I0J267544D01*
G01*
G37*
G36*
G01*
X-148627000Y43792544D02*
X-148627000Y45107456D01*
G75*
G02*
X-148359456Y45375000I267544J0D01*
G01*
X-147369544Y45375000D01*
G75*
G02*
X-147102000Y45107456I0J-267544D01*
G01*
X-147102000Y43792544D01*
G75*
G02*
X-147369544Y43525000I-267544J0D01*
G01*
X-148359456Y43525000D01*
G75*
G02*
X-148627000Y43792544I0J267544D01*
G01*
G37*
%TD*%
%TO.C,C37*%
G36*
G01*
X-77760000Y14246456D02*
X-77760000Y12931544D01*
G75*
G02*
X-78027544Y12664000I-267544J0D01*
G01*
X-79017456Y12664000D01*
G75*
G02*
X-79285000Y12931544I0J267544D01*
G01*
X-79285000Y14246456D01*
G75*
G02*
X-79017456Y14514000I267544J0D01*
G01*
X-78027544Y14514000D01*
G75*
G02*
X-77760000Y14246456I0J-267544D01*
G01*
G37*
G36*
G01*
X-80735000Y14246456D02*
X-80735000Y12931544D01*
G75*
G02*
X-81002544Y12664000I-267544J0D01*
G01*
X-81992456Y12664000D01*
G75*
G02*
X-82260000Y12931544I0J267544D01*
G01*
X-82260000Y14246456D01*
G75*
G02*
X-81992456Y14514000I267544J0D01*
G01*
X-81002544Y14514000D01*
G75*
G02*
X-80735000Y14246456I0J-267544D01*
G01*
G37*
%TD*%
%TO.C,C38*%
G36*
G01*
X-59293999Y13195543D02*
X-59293999Y14510455D01*
G75*
G02*
X-59026455Y14777999I267544J0D01*
G01*
X-58036543Y14777999D01*
G75*
G02*
X-57768999Y14510455I0J-267544D01*
G01*
X-57768999Y13195543D01*
G75*
G02*
X-58036543Y12927999I-267544J0D01*
G01*
X-59026455Y12927999D01*
G75*
G02*
X-59293999Y13195543I0J267544D01*
G01*
G37*
G36*
G01*
X-62268999Y13195543D02*
X-62268999Y14510455D01*
G75*
G02*
X-62001455Y14777999I267544J0D01*
G01*
X-61011543Y14777999D01*
G75*
G02*
X-60743999Y14510455I0J-267544D01*
G01*
X-60743999Y13195543D01*
G75*
G02*
X-61011543Y12927999I-267544J0D01*
G01*
X-62001455Y12927999D01*
G75*
G02*
X-62268999Y13195543I0J267544D01*
G01*
G37*
%TD*%
M02*
