%TF.GenerationSoftware,KiCad,Pcbnew,(5.1.6-0-10_14)*%
%TF.CreationDate,2021-04-04T14:44:52-05:00*%
%TF.ProjectId,preamp_controller1,70726561-6d70-45f6-936f-6e74726f6c6c,Rev. 01*%
%TF.SameCoordinates,Original*%
%TF.FileFunction,Copper,L4,Bot*%
%TF.FilePolarity,Positive*%
%FSLAX46Y46*%
G04 Gerber Fmt 4.6, Leading zero omitted, Abs format (unit mm)*
G04 Created by KiCad (PCBNEW (5.1.6-0-10_14)) date 2021-04-04 14:44:52*
%MOMM*%
%LPD*%
G01*
G04 APERTURE LIST*
%TA.AperFunction,ComponentPad*%
%ADD10C,2.200000*%
%TD*%
%TA.AperFunction,ComponentPad*%
%ADD11R,1.700000X1.700000*%
%TD*%
%TA.AperFunction,ComponentPad*%
%ADD12O,1.700000X1.700000*%
%TD*%
%TA.AperFunction,ComponentPad*%
%ADD13C,1.950000*%
%TD*%
%TA.AperFunction,ComponentPad*%
%ADD14C,2.800000*%
%TD*%
%TA.AperFunction,ComponentPad*%
%ADD15R,2.000000X2.000000*%
%TD*%
%TA.AperFunction,ComponentPad*%
%ADD16C,2.000000*%
%TD*%
%TA.AperFunction,ComponentPad*%
%ADD17R,1.600000X1.600000*%
%TD*%
%TA.AperFunction,ComponentPad*%
%ADD18C,1.600000*%
%TD*%
%TA.AperFunction,ComponentPad*%
%ADD19C,1.500000*%
%TD*%
%TA.AperFunction,ComponentPad*%
%ADD20R,2.200000X2.200000*%
%TD*%
%TA.AperFunction,ComponentPad*%
%ADD21R,1.600000X2.400000*%
%TD*%
%TA.AperFunction,ComponentPad*%
%ADD22O,1.600000X2.400000*%
%TD*%
%TA.AperFunction,ComponentPad*%
%ADD23O,2.400000X1.600000*%
%TD*%
%TA.AperFunction,ComponentPad*%
%ADD24R,2.400000X1.600000*%
%TD*%
%TA.AperFunction,ComponentPad*%
%ADD25O,2.800000X2.800000*%
%TD*%
%TA.AperFunction,ComponentPad*%
%ADD26O,1.600000X1.600000*%
%TD*%
%TA.AperFunction,ComponentPad*%
%ADD27C,2.400000*%
%TD*%
%TA.AperFunction,ComponentPad*%
%ADD28R,1.905000X2.000000*%
%TD*%
%TA.AperFunction,ComponentPad*%
%ADD29O,1.905000X2.000000*%
%TD*%
%TA.AperFunction,ViaPad*%
%ADD30C,0.800000*%
%TD*%
%TA.AperFunction,Conductor*%
%ADD31C,0.250000*%
%TD*%
%TA.AperFunction,Conductor*%
%ADD32C,2.000000*%
%TD*%
%TA.AperFunction,Conductor*%
%ADD33C,0.500000*%
%TD*%
%TA.AperFunction,Conductor*%
%ADD34C,1.000000*%
%TD*%
%TA.AperFunction,Conductor*%
%ADD35C,0.254000*%
%TD*%
G04 APERTURE END LIST*
D10*
%TO.P,J19,G*%
%TO.N,GNDPWR*%
X-106680000Y-32330000D03*
%TO.P,J19,3*%
%TO.N,left_out_inv*%
X-106680000Y-40830000D03*
%TO.P,J19,2*%
%TO.N,left_out_noninv*%
X-110680000Y-36830000D03*
%TO.P,J19,1*%
%TO.N,GNDA*%
X-102680000Y-36830000D03*
%TD*%
D11*
%TO.P,TP15,1*%
%TO.N,GNDA*%
X155350000Y-30480000D03*
%TD*%
%TO.P,TP14,1*%
%TO.N,GNDA*%
X155526000Y-35384000D03*
%TD*%
%TO.P,TP13,1*%
%TO.N,GNDA*%
X150700000Y-30480000D03*
%TD*%
%TO.P,TP12,1*%
%TO.N,GNDA*%
X150876000Y-35384000D03*
%TD*%
%TO.P,TP4,1*%
%TO.N,GND*%
X-135636000Y-55118000D03*
%TD*%
%TO.P,J10,1*%
%TO.N,+12V*%
X-166878000Y-29464000D03*
D12*
%TO.P,J10,2*%
X-169418000Y-29464000D03*
%TO.P,J10,3*%
%TO.N,+5V*%
X-166878000Y-26924000D03*
%TO.P,J10,4*%
X-169418000Y-26924000D03*
%TO.P,J10,5*%
%TO.N,+3V3*%
X-166878000Y-24384000D03*
%TO.P,J10,6*%
X-169418000Y-24384000D03*
%TO.P,J10,7*%
%TO.N,GND*%
X-166878000Y-21844000D03*
%TO.P,J10,8*%
X-169418000Y-21844000D03*
%TO.P,J10,9*%
%TO.N,vol_spi_latch*%
X-166878000Y-19304000D03*
%TO.P,J10,10*%
%TO.N,vol_spi_data*%
X-169418000Y-19304000D03*
%TO.P,J10,11*%
%TO.N,vol_spi_clock*%
X-166878000Y-16764000D03*
%TO.P,J10,12*%
%TO.N,GND*%
X-169418000Y-16764000D03*
%TO.P,J10,13*%
%TO.N,relay_spi_strobe*%
X-166878000Y-14224000D03*
%TO.P,J10,14*%
%TO.N,relay_spi_data*%
X-169418000Y-14224000D03*
%TO.P,J10,15*%
%TO.N,relay_spi_clock*%
X-166878000Y-11684000D03*
%TO.P,J10,16*%
%TO.N,GND*%
X-169418000Y-11684000D03*
%TO.P,J10,17*%
%TO.N,i2c1_scl*%
X-166878000Y-9144000D03*
%TO.P,J10,18*%
%TO.N,i2c1_sda*%
X-169418000Y-9144000D03*
%TO.P,J10,19*%
%TO.N,/controls/mute_switch*%
X-166878000Y-6604000D03*
%TO.P,J10,20*%
%TO.N,/controls/operate_switch*%
X-169418000Y-6604000D03*
%TO.P,J10,21*%
%TO.N,/controls/sel_enc_1*%
X-166878000Y-4064000D03*
%TO.P,J10,22*%
%TO.N,/controls/sel_enc_2*%
X-169418000Y-4064000D03*
%TO.P,J10,23*%
%TO.N,/controls/vol_enc_1*%
X-166878000Y-1524000D03*
%TO.P,J10,24*%
%TO.N,/controls/vol_enc_2*%
X-169418000Y-1524000D03*
%TD*%
D13*
%TO.P,J1,1*%
%TO.N,Net-(J1-Pad1)*%
X-167640000Y-62230000D03*
%TO.P,J1,2*%
%TO.N,Net-(J1-Pad2)*%
X-167640000Y-55730000D03*
%TO.P,J1,3*%
%TO.N,GND*%
X-161140000Y-62230000D03*
%TO.P,J1,4*%
%TO.N,Net-(J1-Pad4)*%
X-161140000Y-55730000D03*
%TD*%
D10*
%TO.P,J29,1*%
%TO.N,right_out_noninv*%
X-106680000Y66040000D03*
%TO.P,J29,2*%
%TO.N,GNDA*%
X-97790000Y66040000D03*
%TD*%
%TO.P,J44,G*%
%TO.N,GNDPWR*%
X-6350000Y41330000D03*
D14*
%TO.P,J44,3*%
%TO.N,Net-(J44-Pad3)*%
X-6350000Y31830000D03*
%TO.P,J44,2*%
%TO.N,Net-(J44-Pad2)*%
X-2350000Y35330000D03*
%TO.P,J44,1*%
%TO.N,GNDA*%
X-10350000Y35330000D03*
%TD*%
D10*
%TO.P,J17,G*%
%TO.N,GNDPWR*%
X-43180000Y-32330000D03*
%TO.P,J17,3*%
%TO.N,Net-(J17-Pad3)*%
X-43180000Y-40830000D03*
%TO.P,J17,2*%
%TO.N,Net-(J17-Pad2)*%
X-47180000Y-36830000D03*
%TO.P,J17,1*%
%TO.N,GNDA*%
X-39180000Y-36830000D03*
%TD*%
%TO.P,J18,G*%
%TO.N,GNDPWR*%
X-74930000Y-32330000D03*
%TO.P,J18,3*%
%TO.N,left_out_inv*%
X-74930000Y-40830000D03*
%TO.P,J18,2*%
%TO.N,left_out_noninv*%
X-78930000Y-36830000D03*
%TO.P,J18,1*%
%TO.N,GNDA*%
X-70930000Y-36830000D03*
%TD*%
%TO.P,J23,G*%
%TO.N,GNDPWR*%
X-43180000Y41330000D03*
%TO.P,J23,3*%
%TO.N,Net-(J23-Pad3)*%
X-43180000Y32830000D03*
%TO.P,J23,2*%
%TO.N,Net-(J23-Pad2)*%
X-47180000Y36830000D03*
%TO.P,J23,1*%
%TO.N,GNDA*%
X-39180000Y36830000D03*
%TD*%
%TO.P,J24,G*%
%TO.N,GNDPWR*%
X-74930000Y41330000D03*
%TO.P,J24,3*%
%TO.N,right_out_inv*%
X-74930000Y32830000D03*
%TO.P,J24,2*%
%TO.N,right_out_noninv*%
X-78930000Y36830000D03*
%TO.P,J24,1*%
%TO.N,GNDA*%
X-70930000Y36830000D03*
%TD*%
%TO.P,J25,G*%
%TO.N,GNDPWR*%
X-106680000Y41330000D03*
%TO.P,J25,3*%
%TO.N,right_out_inv*%
X-106680000Y32830000D03*
%TO.P,J25,2*%
%TO.N,right_out_noninv*%
X-110680000Y36830000D03*
%TO.P,J25,1*%
%TO.N,GNDA*%
X-102680000Y36830000D03*
%TD*%
%TO.P,J35,G*%
%TO.N,GNDPWR*%
X120650000Y-32330000D03*
D14*
%TO.P,J35,3*%
%TO.N,Net-(J35-Pad3)*%
X120650000Y-41830000D03*
%TO.P,J35,2*%
%TO.N,Net-(J34-Pad1)*%
X124650000Y-38330000D03*
%TO.P,J35,1*%
%TO.N,GNDA*%
X116650000Y-38330000D03*
%TD*%
D10*
%TO.P,J36,G*%
%TO.N,GNDPWR*%
X88900000Y-32330000D03*
D14*
%TO.P,J36,3*%
%TO.N,Net-(J36-Pad3)*%
X88900000Y-41830000D03*
%TO.P,J36,2*%
%TO.N,Net-(J31-Pad1)*%
X92900000Y-38330000D03*
%TO.P,J36,1*%
%TO.N,GNDA*%
X84900000Y-38330000D03*
%TD*%
D10*
%TO.P,J37,G*%
%TO.N,GNDPWR*%
X57150000Y-32330000D03*
D14*
%TO.P,J37,3*%
%TO.N,Net-(J37-Pad3)*%
X57150000Y-41830000D03*
%TO.P,J37,2*%
%TO.N,Net-(J32-Pad1)*%
X61150000Y-38330000D03*
%TO.P,J37,1*%
%TO.N,GNDA*%
X53150000Y-38330000D03*
%TD*%
D10*
%TO.P,J38,G*%
%TO.N,GNDPWR*%
X25400000Y-32330000D03*
D14*
%TO.P,J38,3*%
%TO.N,Net-(J38-Pad3)*%
X25400000Y-41830000D03*
%TO.P,J38,2*%
%TO.N,Net-(J33-Pad1)*%
X29400000Y-38330000D03*
%TO.P,J38,1*%
%TO.N,GNDA*%
X21400000Y-38330000D03*
%TD*%
D10*
%TO.P,J39,G*%
%TO.N,GNDPWR*%
X-6350000Y-32330000D03*
D14*
%TO.P,J39,3*%
%TO.N,Net-(J39-Pad3)*%
X-6350000Y-41830000D03*
%TO.P,J39,2*%
%TO.N,Net-(J30-Pad1)*%
X-2350000Y-38330000D03*
%TO.P,J39,1*%
%TO.N,GNDA*%
X-10350000Y-38330000D03*
%TD*%
D10*
%TO.P,J40,G*%
%TO.N,GNDPWR*%
X120650000Y41330000D03*
D14*
%TO.P,J40,3*%
%TO.N,Net-(J40-Pad3)*%
X120650000Y31830000D03*
%TO.P,J40,2*%
%TO.N,Net-(J40-Pad2)*%
X124650000Y35330000D03*
%TO.P,J40,1*%
%TO.N,GNDA*%
X116650000Y35330000D03*
%TD*%
D10*
%TO.P,J41,G*%
%TO.N,GNDPWR*%
X88900000Y41330000D03*
D14*
%TO.P,J41,3*%
%TO.N,Net-(J41-Pad3)*%
X88900000Y31830000D03*
%TO.P,J41,2*%
%TO.N,Net-(J41-Pad2)*%
X92900000Y35330000D03*
%TO.P,J41,1*%
%TO.N,GNDA*%
X84900000Y35330000D03*
%TD*%
D10*
%TO.P,J42,G*%
%TO.N,GNDPWR*%
X57150000Y41330000D03*
D14*
%TO.P,J42,3*%
%TO.N,Net-(J42-Pad3)*%
X57150000Y31830000D03*
%TO.P,J42,2*%
%TO.N,Net-(J42-Pad2)*%
X61150000Y35330000D03*
%TO.P,J42,1*%
%TO.N,GNDA*%
X53150000Y35330000D03*
%TD*%
D10*
%TO.P,J43,G*%
%TO.N,GNDPWR*%
X25400000Y41330000D03*
D14*
%TO.P,J43,3*%
%TO.N,Net-(J43-Pad3)*%
X25400000Y31830000D03*
%TO.P,J43,2*%
%TO.N,Net-(J43-Pad2)*%
X29400000Y35330000D03*
%TO.P,J43,1*%
%TO.N,GNDA*%
X21400000Y35330000D03*
%TD*%
D15*
%TO.P,C1,1*%
%TO.N,Net-(C1-Pad1)*%
X-126492000Y-2286000D03*
D16*
%TO.P,C1,2*%
%TO.N,GND*%
X-126492000Y-7286000D03*
%TD*%
%TO.P,C2,2*%
%TO.N,GND*%
X-126238000Y15320000D03*
D15*
%TO.P,C2,1*%
%TO.N,Net-(C1-Pad1)*%
X-126238000Y20320000D03*
%TD*%
%TO.P,C3,1*%
%TO.N,GND*%
X-125984000Y-15748000D03*
D16*
%TO.P,C3,2*%
%TO.N,Net-(C19-Pad2)*%
X-125984000Y-20748000D03*
%TD*%
D17*
%TO.P,C4,1*%
%TO.N,/power/5v_rectified*%
X-126238000Y8636000D03*
D18*
%TO.P,C4,2*%
%TO.N,GND*%
X-126238000Y5136000D03*
%TD*%
D17*
%TO.P,C5,1*%
%TO.N,GND*%
X41910000Y-19050000D03*
D18*
%TO.P,C5,2*%
%TO.N,-15V*%
X41910000Y-15550000D03*
%TD*%
%TO.P,C6,2*%
%TO.N,GND*%
X-93599000Y-3104000D03*
D17*
%TO.P,C6,1*%
%TO.N,+12V*%
X-93599000Y-6604000D03*
%TD*%
%TO.P,C7,1*%
%TO.N,+15V*%
X41910000Y17780000D03*
D18*
%TO.P,C7,2*%
%TO.N,GND*%
X41910000Y14280000D03*
%TD*%
%TO.P,C8,2*%
%TO.N,GND*%
X-93345000Y5136000D03*
D17*
%TO.P,C8,1*%
%TO.N,+5V*%
X-93345000Y8636000D03*
%TD*%
D18*
%TO.P,C11,2*%
%TO.N,GND*%
X-131628000Y-30734000D03*
D17*
%TO.P,C11,1*%
%TO.N,+3V3*%
X-135128000Y-30734000D03*
%TD*%
D19*
%TO.P,C12,1*%
%TO.N,+15V*%
X74208000Y-13970000D03*
%TO.P,C12,2*%
%TO.N,GNDA*%
X79208000Y-13970000D03*
%TD*%
%TO.P,C13,1*%
%TO.N,GNDA*%
X65445000Y-13970000D03*
%TO.P,C13,2*%
%TO.N,-15V*%
X70445000Y-13970000D03*
%TD*%
%TO.P,C14,2*%
%TO.N,GNDA*%
X65445000Y13970000D03*
%TO.P,C14,1*%
%TO.N,+15V*%
X70445000Y13970000D03*
%TD*%
%TO.P,C15,2*%
%TO.N,-15V*%
X74970000Y13970000D03*
%TO.P,C15,1*%
%TO.N,GNDA*%
X79970000Y13970000D03*
%TD*%
D18*
%TO.P,C20,2*%
%TO.N,-15V*%
X57150000Y-14280000D03*
D17*
%TO.P,C20,1*%
%TO.N,Net-(C16-Pad2)*%
X57150000Y-17780000D03*
%TD*%
%TO.P,C23,1*%
%TO.N,Net-(C17-Pad2)*%
X86995000Y20320000D03*
D18*
%TO.P,C23,2*%
%TO.N,-15V*%
X86995000Y16820000D03*
%TD*%
%TO.P,C26,1*%
%TO.N,+5V*%
%TA.AperFunction,SMDPad,CuDef*%
G36*
G01*
X129372000Y-625000D02*
X129372000Y625000D01*
G75*
G02*
X129622000Y875000I250000J0D01*
G01*
X130547000Y875000D01*
G75*
G02*
X130797000Y625000I0J-250000D01*
G01*
X130797000Y-625000D01*
G75*
G02*
X130547000Y-875000I-250000J0D01*
G01*
X129622000Y-875000D01*
G75*
G02*
X129372000Y-625000I0J250000D01*
G01*
G37*
%TD.AperFunction*%
%TO.P,C26,2*%
%TO.N,GND*%
%TA.AperFunction,SMDPad,CuDef*%
G36*
G01*
X132347000Y-625000D02*
X132347000Y625000D01*
G75*
G02*
X132597000Y875000I250000J0D01*
G01*
X133522000Y875000D01*
G75*
G02*
X133772000Y625000I0J-250000D01*
G01*
X133772000Y-625000D01*
G75*
G02*
X133522000Y-875000I-250000J0D01*
G01*
X132597000Y-875000D01*
G75*
G02*
X132347000Y-625000I0J250000D01*
G01*
G37*
%TD.AperFunction*%
%TD*%
%TO.P,C27,2*%
%TO.N,GND*%
%TA.AperFunction,SMDPad,CuDef*%
G36*
G01*
X106055000Y-9411000D02*
X107305000Y-9411000D01*
G75*
G02*
X107555000Y-9661000I0J-250000D01*
G01*
X107555000Y-10586000D01*
G75*
G02*
X107305000Y-10836000I-250000J0D01*
G01*
X106055000Y-10836000D01*
G75*
G02*
X105805000Y-10586000I0J250000D01*
G01*
X105805000Y-9661000D01*
G75*
G02*
X106055000Y-9411000I250000J0D01*
G01*
G37*
%TD.AperFunction*%
%TO.P,C27,1*%
%TO.N,+5V*%
%TA.AperFunction,SMDPad,CuDef*%
G36*
G01*
X106055000Y-6436000D02*
X107305000Y-6436000D01*
G75*
G02*
X107555000Y-6686000I0J-250000D01*
G01*
X107555000Y-7611000D01*
G75*
G02*
X107305000Y-7861000I-250000J0D01*
G01*
X106055000Y-7861000D01*
G75*
G02*
X105805000Y-7611000I0J250000D01*
G01*
X105805000Y-6686000D01*
G75*
G02*
X106055000Y-6436000I250000J0D01*
G01*
G37*
%TD.AperFunction*%
%TD*%
D13*
%TO.P,J2,2*%
%TO.N,Net-(J2-Pad2)*%
X-162410000Y-44450000D03*
%TO.P,J2,1*%
%TO.N,Net-(J2-Pad1)*%
X-168910000Y-44450000D03*
%TD*%
%TO.P,J3,4*%
%TO.N,Net-(J3-Pad4)*%
X162410000Y-59840000D03*
%TO.P,J3,3*%
%TO.N,GNDPWR*%
X162410000Y-53340000D03*
%TO.P,J3,2*%
%TO.N,LINE*%
X168910000Y-59840000D03*
%TO.P,J3,1*%
%TO.N,NEUT*%
X168910000Y-53340000D03*
%TD*%
%TO.P,J4,1*%
%TO.N,Filament_line*%
X170180000Y-39370000D03*
%TO.P,J4,2*%
%TO.N,NEUT*%
X163680000Y-39370000D03*
%TD*%
%TO.P,J5,2*%
%TO.N,NEUT*%
X163680000Y-25400000D03*
%TO.P,J5,1*%
%TO.N,Bplus_line*%
X170180000Y-25400000D03*
%TD*%
D12*
%TO.P,J6,3*%
%TO.N,Net-(J6-Pad3)*%
X-170180000Y55880000D03*
%TO.P,J6,2*%
%TO.N,GND*%
X-170180000Y58420000D03*
D11*
%TO.P,J6,1*%
%TO.N,/controls/operate_switch*%
X-170180000Y60960000D03*
%TD*%
%TO.P,J7,1*%
%TO.N,/controls/mute_switch*%
X-170180000Y46990000D03*
D12*
%TO.P,J7,2*%
%TO.N,GND*%
X-170180000Y44450000D03*
%TO.P,J7,3*%
%TO.N,Net-(J7-Pad3)*%
X-170180000Y41910000D03*
%TD*%
%TO.P,J8,3*%
%TO.N,/controls/sel_enc_2*%
X-162560000Y55880000D03*
%TO.P,J8,2*%
%TO.N,GND*%
X-162560000Y58420000D03*
D11*
%TO.P,J8,1*%
%TO.N,/controls/sel_enc_1*%
X-162560000Y60960000D03*
%TD*%
%TO.P,J9,1*%
%TO.N,/controls/vol_enc_1*%
X-162560000Y46990000D03*
D12*
%TO.P,J9,2*%
%TO.N,GND*%
X-162560000Y44450000D03*
%TO.P,J9,3*%
%TO.N,/controls/vol_enc_2*%
X-162560000Y41910000D03*
%TD*%
D10*
%TO.P,J11,3*%
%TO.N,GNDA*%
X72898000Y-41308000D03*
%TO.P,J11,2*%
%TO.N,left_amp_in_inv*%
X72898000Y-38608000D03*
D20*
%TO.P,J11,1*%
%TO.N,left_amp_in_noninv*%
X72898000Y-35908000D03*
%TD*%
D10*
%TO.P,J12,3*%
%TO.N,GNDA*%
X73025000Y36355000D03*
%TO.P,J12,2*%
%TO.N,right_amp_in_inv*%
X73025000Y33655000D03*
D20*
%TO.P,J12,1*%
%TO.N,right_amp_in_noninv*%
X73025000Y30955000D03*
%TD*%
%TO.P,J13,1*%
%TO.N,left_amp_out_noninv*%
X-91440000Y-23495000D03*
D10*
%TO.P,J13,2*%
%TO.N,left_amp_out_inv*%
X-91440000Y-26195000D03*
%TO.P,J13,3*%
%TO.N,GNDA*%
X-91440000Y-28895000D03*
%TD*%
D20*
%TO.P,J14,1*%
%TO.N,right_amp_out_noninv*%
X-91440000Y38260000D03*
D10*
%TO.P,J14,2*%
%TO.N,right_amp_out_inv*%
X-91440000Y35560000D03*
%TO.P,J14,3*%
%TO.N,GNDA*%
X-91440000Y32860000D03*
%TD*%
D11*
%TO.P,J15,1*%
%TO.N,spare_12v_3*%
X99060000Y10160000D03*
D12*
%TO.P,J15,2*%
%TO.N,Net-(J15-Pad2)*%
X99060000Y12700000D03*
%TD*%
D11*
%TO.P,J16,1*%
%TO.N,+3V3*%
X-170180000Y29210000D03*
D12*
%TO.P,J16,2*%
%TO.N,GND*%
X-170180000Y26670000D03*
%TO.P,J16,3*%
%TO.N,i2c1_scl*%
X-170180000Y24130000D03*
%TO.P,J16,4*%
%TO.N,i2c1_sda*%
X-170180000Y21590000D03*
%TO.P,J16,5*%
%TO.N,Net-(J16-Pad5)*%
X-170180000Y19050000D03*
%TO.P,J16,6*%
%TO.N,Net-(J16-Pad6)*%
X-170180000Y16510000D03*
%TO.P,J16,7*%
%TO.N,Net-(J16-Pad7)*%
X-170180000Y13970000D03*
%TO.P,J16,8*%
%TO.N,Net-(J16-Pad8)*%
X-170180000Y11430000D03*
%TD*%
D10*
%TO.P,J20,1*%
%TO.N,Net-(J17-Pad2)*%
X-43180000Y-66040000D03*
%TO.P,J20,2*%
%TO.N,GNDA*%
X-34290000Y-66040000D03*
%TD*%
%TO.P,J21,1*%
%TO.N,left_out_noninv*%
X-74930000Y-66040000D03*
%TO.P,J21,2*%
%TO.N,GNDA*%
X-66040000Y-66040000D03*
%TD*%
%TO.P,J22,2*%
%TO.N,GNDA*%
X-97790000Y-66040000D03*
%TO.P,J22,1*%
%TO.N,left_out_noninv*%
X-106680000Y-66040000D03*
%TD*%
D11*
%TO.P,J26,1*%
%TO.N,Net-(J26-Pad1)*%
X-153670000Y60960000D03*
D12*
%TO.P,J26,2*%
%TO.N,Net-(J26-Pad2)*%
X-153670000Y58420000D03*
%TO.P,J26,3*%
%TO.N,Net-(J26-Pad3)*%
X-153670000Y55880000D03*
%TO.P,J26,4*%
%TO.N,Net-(J26-Pad4)*%
X-153670000Y53340000D03*
%TO.P,J26,5*%
%TO.N,GND*%
X-153670000Y50800000D03*
%TO.P,J26,6*%
%TO.N,+5V*%
X-153670000Y48260000D03*
%TD*%
D10*
%TO.P,J27,2*%
%TO.N,GNDA*%
X-34290000Y66040000D03*
%TO.P,J27,1*%
%TO.N,Net-(J23-Pad2)*%
X-43180000Y66040000D03*
%TD*%
%TO.P,J28,2*%
%TO.N,GNDA*%
X-66040000Y66040000D03*
%TO.P,J28,1*%
%TO.N,right_out_noninv*%
X-74930000Y66040000D03*
%TD*%
%TO.P,J30,2*%
%TO.N,GNDA*%
X-15240000Y-66040000D03*
%TO.P,J30,1*%
%TO.N,Net-(J30-Pad1)*%
X-6350000Y-66040000D03*
%TD*%
%TO.P,J31,1*%
%TO.N,Net-(J31-Pad1)*%
X88900000Y-66040000D03*
%TO.P,J31,2*%
%TO.N,GNDA*%
X80010000Y-66040000D03*
%TD*%
%TO.P,J32,2*%
%TO.N,GNDA*%
X48260000Y-66040000D03*
%TO.P,J32,1*%
%TO.N,Net-(J32-Pad1)*%
X57150000Y-66040000D03*
%TD*%
%TO.P,J33,1*%
%TO.N,Net-(J33-Pad1)*%
X25400000Y-66040000D03*
%TO.P,J33,2*%
%TO.N,GNDA*%
X16510000Y-66040000D03*
%TD*%
%TO.P,J34,2*%
%TO.N,GNDA*%
X111760000Y-66040000D03*
%TO.P,J34,1*%
%TO.N,Net-(J34-Pad1)*%
X120650000Y-66040000D03*
%TD*%
%TO.P,J45,1*%
%TO.N,Net-(J40-Pad2)*%
X120650000Y66040000D03*
%TO.P,J45,2*%
%TO.N,GNDA*%
X111760000Y66040000D03*
%TD*%
%TO.P,J46,2*%
%TO.N,GNDA*%
X80010000Y66040000D03*
%TO.P,J46,1*%
%TO.N,Net-(J41-Pad2)*%
X88900000Y66040000D03*
%TD*%
%TO.P,J47,1*%
%TO.N,Net-(J42-Pad2)*%
X57150000Y66040000D03*
%TO.P,J47,2*%
%TO.N,GNDA*%
X48260000Y66040000D03*
%TD*%
%TO.P,J48,2*%
%TO.N,GNDA*%
X16510000Y66040000D03*
%TO.P,J48,1*%
%TO.N,Net-(J43-Pad2)*%
X25400000Y66040000D03*
%TD*%
%TO.P,J49,1*%
%TO.N,Net-(J44-Pad2)*%
X-6350000Y66040000D03*
%TO.P,J49,2*%
%TO.N,GNDA*%
X-15240000Y66040000D03*
%TD*%
D21*
%TO.P,K1,A1*%
%TO.N,/relays/filament_relay*%
X147320000Y0D03*
D22*
%TO.P,K1,21*%
%TO.N,Net-(K1-Pad21)*%
X167640000Y7620000D03*
%TO.P,K1,11*%
%TO.N,Filament_line*%
X167640000Y0D03*
%TO.P,K1,14*%
%TO.N,LINE*%
X172720000Y0D03*
%TO.P,K1,22*%
%TO.N,Net-(K1-Pad22)*%
X162560000Y7620000D03*
%TO.P,K1,24*%
%TO.N,Net-(K1-Pad24)*%
X172720000Y7620000D03*
%TO.P,K1,A2*%
%TO.N,GND*%
X147320000Y7620000D03*
%TO.P,K1,12*%
%TO.N,Net-(K1-Pad12)*%
X162560000Y0D03*
%TD*%
D23*
%TO.P,K2,5*%
%TO.N,Net-(K2-Pad5)*%
X-94615000Y-56515000D03*
%TO.P,K2,9*%
%TO.N,GNDA*%
X-86995000Y-48895000D03*
%TO.P,K2,4*%
%TO.N,left_amp_out_noninv*%
X-94615000Y-53975000D03*
%TO.P,K2,8*%
%TO.N,left_out_inv*%
X-86995000Y-51435000D03*
%TO.P,K2,3*%
%TO.N,left_out_noninv*%
X-94615000Y-51435000D03*
%TO.P,K2,7*%
%TO.N,left_amp_out_inv*%
X-86995000Y-53975000D03*
%TO.P,K2,2*%
%TO.N,GNDA*%
X-94615000Y-48895000D03*
%TO.P,K2,10*%
%TO.N,GND*%
X-86995000Y-46355000D03*
D24*
%TO.P,K2,1*%
%TO.N,/relays/mute_relay*%
X-94615000Y-46355000D03*
D23*
%TO.P,K2,6*%
%TO.N,Net-(K2-Pad6)*%
X-86995000Y-56515000D03*
%TD*%
D22*
%TO.P,K3,12*%
%TO.N,Net-(K3-Pad12)*%
X162560000Y-15240000D03*
%TO.P,K3,A2*%
%TO.N,GND*%
X147320000Y-7620000D03*
%TO.P,K3,24*%
%TO.N,Net-(K3-Pad24)*%
X172720000Y-7620000D03*
%TO.P,K3,22*%
%TO.N,Net-(K3-Pad22)*%
X162560000Y-7620000D03*
%TO.P,K3,14*%
%TO.N,LINE*%
X172720000Y-15240000D03*
%TO.P,K3,11*%
%TO.N,Bplus_line*%
X167640000Y-15240000D03*
%TO.P,K3,21*%
%TO.N,Net-(K3-Pad21)*%
X167640000Y-7620000D03*
D21*
%TO.P,K3,A1*%
%TO.N,/relays/bplus_relay*%
X147320000Y-15240000D03*
%TD*%
D23*
%TO.P,K4,6*%
%TO.N,Net-(K4-Pad6)*%
X-87630000Y46990000D03*
D24*
%TO.P,K4,1*%
%TO.N,/relays/mute_relay*%
X-95250000Y57150000D03*
D23*
%TO.P,K4,10*%
%TO.N,GND*%
X-87630000Y57150000D03*
%TO.P,K4,2*%
%TO.N,GNDA*%
X-95250000Y54610000D03*
%TO.P,K4,7*%
%TO.N,right_amp_out_inv*%
X-87630000Y49530000D03*
%TO.P,K4,3*%
%TO.N,right_out_noninv*%
X-95250000Y52070000D03*
%TO.P,K4,8*%
%TO.N,right_out_inv*%
X-87630000Y52070000D03*
%TO.P,K4,4*%
%TO.N,right_amp_out_noninv*%
X-95250000Y49530000D03*
%TO.P,K4,9*%
%TO.N,GNDA*%
X-87630000Y54610000D03*
%TO.P,K4,5*%
%TO.N,Net-(K4-Pad5)*%
X-95250000Y46990000D03*
%TD*%
D22*
%TO.P,K5,9*%
%TO.N,Net-(J35-Pad3)*%
X120650000Y-59690000D03*
%TO.P,K5,2*%
%TO.N,/relays/sel1_reset*%
X135890000Y-52070000D03*
%TO.P,K5,11*%
%TO.N,Net-(K5-Pad11)*%
X125730000Y-59690000D03*
%TO.P,K5,4*%
%TO.N,left_sel_noninv*%
X130810000Y-52070000D03*
%TO.P,K5,13*%
%TO.N,left_sel_inv*%
X130810000Y-59690000D03*
%TO.P,K5,6*%
%TO.N,Net-(K5-Pad6)*%
X125730000Y-52070000D03*
%TO.P,K5,15*%
%TO.N,GND*%
X135890000Y-59690000D03*
%TO.P,K5,8*%
%TO.N,Net-(J34-Pad1)*%
X120650000Y-52070000D03*
%TO.P,K5,16*%
%TO.N,GND*%
X138430000Y-59690000D03*
D21*
%TO.P,K5,1*%
%TO.N,/relays/sel1_set*%
X138430000Y-52070000D03*
%TD*%
%TO.P,K6,1*%
%TO.N,/relays/sel2_set*%
X106680000Y-52070000D03*
D22*
%TO.P,K6,16*%
%TO.N,GND*%
X106680000Y-59690000D03*
%TO.P,K6,8*%
%TO.N,Net-(J31-Pad1)*%
X88900000Y-52070000D03*
%TO.P,K6,15*%
%TO.N,GND*%
X104140000Y-59690000D03*
%TO.P,K6,6*%
%TO.N,Net-(K6-Pad6)*%
X93980000Y-52070000D03*
%TO.P,K6,13*%
%TO.N,left_sel_inv*%
X99060000Y-59690000D03*
%TO.P,K6,4*%
%TO.N,left_sel_noninv*%
X99060000Y-52070000D03*
%TO.P,K6,11*%
%TO.N,Net-(K6-Pad11)*%
X93980000Y-59690000D03*
%TO.P,K6,2*%
%TO.N,/relays/sel2_reset*%
X104140000Y-52070000D03*
%TO.P,K6,9*%
%TO.N,Net-(J36-Pad3)*%
X88900000Y-59690000D03*
%TD*%
%TO.P,K7,9*%
%TO.N,Net-(J37-Pad3)*%
X57150000Y-59690000D03*
%TO.P,K7,2*%
%TO.N,/relays/sel3_reset*%
X72390000Y-52070000D03*
%TO.P,K7,11*%
%TO.N,Net-(K7-Pad11)*%
X62230000Y-59690000D03*
%TO.P,K7,4*%
%TO.N,left_sel_noninv*%
X67310000Y-52070000D03*
%TO.P,K7,13*%
%TO.N,left_sel_inv*%
X67310000Y-59690000D03*
%TO.P,K7,6*%
%TO.N,Net-(K7-Pad6)*%
X62230000Y-52070000D03*
%TO.P,K7,15*%
%TO.N,GND*%
X72390000Y-59690000D03*
%TO.P,K7,8*%
%TO.N,Net-(J32-Pad1)*%
X57150000Y-52070000D03*
%TO.P,K7,16*%
%TO.N,GND*%
X74930000Y-59690000D03*
D21*
%TO.P,K7,1*%
%TO.N,/relays/sel3_set*%
X74930000Y-52070000D03*
%TD*%
%TO.P,K8,1*%
%TO.N,/relays/sel4_set*%
X43180000Y-52070000D03*
D22*
%TO.P,K8,16*%
%TO.N,GND*%
X43180000Y-59690000D03*
%TO.P,K8,8*%
%TO.N,Net-(J33-Pad1)*%
X25400000Y-52070000D03*
%TO.P,K8,15*%
%TO.N,GND*%
X40640000Y-59690000D03*
%TO.P,K8,6*%
%TO.N,Net-(K8-Pad6)*%
X30480000Y-52070000D03*
%TO.P,K8,13*%
%TO.N,left_sel_inv*%
X35560000Y-59690000D03*
%TO.P,K8,4*%
%TO.N,left_sel_noninv*%
X35560000Y-52070000D03*
%TO.P,K8,11*%
%TO.N,Net-(K8-Pad11)*%
X30480000Y-59690000D03*
%TO.P,K8,2*%
%TO.N,/relays/sel4_reset*%
X40640000Y-52070000D03*
%TO.P,K8,9*%
%TO.N,Net-(J38-Pad3)*%
X25400000Y-59690000D03*
%TD*%
%TO.P,K9,9*%
%TO.N,Net-(J39-Pad3)*%
X-6350000Y-59690000D03*
%TO.P,K9,2*%
%TO.N,/relays/sel5_reset*%
X8890000Y-52070000D03*
%TO.P,K9,11*%
%TO.N,Net-(K9-Pad11)*%
X-1270000Y-59690000D03*
%TO.P,K9,4*%
%TO.N,left_sel_noninv*%
X3810000Y-52070000D03*
%TO.P,K9,13*%
%TO.N,left_sel_inv*%
X3810000Y-59690000D03*
%TO.P,K9,6*%
%TO.N,Net-(K9-Pad6)*%
X-1270000Y-52070000D03*
%TO.P,K9,15*%
%TO.N,GND*%
X8890000Y-59690000D03*
%TO.P,K9,8*%
%TO.N,Net-(J30-Pad1)*%
X-6350000Y-52070000D03*
%TO.P,K9,16*%
%TO.N,GND*%
X11430000Y-59690000D03*
D21*
%TO.P,K9,1*%
%TO.N,/relays/sel5_set*%
X11430000Y-52070000D03*
%TD*%
%TO.P,K10,1*%
%TO.N,/relays/sel1_set*%
X138430000Y59690000D03*
D22*
%TO.P,K10,16*%
%TO.N,GND*%
X138430000Y52070000D03*
%TO.P,K10,8*%
%TO.N,Net-(J40-Pad2)*%
X120650000Y59690000D03*
%TO.P,K10,15*%
%TO.N,GND*%
X135890000Y52070000D03*
%TO.P,K10,6*%
%TO.N,Net-(K10-Pad6)*%
X125730000Y59690000D03*
%TO.P,K10,13*%
%TO.N,right_sel_inv*%
X130810000Y52070000D03*
%TO.P,K10,4*%
%TO.N,right_sel_noninv*%
X130810000Y59690000D03*
%TO.P,K10,11*%
%TO.N,Net-(K10-Pad11)*%
X125730000Y52070000D03*
%TO.P,K10,2*%
%TO.N,/relays/sel1_reset*%
X135890000Y59690000D03*
%TO.P,K10,9*%
%TO.N,Net-(J40-Pad3)*%
X120650000Y52070000D03*
%TD*%
%TO.P,K11,9*%
%TO.N,Net-(J41-Pad3)*%
X88900000Y52070000D03*
%TO.P,K11,2*%
%TO.N,/relays/sel2_reset*%
X104140000Y59690000D03*
%TO.P,K11,11*%
%TO.N,Net-(K11-Pad11)*%
X93980000Y52070000D03*
%TO.P,K11,4*%
%TO.N,right_sel_noninv*%
X99060000Y59690000D03*
%TO.P,K11,13*%
%TO.N,right_sel_inv*%
X99060000Y52070000D03*
%TO.P,K11,6*%
%TO.N,Net-(K11-Pad6)*%
X93980000Y59690000D03*
%TO.P,K11,15*%
%TO.N,GND*%
X104140000Y52070000D03*
%TO.P,K11,8*%
%TO.N,Net-(J41-Pad2)*%
X88900000Y59690000D03*
%TO.P,K11,16*%
%TO.N,GND*%
X106680000Y52070000D03*
D21*
%TO.P,K11,1*%
%TO.N,/relays/sel2_set*%
X106680000Y59690000D03*
%TD*%
%TO.P,K12,1*%
%TO.N,/relays/sel3_set*%
X74930000Y59690000D03*
D22*
%TO.P,K12,16*%
%TO.N,GND*%
X74930000Y52070000D03*
%TO.P,K12,8*%
%TO.N,Net-(J42-Pad2)*%
X57150000Y59690000D03*
%TO.P,K12,15*%
%TO.N,GND*%
X72390000Y52070000D03*
%TO.P,K12,6*%
%TO.N,Net-(K12-Pad6)*%
X62230000Y59690000D03*
%TO.P,K12,13*%
%TO.N,right_sel_inv*%
X67310000Y52070000D03*
%TO.P,K12,4*%
%TO.N,right_sel_noninv*%
X67310000Y59690000D03*
%TO.P,K12,11*%
%TO.N,Net-(K12-Pad11)*%
X62230000Y52070000D03*
%TO.P,K12,2*%
%TO.N,/relays/sel3_reset*%
X72390000Y59690000D03*
%TO.P,K12,9*%
%TO.N,Net-(J42-Pad3)*%
X57150000Y52070000D03*
%TD*%
%TO.P,K13,9*%
%TO.N,Net-(J43-Pad3)*%
X25400000Y52070000D03*
%TO.P,K13,2*%
%TO.N,/relays/sel4_reset*%
X40640000Y59690000D03*
%TO.P,K13,11*%
%TO.N,Net-(K13-Pad11)*%
X30480000Y52070000D03*
%TO.P,K13,4*%
%TO.N,right_sel_noninv*%
X35560000Y59690000D03*
%TO.P,K13,13*%
%TO.N,right_sel_inv*%
X35560000Y52070000D03*
%TO.P,K13,6*%
%TO.N,Net-(K13-Pad6)*%
X30480000Y59690000D03*
%TO.P,K13,15*%
%TO.N,GND*%
X40640000Y52070000D03*
%TO.P,K13,8*%
%TO.N,Net-(J43-Pad2)*%
X25400000Y59690000D03*
%TO.P,K13,16*%
%TO.N,GND*%
X43180000Y52070000D03*
D21*
%TO.P,K13,1*%
%TO.N,/relays/sel4_set*%
X43180000Y59690000D03*
%TD*%
%TO.P,K14,1*%
%TO.N,/relays/sel5_set*%
X11430000Y59690000D03*
D22*
%TO.P,K14,16*%
%TO.N,GND*%
X11430000Y52070000D03*
%TO.P,K14,8*%
%TO.N,Net-(J44-Pad2)*%
X-6350000Y59690000D03*
%TO.P,K14,15*%
%TO.N,GND*%
X8890000Y52070000D03*
%TO.P,K14,6*%
%TO.N,Net-(K14-Pad6)*%
X-1270000Y59690000D03*
%TO.P,K14,13*%
%TO.N,right_sel_inv*%
X3810000Y52070000D03*
%TO.P,K14,4*%
%TO.N,right_sel_noninv*%
X3810000Y59690000D03*
%TO.P,K14,11*%
%TO.N,Net-(K14-Pad11)*%
X-1270000Y52070000D03*
%TO.P,K14,2*%
%TO.N,/relays/sel5_reset*%
X8890000Y59690000D03*
%TO.P,K14,9*%
%TO.N,Net-(J44-Pad3)*%
X-6350000Y52070000D03*
%TD*%
D14*
%TO.P,R1,1*%
%TO.N,-15V*%
X33655000Y-17145000D03*
D25*
%TO.P,R1,2*%
%TO.N,Net-(C30-Pad2)*%
X18415000Y-17145000D03*
%TD*%
%TO.P,R2,2*%
%TO.N,Net-(C32-Pad1)*%
X18415000Y17780000D03*
D14*
%TO.P,R2,1*%
%TO.N,+15V*%
X33655000Y17780000D03*
%TD*%
D26*
%TO.P,R13,2*%
%TO.N,GND*%
X113538000Y12700000D03*
D18*
%TO.P,R13,1*%
%TO.N,Net-(J15-Pad2)*%
X103378000Y12700000D03*
%TD*%
%TO.P,R16,1*%
%TO.N,Net-(J17-Pad3)*%
X-29210000Y-55880000D03*
D26*
%TO.P,R16,2*%
%TO.N,left_sel_inv*%
X-19050000Y-55880000D03*
%TD*%
%TO.P,R19,2*%
%TO.N,left_sel_noninv*%
X-19050000Y-52070000D03*
D18*
%TO.P,R19,1*%
%TO.N,Net-(J17-Pad2)*%
X-29210000Y-52070000D03*
%TD*%
%TO.P,R20,1*%
%TO.N,Net-(J23-Pad3)*%
X-30480000Y55880000D03*
D26*
%TO.P,R20,2*%
%TO.N,right_sel_inv*%
X-20320000Y55880000D03*
%TD*%
%TO.P,R21,2*%
%TO.N,right_sel_noninv*%
X-20320000Y59690000D03*
D18*
%TO.P,R21,1*%
%TO.N,Net-(J23-Pad2)*%
X-30480000Y59690000D03*
%TD*%
D27*
%TO.P,R36,1*%
%TO.N,GNDPWR*%
X152400000Y-60880000D03*
%TO.P,R36,2*%
%TO.N,GNDA*%
X152400000Y-50880000D03*
%TD*%
D18*
%TO.P,R37,1*%
%TO.N,GND*%
X141732000Y-17526000D03*
D26*
%TO.P,R37,2*%
%TO.N,GNDA*%
X141732000Y-27686000D03*
%TD*%
D11*
%TO.P,TP1,1*%
%TO.N,+12V*%
X-85344000Y-6604000D03*
%TD*%
%TO.P,TP2,1*%
%TO.N,+5V*%
X-85090000Y6731000D03*
%TD*%
%TO.P,TP3,1*%
%TO.N,+15V*%
X41275000Y25400000D03*
%TD*%
%TO.P,TP5,1*%
%TO.N,-15V*%
X49530000Y-21082000D03*
%TD*%
%TO.P,TP6,1*%
%TO.N,GNDA*%
X41275000Y-38735000D03*
%TD*%
%TO.P,TP7,1*%
%TO.N,GNDA*%
X-59055000Y36830000D03*
%TD*%
%TO.P,TP8,1*%
%TO.N,GNDA*%
X41275000Y35560000D03*
%TD*%
%TO.P,TP9,1*%
%TO.N,GNDA*%
X-59055000Y-36830000D03*
%TD*%
%TO.P,TP10,1*%
%TO.N,spare_12v_2*%
X95250000Y10160000D03*
%TD*%
%TO.P,TP11,1*%
%TO.N,spare_12v_1*%
X91440000Y10160000D03*
%TD*%
D20*
%TO.P,U1,1*%
%TO.N,Net-(C1-Pad1)*%
X-151130000Y-52705000D03*
D10*
%TO.P,U1,2*%
%TO.N,Net-(J1-Pad2)*%
X-151130000Y-56515000D03*
%TO.P,U1,3*%
%TO.N,Net-(J1-Pad1)*%
X-151130000Y-60325000D03*
%TO.P,U1,4*%
%TO.N,Net-(C19-Pad2)*%
X-151130000Y-64135000D03*
%TD*%
%TO.P,U2,4*%
%TO.N,GND*%
X-151130000Y-46355000D03*
%TO.P,U2,3*%
%TO.N,Net-(J2-Pad1)*%
X-151130000Y-42545000D03*
%TO.P,U2,2*%
%TO.N,Net-(J2-Pad2)*%
X-151130000Y-38735000D03*
D20*
%TO.P,U2,1*%
%TO.N,/power/5v_rectified*%
X-151130000Y-34925000D03*
%TD*%
D28*
%TO.P,U3,1*%
%TO.N,GND*%
X-111379000Y-18034000D03*
D29*
%TO.P,U3,2*%
%TO.N,Net-(C19-Pad2)*%
X-108839000Y-18034000D03*
%TO.P,U3,3*%
%TO.N,Net-(C30-Pad2)*%
X-106299000Y-18034000D03*
%TD*%
%TO.P,U4,3*%
%TO.N,+12V*%
X-106934000Y-6604000D03*
%TO.P,U4,2*%
%TO.N,GND*%
X-109474000Y-6604000D03*
D28*
%TO.P,U4,1*%
%TO.N,Net-(C1-Pad1)*%
X-112014000Y-6604000D03*
%TD*%
D29*
%TO.P,U5,3*%
%TO.N,Net-(C32-Pad1)*%
X-106680000Y17272000D03*
%TO.P,U5,2*%
%TO.N,GND*%
X-109220000Y17272000D03*
D28*
%TO.P,U5,1*%
%TO.N,Net-(C1-Pad1)*%
X-111760000Y17272000D03*
%TD*%
%TO.P,U6,1*%
%TO.N,/power/5v_rectified*%
X-111760000Y6731000D03*
D29*
%TO.P,U6,2*%
%TO.N,GND*%
X-109220000Y6731000D03*
%TO.P,U6,3*%
%TO.N,+5V*%
X-106680000Y6731000D03*
%TD*%
D21*
%TO.P,U10,1*%
%TO.N,GND*%
X109220000Y3810000D03*
D22*
%TO.P,U10,9*%
%TO.N,/relays/sel5_set*%
X91440000Y-3810000D03*
%TO.P,U10,2*%
%TO.N,Net-(Q6-Pad3)*%
X106680000Y3810000D03*
%TO.P,U10,10*%
%TO.N,/relays/sel4_reset*%
X93980000Y-3810000D03*
%TO.P,U10,3*%
%TO.N,Net-(Q7-Pad3)*%
X104140000Y3810000D03*
%TO.P,U10,11*%
%TO.N,/relays/sel4_set*%
X96520000Y-3810000D03*
%TO.P,U10,4*%
%TO.N,Net-(Q8-Pad3)*%
X101600000Y3810000D03*
%TO.P,U10,12*%
%TO.N,/relays/sel3_reset*%
X99060000Y-3810000D03*
%TO.P,U10,5*%
%TO.N,spare_12v_3*%
X99060000Y3810000D03*
%TO.P,U10,13*%
%TO.N,+12V*%
X101600000Y-3810000D03*
%TO.P,U10,6*%
%TO.N,spare_12v_2*%
X96520000Y3810000D03*
%TO.P,U10,14*%
%TO.N,Net-(U10-Pad14)*%
X104140000Y-3810000D03*
%TO.P,U10,7*%
%TO.N,spare_12v_1*%
X93980000Y3810000D03*
%TO.P,U10,15*%
%TO.N,+5V*%
X106680000Y-3810000D03*
%TO.P,U10,8*%
%TO.N,/relays/sel5_reset*%
X91440000Y3810000D03*
%TO.P,U10,16*%
%TO.N,Net-(U10-Pad16)*%
X109220000Y-3810000D03*
%TD*%
%TO.P,U11,16*%
%TO.N,Net-(U11-Pad16)*%
X132588000Y-3810000D03*
%TO.P,U11,8*%
%TO.N,/relays/sel1_reset*%
X114808000Y3810000D03*
%TO.P,U11,15*%
%TO.N,+5V*%
X130048000Y-3810000D03*
%TO.P,U11,7*%
%TO.N,/relays/sel2_set*%
X117348000Y3810000D03*
%TO.P,U11,14*%
%TO.N,Net-(U11-Pad14)*%
X127508000Y-3810000D03*
%TO.P,U11,6*%
%TO.N,/relays/sel2_reset*%
X119888000Y3810000D03*
%TO.P,U11,13*%
%TO.N,+12V*%
X124968000Y-3810000D03*
%TO.P,U11,5*%
%TO.N,/relays/sel3_set*%
X122428000Y3810000D03*
%TO.P,U11,12*%
%TO.N,/relays/filament_relay*%
X122428000Y-3810000D03*
%TO.P,U11,4*%
%TO.N,Net-(Q8-Pad3)*%
X124968000Y3810000D03*
%TO.P,U11,11*%
%TO.N,/relays/bplus_relay*%
X119888000Y-3810000D03*
%TO.P,U11,3*%
%TO.N,Net-(U10-Pad16)*%
X127508000Y3810000D03*
%TO.P,U11,10*%
%TO.N,/relays/mute_relay*%
X117348000Y-3810000D03*
%TO.P,U11,2*%
%TO.N,Net-(Q6-Pad3)*%
X130048000Y3810000D03*
%TO.P,U11,9*%
%TO.N,/relays/sel1_set*%
X114808000Y-3810000D03*
D21*
%TO.P,U11,1*%
%TO.N,GND*%
X132588000Y3810000D03*
%TD*%
%TO.P,C35,2*%
%TO.N,GND*%
%TA.AperFunction,SMDPad,CuDef*%
G36*
G01*
X129553000Y-8499000D02*
X129553000Y-7249000D01*
G75*
G02*
X129803000Y-6999000I250000J0D01*
G01*
X130728000Y-6999000D01*
G75*
G02*
X130978000Y-7249000I0J-250000D01*
G01*
X130978000Y-8499000D01*
G75*
G02*
X130728000Y-8749000I-250000J0D01*
G01*
X129803000Y-8749000D01*
G75*
G02*
X129553000Y-8499000I0J250000D01*
G01*
G37*
%TD.AperFunction*%
%TO.P,C35,1*%
%TO.N,+12V*%
%TA.AperFunction,SMDPad,CuDef*%
G36*
G01*
X126578000Y-8499000D02*
X126578000Y-7249000D01*
G75*
G02*
X126828000Y-6999000I250000J0D01*
G01*
X127753000Y-6999000D01*
G75*
G02*
X128003000Y-7249000I0J-250000D01*
G01*
X128003000Y-8499000D01*
G75*
G02*
X127753000Y-8749000I-250000J0D01*
G01*
X126828000Y-8749000D01*
G75*
G02*
X126578000Y-8499000I0J250000D01*
G01*
G37*
%TD.AperFunction*%
%TD*%
%TO.P,C36,1*%
%TO.N,+12V*%
%TA.AperFunction,SMDPad,CuDef*%
G36*
G01*
X100975000Y-6436000D02*
X102225000Y-6436000D01*
G75*
G02*
X102475000Y-6686000I0J-250000D01*
G01*
X102475000Y-7611000D01*
G75*
G02*
X102225000Y-7861000I-250000J0D01*
G01*
X100975000Y-7861000D01*
G75*
G02*
X100725000Y-7611000I0J250000D01*
G01*
X100725000Y-6686000D01*
G75*
G02*
X100975000Y-6436000I250000J0D01*
G01*
G37*
%TD.AperFunction*%
%TO.P,C36,2*%
%TO.N,GND*%
%TA.AperFunction,SMDPad,CuDef*%
G36*
G01*
X100975000Y-9411000D02*
X102225000Y-9411000D01*
G75*
G02*
X102475000Y-9661000I0J-250000D01*
G01*
X102475000Y-10586000D01*
G75*
G02*
X102225000Y-10836000I-250000J0D01*
G01*
X100975000Y-10836000D01*
G75*
G02*
X100725000Y-10586000I0J250000D01*
G01*
X100725000Y-9661000D01*
G75*
G02*
X100975000Y-9411000I250000J0D01*
G01*
G37*
%TD.AperFunction*%
%TD*%
D30*
%TO.N,GND*%
X-127889000Y56769000D03*
X-145796000Y44450000D03*
%TO.N,+12V*%
X-121412000Y-9652000D03*
%TO.N,Net-(C1-Pad1)*%
X-146812000Y-2286000D03*
X-146812000Y20320000D03*
%TO.N,GND*%
X-132842000Y-36576000D03*
X-138684000Y-45212000D03*
X-126238000Y-45466000D03*
X-115062000Y3810000D03*
X69850000Y5842000D03*
X74168000Y5842000D03*
X76962000Y5842000D03*
X76200000Y-4318000D03*
X69850000Y-4318000D03*
X67056000Y-4318000D03*
X64262000Y-4318000D03*
X112268000Y-58420000D03*
X114808000Y-58420000D03*
X114554000Y-20574000D03*
X112268000Y-20574000D03*
X109728000Y19304000D03*
X112268000Y19304000D03*
X109728000Y51308000D03*
X112268000Y51308000D03*
X-99568000Y3810000D03*
X-134112000Y-47244000D03*
X-131572000Y-47244000D03*
X-98806000Y-15240000D03*
X-118364000Y-17526000D03*
X-119380000Y19812000D03*
X-119888000Y-3810000D03*
X-99060000Y19812000D03*
X-99314000Y-3810000D03*
X-116840000Y-43434000D03*
X-119634000Y60452000D03*
X132080000Y-7874000D03*
X106680000Y-11684000D03*
X101600000Y-11684000D03*
%TO.N,/power/5v_rectified*%
X-128905000Y-34925000D03*
X-151130000Y8636000D03*
%TO.N,-15V*%
X63246000Y-25400000D03*
X82550000Y25908000D03*
X83566000Y12192000D03*
X86106000Y12192000D03*
X83820000Y-12446000D03*
X86360000Y-12446000D03*
%TO.N,+12V*%
X124206000Y-6604000D03*
X-121412000Y-25654000D03*
%TO.N,+15V*%
X73406000Y-9906000D03*
X71374000Y12192000D03*
X81026000Y-9906000D03*
%TO.N,+5V*%
X-63754000Y14478000D03*
X-63500000Y8636000D03*
X-63500000Y4572000D03*
X58674000Y13462000D03*
X60960000Y8128000D03*
X52578000Y8128000D03*
X44450000Y8128000D03*
X-154686000Y-26924000D03*
X-154686000Y12700000D03*
X-149569500Y59653500D03*
X-149606000Y54610000D03*
X79502000Y5842000D03*
X82550000Y-21082000D03*
X-153670000Y44323000D03*
%TO.N,GND*%
X-83566000Y14351000D03*
X-56769000Y13843000D03*
X37846000Y8128000D03*
X37846000Y635000D03*
%TO.N,+3V3*%
X-135128000Y-36576000D03*
X-75692000Y14224000D03*
X-75692000Y8636000D03*
X-75692000Y2540000D03*
X-135128000Y29464000D03*
X-135128000Y56896000D03*
X-135128000Y51054000D03*
X-135128000Y14478000D03*
X60706000Y762000D03*
X52324000Y508000D03*
X44450000Y508000D03*
X-135128000Y-23368000D03*
%TO.N,GNDA*%
X63246000Y-20320000D03*
X76962000Y-23114000D03*
X74676000Y-23114000D03*
X72390000Y-23114000D03*
X70104000Y-23114000D03*
X67818000Y-23114000D03*
X76962000Y23114000D03*
X74676000Y23114000D03*
X72390000Y23114000D03*
X70104000Y23114000D03*
X67818000Y23114000D03*
X82296000Y17018000D03*
X-108966000Y53594000D03*
X-105156000Y53594000D03*
X-108966000Y46228000D03*
X-104648000Y46228000D03*
X132080000Y67564000D03*
X132080000Y63500000D03*
X144018000Y-38608000D03*
X144018000Y-44196000D03*
X-106426000Y-54610000D03*
X-106426000Y-56388000D03*
X-106426000Y-58166000D03*
X-106426000Y-60198000D03*
%TO.N,left_sel_noninv*%
X71374000Y-20066000D03*
%TO.N,left_sel_inv*%
X73406000Y-20066000D03*
%TO.N,right_sel_noninv*%
X73406000Y20828000D03*
%TO.N,right_sel_inv*%
X71374000Y19812000D03*
%TO.N,/controls/operate_switch*%
X-172974000Y-6604000D03*
X-172974000Y60960000D03*
%TO.N,/controls/mute_switch*%
X-157480000Y50038000D03*
X-157988000Y-6604000D03*
%TO.N,/controls/sel_enc_2*%
X-173990000Y-4318000D03*
X-174244000Y51562000D03*
%TO.N,/controls/sel_enc_1*%
X-159766000Y60960000D03*
X-159766000Y-4064000D03*
%TO.N,/controls/vol_enc_1*%
X-160020000Y46990000D03*
X-161290000Y1016000D03*
%TO.N,/controls/vol_enc_2*%
X-162814000Y1778000D03*
%TO.N,relay_spi_strobe*%
X-84836000Y1778000D03*
X-161798000Y-9906000D03*
%TO.N,relay_spi_data*%
X-84836000Y3556000D03*
X-161544000Y-8128000D03*
%TO.N,relay_spi_clock*%
X-162814000Y-11684000D03*
X-84836000Y-254000D03*
%TO.N,i2c1_scl*%
X-164592000Y-9144000D03*
X-143764000Y60706000D03*
X-143764000Y25654000D03*
X-164592000Y24130000D03*
%TO.N,i2c1_sda*%
X-171704000Y-9144000D03*
X-140970000Y54864000D03*
X-140970000Y23876000D03*
%TO.N,/relays/filament_relay*%
X143256000Y0D03*
X143256000Y-13462000D03*
X122428000Y-13462000D03*
%TO.N,/relays/mute_relay*%
X116840000Y-62484000D03*
X-24384000Y-61468000D03*
%TO.N,/relays/bplus_relay*%
X119888000Y-15240000D03*
%TO.N,/relays/sel1_reset*%
X114808000Y9398000D03*
X127508000Y9398000D03*
X113284000Y-12192000D03*
X135890000Y-12192000D03*
%TO.N,/relays/sel1_set*%
X138430000Y-18288000D03*
X114808000Y-18288000D03*
%TO.N,/relays/sel2_set*%
X117348000Y7874000D03*
X105664000Y7874000D03*
X116078000Y-16764000D03*
X106680000Y-16764000D03*
%TO.N,/relays/sel2_reset*%
X114799999Y62729999D03*
X118762990Y-24274990D03*
X104140000Y-24384000D03*
%TO.N,/relays/sel3_reset*%
X79248000Y-48768000D03*
X79248000Y-24638000D03*
X99060000Y-24638000D03*
X100330000Y48768000D03*
X70896001Y48768000D03*
%TO.N,/relays/sel3_set*%
X130302000Y49784000D03*
X81026000Y59690000D03*
X81026000Y49784000D03*
X80772000Y-49530000D03*
X80772000Y-25908000D03*
X121158000Y-25908000D03*
%TO.N,/relays/sel4_set*%
X97790000Y47498000D03*
X43942000Y47498000D03*
%TO.N,/relays/sel4_reset*%
X26416000Y-9144000D03*
X30226000Y-9144000D03*
%TO.N,/relays/sel5_reset*%
X96774000Y46228000D03*
X6604000Y46228000D03*
%TO.N,/relays/sel5_set*%
X11430000Y-6858000D03*
X30226000Y-6858000D03*
%TO.N,/volume/vol_clock_5v*%
X69850000Y4064000D03*
X68072000Y11938000D03*
%TO.N,/volume/vol_data_5v*%
X72390000Y3048000D03*
X67056000Y13462000D03*
%TO.N,Net-(Q6-Pad3)*%
X88392000Y-1524000D03*
X41402000Y-3302000D03*
%TO.N,Net-(Q7-Pad3)*%
X90932000Y-508000D03*
X42418000Y-2286000D03*
%TO.N,Net-(Q8-Pad3)*%
X88392000Y508000D03*
X32766000Y-1270000D03*
%TO.N,Net-(U10-Pad16)*%
X127508000Y-1016000D03*
X109220000Y-1778000D03*
%TO.N,Net-(C19-Pad2)*%
X-143256000Y-20828000D03*
%TD*%
D31*
%TO.N,/relays/sel4_set*%
X97790000Y2286000D02*
X97790000Y13716000D01*
D32*
%TO.N,Net-(C1-Pad1)*%
X-150241000Y-52705000D02*
X-146812000Y-49276000D01*
X-146812000Y-49276000D02*
X-146812000Y-23040483D01*
X-146812000Y-23040483D02*
X-146812000Y-2286000D01*
D33*
X-146812000Y-2286000D02*
X-146812000Y-2286000D01*
D32*
X-146812000Y-2286000D02*
X-146812000Y20320000D01*
D33*
X-146812000Y20320000D02*
X-146812000Y20320000D01*
%TO.N,GND*%
X133059500Y3338500D02*
X132588000Y3810000D01*
X133059500Y0D02*
X133059500Y3338500D01*
X109691500Y3338500D02*
X109220000Y3810000D01*
D34*
X-90678000Y60452000D02*
X-119634000Y60452000D01*
X-87630000Y57404000D02*
X-90678000Y60452000D01*
D33*
X130265500Y-7874000D02*
X132080000Y-7874000D01*
X132080000Y-7874000D02*
X132080000Y-7874000D01*
X101600000Y-10123500D02*
X101600000Y-11684000D01*
X106680000Y-10123500D02*
X106680000Y-11684000D01*
X106680000Y-11684000D02*
X106680000Y-11684000D01*
X101600000Y-11684000D02*
X101600000Y-11684000D01*
D31*
%TO.N,/power/5v_rectified*%
X-128905000Y-34925000D02*
X-128778000Y-34798000D01*
X-128905000Y-34925000D02*
X-128905000Y-34925000D01*
D32*
X-151130000Y-34925000D02*
X-151130000Y8636000D01*
D33*
X-151130000Y8636000D02*
X-151130000Y8636000D01*
%TO.N,+12V*%
X127290500Y-7874000D02*
X125476000Y-7874000D01*
X125476000Y-7874000D02*
X124206000Y-6604000D01*
X124206000Y-6604000D02*
X124206000Y-6604000D01*
X101600000Y-3810000D02*
X101600000Y-7148500D01*
D34*
X-121412000Y-9652000D02*
X-121412000Y-25654000D01*
%TO.N,+15V*%
X73406000Y-9906000D02*
X81026000Y-9906000D01*
D33*
%TO.N,+5V*%
X-106764788Y6731000D02*
X-106680000Y6731000D01*
X130084500Y-3773500D02*
X130048000Y-3810000D01*
X130084500Y0D02*
X130084500Y-3773500D01*
X-86995000Y8636000D02*
X-85090000Y6731000D01*
D32*
X-93345000Y8636000D02*
X-86995000Y8636000D01*
D33*
X106716500Y-3773500D02*
X106680000Y-3810000D01*
D32*
X-153670000Y40640000D02*
X-153670000Y44323000D01*
X-154686000Y39624000D02*
X-153670000Y40640000D01*
X-154686000Y-26924000D02*
X-154686000Y12700000D01*
X-154686000Y12700000D02*
X-154686000Y39624000D01*
D33*
X-153670000Y48260000D02*
X-152146000Y48260000D01*
X-149606000Y50800000D02*
X-149606000Y54610000D01*
X-152146000Y48260000D02*
X-149606000Y50800000D01*
X-149569500Y54646500D02*
X-149606000Y54610000D01*
X-149569500Y59653500D02*
X-149569500Y54646500D01*
X106680000Y-3810000D02*
X106680000Y-7148500D01*
D32*
X-153670000Y44323000D02*
X-153670000Y48260000D01*
D34*
%TO.N,+3V3*%
X-135128000Y-36576000D02*
X-135128000Y-30734000D01*
D32*
X-135128000Y-30734000D02*
X-135128000Y-23368000D01*
D33*
X-135128000Y29464000D02*
X-135128000Y29464000D01*
D32*
X-135128000Y29464000D02*
X-135128000Y51054000D01*
D33*
X-135128000Y56896000D02*
X-135128000Y56896000D01*
D32*
X-135128000Y51054000D02*
X-135128000Y56896000D01*
X-135128000Y14478000D02*
X-135128000Y29464000D01*
X-135128000Y-23368000D02*
X-135128000Y14478000D01*
D33*
%TO.N,left_sel_noninv*%
X71374000Y-20066000D02*
X71374000Y-24130000D01*
X67310000Y-28194000D02*
X67310000Y-52070000D01*
X71374000Y-24130000D02*
X67310000Y-28194000D01*
%TO.N,left_sel_inv*%
X73406000Y-20066000D02*
X73406000Y-24638000D01*
X73406000Y-24638000D02*
X69088000Y-28956000D01*
X69088000Y-57912000D02*
X67310000Y-59690000D01*
X69088000Y-28956000D02*
X69088000Y-57912000D01*
%TO.N,right_sel_noninv*%
X69088000Y46736000D02*
X69088000Y57912000D01*
X66548000Y44196000D02*
X69088000Y46736000D01*
X69088000Y57912000D02*
X67310000Y59690000D01*
X73406000Y20828000D02*
X72644000Y21590000D01*
X66548000Y22352000D02*
X66548000Y44196000D01*
X67310000Y21590000D02*
X66548000Y22352000D01*
X72644000Y21590000D02*
X67310000Y21590000D01*
%TO.N,right_sel_inv*%
X67310000Y48260000D02*
X67310000Y52070000D01*
X71374000Y19812000D02*
X70358000Y20828000D01*
X65024000Y22352000D02*
X65024000Y45974000D01*
X70358000Y20828000D02*
X66548000Y20828000D01*
X65024000Y45974000D02*
X67310000Y48260000D01*
X66548000Y20828000D02*
X65024000Y22352000D01*
%TO.N,/controls/operate_switch*%
X-172974000Y60960000D02*
X-172974000Y-6604000D01*
%TO.N,/controls/mute_switch*%
X-157480000Y-6096000D02*
X-157988000Y-6604000D01*
X-157480000Y50038000D02*
X-157480000Y-6096000D01*
%TO.N,/controls/sel_enc_2*%
X-174244000Y-4064000D02*
X-173990000Y-4318000D01*
X-174244000Y51562000D02*
X-174244000Y-4064000D01*
%TO.N,/controls/sel_enc_1*%
X-159766000Y60960000D02*
X-159766000Y59182000D01*
X-159169999Y-3467999D02*
X-159766000Y-4064000D01*
X-159169999Y58585999D02*
X-159169999Y-3467999D01*
X-159766000Y59182000D02*
X-159169999Y58585999D01*
%TO.N,/controls/vol_enc_1*%
X-161290000Y1016000D02*
X-161290000Y38354000D01*
X-160020000Y39624000D02*
X-160020000Y46990000D01*
X-161290000Y38354000D02*
X-160020000Y39624000D01*
%TO.N,/controls/vol_enc_2*%
X-162814000Y41656000D02*
X-162560000Y41910000D01*
X-162814000Y1778000D02*
X-162814000Y41656000D01*
%TO.N,i2c1_scl*%
X-143764000Y60706000D02*
X-143764000Y25654000D01*
X-143764000Y25654000D02*
X-143764000Y25654000D01*
X-164592000Y24130000D02*
X-164592000Y-9144000D01*
%TO.N,i2c1_sda*%
X-140970000Y54864000D02*
X-140970000Y23876000D01*
X-140970000Y23876000D02*
X-140970000Y23876000D01*
X-171704000Y20066000D02*
X-170180000Y21590000D01*
X-171704000Y-9144000D02*
X-171704000Y20066000D01*
%TO.N,left_amp_out_noninv*%
X-90678000Y-34290000D02*
X-90678000Y-50038000D01*
X-94488000Y-30480000D02*
X-90678000Y-34290000D01*
X-94488000Y-25908000D02*
X-94488000Y-30480000D01*
X-92075000Y-23495000D02*
X-94488000Y-25908000D01*
X-90678000Y-50038000D02*
X-94615000Y-53975000D01*
X-91440000Y-23495000D02*
X-92075000Y-23495000D01*
%TO.N,left_amp_out_inv*%
X-93472000Y-29972000D02*
X-89662000Y-33782000D01*
X-89662000Y-51308000D02*
X-86995000Y-53975000D01*
X-93472000Y-28227000D02*
X-93472000Y-29972000D01*
X-89662000Y-33782000D02*
X-89662000Y-51308000D01*
X-91440000Y-26195000D02*
X-93472000Y-28227000D01*
D34*
%TO.N,right_amp_out_noninv*%
X-95250000Y49530000D02*
X-95010010Y49290010D01*
D33*
X-92710000Y39530000D02*
X-91440000Y38260000D01*
X-92710000Y47752000D02*
X-92710000Y39530000D01*
X-94488000Y49530000D02*
X-92710000Y47752000D01*
X-95250000Y49530000D02*
X-94488000Y49530000D01*
%TO.N,right_amp_out_inv*%
X-87630000Y49530000D02*
X-89662000Y49530000D01*
X-89662000Y49530000D02*
X-91694000Y47498000D01*
X-91694000Y47498000D02*
X-91694000Y41910000D01*
X-91694000Y41910000D02*
X-89154000Y39370000D01*
X-89154000Y39370000D02*
X-89154000Y37338000D01*
X-90932000Y35560000D02*
X-91440000Y35560000D01*
X-89154000Y37338000D02*
X-90932000Y35560000D01*
%TO.N,spare_12v_3*%
X99060000Y3810000D02*
X99060000Y10160000D01*
%TO.N,Net-(J30-Pad1)*%
X-2350000Y-38330000D02*
X-2350000Y-42355000D01*
X-6350000Y-46355000D02*
X-6350000Y-52070000D01*
X-2350000Y-42355000D02*
X-6350000Y-46355000D01*
X-6350000Y-52070000D02*
X-4445000Y-53975000D01*
X-4445000Y-64135000D02*
X-6350000Y-66040000D01*
X-4445000Y-53975000D02*
X-4445000Y-64135000D01*
%TO.N,Net-(J31-Pad1)*%
X92900000Y-38330000D02*
X92900000Y-41720000D01*
X88900000Y-45720000D02*
X88900000Y-52070000D01*
X92900000Y-41720000D02*
X88900000Y-45720000D01*
X88900000Y-52070000D02*
X90805000Y-53975000D01*
X90805000Y-64135000D02*
X88900000Y-66040000D01*
X90805000Y-53975000D02*
X90805000Y-64135000D01*
%TO.N,Net-(J32-Pad1)*%
X61150000Y-38330000D02*
X61150000Y-41720000D01*
X57150000Y-45720000D02*
X57150000Y-52070000D01*
X61150000Y-41720000D02*
X57150000Y-45720000D01*
X57150000Y-52070000D02*
X59055000Y-53975000D01*
X59055000Y-64135000D02*
X57150000Y-66040000D01*
X59055000Y-53975000D02*
X59055000Y-64135000D01*
%TO.N,Net-(J33-Pad1)*%
X29400000Y-38330000D02*
X29400000Y-42990000D01*
X25400000Y-46990000D02*
X25400000Y-52070000D01*
X29400000Y-42990000D02*
X25400000Y-46990000D01*
X25400000Y-52070000D02*
X27305000Y-53975000D01*
X27305000Y-64135000D02*
X25400000Y-66040000D01*
X27305000Y-53975000D02*
X27305000Y-64135000D01*
%TO.N,Net-(J34-Pad1)*%
X124650000Y-38330000D02*
X124650000Y-41720000D01*
X120650000Y-45720000D02*
X120650000Y-52070000D01*
X124650000Y-41720000D02*
X120650000Y-45720000D01*
X120650000Y-52070000D02*
X122555000Y-53975000D01*
X122555000Y-64135000D02*
X120650000Y-66040000D01*
X122555000Y-53975000D02*
X122555000Y-64135000D01*
%TO.N,Net-(J35-Pad3)*%
X120650000Y-41830000D02*
X118110000Y-44370000D01*
X118110000Y-57150000D02*
X120650000Y-59690000D01*
X118110000Y-44370000D02*
X118110000Y-57150000D01*
%TO.N,Net-(J36-Pad3)*%
X88900000Y-41830000D02*
X85725000Y-45005000D01*
X85725000Y-56515000D02*
X88900000Y-59690000D01*
X85725000Y-45005000D02*
X85725000Y-56515000D01*
%TO.N,Net-(J37-Pad3)*%
X57150000Y-41830000D02*
X54610000Y-44370000D01*
X54610000Y-57150000D02*
X57150000Y-59690000D01*
X54610000Y-44370000D02*
X54610000Y-57150000D01*
%TO.N,Net-(J38-Pad3)*%
X25400000Y-41830000D02*
X22860000Y-44370000D01*
X22860000Y-57150000D02*
X25400000Y-59690000D01*
X22860000Y-44370000D02*
X22860000Y-57150000D01*
%TO.N,Net-(J39-Pad3)*%
X-6350000Y-41830000D02*
X-9525000Y-45005000D01*
X-9525000Y-56515000D02*
X-6350000Y-59690000D01*
X-9525000Y-45005000D02*
X-9525000Y-56515000D01*
D31*
%TO.N,Net-(J40-Pad3)*%
X120650000Y52070000D02*
X120650000Y50800000D01*
D33*
X120650000Y50800000D02*
X122555000Y48895000D01*
X122555000Y48895000D02*
X122555000Y36830000D01*
X122555000Y36830000D02*
X120650000Y34925000D01*
X120650000Y34925000D02*
X120650000Y31830000D01*
%TO.N,Net-(J40-Pad2)*%
X120650000Y66040000D02*
X120650000Y59690000D01*
D31*
X123825000Y36155000D02*
X124650000Y35330000D01*
D33*
X123825000Y56515000D02*
X123825000Y36155000D01*
X120650000Y59690000D02*
X123825000Y56515000D01*
%TO.N,Net-(J41-Pad2)*%
X88900000Y66040000D02*
X88900000Y59690000D01*
X92075000Y55880000D02*
X92075000Y36155000D01*
X88900000Y59055000D02*
X92075000Y55880000D01*
D31*
X92075000Y36155000D02*
X92900000Y35330000D01*
X88900000Y59690000D02*
X88900000Y59055000D01*
%TO.N,Net-(J41-Pad3)*%
X88900000Y52070000D02*
X88900000Y51435000D01*
D33*
X88900000Y51435000D02*
X90805000Y49530000D01*
X90805000Y49530000D02*
X90805000Y37465000D01*
X88900000Y35560000D02*
X88900000Y31830000D01*
X90805000Y37465000D02*
X88900000Y35560000D01*
%TO.N,Net-(J42-Pad3)*%
X57150000Y34290000D02*
X57150000Y31830000D01*
X59055000Y36195000D02*
X57150000Y34290000D01*
X59055000Y50165000D02*
X59055000Y36195000D01*
X57150000Y52070000D02*
X59055000Y50165000D01*
%TO.N,Net-(J42-Pad2)*%
X57150000Y66040000D02*
X57150000Y59690000D01*
X57150000Y59690000D02*
X60325000Y56515000D01*
D31*
X60325000Y36155000D02*
X61150000Y35330000D01*
D33*
X60325000Y56515000D02*
X60325000Y36155000D01*
%TO.N,Net-(J43-Pad3)*%
X25400000Y35560000D02*
X25400000Y31830000D01*
X27305000Y49530000D02*
X27305000Y37465000D01*
X25400000Y51435000D02*
X27305000Y49530000D01*
X27305000Y37465000D02*
X25400000Y35560000D01*
D31*
X25400000Y52070000D02*
X25400000Y51435000D01*
D33*
%TO.N,Net-(J43-Pad2)*%
X25400000Y66040000D02*
X25400000Y59690000D01*
X25400000Y59690000D02*
X28575000Y56515000D01*
D31*
X28575000Y36155000D02*
X29400000Y35330000D01*
D33*
X28575000Y56515000D02*
X28575000Y36155000D01*
%TO.N,Net-(J44-Pad2)*%
X-6350000Y66040000D02*
X-6350000Y59690000D01*
X-6350000Y59690000D02*
X-3175000Y56515000D01*
D31*
X-3175000Y36155000D02*
X-2350000Y35330000D01*
D33*
X-3175000Y56515000D02*
X-3175000Y36155000D01*
%TO.N,Net-(J44-Pad3)*%
X-6350000Y52070000D02*
X-4445000Y50165000D01*
X-4445000Y50165000D02*
X-4445000Y36830000D01*
X-6350000Y34925000D02*
X-6350000Y31830000D01*
X-4445000Y36830000D02*
X-6350000Y34925000D01*
%TO.N,/relays/filament_relay*%
X143256000Y0D02*
X143256000Y-13462000D01*
X122428000Y-3810000D02*
X122428000Y-13462000D01*
%TO.N,/relays/mute_relay*%
X117348000Y-3810000D02*
X117348000Y-34036000D01*
X117348000Y-34036000D02*
X117348000Y-34544000D01*
X117348000Y-34544000D02*
X119380000Y-36576000D01*
X119380000Y-36576000D02*
X119380000Y-39370000D01*
X119380000Y-39370000D02*
X116840000Y-41910000D01*
X116840000Y-41910000D02*
X116840000Y-62484000D01*
D31*
X116840000Y-62484000D02*
X116840000Y-62484000D01*
D33*
X-97790000Y57150000D02*
X-95250000Y57150000D01*
X-96520000Y43180000D02*
X-99822000Y46482000D01*
X-96520000Y-34544000D02*
X-96520000Y43180000D01*
X-99822000Y46482000D02*
X-99822000Y55118000D01*
X-99822000Y55118000D02*
X-97790000Y57150000D01*
X-94615000Y-36449000D02*
X-96520000Y-34544000D01*
X-94615000Y-46355000D02*
X-94615000Y-36449000D01*
X-24384000Y-61468000D02*
X-67056000Y-61468000D01*
X-67056000Y-61468000D02*
X-68326000Y-60198000D01*
X-68326000Y-60198000D02*
X-95504000Y-60198000D01*
X-95504000Y-60198000D02*
X-97536000Y-58166000D01*
X-97536000Y-58166000D02*
X-97536000Y-47244000D01*
X-96647000Y-46355000D02*
X-94615000Y-46355000D01*
X-97536000Y-47244000D02*
X-96647000Y-46355000D01*
%TO.N,/relays/bplus_relay*%
X119888000Y-3810000D02*
X119888000Y-15240000D01*
D31*
X119888000Y-15240000D02*
X119888000Y-15240000D01*
D33*
%TO.N,/relays/sel1_reset*%
X114808000Y3810000D02*
X114808000Y9398000D01*
X114808000Y9398000D02*
X114808000Y9398000D01*
X127508000Y9398000D02*
X127508000Y25400000D01*
X127508000Y25400000D02*
X133350000Y31242000D01*
X133350000Y57150000D02*
X135890000Y59690000D01*
X133350000Y31242000D02*
X133350000Y57150000D01*
X114808000Y3810000D02*
X113284000Y2286000D01*
X113284000Y2286000D02*
X113284000Y-12192000D01*
D31*
X113284000Y-12192000D02*
X113284000Y-12192000D01*
D33*
X135890000Y-52070000D02*
X135890000Y-12192000D01*
D31*
X135890000Y-12192000D02*
X135890000Y-12192000D01*
D33*
%TO.N,/relays/sel1_set*%
X138430000Y-52070000D02*
X138430000Y-18288000D01*
X138430000Y46736000D02*
X142240000Y50546000D01*
X142240000Y55880000D02*
X138430000Y59690000D01*
X142240000Y50546000D02*
X142240000Y55880000D01*
X138430000Y-18288000D02*
X138430000Y46736000D01*
X114808000Y-3810000D02*
X114808000Y-18288000D01*
%TO.N,/relays/sel2_set*%
X117348000Y3810000D02*
X117348000Y7874000D01*
X117348000Y7874000D02*
X117348000Y7874000D01*
X105429990Y51152229D02*
X105429990Y55645990D01*
X105664000Y50918219D02*
X105429990Y51152229D01*
X105664000Y7874000D02*
X105664000Y50918219D01*
X106680000Y56896000D02*
X106680000Y59690000D01*
X105429990Y55645990D02*
X106680000Y56896000D01*
D31*
X116222990Y2684990D02*
X116222990Y-16619010D01*
X117348000Y3810000D02*
X116222990Y2684990D01*
X116222990Y-16619010D02*
X116078000Y-16764000D01*
D33*
X106680000Y-52070000D02*
X106680000Y-16764000D01*
D31*
X116078000Y-16764000D02*
X116078000Y-16764000D01*
X106680000Y-16764000D02*
X106680000Y-16764000D01*
D33*
%TO.N,/relays/sel2_reset*%
X119888000Y3810000D02*
X119888000Y15240000D01*
X114799999Y20328001D02*
X114799999Y62729999D01*
X119888000Y15240000D02*
X114799999Y20328001D01*
X114799999Y62729999D02*
X114799999Y62729999D01*
D31*
X118762990Y2684990D02*
X118762990Y-24274990D01*
X119888000Y3810000D02*
X118762990Y2684990D01*
X118762990Y-24274990D02*
X118762990Y-24274990D01*
X118762990Y-24274990D02*
X118872000Y-24384000D01*
D33*
X104140000Y-52070000D02*
X104140000Y-24384000D01*
D31*
X104140000Y-24384000D02*
X104140000Y-24384000D01*
D33*
%TO.N,/relays/sel3_reset*%
X79248000Y-48768000D02*
X79248000Y-24638000D01*
D31*
X79248000Y-24638000D02*
X79248000Y-24638000D01*
D33*
X99060000Y-3810000D02*
X99060000Y-24638000D01*
D31*
X99060000Y-24638000D02*
X99060000Y-24638000D01*
D33*
X99060000Y-3810000D02*
X99060000Y-2794000D01*
X100330000Y-1524000D02*
X100330000Y2286000D01*
D31*
X100330000Y2286000D02*
X100330000Y2032000D01*
D33*
X99060000Y-2794000D02*
X100330000Y-1524000D01*
D31*
X100330000Y5588000D02*
X100330000Y2286000D01*
D33*
X100360001Y44419999D02*
X100360001Y44419999D01*
X70896001Y58196001D02*
X72390000Y59690000D01*
X100360001Y46197999D02*
X100330000Y46228000D01*
X100360001Y7650001D02*
X100360001Y46197999D01*
X100330000Y7620000D02*
X100360001Y7650001D01*
X100330000Y5588000D02*
X100330000Y7620000D01*
X100360001Y48737999D02*
X100330000Y48768000D01*
X100360001Y46197999D02*
X100360001Y48737999D01*
X70896001Y48768000D02*
X70896001Y58196001D01*
%TO.N,/relays/sel3_set*%
X122428000Y3810000D02*
X122428000Y23114000D01*
X122428000Y23114000D02*
X130302000Y30988000D01*
X130302000Y30988000D02*
X130302000Y46736000D01*
X130302000Y46736000D02*
X130302000Y46736000D01*
D31*
X121302990Y2684990D02*
X121302990Y-21699010D01*
X122428000Y3810000D02*
X121302990Y2684990D01*
X121302990Y-21699010D02*
X121158000Y-21844000D01*
D33*
X80772000Y-49530000D02*
X80772000Y-25908000D01*
D31*
X80772000Y-25908000D02*
X80772000Y-25908000D01*
X121158000Y-21844000D02*
X121158000Y-25908000D01*
X121158000Y-25908000D02*
X121158000Y-25908000D01*
D33*
X130302000Y46736000D02*
X130302000Y49530000D01*
X81026000Y59690000D02*
X81026000Y49784000D01*
%TO.N,/relays/sel4_set*%
X43180000Y-52070000D02*
X43180000Y-51308000D01*
X43180000Y-51308000D02*
X39116000Y-47244000D01*
X39116000Y-47244000D02*
X39116000Y-29718000D01*
X39116000Y-29718000D02*
X27940000Y-18542000D01*
X27940000Y-18542000D02*
X27940000Y1524000D01*
X27940000Y1524000D02*
X39878000Y13462000D01*
X39878000Y13462000D02*
X39878000Y43434000D01*
X39878000Y43434000D02*
X43434000Y46990000D01*
X45974000Y56896000D02*
X43180000Y59690000D01*
X45974000Y49530000D02*
X45974000Y56896000D01*
X96520000Y-3810000D02*
X96520000Y0D01*
X97790000Y1270000D02*
X97790000Y2286000D01*
X96520000Y0D02*
X97790000Y1270000D01*
X97790000Y13716000D02*
X97790000Y47498000D01*
X97790000Y47498000D02*
X97790000Y47498000D01*
X43434000Y46990000D02*
X45974000Y49530000D01*
%TO.N,/relays/sel4_reset*%
X40640000Y59690000D02*
X40640000Y59436000D01*
X38608000Y57404000D02*
X38608000Y14224000D01*
X40640000Y59436000D02*
X38608000Y57404000D01*
X38608000Y14224000D02*
X26416000Y2032000D01*
X26416000Y2032000D02*
X26416000Y-8382000D01*
X26416000Y-19304000D02*
X37338000Y-30226000D01*
X37338000Y-48768000D02*
X40640000Y-52070000D01*
X37338000Y-30226000D02*
X37338000Y-48768000D01*
X26416000Y-8382000D02*
X26416000Y-19304000D01*
X30988000Y-8382000D02*
X30226000Y-9144000D01*
X91948000Y-8382000D02*
X30988000Y-8382000D01*
X93980000Y-6350000D02*
X91948000Y-8382000D01*
X93980000Y-3810000D02*
X93980000Y-6350000D01*
%TO.N,/relays/sel5_reset*%
X6604000Y57404000D02*
X8890000Y59690000D01*
X6604000Y45466000D02*
X6604000Y46228000D01*
X8890000Y43180000D02*
X6604000Y45466000D01*
X8890000Y-52070000D02*
X8890000Y43180000D01*
X96774000Y46228000D02*
X96774000Y46228000D01*
X6604000Y46228000D02*
X6604000Y57404000D01*
X96774000Y18542000D02*
X96774000Y33020000D01*
X96774000Y33020000D02*
X96774000Y46228000D01*
X96774000Y32766000D02*
X96774000Y33020000D01*
X91440000Y3810000D02*
X91440000Y4572000D01*
X91440000Y4572000D02*
X88900000Y7112000D01*
X88900000Y7112000D02*
X88900000Y10668000D01*
X88900000Y10668000D02*
X96774000Y18542000D01*
%TO.N,/relays/sel5_set*%
X14478000Y45974000D02*
X14478000Y56642000D01*
X11430000Y42926000D02*
X14478000Y45974000D01*
X14478000Y56642000D02*
X11430000Y59690000D01*
X11430000Y-52070000D02*
X11430000Y-6858000D01*
X11430000Y-6858000D02*
X11430000Y42926000D01*
X30226000Y-6858000D02*
X88392000Y-6858000D01*
X88392000Y-6858000D02*
X91440000Y-3810000D01*
D31*
%TO.N,/volume/vol_clock_5v*%
X68072000Y5842000D02*
X68834000Y5080000D01*
X68072000Y11938000D02*
X68072000Y5842000D01*
X68834000Y5080000D02*
X69850000Y4064000D01*
%TO.N,/volume/vol_data_5v*%
X69792998Y3048000D02*
X72390000Y3048000D01*
X67056000Y5784998D02*
X69792998Y3048000D01*
X67056000Y13462000D02*
X67056000Y5784998D01*
%TO.N,Net-(Q6-Pad3)*%
X72644000Y-3302000D02*
X43688000Y-3302000D01*
X43688000Y-3302000D02*
X41402000Y-3302000D01*
D33*
X72644000Y-3302000D02*
X73660000Y-3302000D01*
X75438000Y-1524000D02*
X88392000Y-1524000D01*
X73660000Y-3302000D02*
X75438000Y-1524000D01*
D31*
%TO.N,Net-(Q7-Pad3)*%
X72390000Y-2286000D02*
X42418000Y-2286000D01*
X74168000Y-508000D02*
X72390000Y-2286000D01*
D33*
X88392000Y-508000D02*
X74168000Y-508000D01*
X88392000Y-508000D02*
X90932000Y-508000D01*
D31*
%TO.N,Net-(Q8-Pad3)*%
X74168000Y508000D02*
X74930000Y508000D01*
X72390000Y-1270000D02*
X74168000Y508000D01*
X32766000Y-1270000D02*
X72390000Y-1270000D01*
D33*
X74930000Y508000D02*
X88392000Y508000D01*
%TO.N,spare_12v_2*%
X95250000Y10160000D02*
X95250000Y8382000D01*
X96520000Y7112000D02*
X96520000Y3810000D01*
X95250000Y8382000D02*
X96520000Y7112000D01*
%TO.N,spare_12v_1*%
X91440000Y10160000D02*
X91440000Y9398000D01*
X93980000Y6858000D02*
X93980000Y3810000D01*
X91440000Y9398000D02*
X93980000Y6858000D01*
D31*
%TO.N,Net-(U10-Pad16)*%
X127508000Y3810000D02*
X127508000Y-1016000D01*
X109220000Y-3810000D02*
X109220000Y-1778000D01*
D32*
%TO.N,Net-(C19-Pad2)*%
X-151130000Y-64135000D02*
X-147701000Y-64135000D01*
X-147701000Y-64135000D02*
X-143256000Y-59690000D01*
X-143256000Y-52070000D02*
X-143256000Y-20828000D01*
D33*
X-126064000Y-20828000D02*
X-125984000Y-20748000D01*
D34*
X-143256000Y-20828000D02*
X-143256000Y-20828000D01*
D32*
X-143256000Y-52070000D02*
X-143256000Y-59690000D01*
%TD*%
D35*
%TO.N,GND*%
G36*
X114740189Y-19956376D02*
G01*
X114903850Y-20006022D01*
X115054672Y-20086638D01*
X115186870Y-20195130D01*
X115295362Y-20327328D01*
X115375978Y-20478150D01*
X115425624Y-20641811D01*
X115443000Y-20818234D01*
X115443000Y-36097295D01*
X115039131Y-36367151D01*
X114687151Y-36719131D01*
X114410602Y-37133017D01*
X114220111Y-37592901D01*
X114123000Y-38081112D01*
X114123000Y-38578888D01*
X114220111Y-39067099D01*
X114410602Y-39526983D01*
X114687151Y-39940869D01*
X115039131Y-40292849D01*
X115443000Y-40562705D01*
X115443000Y-58683766D01*
X115425624Y-58860189D01*
X115375978Y-59023850D01*
X115295362Y-59174672D01*
X115186870Y-59306870D01*
X115054672Y-59415362D01*
X114903850Y-59495978D01*
X114740189Y-59545624D01*
X114563766Y-59563000D01*
X112258234Y-59563000D01*
X112081811Y-59545624D01*
X111918150Y-59495978D01*
X111767328Y-59415362D01*
X111635130Y-59306870D01*
X111526638Y-59174672D01*
X111446022Y-59023850D01*
X111396376Y-58860189D01*
X111379000Y-58683766D01*
X111379000Y-20818234D01*
X111396376Y-20641811D01*
X111446022Y-20478150D01*
X111526638Y-20327328D01*
X111635130Y-20195130D01*
X111767328Y-20086638D01*
X111918150Y-20006022D01*
X112081811Y-19956376D01*
X112258234Y-19939000D01*
X114563766Y-19939000D01*
X114740189Y-19956376D01*
G37*
X114740189Y-19956376D02*
X114903850Y-20006022D01*
X115054672Y-20086638D01*
X115186870Y-20195130D01*
X115295362Y-20327328D01*
X115375978Y-20478150D01*
X115425624Y-20641811D01*
X115443000Y-20818234D01*
X115443000Y-36097295D01*
X115039131Y-36367151D01*
X114687151Y-36719131D01*
X114410602Y-37133017D01*
X114220111Y-37592901D01*
X114123000Y-38081112D01*
X114123000Y-38578888D01*
X114220111Y-39067099D01*
X114410602Y-39526983D01*
X114687151Y-39940869D01*
X115039131Y-40292849D01*
X115443000Y-40562705D01*
X115443000Y-58683766D01*
X115425624Y-58860189D01*
X115375978Y-59023850D01*
X115295362Y-59174672D01*
X115186870Y-59306870D01*
X115054672Y-59415362D01*
X114903850Y-59495978D01*
X114740189Y-59545624D01*
X114563766Y-59563000D01*
X112258234Y-59563000D01*
X112081811Y-59545624D01*
X111918150Y-59495978D01*
X111767328Y-59415362D01*
X111635130Y-59306870D01*
X111526638Y-59174672D01*
X111446022Y-59023850D01*
X111396376Y-58860189D01*
X111379000Y-58683766D01*
X111379000Y-20818234D01*
X111396376Y-20641811D01*
X111446022Y-20478150D01*
X111526638Y-20327328D01*
X111635130Y-20195130D01*
X111767328Y-20086638D01*
X111918150Y-20006022D01*
X112081811Y-19956376D01*
X112258234Y-19939000D01*
X114563766Y-19939000D01*
X114740189Y-19956376D01*
G36*
X112454189Y52433624D02*
G01*
X112617850Y52383978D01*
X112768672Y52303362D01*
X112900870Y52194870D01*
X113009362Y52062672D01*
X113089978Y51911850D01*
X113139624Y51748189D01*
X113157000Y51571766D01*
X113157000Y19294234D01*
X113139624Y19117811D01*
X113089978Y18954150D01*
X113009362Y18803328D01*
X112900870Y18671130D01*
X112768672Y18562638D01*
X112617850Y18482022D01*
X112454189Y18432376D01*
X112277766Y18415000D01*
X109718234Y18415000D01*
X109541811Y18432376D01*
X109378150Y18482022D01*
X109227328Y18562638D01*
X109095130Y18671130D01*
X108986638Y18803328D01*
X108906022Y18954150D01*
X108856376Y19117811D01*
X108839000Y19294234D01*
X108839000Y51571766D01*
X108856376Y51748189D01*
X108906022Y51911850D01*
X108986638Y52062672D01*
X109095130Y52194870D01*
X109227328Y52303362D01*
X109378150Y52383978D01*
X109541811Y52433624D01*
X109718234Y52451000D01*
X112277766Y52451000D01*
X112454189Y52433624D01*
G37*
X112454189Y52433624D02*
X112617850Y52383978D01*
X112768672Y52303362D01*
X112900870Y52194870D01*
X113009362Y52062672D01*
X113089978Y51911850D01*
X113139624Y51748189D01*
X113157000Y51571766D01*
X113157000Y19294234D01*
X113139624Y19117811D01*
X113089978Y18954150D01*
X113009362Y18803328D01*
X112900870Y18671130D01*
X112768672Y18562638D01*
X112617850Y18482022D01*
X112454189Y18432376D01*
X112277766Y18415000D01*
X109718234Y18415000D01*
X109541811Y18432376D01*
X109378150Y18482022D01*
X109227328Y18562638D01*
X109095130Y18671130D01*
X108986638Y18803328D01*
X108906022Y18954150D01*
X108856376Y19117811D01*
X108839000Y19294234D01*
X108839000Y51571766D01*
X108856376Y51748189D01*
X108906022Y51911850D01*
X108986638Y52062672D01*
X109095130Y52194870D01*
X109227328Y52303362D01*
X109378150Y52383978D01*
X109541811Y52433624D01*
X109718234Y52451000D01*
X112277766Y52451000D01*
X112454189Y52433624D01*
%TO.N,+5V*%
G36*
X-83821601Y15347278D02*
G01*
X-83865565Y15338533D01*
X-84052467Y15261115D01*
X-84220674Y15148723D01*
X-84363723Y15005674D01*
X-84476115Y14837467D01*
X-84553533Y14650565D01*
X-84593000Y14452151D01*
X-84593000Y14249849D01*
X-84553533Y14051435D01*
X-84476115Y13864533D01*
X-84363723Y13696326D01*
X-84220674Y13553277D01*
X-84052467Y13440885D01*
X-83865565Y13363467D01*
X-83667151Y13324000D01*
X-83464849Y13324000D01*
X-83266435Y13363467D01*
X-83079533Y13440885D01*
X-82911326Y13553277D01*
X-82768277Y13696326D01*
X-82655885Y13864533D01*
X-82578467Y14051435D01*
X-82539000Y14249849D01*
X-82539000Y14325151D01*
X-76719000Y14325151D01*
X-76719000Y14122849D01*
X-76679533Y13924435D01*
X-76602115Y13737533D01*
X-76489723Y13569326D01*
X-76346674Y13426277D01*
X-76178467Y13313885D01*
X-75991565Y13236467D01*
X-75793151Y13197000D01*
X-75590849Y13197000D01*
X-75392435Y13236467D01*
X-75205533Y13313885D01*
X-75037326Y13426277D01*
X-74894277Y13569326D01*
X-74781885Y13737533D01*
X-74704467Y13924435D01*
X-74665000Y14122849D01*
X-74665000Y14325151D01*
X-74704467Y14523565D01*
X-74781885Y14710467D01*
X-74894277Y14878674D01*
X-75037326Y15021723D01*
X-75205533Y15134115D01*
X-75392435Y15211533D01*
X-75590849Y15251000D01*
X-75793151Y15251000D01*
X-75991565Y15211533D01*
X-76178467Y15134115D01*
X-76346674Y15021723D01*
X-76489723Y14878674D01*
X-76602115Y14710467D01*
X-76679533Y14523565D01*
X-76719000Y14325151D01*
X-82539000Y14325151D01*
X-82539000Y14452151D01*
X-82578467Y14650565D01*
X-82655885Y14837467D01*
X-82768277Y15005674D01*
X-82911326Y15148723D01*
X-83079533Y15261115D01*
X-83266435Y15338533D01*
X-83297611Y15344734D01*
X-62723973Y15244862D01*
X-62548174Y15226739D01*
X-62385217Y15176604D01*
X-62235131Y15095736D01*
X-62103630Y14987214D01*
X-61995754Y14855196D01*
X-61915613Y14704713D01*
X-61866270Y14541518D01*
X-61849000Y14365625D01*
X-61849000Y2217627D01*
X-61866484Y2040654D01*
X-61916431Y1876541D01*
X-61997524Y1725377D01*
X-62106631Y1593005D01*
X-62239534Y1484540D01*
X-62391092Y1404180D01*
X-62555441Y1355032D01*
X-62732493Y1338407D01*
X-83863978Y1440987D01*
X-83848467Y1478435D01*
X-83809000Y1676849D01*
X-83809000Y1879151D01*
X-83848467Y2077565D01*
X-83925885Y2264467D01*
X-84038277Y2432674D01*
X-84181326Y2575723D01*
X-84279246Y2641151D01*
X-76719000Y2641151D01*
X-76719000Y2438849D01*
X-76679533Y2240435D01*
X-76602115Y2053533D01*
X-76489723Y1885326D01*
X-76346674Y1742277D01*
X-76178467Y1629885D01*
X-75991565Y1552467D01*
X-75793151Y1513000D01*
X-75590849Y1513000D01*
X-75392435Y1552467D01*
X-75205533Y1629885D01*
X-75037326Y1742277D01*
X-74894277Y1885326D01*
X-74781885Y2053533D01*
X-74704467Y2240435D01*
X-74665000Y2438849D01*
X-74665000Y2641151D01*
X-74704467Y2839565D01*
X-74781885Y3026467D01*
X-74894277Y3194674D01*
X-75037326Y3337723D01*
X-75205533Y3450115D01*
X-75392435Y3527533D01*
X-75590849Y3567000D01*
X-75793151Y3567000D01*
X-75991565Y3527533D01*
X-76178467Y3450115D01*
X-76346674Y3337723D01*
X-76489723Y3194674D01*
X-76602115Y3026467D01*
X-76679533Y2839565D01*
X-76719000Y2641151D01*
X-84279246Y2641151D01*
X-84317932Y2667000D01*
X-84181326Y2758277D01*
X-84038277Y2901326D01*
X-83925885Y3069533D01*
X-83848467Y3256435D01*
X-83809000Y3454849D01*
X-83809000Y3657151D01*
X-83848467Y3855565D01*
X-83925885Y4042467D01*
X-84038277Y4210674D01*
X-84181326Y4353723D01*
X-84349533Y4466115D01*
X-84536435Y4543533D01*
X-84734849Y4583000D01*
X-84937151Y4583000D01*
X-85135565Y4543533D01*
X-85322467Y4466115D01*
X-85490674Y4353723D01*
X-85633723Y4210674D01*
X-85746115Y4042467D01*
X-85823533Y3855565D01*
X-85863000Y3657151D01*
X-85863000Y3454849D01*
X-85823533Y3256435D01*
X-85746115Y3069533D01*
X-85633723Y2901326D01*
X-85490674Y2758277D01*
X-85354068Y2667000D01*
X-85490674Y2575723D01*
X-85633723Y2432674D01*
X-85746115Y2264467D01*
X-85823533Y2077565D01*
X-85863000Y1879151D01*
X-85863000Y1676849D01*
X-85823533Y1478435D01*
X-85811938Y1450443D01*
X-86882027Y1455638D01*
X-87057826Y1473761D01*
X-87220783Y1523896D01*
X-87370869Y1604764D01*
X-87502370Y1713286D01*
X-87610246Y1845304D01*
X-87690387Y1995787D01*
X-87739730Y2158982D01*
X-87757000Y2334875D01*
X-87757000Y5881000D01*
X-86578072Y5881000D01*
X-86565812Y5756518D01*
X-86529502Y5636820D01*
X-86470537Y5526506D01*
X-86391185Y5429815D01*
X-86294494Y5350463D01*
X-86184180Y5291498D01*
X-86064482Y5255188D01*
X-85940000Y5242928D01*
X-85375750Y5246000D01*
X-85217000Y5404750D01*
X-85217000Y6604000D01*
X-84963000Y6604000D01*
X-84963000Y5404750D01*
X-84804250Y5246000D01*
X-84240000Y5242928D01*
X-84115518Y5255188D01*
X-83995820Y5291498D01*
X-83885506Y5350463D01*
X-83788815Y5429815D01*
X-83709463Y5526506D01*
X-83650498Y5636820D01*
X-83614188Y5756518D01*
X-83601928Y5881000D01*
X-83605000Y6445250D01*
X-83763750Y6604000D01*
X-84963000Y6604000D01*
X-85217000Y6604000D01*
X-86416250Y6604000D01*
X-86575000Y6445250D01*
X-86578072Y5881000D01*
X-87757000Y5881000D01*
X-87757000Y7581000D01*
X-86578072Y7581000D01*
X-86575000Y7016750D01*
X-86416250Y6858000D01*
X-85217000Y6858000D01*
X-85217000Y8057250D01*
X-84963000Y8057250D01*
X-84963000Y6858000D01*
X-83763750Y6858000D01*
X-83605000Y7016750D01*
X-83601928Y7581000D01*
X-83614188Y7705482D01*
X-83650498Y7825180D01*
X-83709463Y7935494D01*
X-83788815Y8032185D01*
X-83885506Y8111537D01*
X-83995820Y8170502D01*
X-84115518Y8206812D01*
X-84240000Y8219072D01*
X-84804250Y8216000D01*
X-84963000Y8057250D01*
X-85217000Y8057250D01*
X-85375750Y8216000D01*
X-85940000Y8219072D01*
X-86064482Y8206812D01*
X-86184180Y8170502D01*
X-86294494Y8111537D01*
X-86391185Y8032185D01*
X-86470537Y7935494D01*
X-86529502Y7825180D01*
X-86565812Y7705482D01*
X-86578072Y7581000D01*
X-87757000Y7581000D01*
X-87757000Y8737151D01*
X-76719000Y8737151D01*
X-76719000Y8534849D01*
X-76679533Y8336435D01*
X-76602115Y8149533D01*
X-76489723Y7981326D01*
X-76346674Y7838277D01*
X-76178467Y7725885D01*
X-75991565Y7648467D01*
X-75793151Y7609000D01*
X-75590849Y7609000D01*
X-75392435Y7648467D01*
X-75205533Y7725885D01*
X-75037326Y7838277D01*
X-74894277Y7981326D01*
X-74781885Y8149533D01*
X-74704467Y8336435D01*
X-74665000Y8534849D01*
X-74665000Y8737151D01*
X-74704467Y8935565D01*
X-74781885Y9122467D01*
X-74894277Y9290674D01*
X-75037326Y9433723D01*
X-75205533Y9546115D01*
X-75392435Y9623533D01*
X-75590849Y9663000D01*
X-75793151Y9663000D01*
X-75991565Y9623533D01*
X-76178467Y9546115D01*
X-76346674Y9433723D01*
X-76489723Y9290674D01*
X-76602115Y9122467D01*
X-76679533Y8935565D01*
X-76719000Y8737151D01*
X-87757000Y8737151D01*
X-87757000Y14482873D01*
X-87739516Y14659846D01*
X-87689569Y14823959D01*
X-87608476Y14975123D01*
X-87499369Y15107495D01*
X-87366466Y15215960D01*
X-87214908Y15296320D01*
X-87050559Y15345468D01*
X-86873507Y15362093D01*
X-83821601Y15347278D01*
G37*
X-83821601Y15347278D02*
X-83865565Y15338533D01*
X-84052467Y15261115D01*
X-84220674Y15148723D01*
X-84363723Y15005674D01*
X-84476115Y14837467D01*
X-84553533Y14650565D01*
X-84593000Y14452151D01*
X-84593000Y14249849D01*
X-84553533Y14051435D01*
X-84476115Y13864533D01*
X-84363723Y13696326D01*
X-84220674Y13553277D01*
X-84052467Y13440885D01*
X-83865565Y13363467D01*
X-83667151Y13324000D01*
X-83464849Y13324000D01*
X-83266435Y13363467D01*
X-83079533Y13440885D01*
X-82911326Y13553277D01*
X-82768277Y13696326D01*
X-82655885Y13864533D01*
X-82578467Y14051435D01*
X-82539000Y14249849D01*
X-82539000Y14325151D01*
X-76719000Y14325151D01*
X-76719000Y14122849D01*
X-76679533Y13924435D01*
X-76602115Y13737533D01*
X-76489723Y13569326D01*
X-76346674Y13426277D01*
X-76178467Y13313885D01*
X-75991565Y13236467D01*
X-75793151Y13197000D01*
X-75590849Y13197000D01*
X-75392435Y13236467D01*
X-75205533Y13313885D01*
X-75037326Y13426277D01*
X-74894277Y13569326D01*
X-74781885Y13737533D01*
X-74704467Y13924435D01*
X-74665000Y14122849D01*
X-74665000Y14325151D01*
X-74704467Y14523565D01*
X-74781885Y14710467D01*
X-74894277Y14878674D01*
X-75037326Y15021723D01*
X-75205533Y15134115D01*
X-75392435Y15211533D01*
X-75590849Y15251000D01*
X-75793151Y15251000D01*
X-75991565Y15211533D01*
X-76178467Y15134115D01*
X-76346674Y15021723D01*
X-76489723Y14878674D01*
X-76602115Y14710467D01*
X-76679533Y14523565D01*
X-76719000Y14325151D01*
X-82539000Y14325151D01*
X-82539000Y14452151D01*
X-82578467Y14650565D01*
X-82655885Y14837467D01*
X-82768277Y15005674D01*
X-82911326Y15148723D01*
X-83079533Y15261115D01*
X-83266435Y15338533D01*
X-83297611Y15344734D01*
X-62723973Y15244862D01*
X-62548174Y15226739D01*
X-62385217Y15176604D01*
X-62235131Y15095736D01*
X-62103630Y14987214D01*
X-61995754Y14855196D01*
X-61915613Y14704713D01*
X-61866270Y14541518D01*
X-61849000Y14365625D01*
X-61849000Y2217627D01*
X-61866484Y2040654D01*
X-61916431Y1876541D01*
X-61997524Y1725377D01*
X-62106631Y1593005D01*
X-62239534Y1484540D01*
X-62391092Y1404180D01*
X-62555441Y1355032D01*
X-62732493Y1338407D01*
X-83863978Y1440987D01*
X-83848467Y1478435D01*
X-83809000Y1676849D01*
X-83809000Y1879151D01*
X-83848467Y2077565D01*
X-83925885Y2264467D01*
X-84038277Y2432674D01*
X-84181326Y2575723D01*
X-84279246Y2641151D01*
X-76719000Y2641151D01*
X-76719000Y2438849D01*
X-76679533Y2240435D01*
X-76602115Y2053533D01*
X-76489723Y1885326D01*
X-76346674Y1742277D01*
X-76178467Y1629885D01*
X-75991565Y1552467D01*
X-75793151Y1513000D01*
X-75590849Y1513000D01*
X-75392435Y1552467D01*
X-75205533Y1629885D01*
X-75037326Y1742277D01*
X-74894277Y1885326D01*
X-74781885Y2053533D01*
X-74704467Y2240435D01*
X-74665000Y2438849D01*
X-74665000Y2641151D01*
X-74704467Y2839565D01*
X-74781885Y3026467D01*
X-74894277Y3194674D01*
X-75037326Y3337723D01*
X-75205533Y3450115D01*
X-75392435Y3527533D01*
X-75590849Y3567000D01*
X-75793151Y3567000D01*
X-75991565Y3527533D01*
X-76178467Y3450115D01*
X-76346674Y3337723D01*
X-76489723Y3194674D01*
X-76602115Y3026467D01*
X-76679533Y2839565D01*
X-76719000Y2641151D01*
X-84279246Y2641151D01*
X-84317932Y2667000D01*
X-84181326Y2758277D01*
X-84038277Y2901326D01*
X-83925885Y3069533D01*
X-83848467Y3256435D01*
X-83809000Y3454849D01*
X-83809000Y3657151D01*
X-83848467Y3855565D01*
X-83925885Y4042467D01*
X-84038277Y4210674D01*
X-84181326Y4353723D01*
X-84349533Y4466115D01*
X-84536435Y4543533D01*
X-84734849Y4583000D01*
X-84937151Y4583000D01*
X-85135565Y4543533D01*
X-85322467Y4466115D01*
X-85490674Y4353723D01*
X-85633723Y4210674D01*
X-85746115Y4042467D01*
X-85823533Y3855565D01*
X-85863000Y3657151D01*
X-85863000Y3454849D01*
X-85823533Y3256435D01*
X-85746115Y3069533D01*
X-85633723Y2901326D01*
X-85490674Y2758277D01*
X-85354068Y2667000D01*
X-85490674Y2575723D01*
X-85633723Y2432674D01*
X-85746115Y2264467D01*
X-85823533Y2077565D01*
X-85863000Y1879151D01*
X-85863000Y1676849D01*
X-85823533Y1478435D01*
X-85811938Y1450443D01*
X-86882027Y1455638D01*
X-87057826Y1473761D01*
X-87220783Y1523896D01*
X-87370869Y1604764D01*
X-87502370Y1713286D01*
X-87610246Y1845304D01*
X-87690387Y1995787D01*
X-87739730Y2158982D01*
X-87757000Y2334875D01*
X-87757000Y5881000D01*
X-86578072Y5881000D01*
X-86565812Y5756518D01*
X-86529502Y5636820D01*
X-86470537Y5526506D01*
X-86391185Y5429815D01*
X-86294494Y5350463D01*
X-86184180Y5291498D01*
X-86064482Y5255188D01*
X-85940000Y5242928D01*
X-85375750Y5246000D01*
X-85217000Y5404750D01*
X-85217000Y6604000D01*
X-84963000Y6604000D01*
X-84963000Y5404750D01*
X-84804250Y5246000D01*
X-84240000Y5242928D01*
X-84115518Y5255188D01*
X-83995820Y5291498D01*
X-83885506Y5350463D01*
X-83788815Y5429815D01*
X-83709463Y5526506D01*
X-83650498Y5636820D01*
X-83614188Y5756518D01*
X-83601928Y5881000D01*
X-83605000Y6445250D01*
X-83763750Y6604000D01*
X-84963000Y6604000D01*
X-85217000Y6604000D01*
X-86416250Y6604000D01*
X-86575000Y6445250D01*
X-86578072Y5881000D01*
X-87757000Y5881000D01*
X-87757000Y7581000D01*
X-86578072Y7581000D01*
X-86575000Y7016750D01*
X-86416250Y6858000D01*
X-85217000Y6858000D01*
X-85217000Y8057250D01*
X-84963000Y8057250D01*
X-84963000Y6858000D01*
X-83763750Y6858000D01*
X-83605000Y7016750D01*
X-83601928Y7581000D01*
X-83614188Y7705482D01*
X-83650498Y7825180D01*
X-83709463Y7935494D01*
X-83788815Y8032185D01*
X-83885506Y8111537D01*
X-83995820Y8170502D01*
X-84115518Y8206812D01*
X-84240000Y8219072D01*
X-84804250Y8216000D01*
X-84963000Y8057250D01*
X-85217000Y8057250D01*
X-85375750Y8216000D01*
X-85940000Y8219072D01*
X-86064482Y8206812D01*
X-86184180Y8170502D01*
X-86294494Y8111537D01*
X-86391185Y8032185D01*
X-86470537Y7935494D01*
X-86529502Y7825180D01*
X-86565812Y7705482D01*
X-86578072Y7581000D01*
X-87757000Y7581000D01*
X-87757000Y8737151D01*
X-76719000Y8737151D01*
X-76719000Y8534849D01*
X-76679533Y8336435D01*
X-76602115Y8149533D01*
X-76489723Y7981326D01*
X-76346674Y7838277D01*
X-76178467Y7725885D01*
X-75991565Y7648467D01*
X-75793151Y7609000D01*
X-75590849Y7609000D01*
X-75392435Y7648467D01*
X-75205533Y7725885D01*
X-75037326Y7838277D01*
X-74894277Y7981326D01*
X-74781885Y8149533D01*
X-74704467Y8336435D01*
X-74665000Y8534849D01*
X-74665000Y8737151D01*
X-74704467Y8935565D01*
X-74781885Y9122467D01*
X-74894277Y9290674D01*
X-75037326Y9433723D01*
X-75205533Y9546115D01*
X-75392435Y9623533D01*
X-75590849Y9663000D01*
X-75793151Y9663000D01*
X-75991565Y9623533D01*
X-76178467Y9546115D01*
X-76346674Y9433723D01*
X-76489723Y9290674D01*
X-76602115Y9122467D01*
X-76679533Y8935565D01*
X-76719000Y8737151D01*
X-87757000Y8737151D01*
X-87757000Y14482873D01*
X-87739516Y14659846D01*
X-87689569Y14823959D01*
X-87608476Y14975123D01*
X-87499369Y15107495D01*
X-87366466Y15215960D01*
X-87214908Y15296320D01*
X-87050559Y15345468D01*
X-86873507Y15362093D01*
X-83821601Y15347278D01*
%TD*%
M02*
